M48
; DRILL file {KiCad 8.0.3} date 2024-07-16T16:01:19-0300
; FORMAT={-:-/ absolute / inch / decimal}
; #@! TF.CreationDate,2024-07-16T16:01:19-03:00
; #@! TF.GenerationSoftware,Kicad,Pcbnew,8.0.3
; #@! TF.FileFunction,NonPlated,1,2,NPTH
FMAT,2
INCH
; #@! TA.AperFunction,NonPlated,NPTH,ComponentDrill
T1C0.0157
; #@! TA.AperFunction,NonPlated,NPTH,ComponentDrill
T2C0.0256
; #@! TA.AperFunction,NonPlated,NPTH,ComponentDrill
T3C0.0866
; #@! TA.AperFunction,NonPlated,NPTH,ComponentDrill
T4C0.2402
%
G90
G05
T1
X1.8913Y-1.5453
X1.8913Y-1.5689
X1.8913Y-1.5925
X1.8913Y-2.6083
X1.8913Y-2.6319
X1.8913Y-2.6555
X1.8913Y-3.2776
X1.8913Y-3.3012
X1.8913Y-3.3248
X1.8913Y-4.5965
X1.8913Y-4.6201
X1.8913Y-4.6437
X1.9465Y-1.5453
X1.9465Y-1.5689
X1.9465Y-1.5925
X1.9465Y-2.6083
X1.9465Y-2.6319
X1.9465Y-2.6555
X1.9465Y-3.2776
X1.9465Y-3.3012
X1.9465Y-3.3248
X1.9465Y-4.5965
X1.9465Y-4.6201
X1.9465Y-4.6437
X2.3571Y-4.5929
X2.3571Y-4.6165
X2.3571Y-4.6402
X2.3579Y-3.2732
X2.3579Y-3.2969
X2.3579Y-3.3205
X2.3587Y-1.5413
X2.3587Y-1.565
X2.3587Y-1.5886
X2.3594Y-2.6047
X2.3594Y-2.6283
X2.3594Y-2.652
X2.4122Y-4.5929
X2.4122Y-4.6165
X2.4122Y-4.6402
X2.413Y-3.2732
X2.413Y-3.2969
X2.413Y-3.3205
X2.4138Y-1.5413
X2.4138Y-1.565
X2.4138Y-1.5886
X2.4146Y-2.6047
X2.4146Y-2.6283
X2.4146Y-2.652
T2
X1.4079Y-4.4787
X1.5291Y-3.1276
X1.5291Y-3.3551
X1.6354Y-4.4787
T3
X2.6354Y-2.8287
X2.6354Y-2.9665
T4
X2.6228Y-4.9444
X2.6238Y-1.1855
M30
