%TF.GenerationSoftware,KiCad,Pcbnew,8.0.3*%
%TF.CreationDate,2024-07-16T15:40:11-03:00*%
%TF.ProjectId,IPS2,49505332-2e6b-4696-9361-645f70636258,rev?*%
%TF.SameCoordinates,Original*%
%TF.FileFunction,Copper,L2,Bot*%
%TF.FilePolarity,Positive*%
%FSLAX46Y46*%
G04 Gerber Fmt 4.6, Leading zero omitted, Abs format (unit mm)*
G04 Created by KiCad (PCBNEW 8.0.3) date 2024-07-16 15:40:11*
%MOMM*%
%LPD*%
G01*
G04 APERTURE LIST*
%TA.AperFunction,ComponentPad*%
%ADD10R,1.700000X1.700000*%
%TD*%
%TA.AperFunction,ComponentPad*%
%ADD11O,1.700000X1.700000*%
%TD*%
%TA.AperFunction,ComponentPad*%
%ADD12C,0.600000*%
%TD*%
%TA.AperFunction,ComponentPad*%
%ADD13C,2.000000*%
%TD*%
%TA.AperFunction,ComponentPad*%
%ADD14O,2.500000X1.500000*%
%TD*%
%TA.AperFunction,ComponentPad*%
%ADD15O,2.500000X1.600000*%
%TD*%
%TA.AperFunction,ComponentPad*%
%ADD16O,2.400000X1.600000*%
%TD*%
%TA.AperFunction,ComponentPad*%
%ADD17O,2.100000X1.000000*%
%TD*%
%TA.AperFunction,ComponentPad*%
%ADD18O,1.800000X1.000000*%
%TD*%
%TA.AperFunction,ComponentPad*%
%ADD19C,0.800000*%
%TD*%
%TA.AperFunction,ComponentPad*%
%ADD20C,5.500000*%
%TD*%
%TA.AperFunction,ComponentPad*%
%ADD21C,1.100000*%
%TD*%
%TA.AperFunction,ComponentPad*%
%ADD22O,1.000000X1.800000*%
%TD*%
%TA.AperFunction,ComponentPad*%
%ADD23O,1.000000X2.100000*%
%TD*%
%TA.AperFunction,SMDPad,CuDef*%
%ADD24R,1.500000X1.500000*%
%TD*%
%TA.AperFunction,ViaPad*%
%ADD25C,0.600000*%
%TD*%
%TA.AperFunction,ViaPad*%
%ADD26C,0.650000*%
%TD*%
%TA.AperFunction,ViaPad*%
%ADD27C,1.000000*%
%TD*%
%TA.AperFunction,Conductor*%
%ADD28C,0.250000*%
%TD*%
%TA.AperFunction,Conductor*%
%ADD29C,0.500000*%
%TD*%
%TA.AperFunction,Conductor*%
%ADD30C,1.000000*%
%TD*%
G04 APERTURE END LIST*
D10*
%TO.P,P1,1*%
%TO.N,Net-(C13-Pad1)*%
X35070000Y-96770000D03*
D11*
%TO.P,P1,2*%
X37610000Y-96770000D03*
%TO.P,P1,3*%
%TO.N,Earth*%
X35070000Y-99310000D03*
%TO.P,P1,4*%
X37610000Y-99310000D03*
%TO.P,P1,5*%
X35070000Y-101850000D03*
%TO.P,P1,6*%
X37610000Y-101850000D03*
%TO.P,P1,7*%
X35070000Y-104390000D03*
%TO.P,P1,8*%
X37610000Y-104390000D03*
%TO.P,P1,9*%
%TO.N,Net-(C12-Pad1)*%
X35070000Y-106930000D03*
%TO.P,P1,10*%
X37610000Y-106930000D03*
%TD*%
D12*
%TO.P,U1,25*%
%TO.N,Earth*%
X41329000Y-55539000D03*
X41329000Y-53761000D03*
D13*
X40440000Y-54650000D03*
D12*
X39551000Y-55539000D03*
X39551000Y-53761000D03*
%TD*%
D14*
%TO.P,SHUT_M1,3*%
%TO.N,Net-(R10-Pad1)*%
X54740000Y-130770000D03*
D15*
%TO.P,SHUT_M1,2*%
%TO.N,Net-(J3-Pad1)*%
X54740000Y-122470000D03*
D16*
%TO.P,SHUT_M1,1*%
%TO.N,Earth*%
X54740000Y-120050000D03*
%TD*%
%TO.P,SHUT_P1,1*%
%TO.N,Earth*%
X54740000Y-35650000D03*
D15*
%TO.P,SHUT_P1,2*%
%TO.N,Net-(J3-Pad2)*%
X54740000Y-33230000D03*
D14*
%TO.P,SHUT_P1,3*%
%TO.N,Net-(R8-Pad1)*%
X54740000Y-24930000D03*
%TD*%
D11*
%TO.P,J3,2*%
%TO.N,Net-(J3-Pad2)*%
X51040000Y-117500000D03*
D10*
%TO.P,J3,1*%
%TO.N,Net-(J3-Pad1)*%
X51040000Y-120040000D03*
%TD*%
D17*
%TO.P,J1,S1*%
%TO.N,Earth*%
X39360000Y-78010000D03*
D18*
X35160000Y-78010000D03*
D17*
X39360000Y-86650000D03*
D18*
X35160000Y-86650000D03*
%TD*%
D19*
%TO.P,T9,1*%
%TO.N,Net-(T9-Pad1)*%
X39840000Y-41190000D03*
X40490000Y-39640000D03*
X40490000Y-42740000D03*
X42040000Y-38990000D03*
D20*
X42040000Y-41190000D03*
D19*
X42040000Y-43390000D03*
X43590000Y-39640000D03*
X43590000Y-42740000D03*
X44240000Y-41190000D03*
%TD*%
D21*
%TO.P,T7,1*%
%TO.N,Earth*%
X54740000Y-37450000D03*
%TD*%
%TO.P,T8,1*%
%TO.N,Earth*%
X42740000Y-37350000D03*
%TD*%
D22*
%TO.P,J4,S1*%
%TO.N,Earth*%
X42970000Y-117440000D03*
D23*
X42970000Y-113240000D03*
D22*
X34330000Y-117440000D03*
D23*
X34330000Y-113240000D03*
%TD*%
D10*
%TO.P,J2,1*%
%TO.N,V_INPUT*%
X37940000Y-89450000D03*
D11*
%TO.P,J2,2*%
%TO.N,Earth*%
X35400000Y-89450000D03*
%TD*%
D21*
%TO.P,T1,1*%
%TO.N,V_INPUT*%
X51240000Y-115450000D03*
D24*
X51240000Y-115450000D03*
%TD*%
D21*
%TO.P,T2,1*%
%TO.N,V_INPUT*%
X46240000Y-115450000D03*
D24*
X46240000Y-115450000D03*
%TD*%
D21*
%TO.P,T3,1*%
%TO.N,Net-(J5-Pad2)*%
X46440000Y-37450000D03*
D24*
X46440000Y-37450000D03*
%TD*%
D21*
%TO.P,T4,1*%
%TO.N,Net-(J5-Pad2)*%
X51340000Y-37450000D03*
D24*
X51340000Y-37450000D03*
%TD*%
%TO.P,T5,1*%
%TO.N,Net-(J6-Pad2)*%
X46440000Y-41550000D03*
D21*
X46440000Y-41550000D03*
%TD*%
%TO.P,T6,1*%
%TO.N,Net-(J6-Pad2)*%
X51240000Y-41550000D03*
D24*
X51240000Y-41550000D03*
%TD*%
D25*
%TO.N,Earth*%
X51540000Y-49350000D03*
X51540000Y-50850000D03*
X51540000Y-52350000D03*
X51540000Y-53850000D03*
X51540000Y-55350000D03*
X51540000Y-56850000D03*
X51540000Y-58350000D03*
X51540000Y-59850000D03*
X51540000Y-61350000D03*
X51540000Y-62850000D03*
D26*
X43640000Y-70800000D03*
D25*
X37040000Y-38950000D03*
X43640000Y-58150000D03*
D26*
X45740000Y-67600000D03*
D25*
X39640000Y-37600000D03*
X45240000Y-87350000D03*
X42940000Y-102850000D03*
X45840000Y-85550000D03*
D26*
X45590000Y-70150000D03*
X45690000Y-68250000D03*
D25*
X45939980Y-58150000D03*
X39040000Y-39400000D03*
D26*
X42990000Y-70150000D03*
D25*
X45240000Y-86750000D03*
X43640000Y-56350000D03*
D26*
X44940004Y-68850000D03*
X44440000Y-67600000D03*
D25*
X46440000Y-87350000D03*
X44840000Y-56350000D03*
X42940000Y-100450000D03*
D26*
X43640000Y-70150000D03*
D25*
X44240000Y-56950000D03*
D26*
X40339994Y-50450000D03*
D25*
X46440008Y-85550000D03*
D26*
X44940000Y-70150000D03*
D25*
X47040000Y-87350000D03*
X44840000Y-56950000D03*
X35040000Y-92550000D03*
X44840000Y-57550000D03*
X58740000Y-113350000D03*
X37040000Y-41350000D03*
X51540000Y-47950000D03*
X35040000Y-91850000D03*
X35740000Y-93950000D03*
X45939980Y-57550000D03*
X39640000Y-38200000D03*
X37040000Y-42550000D03*
X35740000Y-92550000D03*
X37040000Y-40150000D03*
D26*
X44940000Y-69499998D03*
D25*
X42940000Y-104450000D03*
D26*
X45590000Y-70800000D03*
D25*
X42940000Y-102050000D03*
X37450000Y-57510000D03*
X45939980Y-56950000D03*
X39040000Y-38200000D03*
X45440000Y-58150000D03*
D26*
X42940000Y-108950000D03*
X45590000Y-68850000D03*
D25*
X44240000Y-55750000D03*
X43640000Y-56950000D03*
X37040000Y-39550000D03*
X45840000Y-86750000D03*
D26*
X44290000Y-69500000D03*
D25*
X37040000Y-41950000D03*
X37040000Y-40750000D03*
X37240000Y-44950000D03*
X42940000Y-105250000D03*
D26*
X44940000Y-70800000D03*
X42940000Y-110350000D03*
D25*
X35740000Y-91850000D03*
X46440000Y-86750000D03*
X44240000Y-58150000D03*
X40240000Y-37600000D03*
X45840000Y-86150000D03*
D26*
X42240000Y-109650000D03*
D25*
X44840000Y-58150000D03*
X35740000Y-93250000D03*
D26*
X44290000Y-70800000D03*
D25*
X39040000Y-37600000D03*
X35040000Y-91150000D03*
X45840000Y-87350000D03*
X46440000Y-84349994D03*
X37040000Y-43750000D03*
X45840000Y-84350000D03*
X44240000Y-56350000D03*
D26*
X44440000Y-68249996D03*
D25*
X46439997Y-84949997D03*
X45840000Y-84950000D03*
D26*
X45090000Y-67600000D03*
D25*
X46440000Y-86150000D03*
X39740000Y-51050000D03*
X45440000Y-56950000D03*
D26*
X42940000Y-109650000D03*
D25*
X35040000Y-93250000D03*
X42940000Y-98850000D03*
X43640000Y-55750000D03*
X37040000Y-43150000D03*
X58740000Y-115550000D03*
D26*
X44289996Y-70150000D03*
D25*
X45440000Y-56350000D03*
X42940000Y-103650000D03*
D26*
X44290000Y-68850000D03*
D25*
X37640000Y-46150000D03*
D26*
X45590000Y-69500000D03*
D25*
X47040000Y-86750000D03*
D26*
X45040000Y-68250000D03*
D25*
X45939980Y-56350000D03*
X39040000Y-38800000D03*
X44640000Y-87350000D03*
X35740000Y-91150000D03*
X37040000Y-44350000D03*
X42940000Y-99650000D03*
X43640000Y-57550000D03*
X42940000Y-101250000D03*
X44240000Y-57550000D03*
X45440000Y-57550000D03*
X37440000Y-45550000D03*
X35040000Y-93950000D03*
%TO.N,Net-(C3-Pad1)*%
X45420000Y-52250000D03*
X44186274Y-54247181D03*
%TO.N,Net-(Q1-Pad1)*%
X57146137Y-114277001D03*
X52240000Y-34850000D03*
%TO.N,Net-(J5-Pad2)*%
X50740000Y-39150000D03*
X51440000Y-111550000D03*
X44329061Y-52039414D03*
X50490000Y-43200000D03*
X46160002Y-48950000D03*
%TO.N,Net-(J6-Pad2)*%
X44360000Y-51240000D03*
X45540000Y-43750000D03*
X55040000Y-115650000D03*
%TO.N,Net-(C12-Pad1)*%
X36240000Y-65050000D03*
X36240000Y-64450000D03*
X38640000Y-65050000D03*
X38040000Y-64450000D03*
X38640000Y-64450000D03*
X37440000Y-64450000D03*
X36865000Y-72225000D03*
X38040000Y-65050000D03*
X37440000Y-66250000D03*
X36840000Y-64450000D03*
X37440000Y-65050000D03*
X37440000Y-65650000D03*
X36840000Y-65050000D03*
%TO.N,Net-(J3-Pad2)*%
X58140000Y-90050000D03*
X51540000Y-91650000D03*
D27*
%TO.N,Net-(C13-Pad1)*%
X41750000Y-90800002D03*
D25*
X36040000Y-43750000D03*
X36040000Y-38950000D03*
X36040000Y-39550000D03*
X36040000Y-43150000D03*
X36040000Y-41350000D03*
D27*
X41760000Y-89800000D03*
D25*
X36040000Y-40150000D03*
X36040000Y-40750000D03*
X36040000Y-41950000D03*
X36040000Y-42550000D03*
D27*
X41750000Y-91800000D03*
D25*
X40290000Y-71130000D03*
%TO.N,V_INPUT*%
X51540000Y-113050000D03*
X46020000Y-52880000D03*
X39960000Y-111290000D03*
D27*
X39940000Y-93050000D03*
D25*
X56940000Y-115049999D03*
X37510000Y-111300000D03*
X56040000Y-118250000D03*
X46839998Y-45850008D03*
%TD*%
D28*
%TO.N,Earth*%
X5900000Y-13750000D02*
X5900000Y-14350000D01*
D29*
X11850000Y-45650000D02*
X11850000Y-46300000D01*
D28*
X9900000Y-31900000D02*
X10500000Y-31900000D01*
D29*
X10550000Y-45650000D02*
X11199998Y-45650000D01*
D28*
X11100000Y-34300000D02*
X11100000Y-33700000D01*
X10500000Y-32500000D02*
X9900000Y-32500000D01*
X12099997Y-62299997D02*
X12100000Y-62300000D01*
X11700000Y-33700000D02*
X11700000Y-34300000D01*
X11500000Y-62900000D02*
X12100000Y-62900000D01*
D29*
X2000000Y-69400000D02*
X2000000Y-68700000D01*
D28*
X9200000Y-79000000D02*
X9200000Y-78200000D01*
X12199980Y-32500000D02*
X12199980Y-33100000D01*
X5300000Y-14350000D02*
X5300000Y-13750000D01*
X11500000Y-60500000D02*
X11500000Y-61100000D01*
X3500000Y-21500000D02*
X3700000Y-21700000D01*
D29*
X11199998Y-45650000D02*
X11200000Y-45649998D01*
D28*
X3300000Y-17500000D02*
X3300000Y-18100000D01*
X11100000Y-33100000D02*
X11100000Y-32500000D01*
X9200000Y-75800000D02*
X9200000Y-75000000D01*
X12099997Y-61099997D02*
X12099997Y-62299997D01*
X9200000Y-85100000D02*
X9200000Y-81400000D01*
D29*
X9900000Y-46300000D02*
X9250000Y-46300000D01*
D28*
X12100000Y-63500000D02*
X11500000Y-63500000D01*
X9200000Y-85100000D02*
X8500000Y-85800000D01*
X5300000Y-15550000D02*
X5300000Y-14950000D01*
X11700000Y-32500000D02*
X11700000Y-33100000D01*
D29*
X11200000Y-46300000D02*
X11200000Y-46950000D01*
X1300000Y-68700000D02*
X1300000Y-69400000D01*
D28*
X9900000Y-34300000D02*
X10500000Y-34300000D01*
X12100000Y-61110013D02*
X12100000Y-60924258D01*
D29*
X2000000Y-68000000D02*
X2000000Y-67300000D01*
X11300000Y-44400000D02*
X10700004Y-44400000D01*
D28*
X10500000Y-33700000D02*
X9900000Y-33700000D01*
D29*
X1300000Y-70100000D02*
X2000000Y-70100000D01*
D28*
X11500000Y-61700000D02*
X11500000Y-62300000D01*
X9200000Y-77400000D02*
X9200000Y-76600000D01*
X3300000Y-15100000D02*
X3300000Y-15700000D01*
X12700000Y-62900000D02*
X13300000Y-62900000D01*
X3300000Y-19900000D02*
X3300000Y-20500000D01*
D29*
X11950000Y-44400000D02*
X11950000Y-44900000D01*
D28*
X12100000Y-60924258D02*
X12100000Y-60499994D01*
D29*
X10700000Y-44399996D02*
X10700000Y-43750000D01*
D28*
X13300000Y-63500000D02*
X12700000Y-63500000D01*
X11500000Y-61700000D02*
X12100008Y-61700000D01*
D29*
X10800000Y-44400000D02*
X11300000Y-44400000D01*
D28*
X3500000Y-21100000D02*
X3500000Y-21500000D01*
D29*
X11200000Y-46300000D02*
X10549996Y-46300000D01*
D28*
X3300000Y-16300000D02*
X3300000Y-16900000D01*
X9900000Y-33100000D02*
X10500000Y-33100000D01*
D29*
X11950000Y-44900000D02*
X11850000Y-45000000D01*
D28*
X12199980Y-33700000D02*
X12199980Y-34300000D01*
X9200000Y-80600000D02*
X9200000Y-79800000D01*
D29*
X10550000Y-45000000D02*
X11200004Y-45000000D01*
X10700004Y-44400000D02*
X10700000Y-44399996D01*
D28*
X3300000Y-18700000D02*
X3300000Y-19300000D01*
X9200000Y-86500000D02*
X9200000Y-85800000D01*
D29*
X11350000Y-43750000D02*
X12000000Y-43750000D01*
X10700000Y-44500000D02*
X10800000Y-44400000D01*
X10550000Y-46950000D02*
X9900000Y-46950000D01*
D28*
X25000000Y-89500000D02*
X25000000Y-91700000D01*
D29*
X1300000Y-67300000D02*
X1300000Y-68000000D01*
D28*
%TO.N,Net-(C3-Pad1)*%
X10450000Y-29630000D02*
X11380001Y-28699999D01*
X10450000Y-30393455D02*
X10450000Y-29630000D01*
X10446274Y-30397181D02*
X10450000Y-30393455D01*
X11380001Y-28699999D02*
X11680000Y-28400000D01*
%TO.N,Net-(Q1-Pad1)*%
X25300000Y-66200000D02*
X24449989Y-67050011D01*
X18825010Y-10674990D02*
X23374990Y-10674990D01*
X18500000Y-11000000D02*
X18825010Y-10674990D01*
X24449989Y-67050011D02*
X19649989Y-67050011D01*
X19100000Y-87800000D02*
X19700000Y-88400000D01*
X19100000Y-67600000D02*
X19100000Y-87800000D01*
X21379136Y-88400000D02*
X23106138Y-90127002D01*
X19700000Y-88400000D02*
X21379136Y-88400000D01*
X19649989Y-67050011D02*
X19100000Y-67600000D01*
X23374990Y-10674990D02*
X25300000Y-12600000D01*
X25300000Y-12600000D02*
X25300000Y-66200000D01*
X23106138Y-90127002D02*
X23406137Y-90427001D01*
%TO.N,Net-(J5-Pad2)*%
X12420002Y-24675736D02*
X12420002Y-25100000D01*
X17600000Y-13600000D02*
X17600000Y-14700000D01*
X17299999Y-15000001D02*
X17000000Y-15300000D01*
X11500000Y-15800000D02*
X11500000Y-18700000D01*
X12420002Y-26484264D02*
X10714852Y-28189414D01*
X10714852Y-28189414D02*
X10589061Y-28189414D01*
X17600000Y-14700000D02*
X17299999Y-15000001D01*
X11500000Y-18700000D02*
X12430000Y-19630000D01*
X12420002Y-25100000D02*
X12420002Y-26484264D01*
X12700000Y-14600000D02*
X11500000Y-15800000D01*
X12430000Y-19630000D02*
X12430000Y-24665738D01*
X12700000Y-13600000D02*
X12700000Y-14600000D01*
X12430000Y-24665738D02*
X12420002Y-24675736D01*
X16600000Y-86600000D02*
X16600000Y-19500000D01*
X16600000Y-19500000D02*
X16750000Y-19350000D01*
X17700000Y-87700000D02*
X16600000Y-86600000D01*
%TO.N,Net-(J6-Pad2)*%
X18425001Y-87111412D02*
X17100000Y-85786411D01*
X10620000Y-26965736D02*
X10620000Y-27390000D01*
X17500000Y-20700000D02*
X17500000Y-17700000D01*
X10620000Y-21080000D02*
X10620000Y-26965736D01*
X17100000Y-21100000D02*
X17500000Y-20700000D01*
X21300000Y-90400000D02*
X20700000Y-89800000D01*
X17600000Y-17618198D02*
X17624999Y-17593199D01*
X18725000Y-89800000D02*
X18425001Y-89500001D01*
X18425001Y-89500001D02*
X18425001Y-87111412D01*
X20700000Y-89800000D02*
X18725000Y-89800000D01*
X17100000Y-85786411D02*
X17100000Y-21100000D01*
X21300000Y-91800000D02*
X21300000Y-90400000D01*
X11800000Y-19900000D02*
X10620000Y-21080000D01*
D30*
%TO.N,Net-(C12-Pad1)*%
X4600000Y-47800000D02*
X4600000Y-54800000D01*
D28*
X4300000Y-40600000D02*
X4900000Y-40600000D01*
D30*
X6700000Y-56893998D02*
X6700000Y-60106002D01*
X6700000Y-60106002D02*
X5900000Y-60906002D01*
X4000000Y-70100000D02*
X6000000Y-72100000D01*
X5900000Y-66723996D02*
X4000000Y-68623996D01*
D28*
X4600000Y-42100000D02*
X4600000Y-41875002D01*
X3700000Y-41200000D02*
X3100000Y-41200000D01*
X3100000Y-40600000D02*
X3700000Y-40600000D01*
D30*
X3900000Y-83050000D02*
X3870000Y-83080000D01*
D28*
X3700000Y-41800000D02*
X3700000Y-42400000D01*
X3125000Y-48375000D02*
X3700000Y-47800000D01*
D30*
X4600000Y-54800000D02*
X4849999Y-55049999D01*
X4800000Y-83050000D02*
X3900000Y-83050000D01*
X4600000Y-42100000D02*
X4600000Y-47800000D01*
X4000000Y-68623996D02*
X4000000Y-70100000D01*
X6000000Y-72100000D02*
X6000000Y-81850000D01*
X6000000Y-81850000D02*
X4800000Y-83050000D01*
D28*
X4900000Y-41200000D02*
X4300000Y-41200000D01*
X3700000Y-47800000D02*
X4600000Y-47800000D01*
D30*
X4856001Y-55049999D02*
X6700000Y-56893998D01*
X4849999Y-55049999D02*
X4856001Y-55049999D01*
X5900000Y-60906002D02*
X5900000Y-66723996D01*
D28*
X2500000Y-41200000D02*
X2500000Y-40600000D01*
%TO.N,Net-(J3-Pad2)*%
X19000000Y-66600000D02*
X18099999Y-67500001D01*
X24000000Y-66600000D02*
X19000000Y-66600000D01*
X18099999Y-67500001D02*
X17800000Y-67800000D01*
X24400000Y-66200000D02*
X24000000Y-66600000D01*
D30*
%TO.N,Net-(C13-Pad1)*%
X10600000Y-61760000D02*
X8020000Y-64340000D01*
X8010000Y-66950002D02*
X8010000Y-65960000D01*
X8010000Y-67950000D02*
X8010000Y-66950002D01*
D28*
X6550000Y-45820000D02*
X6550000Y-46855736D01*
D30*
X8020000Y-64340000D02*
X8020000Y-65242894D01*
D28*
X6670000Y-45700000D02*
X6550000Y-45820000D01*
D30*
X6900000Y-39100000D02*
X6900000Y-45700000D01*
D28*
X6550000Y-46855736D02*
X6550000Y-47280000D01*
X2300000Y-18700000D02*
X2300000Y-19300000D01*
D30*
X2300000Y-22700000D02*
X2300000Y-34500000D01*
D28*
X2300000Y-15100000D02*
X2300000Y-15700000D01*
D30*
X2300000Y-34500000D02*
X6900000Y-39100000D01*
X8020000Y-65242894D02*
X8020000Y-65950000D01*
X10600000Y-49400000D02*
X10600000Y-61760000D01*
D28*
X2300000Y-17500000D02*
X2300000Y-18100000D01*
D30*
X6900000Y-45700000D02*
X10600000Y-49400000D01*
D28*
X2300000Y-16300000D02*
X2300000Y-16900000D01*
D30*
X8010000Y-65960000D02*
X8020000Y-65950000D01*
D28*
X6900000Y-45700000D02*
X6670000Y-45700000D01*
%TO.N,V_INPUT*%
X13099998Y-22000008D02*
X13099998Y-28210002D01*
D29*
X7900000Y-84300000D02*
X7900000Y-70800002D01*
D28*
X3800000Y-87440000D02*
X3800000Y-86980381D01*
X6200000Y-86980381D02*
X6460381Y-86720000D01*
X9069090Y-91600000D02*
X11500000Y-91600000D01*
D29*
X6200000Y-86000000D02*
X7900000Y-84300000D01*
D28*
X12579999Y-28730001D02*
X12280000Y-29030000D01*
X8444990Y-89231730D02*
X8450001Y-89236741D01*
X4060381Y-86720000D02*
X5939619Y-86720000D01*
X13099998Y-28210002D02*
X12579999Y-28730001D01*
X23200000Y-93500000D02*
X23200000Y-91624263D01*
X9064545Y-91604545D02*
X9069090Y-91600000D01*
D29*
X6200000Y-87440000D02*
X6200000Y-86000000D01*
D28*
X8444990Y-87948270D02*
X8444990Y-89231730D01*
X8450001Y-89236741D02*
X8450001Y-90990001D01*
D29*
X7900000Y-70800002D02*
X6799999Y-69700001D01*
D28*
X8450001Y-87943259D02*
X8444990Y-87948270D01*
X17500000Y-89500000D02*
X17500000Y-91600000D01*
X5939619Y-86720000D02*
X6200000Y-86980381D01*
X8450001Y-87020001D02*
X8450001Y-87943259D01*
X6460381Y-86720000D02*
X8150000Y-86720000D01*
X11500000Y-91600000D02*
X12500000Y-91600000D01*
X23200000Y-91624263D02*
X23200000Y-91199999D01*
X6200000Y-86980381D02*
X6200000Y-87440000D01*
D29*
X6799999Y-69700001D02*
X6300000Y-69200002D01*
D28*
X3800000Y-86980381D02*
X4060381Y-86720000D01*
X22300000Y-94400000D02*
X23200000Y-93500000D01*
X17800000Y-89200000D02*
X17500000Y-89500000D01*
X8150000Y-86720000D02*
X8450001Y-87020001D01*
X8450001Y-90990001D02*
X9064545Y-91604545D01*
%TD*%
M02*
