%TF.GenerationSoftware,KiCad,Pcbnew,8.0.3*%
%TF.CreationDate,2024-07-16T16:01:19-03:00*%
%TF.ProjectId,IPS2,49505332-2e6b-4696-9361-645f70636258,rev?*%
%TF.SameCoordinates,Original*%
%TF.FileFunction,Paste,Top*%
%TF.FilePolarity,Positive*%
%FSLAX46Y46*%
G04 Gerber Fmt 4.6, Leading zero omitted, Abs format (unit mm)*
G04 Created by KiCad (PCBNEW 8.0.3) date 2024-07-16 16:01:19*
%MOMM*%
%LPD*%
G01*
G04 APERTURE LIST*
%ADD10R,1.500000X2.400000*%
%ADD11R,0.750000X0.800000*%
%ADD12R,0.800000X0.750000*%
%ADD13R,1.800000X4.200000*%
%ADD14R,4.200000X1.800000*%
%ADD15R,0.900000X0.700000*%
%ADD16R,0.950000X0.300000*%
%ADD17R,0.300000X0.950000*%
%ADD18R,0.780000X0.780000*%
%ADD19R,1.100000X1.100000*%
%ADD20R,1.270000X0.965200*%
%ADD21R,1.600000X1.000000*%
%ADD22R,1.000000X1.600000*%
%ADD23R,0.900000X0.800000*%
%ADD24R,0.700000X0.900000*%
%ADD25R,0.900000X1.300000*%
%ADD26R,1.300000X0.900000*%
%ADD27R,1.240000X0.600000*%
%ADD28R,1.240000X0.300000*%
%ADD29R,1.500000X1.500000*%
%ADD30R,0.600000X1.240000*%
%ADD31R,0.300000X1.240000*%
G04 APERTURE END LIST*
D10*
%TO.C,C1*%
X46590000Y-74930000D03*
X40190000Y-74930000D03*
%TD*%
D11*
%TO.C,C3*%
X45240000Y-51700000D03*
X45240000Y-50200000D03*
%TD*%
D12*
%TO.C,C4*%
X37390000Y-58750000D03*
X35890000Y-58750000D03*
%TD*%
%TO.C,C5*%
X36190000Y-57200000D03*
X34690000Y-57200000D03*
%TD*%
%TO.C,C7*%
X34690000Y-55650000D03*
X36190000Y-55650000D03*
%TD*%
D13*
%TO.C,L1*%
X42030000Y-62630000D03*
X45230000Y-62630000D03*
%TD*%
D14*
%TO.C,L2*%
X42240000Y-45200000D03*
X42240000Y-48400000D03*
%TD*%
D15*
%TO.C,R1*%
X46840000Y-51600000D03*
X46840000Y-53300000D03*
%TD*%
D16*
%TO.C,U1*%
X42440000Y-55900000D03*
X42440000Y-55400000D03*
X42440000Y-54900000D03*
X42440000Y-54400000D03*
X42440000Y-53900000D03*
X42440000Y-53400000D03*
D17*
X41690000Y-52650000D03*
X41190000Y-52650000D03*
X40690000Y-52650000D03*
X40190000Y-52650000D03*
X39690000Y-52650000D03*
X39190000Y-52650000D03*
D16*
X38440000Y-53400000D03*
X38440000Y-53900000D03*
X38440000Y-54400000D03*
X38440000Y-54900000D03*
X38440000Y-55400000D03*
X38440000Y-55900000D03*
D17*
X39190000Y-56650000D03*
X39690000Y-56650000D03*
X40190000Y-56650000D03*
X40690000Y-56650000D03*
X41190000Y-56650000D03*
X41690000Y-56650000D03*
D18*
X41090000Y-55300000D03*
X41090000Y-54000000D03*
X39790000Y-55300000D03*
X39790000Y-54000000D03*
%TD*%
D19*
%TO.C,D1*%
X39590000Y-59350000D03*
X42390000Y-59350000D03*
%TD*%
%TO.C,D2*%
X38840000Y-47650000D03*
X36040000Y-47650000D03*
%TD*%
D20*
%TO.C,J5*%
X46640000Y-46715000D03*
X46640000Y-47985000D03*
%TD*%
%TO.C,J6*%
X46640000Y-44985000D03*
X46640000Y-43715000D03*
%TD*%
D15*
%TO.C,R6*%
X37730000Y-72720000D03*
X37730000Y-71020000D03*
%TD*%
%TO.C,R7*%
X37720000Y-74440000D03*
X37720000Y-76140000D03*
%TD*%
D21*
%TO.C,C12*%
X38490000Y-66050000D03*
X38490000Y-69050000D03*
%TD*%
D22*
%TO.C,C13*%
X35040000Y-40800000D03*
X38040000Y-40800000D03*
%TD*%
%TO.C,C14*%
X35040000Y-38500000D03*
X38040000Y-38500000D03*
%TD*%
D21*
%TO.C,C15*%
X36190000Y-69050000D03*
X36190000Y-66050000D03*
%TD*%
D22*
%TO.C,C16*%
X35040000Y-43100000D03*
X38040000Y-43100000D03*
%TD*%
D21*
%TO.C,C17*%
X43090000Y-66050000D03*
X43090000Y-69050000D03*
%TD*%
D22*
%TO.C,C18*%
X35590000Y-45400000D03*
X38590000Y-45400000D03*
%TD*%
D21*
%TO.C,C19*%
X40790000Y-66050000D03*
X40790000Y-69050000D03*
%TD*%
D23*
%TO.C,Q1*%
X58740000Y-114300000D03*
X58740000Y-112400000D03*
X56740000Y-113350000D03*
%TD*%
%TO.C,Q2*%
X58740000Y-118300000D03*
X58740000Y-116400000D03*
X56740000Y-117350000D03*
%TD*%
D24*
%TO.C,R8*%
X50490000Y-35550000D03*
X52190000Y-35550000D03*
%TD*%
D15*
%TO.C,R9*%
X55140000Y-112200000D03*
X55140000Y-113900000D03*
%TD*%
D24*
%TO.C,R10*%
X57040000Y-120050000D03*
X58740000Y-120050000D03*
%TD*%
D15*
%TO.C,R11*%
X55040000Y-116700000D03*
X55040000Y-118400000D03*
%TD*%
D25*
%TO.C,C2*%
X45840000Y-59350000D03*
X43940000Y-59350000D03*
%TD*%
D26*
%TO.C,C11*%
X45140000Y-53400000D03*
X45140000Y-55300000D03*
%TD*%
D11*
%TO.C,C6*%
X34690000Y-51100000D03*
X34690000Y-52600000D03*
%TD*%
D12*
%TO.C,C8*%
X35890000Y-63550000D03*
X37390000Y-63550000D03*
%TD*%
D24*
%TO.C,R2*%
X36290000Y-54150000D03*
X34590000Y-54150000D03*
%TD*%
D15*
%TO.C,R3*%
X36290000Y-50950000D03*
X36290000Y-52650000D03*
%TD*%
D24*
%TO.C,R4*%
X35790000Y-61950000D03*
X37490000Y-61950000D03*
%TD*%
%TO.C,R5*%
X37490000Y-60350000D03*
X35790000Y-60350000D03*
%TD*%
%TO.C,R12*%
X34640000Y-49600000D03*
X36340000Y-49600000D03*
%TD*%
D27*
%TO.C,J1*%
X39960000Y-79130000D03*
X39960000Y-79930000D03*
D28*
X39960000Y-81080000D03*
X39960000Y-82080000D03*
X39960000Y-82580000D03*
X39960000Y-83580000D03*
D27*
X39960000Y-84730000D03*
X39960000Y-85530000D03*
X39960000Y-85530000D03*
X39960000Y-84730000D03*
D28*
X39960000Y-84080000D03*
X39960000Y-83080000D03*
X39960000Y-81580000D03*
X39960000Y-80580000D03*
D27*
X39960000Y-79930000D03*
X39960000Y-79130000D03*
%TD*%
D29*
%TO.C,T7*%
X54740000Y-37450000D03*
%TD*%
%TO.C,T8*%
X42740000Y-37350000D03*
%TD*%
D26*
%TO.C,D3*%
X35490000Y-72800000D03*
X35490000Y-70900000D03*
%TD*%
%TO.C,D4*%
X35500000Y-76300000D03*
X35500000Y-74400000D03*
%TD*%
D30*
%TO.C,J4*%
X35450000Y-112640000D03*
X36250000Y-112640000D03*
D31*
X37400000Y-112640000D03*
X38400000Y-112640000D03*
X38900000Y-112640000D03*
X39900000Y-112640000D03*
D30*
X41050000Y-112640000D03*
X41850000Y-112640000D03*
X41850000Y-112640000D03*
X41050000Y-112640000D03*
D31*
X40400000Y-112640000D03*
X39400000Y-112640000D03*
X37900000Y-112640000D03*
X36900000Y-112640000D03*
D30*
X36250000Y-112640000D03*
X35450000Y-112640000D03*
%TD*%
M02*
