%TF.GenerationSoftware,KiCad,Pcbnew,8.0.3*%
%TF.CreationDate,2024-07-16T16:01:19-03:00*%
%TF.ProjectId,IPS2,49505332-2e6b-4696-9361-645f70636258,rev?*%
%TF.SameCoordinates,Original*%
%TF.FileFunction,Copper,L1,Top*%
%TF.FilePolarity,Positive*%
%FSLAX46Y46*%
G04 Gerber Fmt 4.6, Leading zero omitted, Abs format (unit mm)*
G04 Created by KiCad (PCBNEW 8.0.3) date 2024-07-16 16:01:19*
%MOMM*%
%LPD*%
G01*
G04 APERTURE LIST*
%TA.AperFunction,SMDPad,CuDef*%
%ADD10R,1.500000X2.400000*%
%TD*%
%TA.AperFunction,SMDPad,CuDef*%
%ADD11R,0.750000X0.800000*%
%TD*%
%TA.AperFunction,SMDPad,CuDef*%
%ADD12R,0.800000X0.750000*%
%TD*%
%TA.AperFunction,SMDPad,CuDef*%
%ADD13R,1.800000X4.200000*%
%TD*%
%TA.AperFunction,SMDPad,CuDef*%
%ADD14R,4.200000X1.800000*%
%TD*%
%TA.AperFunction,ComponentPad*%
%ADD15R,1.700000X1.700000*%
%TD*%
%TA.AperFunction,ComponentPad*%
%ADD16O,1.700000X1.700000*%
%TD*%
%TA.AperFunction,SMDPad,CuDef*%
%ADD17R,0.900000X0.700000*%
%TD*%
%TA.AperFunction,SMDPad,CuDef*%
%ADD18R,0.950000X0.300000*%
%TD*%
%TA.AperFunction,SMDPad,CuDef*%
%ADD19R,0.300000X0.950000*%
%TD*%
%TA.AperFunction,ComponentPad*%
%ADD20C,0.600000*%
%TD*%
%TA.AperFunction,SMDPad,CuDef*%
%ADD21R,1.300000X1.300000*%
%TD*%
%TA.AperFunction,ComponentPad*%
%ADD22C,2.000000*%
%TD*%
%TA.AperFunction,SMDPad,CuDef*%
%ADD23R,1.100000X1.100000*%
%TD*%
%TA.AperFunction,SMDPad,CuDef*%
%ADD24R,1.270000X0.965200*%
%TD*%
%TA.AperFunction,ComponentPad*%
%ADD25O,2.400000X1.600000*%
%TD*%
%TA.AperFunction,ComponentPad*%
%ADD26O,2.500000X1.600000*%
%TD*%
%TA.AperFunction,ComponentPad*%
%ADD27O,2.500000X1.500000*%
%TD*%
%TA.AperFunction,SMDPad,CuDef*%
%ADD28R,1.600000X1.000000*%
%TD*%
%TA.AperFunction,SMDPad,CuDef*%
%ADD29R,1.000000X1.600000*%
%TD*%
%TA.AperFunction,SMDPad,CuDef*%
%ADD30R,0.900000X0.800000*%
%TD*%
%TA.AperFunction,SMDPad,CuDef*%
%ADD31R,0.700000X0.900000*%
%TD*%
%TA.AperFunction,SMDPad,CuDef*%
%ADD32R,0.900000X1.300000*%
%TD*%
%TA.AperFunction,SMDPad,CuDef*%
%ADD33R,1.300000X0.900000*%
%TD*%
%TA.AperFunction,SMDPad,CuDef*%
%ADD34R,1.240000X0.600000*%
%TD*%
%TA.AperFunction,SMDPad,CuDef*%
%ADD35R,1.240000X0.300000*%
%TD*%
%TA.AperFunction,ComponentPad*%
%ADD36O,2.100000X1.000000*%
%TD*%
%TA.AperFunction,ComponentPad*%
%ADD37O,1.800000X1.000000*%
%TD*%
%TA.AperFunction,ComponentPad*%
%ADD38C,0.800000*%
%TD*%
%TA.AperFunction,ComponentPad*%
%ADD39C,5.500000*%
%TD*%
%TA.AperFunction,ComponentPad*%
%ADD40C,1.100000*%
%TD*%
%TA.AperFunction,SMDPad,CuDef*%
%ADD41R,1.500000X1.500000*%
%TD*%
%TA.AperFunction,SMDPad,CuDef*%
%ADD42R,0.600000X1.240000*%
%TD*%
%TA.AperFunction,SMDPad,CuDef*%
%ADD43R,0.300000X1.240000*%
%TD*%
%TA.AperFunction,ComponentPad*%
%ADD44O,1.000000X2.100000*%
%TD*%
%TA.AperFunction,ComponentPad*%
%ADD45O,1.000000X1.800000*%
%TD*%
%TA.AperFunction,ViaPad*%
%ADD46C,0.600000*%
%TD*%
%TA.AperFunction,ViaPad*%
%ADD47C,0.650000*%
%TD*%
%TA.AperFunction,ViaPad*%
%ADD48C,1.000000*%
%TD*%
%TA.AperFunction,Conductor*%
%ADD49C,1.000000*%
%TD*%
%TA.AperFunction,Conductor*%
%ADD50C,0.250000*%
%TD*%
%TA.AperFunction,Conductor*%
%ADD51C,0.500000*%
%TD*%
%TA.AperFunction,Conductor*%
%ADD52C,0.200000*%
%TD*%
G04 APERTURE END LIST*
D10*
%TO.P,C1,1*%
%TO.N,V_INPUT*%
X46590000Y-74930000D03*
%TO.P,C1,2*%
%TO.N,Earth*%
X40190000Y-74930000D03*
%TD*%
D11*
%TO.P,C3,1*%
%TO.N,Net-(C3-Pad1)*%
X45240000Y-51700000D03*
%TO.P,C3,2*%
%TO.N,Earth*%
X45240000Y-50200000D03*
%TD*%
D12*
%TO.P,C4,1*%
%TO.N,Net-(C4-Pad1)*%
X37390000Y-58750000D03*
%TO.P,C4,2*%
%TO.N,Earth*%
X35890000Y-58750000D03*
%TD*%
%TO.P,C5,1*%
%TO.N,Net-(C5-Pad1)*%
X36190000Y-57200000D03*
%TO.P,C5,2*%
%TO.N,Earth*%
X34690000Y-57200000D03*
%TD*%
%TO.P,C7,1*%
%TO.N,Earth*%
X34690000Y-55650000D03*
%TO.P,C7,2*%
%TO.N,Net-(C7-Pad2)*%
X36190000Y-55650000D03*
%TD*%
D13*
%TO.P,L1,1*%
%TO.N,Net-(D1-Pad2)*%
X42030000Y-62630000D03*
%TO.P,L1,2*%
%TO.N,V_INPUT*%
X45230000Y-62630000D03*
%TD*%
D14*
%TO.P,L2,1*%
%TO.N,Earth*%
X42240000Y-45200000D03*
%TO.P,L2,2*%
%TO.N,Net-(D2-Pad1)*%
X42240000Y-48400000D03*
%TD*%
D15*
%TO.P,P1,1*%
%TO.N,Net-(C13-Pad1)*%
X35070000Y-96770000D03*
D16*
%TO.P,P1,2*%
X37610000Y-96770000D03*
%TO.P,P1,3*%
%TO.N,Earth*%
X35070000Y-99310000D03*
%TO.P,P1,4*%
X37610000Y-99310000D03*
%TO.P,P1,5*%
X35070000Y-101850000D03*
%TO.P,P1,6*%
X37610000Y-101850000D03*
%TO.P,P1,7*%
X35070000Y-104390000D03*
%TO.P,P1,8*%
X37610000Y-104390000D03*
%TO.P,P1,9*%
%TO.N,Net-(C12-Pad1)*%
X35070000Y-106930000D03*
%TO.P,P1,10*%
X37610000Y-106930000D03*
%TD*%
D17*
%TO.P,R1,1*%
%TO.N,Net-(C3-Pad1)*%
X46840000Y-51600000D03*
%TO.P,R1,2*%
%TO.N,V_INPUT*%
X46840000Y-53300000D03*
%TD*%
D18*
%TO.P,U1,1*%
%TO.N,Net-(D1-Pad2)*%
X42440000Y-55900000D03*
%TO.P,U1,2*%
%TO.N,Earth*%
X42440000Y-55400000D03*
%TO.P,U1,3*%
X42440000Y-54900000D03*
%TO.P,U1,4*%
%TO.N,Net-(C3-Pad1)*%
X42440000Y-54400000D03*
%TO.P,U1,5*%
%TO.N,V_INPUT*%
X42440000Y-53900000D03*
%TO.P,U1,6*%
X42440000Y-53400000D03*
D19*
%TO.P,U1,7*%
%TO.N,N/C*%
X41690000Y-52650000D03*
%TO.P,U1,8*%
%TO.N,Net-(J5-Pad2)*%
X41190000Y-52650000D03*
%TO.P,U1,9*%
%TO.N,Earth*%
X40690000Y-52650000D03*
%TO.P,U1,10*%
%TO.N,Net-(J6-Pad2)*%
X40190000Y-52650000D03*
%TO.P,U1,11*%
%TO.N,Earth*%
X39690000Y-52650000D03*
%TO.P,U1,12*%
%TO.N,N/C*%
X39190000Y-52650000D03*
D18*
%TO.P,U1,13*%
%TO.N,Net-(D2-Pad1)*%
X38440000Y-53400000D03*
%TO.P,U1,14*%
X38440000Y-53900000D03*
%TO.P,U1,15*%
%TO.N,Net-(C13-Pad1)*%
X38440000Y-54400000D03*
%TO.P,U1,16*%
%TO.N,Net-(C6-Pad2)*%
X38440000Y-54900000D03*
%TO.P,U1,17*%
%TO.N,Net-(C7-Pad2)*%
X38440000Y-55400000D03*
%TO.P,U1,18*%
%TO.N,Net-(C5-Pad1)*%
X38440000Y-55900000D03*
D19*
%TO.P,U1,19*%
%TO.N,Earth*%
X39190000Y-56650000D03*
%TO.P,U1,20*%
%TO.N,N/C*%
X39690000Y-56650000D03*
%TO.P,U1,21*%
%TO.N,Net-(C4-Pad1)*%
X40190000Y-56650000D03*
%TO.P,U1,22*%
%TO.N,Net-(C8-Pad2)*%
X40690000Y-56650000D03*
%TO.P,U1,23*%
%TO.N,Net-(C12-Pad1)*%
X41190000Y-56650000D03*
%TO.P,U1,24*%
%TO.N,Net-(D1-Pad2)*%
X41690000Y-56650000D03*
D20*
%TO.P,U1,25*%
%TO.N,Earth*%
X41329000Y-55539000D03*
X41329000Y-53761000D03*
D21*
X41090000Y-55300000D03*
X41090000Y-54000000D03*
D22*
X40440000Y-54650000D03*
D21*
X39790000Y-55300000D03*
X39790000Y-54000000D03*
D20*
X39551000Y-55539000D03*
X39551000Y-53761000D03*
%TD*%
D23*
%TO.P,D1,1*%
%TO.N,Net-(C12-Pad1)*%
X39590000Y-59350000D03*
%TO.P,D1,2*%
%TO.N,Net-(D1-Pad2)*%
X42390000Y-59350000D03*
%TD*%
%TO.P,D2,1*%
%TO.N,Net-(D2-Pad1)*%
X38840000Y-47650000D03*
%TO.P,D2,2*%
%TO.N,Net-(C13-Pad1)*%
X36040000Y-47650000D03*
%TD*%
D24*
%TO.P,J5,1*%
%TO.N,V_INPUT*%
X46640000Y-46715000D03*
%TO.P,J5,2*%
%TO.N,Net-(J5-Pad2)*%
X46640000Y-47985000D03*
%TD*%
%TO.P,J6,1*%
%TO.N,V_INPUT*%
X46640000Y-44985000D03*
%TO.P,J6,2*%
%TO.N,Net-(J6-Pad2)*%
X46640000Y-43715000D03*
%TD*%
D25*
%TO.P,SHUT_M1,1*%
%TO.N,Earth*%
X54740000Y-120050000D03*
D26*
%TO.P,SHUT_M1,2*%
%TO.N,Net-(J3-Pad1)*%
X54740000Y-122470000D03*
D27*
%TO.P,SHUT_M1,3*%
%TO.N,Net-(R10-Pad1)*%
X54740000Y-130770000D03*
%TD*%
D25*
%TO.P,SHUT_P1,1*%
%TO.N,Earth*%
X54740000Y-35650000D03*
D26*
%TO.P,SHUT_P1,2*%
%TO.N,Net-(J3-Pad2)*%
X54740000Y-33230000D03*
D27*
%TO.P,SHUT_P1,3*%
%TO.N,Net-(R8-Pad1)*%
X54740000Y-24930000D03*
%TD*%
D17*
%TO.P,R6,1*%
%TO.N,Net-(C12-Pad1)*%
X37730000Y-72720000D03*
%TO.P,R6,2*%
%TO.N,Net-(D3-Pad2)*%
X37730000Y-71020000D03*
%TD*%
%TO.P,R7,1*%
%TO.N,Net-(C13-Pad1)*%
X37720000Y-74440000D03*
%TO.P,R7,2*%
%TO.N,Net-(D4-Pad1)*%
X37720000Y-76140000D03*
%TD*%
D28*
%TO.P,C12,1*%
%TO.N,Net-(C12-Pad1)*%
X38490000Y-66050000D03*
%TO.P,C12,2*%
%TO.N,Earth*%
X38490000Y-69050000D03*
%TD*%
D29*
%TO.P,C13,1*%
%TO.N,Net-(C13-Pad1)*%
X35040000Y-40800000D03*
%TO.P,C13,2*%
%TO.N,Earth*%
X38040000Y-40800000D03*
%TD*%
%TO.P,C14,1*%
%TO.N,Net-(C13-Pad1)*%
X35040000Y-38500000D03*
%TO.P,C14,2*%
%TO.N,Earth*%
X38040000Y-38500000D03*
%TD*%
D28*
%TO.P,C15,1*%
%TO.N,Earth*%
X36190000Y-69050000D03*
%TO.P,C15,2*%
%TO.N,Net-(C12-Pad1)*%
X36190000Y-66050000D03*
%TD*%
D29*
%TO.P,C16,1*%
%TO.N,Net-(C13-Pad1)*%
X35040000Y-43100000D03*
%TO.P,C16,2*%
%TO.N,Earth*%
X38040000Y-43100000D03*
%TD*%
D28*
%TO.P,C17,1*%
%TO.N,Net-(C12-Pad1)*%
X43090000Y-66050000D03*
%TO.P,C17,2*%
%TO.N,Earth*%
X43090000Y-69050000D03*
%TD*%
D29*
%TO.P,C18,1*%
%TO.N,Net-(C13-Pad1)*%
X35590000Y-45400000D03*
%TO.P,C18,2*%
%TO.N,Earth*%
X38590000Y-45400000D03*
%TD*%
D28*
%TO.P,C19,1*%
%TO.N,Net-(C12-Pad1)*%
X40790000Y-66050000D03*
%TO.P,C19,2*%
%TO.N,Earth*%
X40790000Y-69050000D03*
%TD*%
D30*
%TO.P,Q1,1*%
%TO.N,Net-(Q1-Pad1)*%
X58740000Y-114300000D03*
%TO.P,Q1,2*%
%TO.N,Earth*%
X58740000Y-112400000D03*
%TO.P,Q1,3*%
%TO.N,Net-(J5-Pad2)*%
X56740000Y-113350000D03*
%TD*%
%TO.P,Q2,1*%
%TO.N,Net-(Q2-Pad1)*%
X58740000Y-118300000D03*
%TO.P,Q2,2*%
%TO.N,Earth*%
X58740000Y-116400000D03*
%TO.P,Q2,3*%
%TO.N,Net-(J6-Pad2)*%
X56740000Y-117350000D03*
%TD*%
D31*
%TO.P,R8,1*%
%TO.N,Net-(R8-Pad1)*%
X50490000Y-35550000D03*
%TO.P,R8,2*%
%TO.N,Net-(Q1-Pad1)*%
X52190000Y-35550000D03*
%TD*%
D17*
%TO.P,R9,1*%
%TO.N,Net-(J5-Pad2)*%
X55140000Y-112200000D03*
%TO.P,R9,2*%
%TO.N,V_INPUT*%
X55140000Y-113900000D03*
%TD*%
D31*
%TO.P,R10,1*%
%TO.N,Net-(R10-Pad1)*%
X57040000Y-120050000D03*
%TO.P,R10,2*%
%TO.N,Net-(Q2-Pad1)*%
X58740000Y-120050000D03*
%TD*%
D17*
%TO.P,R11,1*%
%TO.N,Net-(J6-Pad2)*%
X55040000Y-116700000D03*
%TO.P,R11,2*%
%TO.N,V_INPUT*%
X55040000Y-118400000D03*
%TD*%
D15*
%TO.P,J3,1*%
%TO.N,Net-(J3-Pad1)*%
X51040000Y-120040000D03*
D16*
%TO.P,J3,2*%
%TO.N,Net-(J3-Pad2)*%
X51040000Y-117500000D03*
%TD*%
D32*
%TO.P,C2,1*%
%TO.N,V_INPUT*%
X45840000Y-59350000D03*
%TO.P,C2,2*%
%TO.N,Earth*%
X43940000Y-59350000D03*
%TD*%
D33*
%TO.P,C11,1*%
%TO.N,V_INPUT*%
X45140000Y-53400000D03*
%TO.P,C11,2*%
%TO.N,Earth*%
X45140000Y-55300000D03*
%TD*%
D11*
%TO.P,C6,1*%
%TO.N,Net-(C6-Pad1)*%
X34690000Y-51100000D03*
%TO.P,C6,2*%
%TO.N,Net-(C6-Pad2)*%
X34690000Y-52600000D03*
%TD*%
D12*
%TO.P,C8,1*%
%TO.N,Net-(C12-Pad1)*%
X35890000Y-63550000D03*
%TO.P,C8,2*%
%TO.N,Net-(C8-Pad2)*%
X37390000Y-63550000D03*
%TD*%
D31*
%TO.P,R2,1*%
%TO.N,Net-(C6-Pad2)*%
X36290000Y-54150000D03*
%TO.P,R2,2*%
%TO.N,Net-(C7-Pad2)*%
X34590000Y-54150000D03*
%TD*%
D17*
%TO.P,R3,1*%
%TO.N,Net-(C13-Pad1)*%
X36290000Y-50950000D03*
%TO.P,R3,2*%
%TO.N,Net-(C6-Pad2)*%
X36290000Y-52650000D03*
%TD*%
D31*
%TO.P,R4,1*%
%TO.N,Net-(C12-Pad1)*%
X35790000Y-61950000D03*
%TO.P,R4,2*%
%TO.N,Net-(C8-Pad2)*%
X37490000Y-61950000D03*
%TD*%
%TO.P,R5,1*%
%TO.N,Net-(C8-Pad2)*%
X37490000Y-60350000D03*
%TO.P,R5,2*%
%TO.N,Earth*%
X35790000Y-60350000D03*
%TD*%
%TO.P,R12,1*%
%TO.N,Net-(C6-Pad1)*%
X34640000Y-49600000D03*
%TO.P,R12,2*%
%TO.N,Net-(C13-Pad1)*%
X36340000Y-49600000D03*
%TD*%
D34*
%TO.P,J1,A1*%
%TO.N,Earth*%
X39960000Y-79130000D03*
%TO.P,J1,A4*%
%TO.N,V_INPUT*%
X39960000Y-79930000D03*
D35*
%TO.P,J1,A5*%
%TO.N,N/C*%
X39960000Y-81080000D03*
%TO.P,J1,A6*%
X39960000Y-82080000D03*
%TO.P,J1,A7*%
X39960000Y-82580000D03*
%TO.P,J1,A8*%
X39960000Y-83580000D03*
D34*
%TO.P,J1,A9*%
%TO.N,V_INPUT*%
X39960000Y-84730000D03*
%TO.P,J1,A12*%
%TO.N,Earth*%
X39960000Y-85530000D03*
%TO.P,J1,B1*%
X39960000Y-85530000D03*
%TO.P,J1,B4*%
%TO.N,V_INPUT*%
X39960000Y-84730000D03*
D35*
%TO.P,J1,B5*%
%TO.N,N/C*%
X39960000Y-84080000D03*
%TO.P,J1,B6*%
X39960000Y-83080000D03*
%TO.P,J1,B7*%
X39960000Y-81580000D03*
%TO.P,J1,B8*%
X39960000Y-80580000D03*
D34*
%TO.P,J1,B9*%
%TO.N,V_INPUT*%
X39960000Y-79930000D03*
%TO.P,J1,B12*%
%TO.N,Earth*%
X39960000Y-79130000D03*
D36*
%TO.P,J1,S1*%
X39360000Y-78010000D03*
D37*
X35160000Y-78010000D03*
D36*
X39360000Y-86650000D03*
D37*
X35160000Y-86650000D03*
%TD*%
D38*
%TO.P,T9,1*%
%TO.N,Net-(T9-Pad1)*%
X39840000Y-41190000D03*
X40490000Y-39640000D03*
X40490000Y-42740000D03*
X42040000Y-38990000D03*
D39*
X42040000Y-41190000D03*
D38*
X42040000Y-43390000D03*
X43590000Y-39640000D03*
X43590000Y-42740000D03*
X44240000Y-41190000D03*
%TD*%
D40*
%TO.P,T7,1*%
%TO.N,Earth*%
X54740000Y-37450000D03*
D41*
X54740000Y-37450000D03*
%TD*%
D40*
%TO.P,T8,1*%
%TO.N,Earth*%
X42740000Y-37350000D03*
D41*
X42740000Y-37350000D03*
%TD*%
D33*
%TO.P,D3,1*%
%TO.N,Earth*%
X35490000Y-72800000D03*
%TO.P,D3,2*%
%TO.N,Net-(D3-Pad2)*%
X35490000Y-70900000D03*
%TD*%
%TO.P,D4,1*%
%TO.N,Net-(D4-Pad1)*%
X35500000Y-76300000D03*
%TO.P,D4,2*%
%TO.N,Earth*%
X35500000Y-74400000D03*
%TD*%
D42*
%TO.P,J4,A1*%
%TO.N,Earth*%
X35450000Y-112640000D03*
%TO.P,J4,A4*%
%TO.N,V_INPUT*%
X36250000Y-112640000D03*
D43*
%TO.P,J4,A5*%
%TO.N,N/C*%
X37400000Y-112640000D03*
%TO.P,J4,A6*%
X38400000Y-112640000D03*
%TO.P,J4,A7*%
X38900000Y-112640000D03*
%TO.P,J4,A8*%
X39900000Y-112640000D03*
D42*
%TO.P,J4,A9*%
%TO.N,V_INPUT*%
X41050000Y-112640000D03*
%TO.P,J4,A12*%
%TO.N,Earth*%
X41850000Y-112640000D03*
%TO.P,J4,B1*%
X41850000Y-112640000D03*
%TO.P,J4,B4*%
%TO.N,V_INPUT*%
X41050000Y-112640000D03*
D43*
%TO.P,J4,B5*%
%TO.N,N/C*%
X40400000Y-112640000D03*
%TO.P,J4,B6*%
X39400000Y-112640000D03*
%TO.P,J4,B7*%
X37900000Y-112640000D03*
%TO.P,J4,B8*%
X36900000Y-112640000D03*
D42*
%TO.P,J4,B9*%
%TO.N,V_INPUT*%
X36250000Y-112640000D03*
%TO.P,J4,B12*%
%TO.N,Earth*%
X35450000Y-112640000D03*
D44*
%TO.P,J4,S1*%
X34330000Y-113240000D03*
D45*
X34330000Y-117440000D03*
D44*
X42970000Y-113240000D03*
D45*
X42970000Y-117440000D03*
%TD*%
D15*
%TO.P,J2,1*%
%TO.N,V_INPUT*%
X37940000Y-89450000D03*
D16*
%TO.P,J2,2*%
%TO.N,Earth*%
X35400000Y-89450000D03*
%TD*%
D40*
%TO.P,T1,1*%
%TO.N,V_INPUT*%
X51240000Y-115450000D03*
%TD*%
%TO.P,T2,1*%
%TO.N,V_INPUT*%
X46240000Y-115450000D03*
%TD*%
%TO.P,T3,1*%
%TO.N,Net-(J5-Pad2)*%
X46440000Y-37450000D03*
%TD*%
%TO.P,T4,1*%
%TO.N,Net-(J5-Pad2)*%
X51340000Y-37450000D03*
%TD*%
%TO.P,T5,1*%
%TO.N,Net-(J6-Pad2)*%
X46440000Y-41550000D03*
%TD*%
%TO.P,T6,1*%
%TO.N,Net-(J6-Pad2)*%
X51240000Y-41550000D03*
%TD*%
D46*
%TO.N,Earth*%
X51540000Y-49350000D03*
X51540000Y-50850000D03*
X51540000Y-52350000D03*
X51540000Y-53850000D03*
X51540000Y-55350000D03*
X51540000Y-56850000D03*
X51540000Y-58350000D03*
X51540000Y-59850000D03*
X51540000Y-61350000D03*
X51540000Y-62850000D03*
D47*
X43640000Y-70800000D03*
D46*
X37040000Y-38950000D03*
X43640000Y-58150000D03*
D47*
X45740000Y-67600000D03*
D46*
X39640000Y-37600000D03*
X45240000Y-87350000D03*
X42940000Y-102850000D03*
X45840000Y-85550000D03*
D47*
X45590000Y-70150000D03*
X45690000Y-68250000D03*
D46*
X45939980Y-58150000D03*
X39040000Y-39400000D03*
D47*
X42990000Y-70150000D03*
D46*
X45240000Y-86750000D03*
X43640000Y-56350000D03*
D47*
X44940004Y-68850000D03*
X44440000Y-67600000D03*
D46*
X46440000Y-87350000D03*
X44840000Y-56350000D03*
X42940000Y-100450000D03*
D47*
X43640000Y-70150000D03*
D46*
X44240000Y-56950000D03*
D47*
X40339994Y-50450000D03*
D46*
X46440008Y-85550000D03*
D47*
X44940000Y-70150000D03*
D46*
X47040000Y-87350000D03*
X44840000Y-56950000D03*
X35040000Y-92550000D03*
X44840000Y-57550000D03*
X58740000Y-113350000D03*
X37040000Y-41350000D03*
X51540000Y-47950000D03*
X35040000Y-91850000D03*
X35740000Y-93950000D03*
X45939980Y-57550000D03*
X39640000Y-38200000D03*
X37040000Y-42550000D03*
X35740000Y-92550000D03*
X37040000Y-40150000D03*
D47*
X44940000Y-69499998D03*
D46*
X42940000Y-104450000D03*
D47*
X45590000Y-70800000D03*
D46*
X42940000Y-102050000D03*
X37450000Y-57510000D03*
X45939980Y-56950000D03*
X39040000Y-38200000D03*
X45440000Y-58150000D03*
D47*
X42940000Y-108950000D03*
X45590000Y-68850000D03*
D46*
X44240000Y-55750000D03*
X43640000Y-56950000D03*
X37040000Y-39550000D03*
X45840000Y-86750000D03*
D47*
X44290000Y-69500000D03*
D46*
X37040000Y-41950000D03*
X37040000Y-40750000D03*
X37240000Y-44950000D03*
X42940000Y-105250000D03*
D47*
X44940000Y-70800000D03*
X42940000Y-110350000D03*
D46*
X35740000Y-91850000D03*
X46440000Y-86750000D03*
X44240000Y-58150000D03*
X40240000Y-37600000D03*
X45840000Y-86150000D03*
D47*
X42240000Y-109650000D03*
D46*
X44840000Y-58150000D03*
X35740000Y-93250000D03*
D47*
X44290000Y-70800000D03*
D46*
X39040000Y-37600000D03*
X35040000Y-91150000D03*
X45840000Y-87350000D03*
X46440000Y-84349994D03*
X37040000Y-43750000D03*
X45840000Y-84350000D03*
X44240000Y-56350000D03*
D47*
X44440000Y-68249996D03*
D46*
X46439997Y-84949997D03*
X45840000Y-84950000D03*
D47*
X45090000Y-67600000D03*
D46*
X46440000Y-86150000D03*
X39740000Y-51050000D03*
X45440000Y-56950000D03*
D47*
X42940000Y-109650000D03*
D46*
X35040000Y-93250000D03*
X42940000Y-98850000D03*
X43640000Y-55750000D03*
X37040000Y-43150000D03*
X58740000Y-115550000D03*
D47*
X44289996Y-70150000D03*
D46*
X45440000Y-56350000D03*
X42940000Y-103650000D03*
D47*
X44290000Y-68850000D03*
D46*
X37640000Y-46150000D03*
D47*
X45590000Y-69500000D03*
D46*
X47040000Y-86750000D03*
D47*
X45040000Y-68250000D03*
D46*
X45939980Y-56350000D03*
X39040000Y-38800000D03*
X44640000Y-87350000D03*
X35740000Y-91150000D03*
X37040000Y-44350000D03*
X42940000Y-99650000D03*
X43640000Y-57550000D03*
X42940000Y-101250000D03*
X44240000Y-57550000D03*
X45440000Y-57550000D03*
X37440000Y-45550000D03*
X35040000Y-93950000D03*
%TO.N,Net-(C3-Pad1)*%
X45420000Y-52250000D03*
X44186274Y-54247181D03*
%TO.N,Net-(Q1-Pad1)*%
X57146137Y-114277001D03*
X52240000Y-34850000D03*
%TO.N,Net-(J5-Pad2)*%
X50740000Y-39150000D03*
X51440000Y-111550000D03*
X44329061Y-52039414D03*
X50490000Y-43200000D03*
X46160002Y-48950000D03*
%TO.N,Net-(J6-Pad2)*%
X44360000Y-51240000D03*
X45540000Y-43750000D03*
X55040000Y-115650000D03*
%TO.N,Net-(C12-Pad1)*%
X36240000Y-65050000D03*
X36240000Y-64450000D03*
X38640000Y-65050000D03*
X38040000Y-64450000D03*
X38640000Y-64450000D03*
X37440000Y-64450000D03*
X36865000Y-72225000D03*
X38040000Y-65050000D03*
X37440000Y-66250000D03*
X36840000Y-64450000D03*
X37440000Y-65050000D03*
X37440000Y-65650000D03*
X36840000Y-65050000D03*
%TO.N,Net-(J3-Pad2)*%
X58140000Y-90050000D03*
X51540000Y-91650000D03*
D48*
%TO.N,Net-(C13-Pad1)*%
X41750000Y-90800002D03*
D46*
X36040000Y-43750000D03*
X36040000Y-38950000D03*
X36040000Y-39550000D03*
X36040000Y-43150000D03*
X36040000Y-41350000D03*
D48*
X41760000Y-89800000D03*
D46*
X36040000Y-40150000D03*
X36040000Y-40750000D03*
X36040000Y-41950000D03*
X36040000Y-42550000D03*
D48*
X41750000Y-91800000D03*
D46*
X40290000Y-71130000D03*
%TO.N,V_INPUT*%
X51540000Y-113050000D03*
X46020000Y-52880000D03*
X39960000Y-111290000D03*
D48*
X39940000Y-93050000D03*
D46*
X56940000Y-115049999D03*
X37510000Y-111300000D03*
X56040000Y-118250000D03*
X46839998Y-45850008D03*
%TD*%
D49*
%TO.N,Earth*%
X54740000Y-37450000D02*
X56440000Y-37450000D01*
D50*
X39040000Y-38800000D02*
X39040000Y-38200000D01*
X38040000Y-38500000D02*
X37490000Y-38500000D01*
X37490000Y-38500000D02*
X37040000Y-38950000D01*
X45840008Y-85550000D02*
X45840008Y-84950008D01*
X40690000Y-53593011D02*
X41090000Y-53993011D01*
X39690000Y-51524264D02*
X39740000Y-51474264D01*
X55140000Y-35650000D02*
X54740000Y-35650000D01*
X42940000Y-109650000D02*
X42940000Y-108950000D01*
X58440000Y-116700000D02*
X58740000Y-116400000D01*
X40690000Y-52643011D02*
X40690000Y-53593011D01*
X41468000Y-55393011D02*
X41329000Y-55532011D01*
X45540000Y-57050000D02*
X45054128Y-57535872D01*
X40614999Y-53443012D02*
X39765001Y-53443012D01*
X37040000Y-39550000D02*
X37040000Y-40150000D01*
X35915000Y-58750000D02*
X37155000Y-57510000D01*
X38040000Y-38500000D02*
X38140000Y-38500000D01*
X45440000Y-58150000D02*
X45939980Y-58150000D01*
X46440000Y-85050000D02*
X45940000Y-85050000D01*
X44240000Y-56950000D02*
X44240000Y-56350000D01*
X37440000Y-45950000D02*
X37640000Y-46150000D01*
X38040000Y-43100000D02*
X38690000Y-43100000D01*
D51*
X35040000Y-91850000D02*
X35040000Y-92550000D01*
X45590000Y-70150000D02*
X45590000Y-70800000D01*
D50*
X45840000Y-86750000D02*
X46440000Y-86750000D01*
X46440000Y-87350000D02*
X45840000Y-87350000D01*
D51*
X45590000Y-68850000D02*
X45590000Y-69500000D01*
D50*
X40339994Y-50450000D02*
X39740000Y-51049994D01*
D51*
X35040000Y-93250000D02*
X35040000Y-93950000D01*
X44290000Y-69500000D02*
X44290000Y-68850000D01*
D50*
X44840000Y-56350000D02*
X45440000Y-56350000D01*
X45540000Y-55900000D02*
X44915000Y-55900000D01*
X39690000Y-52643011D02*
X39690000Y-51524264D01*
D51*
X35890000Y-58750000D02*
X35940000Y-58750000D01*
D50*
X42940000Y-105250000D02*
X42940000Y-104450000D01*
D51*
X45040000Y-68250000D02*
X45040000Y-68750004D01*
D50*
X42000000Y-111290000D02*
X42940000Y-110350000D01*
X44915000Y-55900000D02*
X44315000Y-55300000D01*
X42440000Y-55393011D02*
X41468000Y-55393011D01*
X45240000Y-87350000D02*
X44640000Y-87350000D01*
D51*
X35740000Y-93950000D02*
X35740000Y-93250000D01*
D50*
X42440000Y-54893011D02*
X42440000Y-55393011D01*
D51*
X44440000Y-67600000D02*
X45090000Y-67600000D01*
X35400000Y-90790000D02*
X35040000Y-91150000D01*
D50*
X40690000Y-53368011D02*
X40614999Y-53443012D01*
X44315000Y-55300000D02*
X41090000Y-55300000D01*
D51*
X45040000Y-68750004D02*
X44940004Y-68850000D01*
D50*
X44390000Y-55900000D02*
X44240000Y-55750000D01*
D51*
X44289996Y-70150000D02*
X43640000Y-70150000D01*
D50*
X58740000Y-112400000D02*
X58740000Y-113350000D01*
X44840000Y-57550000D02*
X44840000Y-56950000D01*
X42940000Y-102050000D02*
X42940000Y-101250000D01*
X40690000Y-52643011D02*
X40690000Y-53368011D01*
X45440000Y-56950000D02*
X45440000Y-57550000D01*
X37040000Y-43150000D02*
X37040000Y-43750000D01*
X37040000Y-44750000D02*
X37240000Y-44950000D01*
X45840008Y-84950008D02*
X45839997Y-84949997D01*
X45054128Y-57535872D02*
X45054128Y-58235872D01*
X42940000Y-103650000D02*
X42940000Y-102850000D01*
X39765001Y-53443012D02*
X39690000Y-53368011D01*
X37040000Y-41950000D02*
X37040000Y-42550000D01*
X45939980Y-56950000D02*
X45939980Y-57550000D01*
X39040000Y-37600000D02*
X39640000Y-37600000D01*
X38690000Y-43100000D02*
X39040000Y-42750000D01*
X45540000Y-55900000D02*
X44390000Y-55900000D01*
D51*
X37610000Y-99310000D02*
X42600000Y-99310000D01*
D50*
X39640000Y-38200000D02*
X40240000Y-37600000D01*
X37040000Y-40750000D02*
X37040000Y-41350000D01*
X39740000Y-51049994D02*
X39740000Y-51050000D01*
X43640000Y-56350000D02*
X43640000Y-55750000D01*
D51*
X45740000Y-68200000D02*
X45690000Y-68250000D01*
D50*
X42940000Y-100450000D02*
X42940000Y-99650000D01*
D51*
X35400000Y-89450000D02*
X35400000Y-90790000D01*
D50*
X35890000Y-58750000D02*
X35915000Y-58750000D01*
X58440000Y-117085002D02*
X58440000Y-116700000D01*
X43640000Y-57550000D02*
X43640000Y-56950000D01*
X44240000Y-58150000D02*
X44840000Y-58150000D01*
X37155000Y-57510000D02*
X37450000Y-57510000D01*
X37440000Y-45550000D02*
X37440000Y-45950000D01*
X45840000Y-86150000D02*
X45840000Y-84349994D01*
D51*
X44940000Y-70800000D02*
X44290000Y-70800000D01*
X43090000Y-69050000D02*
X43090000Y-70050000D01*
D50*
X39690000Y-52643011D02*
X39690000Y-53893011D01*
X43940000Y-59350000D02*
X43940000Y-58450000D01*
X44240000Y-58150000D02*
X44240000Y-57550000D01*
X41540000Y-111290000D02*
X42000000Y-111290000D01*
D49*
X54740000Y-35650000D02*
X54740000Y-37450000D01*
D51*
X43090000Y-70050000D02*
X42990000Y-70150000D01*
X45740000Y-67600000D02*
X45740000Y-68200000D01*
D50*
X41090000Y-55300000D02*
X40440000Y-54650000D01*
X45540000Y-55900000D02*
X45540000Y-57050000D01*
X45054128Y-58235872D02*
X43940000Y-59350000D01*
X47040000Y-86750000D02*
X47040000Y-87350000D01*
D51*
X55475002Y-120050000D02*
X58440000Y-117085002D01*
D50*
X37840000Y-39000000D02*
X37640000Y-39000000D01*
D51*
X44940000Y-70150000D02*
X44940000Y-69499998D01*
D50*
X43940000Y-58450000D02*
X43640000Y-58150000D01*
X38140000Y-38500000D02*
X39040000Y-39400000D01*
D49*
X37610000Y-99310000D02*
X40780010Y-99310000D01*
D50*
X39690000Y-52643011D02*
X39690000Y-51500000D01*
X54740000Y-120050000D02*
X55475002Y-120050000D01*
X58740000Y-115550000D02*
X58740000Y-116400000D01*
D51*
X35740000Y-92550000D02*
X35740000Y-91850000D01*
D50*
X39690000Y-53893011D02*
X39790000Y-53993011D01*
X39740000Y-51474264D02*
X39740000Y-51050000D01*
X37040000Y-44350000D02*
X37040000Y-44750000D01*
%TO.N,Net-(C3-Pad1)*%
X43808369Y-54400000D02*
X44033455Y-54400000D01*
X45420000Y-51880000D02*
X45240000Y-51700000D01*
X45240000Y-51700000D02*
X46740000Y-51700000D01*
X45420000Y-52250000D02*
X45420000Y-51880000D01*
X44033455Y-54400000D02*
X44186274Y-54247181D01*
X45240000Y-51700000D02*
X45240000Y-51922649D01*
X42440000Y-54400000D02*
X43808369Y-54400000D01*
X46740000Y-51700000D02*
X46840000Y-51600000D01*
%TO.N,Net-(C4-Pad1)*%
X38915011Y-57599989D02*
X37715000Y-58800000D01*
X40190000Y-57300000D02*
X39890011Y-57599989D01*
X39890011Y-57599989D02*
X38915011Y-57599989D01*
X37715000Y-58800000D02*
X37690000Y-58800000D01*
X40190000Y-56643011D02*
X40190000Y-57300000D01*
%TO.N,Net-(C5-Pad1)*%
X37521989Y-55893011D02*
X36215000Y-57200000D01*
X36215000Y-57200000D02*
X36190000Y-57200000D01*
X38440000Y-55893011D02*
X37521989Y-55893011D01*
%TO.N,Net-(C6-Pad2)*%
X36290000Y-52650000D02*
X36290000Y-54150000D01*
X36783011Y-54893011D02*
X36340000Y-54450000D01*
X36340000Y-54450000D02*
X36340000Y-54150000D01*
X34690000Y-52600000D02*
X36240000Y-52600000D01*
X38440000Y-54893011D02*
X36783011Y-54893011D01*
X36240000Y-52600000D02*
X36290000Y-52650000D01*
%TO.N,Net-(C7-Pad2)*%
X36446989Y-55393011D02*
X36190000Y-55650000D01*
X34690000Y-54150000D02*
X36190000Y-55650000D01*
X34590000Y-54150000D02*
X34690000Y-54150000D01*
X38440000Y-55393011D02*
X36446989Y-55393011D01*
%TO.N,Net-(C8-Pad2)*%
X39390000Y-58050000D02*
X37490000Y-59950000D01*
X40690000Y-57436411D02*
X40076411Y-58050000D01*
X40690000Y-56643011D02*
X40690000Y-57436411D01*
X37490000Y-59950000D02*
X37490000Y-60350000D01*
X37490000Y-63450000D02*
X37390000Y-63550000D01*
X40076411Y-58050000D02*
X39390000Y-58050000D01*
X37490000Y-60350000D02*
X37490000Y-61950000D01*
X37490000Y-61950000D02*
X37490000Y-63450000D01*
%TO.N,Net-(D3-Pad2)*%
X37720000Y-71010000D02*
X37730000Y-71020000D01*
X37730000Y-71020000D02*
X35610000Y-71020000D01*
X35610000Y-71020000D02*
X35490000Y-70900000D01*
%TO.N,Net-(D4-Pad1)*%
X35660000Y-76140000D02*
X35500000Y-76300000D01*
X37720000Y-76140000D02*
X35660000Y-76140000D01*
%TO.N,Net-(Q1-Pad1)*%
X52240000Y-34850000D02*
X52240000Y-35500000D01*
X58740000Y-114300000D02*
X57169136Y-114300000D01*
X57169136Y-114300000D02*
X57146137Y-114277001D01*
X52240000Y-35500000D02*
X52190000Y-35550000D01*
%TO.N,Net-(Q2-Pad1)*%
X58740000Y-120050000D02*
X58740000Y-118300000D01*
D52*
%TO.N,Net-(J5-Pad2)*%
X50190001Y-42900001D02*
X50490000Y-43200000D01*
D50*
X41190000Y-52643011D02*
X41190000Y-52005002D01*
X46160002Y-48464998D02*
X46640000Y-47985000D01*
X44134649Y-51845002D02*
X44329061Y-52039414D01*
D52*
X50190001Y-39699999D02*
X50190001Y-42900001D01*
D50*
X46160002Y-48950000D02*
X46160002Y-48464998D01*
D52*
X50740000Y-39150000D02*
X50190001Y-39699999D01*
D50*
X41190000Y-52005002D02*
X41350000Y-51845002D01*
X51740000Y-37368198D02*
X51664832Y-37443366D01*
X55140000Y-112200000D02*
X56290000Y-113350000D01*
X53340000Y-112200000D02*
X55140000Y-112200000D01*
X51440000Y-111550000D02*
X52690000Y-111550000D01*
D51*
X51278662Y-37511338D02*
X51278662Y-37500001D01*
D50*
X51664832Y-37443366D02*
X51653495Y-37443366D01*
X46160002Y-48920022D02*
X46160002Y-48950000D01*
X41350000Y-51845002D02*
X44134649Y-51845002D01*
X52690000Y-111550000D02*
X53340000Y-112200000D01*
X56290000Y-113350000D02*
X56740000Y-113350000D01*
X51653495Y-37443366D02*
X51335297Y-37443366D01*
X51335297Y-37443366D02*
X51335297Y-37454703D01*
%TO.N,Net-(J6-Pad2)*%
X40868011Y-51240000D02*
X43935736Y-51240000D01*
X40190000Y-52643011D02*
X40190000Y-51918011D01*
X55040000Y-115650000D02*
X55040000Y-116700000D01*
X55690000Y-117350000D02*
X55040000Y-116700000D01*
X56740000Y-117350000D02*
X55690000Y-117350000D01*
X40190000Y-51918011D02*
X40868011Y-51240000D01*
X43935736Y-51240000D02*
X44360000Y-51240000D01*
X45540000Y-43750000D02*
X46375000Y-43750000D01*
X46375000Y-43750000D02*
X46390000Y-43765000D01*
D51*
X46640000Y-43715000D02*
X46640000Y-41750000D01*
X46640000Y-41750000D02*
X46440000Y-41550000D01*
D50*
%TO.N,Net-(R8-Pad1)*%
X50440000Y-34100000D02*
X50490000Y-34150000D01*
X53220000Y-24950000D02*
X51140000Y-24950000D01*
X50490000Y-34150000D02*
X50490000Y-35550000D01*
X51140000Y-24950000D02*
X50440000Y-25650000D01*
X54740000Y-24930000D02*
X53240000Y-24930000D01*
X50440000Y-25650000D02*
X50440000Y-34100000D01*
X53240000Y-24930000D02*
X53220000Y-24950000D01*
%TO.N,Net-(R10-Pad1)*%
X57040000Y-120150000D02*
X58040000Y-121150000D01*
X59340000Y-121750000D02*
X59340000Y-130250000D01*
X57040000Y-120050000D02*
X57040000Y-120150000D01*
X58040000Y-121150000D02*
X58740000Y-121150000D01*
X58820000Y-130770000D02*
X54740000Y-130770000D01*
X58740000Y-121150000D02*
X59340000Y-121750000D01*
X59340000Y-130250000D02*
X58820000Y-130770000D01*
%TO.N,Net-(C12-Pad1)*%
X37440000Y-65050000D02*
X37440000Y-65650000D01*
X37440000Y-64450000D02*
X38040000Y-64450000D01*
X35790000Y-61950000D02*
X35790000Y-63450000D01*
X35790000Y-63450000D02*
X35890000Y-63550000D01*
X36190000Y-66050000D02*
X36190000Y-65100000D01*
X37730000Y-72720000D02*
X37360000Y-72720000D01*
X38640000Y-64450000D02*
X38640000Y-65050000D01*
X35890000Y-65750000D02*
X36190000Y-66050000D01*
X37360000Y-72720000D02*
X36865000Y-72225000D01*
X35890000Y-63550000D02*
X35890000Y-65750000D01*
X36190000Y-65100000D02*
X36240000Y-65050000D01*
X36240000Y-64450000D02*
X36840000Y-64450000D01*
X38040000Y-65050000D02*
X37440000Y-65050000D01*
%TO.N,Net-(J3-Pad1)*%
X51040000Y-120040000D02*
X51040000Y-121140000D01*
X52370000Y-122470000D02*
X54740000Y-122470000D01*
X51040000Y-121140000D02*
X52370000Y-122470000D01*
%TO.N,Net-(J3-Pad2)*%
X58439999Y-36479999D02*
X58439999Y-89750001D01*
X51040000Y-117500000D02*
X50260000Y-116720000D01*
X58439999Y-89750001D02*
X58140000Y-90050000D01*
X54740000Y-33230000D02*
X54290000Y-33230000D01*
X55190000Y-33230000D02*
X58439999Y-36479999D01*
X54740000Y-33230000D02*
X55190000Y-33230000D01*
X50260000Y-92930000D02*
X51240001Y-91949999D01*
X51240001Y-91949999D02*
X51540000Y-91650000D01*
X50260000Y-116720000D02*
X50260000Y-92930000D01*
%TO.N,Net-(C6-Pad1)*%
X34640000Y-49600000D02*
X34640000Y-51050000D01*
X34640000Y-51050000D02*
X34690000Y-51100000D01*
%TO.N,Net-(C13-Pad1)*%
X36040000Y-43150000D02*
X36040000Y-43750000D01*
D49*
X39620000Y-96770000D02*
X41750000Y-94640000D01*
D50*
X34190000Y-47600000D02*
X34190000Y-44600000D01*
X36340000Y-50900000D02*
X36290000Y-50950000D01*
D49*
X37610000Y-96770000D02*
X39620000Y-96770000D01*
D50*
X36190000Y-49600000D02*
X34190000Y-47600000D01*
X35040000Y-39000000D02*
X35440000Y-39000000D01*
X36340000Y-49600000D02*
X36240000Y-49600000D01*
X36340000Y-49600000D02*
X36190000Y-49600000D01*
X36040000Y-40750000D02*
X36040000Y-41350000D01*
D49*
X41750000Y-91800000D02*
X41750000Y-89810000D01*
D50*
X37720000Y-74440000D02*
X37820000Y-74440000D01*
D49*
X41750000Y-92507106D02*
X41750000Y-91800000D01*
X41750000Y-94640000D02*
X41750000Y-92507106D01*
D50*
X35040000Y-38500000D02*
X35590000Y-38500000D01*
X36340000Y-49600000D02*
X36340000Y-50900000D01*
D49*
X41750000Y-89810000D02*
X41760000Y-89800000D01*
D50*
X40290000Y-71554264D02*
X40290000Y-71130000D01*
X36040000Y-41950000D02*
X36040000Y-42550000D01*
X37820000Y-74440000D02*
X40290000Y-71970000D01*
X40290000Y-71970000D02*
X40290000Y-71554264D01*
X35590000Y-38500000D02*
X36040000Y-38950000D01*
X36040000Y-39550000D02*
X36040000Y-40150000D01*
%TO.N,V_INPUT*%
X41090000Y-83600000D02*
X40905000Y-83785000D01*
D51*
X45720001Y-53179999D02*
X46020000Y-52880000D01*
D50*
X56040000Y-118250000D02*
X55190000Y-118250000D01*
X51740000Y-112850000D02*
X53990000Y-112850000D01*
X41050000Y-112640000D02*
X41050000Y-111770000D01*
D51*
X37940000Y-89450000D02*
X37940000Y-89350000D01*
D50*
X40905000Y-80875000D02*
X40905000Y-80105000D01*
X37490000Y-111240000D02*
X37540000Y-111290000D01*
X46839998Y-45184998D02*
X46640000Y-44985000D01*
X37510000Y-111300000D02*
X37500000Y-111290000D01*
D49*
X45490000Y-53400000D02*
X46939990Y-54849990D01*
X46939990Y-72950010D02*
X46600000Y-73290000D01*
X45640000Y-62250000D02*
X45140000Y-62750000D01*
D51*
X45500000Y-53400000D02*
X45720001Y-53179999D01*
D50*
X56939999Y-115049999D02*
X56940000Y-115049999D01*
X46839998Y-45850008D02*
X46839998Y-45184998D01*
D51*
X45040000Y-85150000D02*
X45040000Y-82950000D01*
X37940000Y-89350000D02*
X39340000Y-87950000D01*
D50*
X46600000Y-79210000D02*
X46600000Y-76940000D01*
X55040000Y-113900000D02*
X54940000Y-113900000D01*
X43670000Y-83600000D02*
X41090000Y-83600000D01*
X46839998Y-45850008D02*
X46839998Y-46515002D01*
X39960000Y-111290000D02*
X39940000Y-111290000D01*
X55190000Y-118250000D02*
X55040000Y-118400000D01*
D51*
X45490000Y-53400000D02*
X45500000Y-53400000D01*
D49*
X46600000Y-73290000D02*
X46600000Y-75490000D01*
D50*
X40905000Y-84555000D02*
X40730000Y-84730000D01*
D51*
X37940000Y-90950002D02*
X39540001Y-92550003D01*
D50*
X51540000Y-113050000D02*
X51740000Y-112850000D01*
D49*
X45640000Y-59350000D02*
X45640000Y-62250000D01*
D51*
X39340000Y-87950000D02*
X42240000Y-87950000D01*
D50*
X55140000Y-113900000D02*
X55790000Y-113900000D01*
D49*
X46939990Y-59300000D02*
X46939990Y-72950010D01*
D50*
X37520000Y-111290000D02*
X37510000Y-111300000D01*
D51*
X42240000Y-87950000D02*
X45040000Y-85150000D01*
X39540001Y-92550003D02*
X40040000Y-93050002D01*
D49*
X45690000Y-59300000D02*
X45640000Y-59350000D01*
D50*
X43670000Y-81100000D02*
X41130000Y-81100000D01*
X37500000Y-111290000D02*
X36830000Y-111290000D01*
X41130000Y-81100000D02*
X40905000Y-80875000D01*
X46839998Y-46515002D02*
X46640000Y-46715000D01*
D51*
X45140000Y-53400000D02*
X45490000Y-53400000D01*
D50*
X55790000Y-113900000D02*
X56939999Y-115049999D01*
X39940000Y-111290000D02*
X39990000Y-111240000D01*
D49*
X46939990Y-59300000D02*
X45690000Y-59300000D01*
D51*
X37940000Y-89450000D02*
X37940000Y-90950002D01*
D50*
X36250000Y-111870000D02*
X36250000Y-112640000D01*
X55040000Y-113900000D02*
X55140000Y-113900000D01*
X46600000Y-76940000D02*
X46600000Y-75490000D01*
X40570000Y-111290000D02*
X39960000Y-111290000D01*
X45840000Y-53200000D02*
X45890000Y-53250000D01*
X53990000Y-112850000D02*
X54440000Y-113300000D01*
X40905000Y-83785000D02*
X40905000Y-84555000D01*
X36830000Y-111290000D02*
X36250000Y-111870000D01*
X40905000Y-80105000D02*
X40730000Y-79930000D01*
X40730000Y-84730000D02*
X39960000Y-84730000D01*
D49*
X46939990Y-54849990D02*
X46939990Y-59300000D01*
D50*
X41050000Y-111770000D02*
X40570000Y-111290000D01*
X40730000Y-79930000D02*
X39960000Y-79930000D01*
X54440000Y-113300000D02*
X55040000Y-113900000D01*
%TD*%
%TA.AperFunction,Conductor*%
%TO.N,Earth*%
G36*
X50056274Y-117946733D02*
G01*
X50111021Y-117991935D01*
X50117795Y-118003159D01*
X50162315Y-118086450D01*
X50293590Y-118246410D01*
X50453550Y-118377685D01*
X50636046Y-118475232D01*
X50834066Y-118535300D01*
X50834070Y-118535300D01*
X50834072Y-118535301D01*
X51039997Y-118555583D01*
X51040000Y-118555583D01*
X51040003Y-118555583D01*
X51245927Y-118535301D01*
X51245928Y-118535300D01*
X51245934Y-118535300D01*
X51443954Y-118475232D01*
X51626450Y-118377685D01*
X51786410Y-118246410D01*
X51816601Y-118209621D01*
X51875276Y-118169653D01*
X51946247Y-118167751D01*
X52006980Y-118204521D01*
X52038192Y-118268289D01*
X52040000Y-118289555D01*
X52040000Y-118650000D01*
X52560827Y-118650000D01*
X52569732Y-118650500D01*
X52572340Y-118650500D01*
X53510268Y-118650500D01*
X53519173Y-118650000D01*
X53681709Y-118650000D01*
X53749830Y-118670002D01*
X53796323Y-118723658D01*
X53806427Y-118793932D01*
X53776933Y-118858512D01*
X53738912Y-118888267D01*
X53654454Y-118931300D01*
X53487892Y-119052315D01*
X53487889Y-119052317D01*
X53342317Y-119197889D01*
X53342315Y-119197892D01*
X53221300Y-119364454D01*
X53127829Y-119547900D01*
X53127826Y-119547906D01*
X53064208Y-119743704D01*
X53055926Y-119796000D01*
X54229940Y-119796000D01*
X54205795Y-119809940D01*
X54149940Y-119865795D01*
X54110444Y-119934204D01*
X54090000Y-120010504D01*
X54090000Y-120089496D01*
X54110444Y-120165796D01*
X54149940Y-120234205D01*
X54205795Y-120290060D01*
X54229940Y-120304000D01*
X53055926Y-120304000D01*
X53064208Y-120356295D01*
X53127826Y-120552093D01*
X53127829Y-120552099D01*
X53221300Y-120735545D01*
X53342315Y-120902107D01*
X53342317Y-120902110D01*
X53487889Y-121047682D01*
X53487892Y-121047684D01*
X53654454Y-121168699D01*
X53837900Y-121262170D01*
X53837909Y-121262174D01*
X53935411Y-121293854D01*
X53994017Y-121333927D01*
X54021655Y-121399323D01*
X54009549Y-121469280D01*
X53961543Y-121521587D01*
X53944695Y-121530096D01*
X53816084Y-121583369D01*
X53652222Y-121692858D01*
X53652215Y-121692863D01*
X53512863Y-121832215D01*
X53512858Y-121832222D01*
X53403369Y-121996084D01*
X53374111Y-122066719D01*
X53329562Y-122121999D01*
X53262199Y-122144420D01*
X53257702Y-122144500D01*
X52557017Y-122144500D01*
X52488896Y-122124498D01*
X52467922Y-122107595D01*
X51665922Y-121305595D01*
X51631896Y-121243283D01*
X51636961Y-121172468D01*
X51679508Y-121115632D01*
X51746028Y-121090821D01*
X51755017Y-121090500D01*
X51909747Y-121090500D01*
X51909748Y-121090500D01*
X51968231Y-121078867D01*
X52034552Y-121034552D01*
X52078867Y-120968231D01*
X52090500Y-120909748D01*
X52090500Y-119170252D01*
X52078867Y-119111769D01*
X52034552Y-119045448D01*
X51968231Y-119001133D01*
X51968228Y-119001132D01*
X51909750Y-118989500D01*
X51909748Y-118989500D01*
X50170252Y-118989500D01*
X50170249Y-118989500D01*
X50111771Y-119001132D01*
X50111767Y-119001133D01*
X50036502Y-119051425D01*
X49968749Y-119072640D01*
X49900282Y-119053857D01*
X49852839Y-119001040D01*
X49840500Y-118946660D01*
X49840500Y-118779729D01*
X49840000Y-118770826D01*
X49840000Y-118191940D01*
X49856883Y-118128937D01*
X49859796Y-118123891D01*
X49859795Y-118123891D01*
X49859799Y-118123886D01*
X49884970Y-118029946D01*
X49921919Y-117969327D01*
X49985779Y-117938305D01*
X50056274Y-117946733D01*
G37*
%TD.AperFunction*%
%TA.AperFunction,Conductor*%
G36*
X59581774Y-23970502D02*
G01*
X59628267Y-24024158D01*
X59639652Y-24076413D01*
X59639708Y-24159012D01*
X59640000Y-24594216D01*
X59640000Y-38730707D01*
X59619998Y-38798828D01*
X59603095Y-38819802D01*
X59549516Y-38873380D01*
X59549508Y-38873390D01*
X59490201Y-38976113D01*
X59481641Y-39008060D01*
X59463406Y-39076116D01*
X59459500Y-39090692D01*
X59459500Y-39209307D01*
X59459499Y-39209307D01*
X59490201Y-39323886D01*
X59526640Y-39387000D01*
X59543378Y-39455995D01*
X59526640Y-39513000D01*
X59490201Y-39576113D01*
X59490201Y-39576114D01*
X59460381Y-39687405D01*
X59459500Y-39690692D01*
X59459500Y-39809307D01*
X59459499Y-39809307D01*
X59490201Y-39923886D01*
X59526640Y-39987000D01*
X59543378Y-40055995D01*
X59526640Y-40113000D01*
X59490201Y-40176113D01*
X59459500Y-40290692D01*
X59459500Y-40409307D01*
X59459499Y-40409307D01*
X59490201Y-40523886D01*
X59549508Y-40626609D01*
X59549516Y-40626619D01*
X59603095Y-40680198D01*
X59637121Y-40742510D01*
X59640000Y-40769293D01*
X59640000Y-65760707D01*
X59619998Y-65828828D01*
X59603095Y-65849802D01*
X59569516Y-65883380D01*
X59569508Y-65883390D01*
X59510201Y-65986113D01*
X59494850Y-66043402D01*
X59486086Y-66076114D01*
X59479500Y-66100692D01*
X59479500Y-66219307D01*
X59479499Y-66219307D01*
X59510201Y-66333886D01*
X59546640Y-66397000D01*
X59563378Y-66465995D01*
X59546640Y-66523000D01*
X59510201Y-66586113D01*
X59501745Y-66617672D01*
X59486086Y-66676114D01*
X59479500Y-66700692D01*
X59479500Y-66819307D01*
X59479499Y-66819307D01*
X59510201Y-66933886D01*
X59546640Y-66997000D01*
X59563378Y-67065995D01*
X59546640Y-67123000D01*
X59510201Y-67186113D01*
X59494850Y-67243402D01*
X59486086Y-67276114D01*
X59479500Y-67300692D01*
X59479500Y-67419307D01*
X59479499Y-67419307D01*
X59510201Y-67533886D01*
X59569508Y-67636609D01*
X59569510Y-67636612D01*
X59569511Y-67636613D01*
X59603095Y-67670197D01*
X59637120Y-67732507D01*
X59640000Y-67759292D01*
X59640000Y-77499550D01*
X59629576Y-82711383D01*
X59609437Y-82779464D01*
X59592671Y-82800226D01*
X59529516Y-82863380D01*
X59529508Y-82863390D01*
X59470201Y-82966113D01*
X59454850Y-83023402D01*
X59440727Y-83076114D01*
X59439500Y-83080692D01*
X59439500Y-83199307D01*
X59439499Y-83199307D01*
X59470201Y-83313886D01*
X59506640Y-83377000D01*
X59523378Y-83445995D01*
X59506640Y-83503000D01*
X59470201Y-83566113D01*
X59454850Y-83623402D01*
X59440727Y-83676114D01*
X59439500Y-83680692D01*
X59439500Y-83799307D01*
X59439499Y-83799307D01*
X59470201Y-83913886D01*
X59506640Y-83977000D01*
X59523378Y-84045995D01*
X59506640Y-84103000D01*
X59470201Y-84166113D01*
X59454850Y-84223402D01*
X59440727Y-84276114D01*
X59439500Y-84280692D01*
X59439500Y-84399307D01*
X59439499Y-84399307D01*
X59470201Y-84513886D01*
X59529508Y-84616609D01*
X59529516Y-84616619D01*
X59602595Y-84689698D01*
X59636621Y-84752010D01*
X59639500Y-84778793D01*
X59639500Y-90841740D01*
X59638422Y-90858187D01*
X59628052Y-90936952D01*
X59619539Y-90968723D01*
X59592324Y-91034426D01*
X59575879Y-91062908D01*
X59532583Y-91119333D01*
X59509333Y-91142583D01*
X59452908Y-91185879D01*
X59424426Y-91202324D01*
X59358723Y-91229539D01*
X59326952Y-91238052D01*
X59248188Y-91248422D01*
X59231741Y-91249500D01*
X53969732Y-91249500D01*
X53960827Y-91250000D01*
X53440000Y-91250000D01*
X53440000Y-91770826D01*
X53439500Y-91779729D01*
X53439500Y-110920267D01*
X53440000Y-110929175D01*
X53440000Y-111450000D01*
X53960827Y-111450000D01*
X53969732Y-111450500D01*
X53972340Y-111450500D01*
X54020009Y-111450500D01*
X54511638Y-111450500D01*
X54579759Y-111470502D01*
X54626252Y-111524158D01*
X54636356Y-111594432D01*
X54606862Y-111659012D01*
X54581640Y-111681265D01*
X54545448Y-111705447D01*
X54501133Y-111771768D01*
X54501132Y-111771772D01*
X54500872Y-111773080D01*
X54499518Y-111775666D01*
X54496383Y-111783237D01*
X54495705Y-111782956D01*
X54467965Y-111835990D01*
X54406271Y-111871123D01*
X54377293Y-111874500D01*
X53527017Y-111874500D01*
X53458896Y-111854498D01*
X53437921Y-111837595D01*
X52889864Y-111289537D01*
X52889858Y-111289532D01*
X52815643Y-111246684D01*
X52815641Y-111246683D01*
X52815639Y-111246682D01*
X52732853Y-111224500D01*
X52732851Y-111224500D01*
X51877752Y-111224500D01*
X51809631Y-111204498D01*
X51782528Y-111181013D01*
X51771127Y-111167856D01*
X51771126Y-111167855D01*
X51650053Y-111090047D01*
X51511961Y-111049500D01*
X51368039Y-111049500D01*
X51229946Y-111090047D01*
X51108873Y-111167855D01*
X51014623Y-111276626D01*
X51014623Y-111276627D01*
X50954835Y-111407543D01*
X50934353Y-111550000D01*
X50954835Y-111692457D01*
X51014623Y-111823373D01*
X51058924Y-111874500D01*
X51108873Y-111932144D01*
X51169409Y-111971048D01*
X51229947Y-112009953D01*
X51368039Y-112050500D01*
X51511961Y-112050500D01*
X51650053Y-112009953D01*
X51771128Y-111932143D01*
X51782528Y-111918987D01*
X51842255Y-111880604D01*
X51877752Y-111875500D01*
X52502982Y-111875500D01*
X52571103Y-111895502D01*
X52592077Y-111912404D01*
X52989078Y-112309404D01*
X53023103Y-112371717D01*
X53018039Y-112442532D01*
X52975492Y-112499368D01*
X52908972Y-112524179D01*
X52899983Y-112524500D01*
X51790587Y-112524500D01*
X51790571Y-112524499D01*
X51782853Y-112524499D01*
X51697147Y-112524499D01*
X51697143Y-112524499D01*
X51619868Y-112545206D01*
X51587256Y-112549500D01*
X51468039Y-112549500D01*
X51329946Y-112590047D01*
X51208873Y-112667855D01*
X51114623Y-112776626D01*
X51071172Y-112871771D01*
X51054835Y-112907543D01*
X51034353Y-113050000D01*
X51054835Y-113192457D01*
X51081317Y-113250444D01*
X51114623Y-113323373D01*
X51208873Y-113432144D01*
X51269409Y-113471048D01*
X51329947Y-113509953D01*
X51468039Y-113550500D01*
X51611961Y-113550500D01*
X51750053Y-113509953D01*
X51871128Y-113432143D01*
X51965377Y-113323373D01*
X51999271Y-113249155D01*
X52045764Y-113195502D01*
X52113884Y-113175500D01*
X53802983Y-113175500D01*
X53871104Y-113195502D01*
X53892078Y-113212405D01*
X54452595Y-113772922D01*
X54486621Y-113835234D01*
X54489500Y-113862017D01*
X54489500Y-114269750D01*
X54491461Y-114279611D01*
X54501133Y-114328231D01*
X54545448Y-114394552D01*
X54611769Y-114438867D01*
X54670252Y-114450500D01*
X54670253Y-114450500D01*
X55609747Y-114450500D01*
X55609748Y-114450500D01*
X55668231Y-114438867D01*
X55702329Y-114416082D01*
X55770077Y-114394867D01*
X55838545Y-114413648D01*
X55861425Y-114431752D01*
X56397448Y-114967775D01*
X56431474Y-115030087D01*
X56432661Y-115041138D01*
X56433071Y-115041080D01*
X56434353Y-115049997D01*
X56434353Y-115049999D01*
X56454835Y-115192456D01*
X56514623Y-115323372D01*
X56560767Y-115376626D01*
X56608873Y-115432143D01*
X56636977Y-115450204D01*
X56729947Y-115509952D01*
X56868039Y-115550499D01*
X57011961Y-115550499D01*
X57150053Y-115509952D01*
X57271128Y-115432142D01*
X57365377Y-115323372D01*
X57425165Y-115192456D01*
X57445647Y-115049999D01*
X57425165Y-114907542D01*
X57394640Y-114840704D01*
X57384536Y-114770431D01*
X57414029Y-114705850D01*
X57441129Y-114682366D01*
X57477265Y-114659144D01*
X57477269Y-114659138D01*
X57480575Y-114656276D01*
X57484556Y-114654457D01*
X57484847Y-114654271D01*
X57484873Y-114654312D01*
X57545156Y-114626783D01*
X57563088Y-114625500D01*
X57967347Y-114625500D01*
X58035468Y-114645502D01*
X58081961Y-114699158D01*
X58090926Y-114726918D01*
X58100813Y-114776626D01*
X58101133Y-114778231D01*
X58145448Y-114844552D01*
X58211769Y-114888867D01*
X58270252Y-114900500D01*
X58270253Y-114900500D01*
X59209747Y-114900500D01*
X59209748Y-114900500D01*
X59268231Y-114888867D01*
X59334552Y-114844552D01*
X59378867Y-114778231D01*
X59389921Y-114722659D01*
X59422829Y-114659750D01*
X59484524Y-114624618D01*
X59555418Y-114628418D01*
X59613004Y-114669944D01*
X59638999Y-114736011D01*
X59639500Y-114747241D01*
X59639500Y-115450204D01*
X59619498Y-115518325D01*
X59565842Y-115564818D01*
X59495568Y-115574922D01*
X59444038Y-115553577D01*
X59443876Y-115553875D01*
X59441105Y-115552362D01*
X59437993Y-115551073D01*
X59435968Y-115549557D01*
X59435964Y-115549555D01*
X59299093Y-115498505D01*
X59238597Y-115492000D01*
X58994000Y-115492000D01*
X58994000Y-117308000D01*
X59238585Y-117308000D01*
X59238597Y-117307999D01*
X59304232Y-117300942D01*
X59374100Y-117313547D01*
X59426063Y-117361925D01*
X59439409Y-117393609D01*
X59450201Y-117433886D01*
X59486640Y-117497000D01*
X59503378Y-117565995D01*
X59486639Y-117623002D01*
X59456383Y-117675405D01*
X59405000Y-117724397D01*
X59335286Y-117737832D01*
X59277264Y-117717169D01*
X59268231Y-117711133D01*
X59268228Y-117711132D01*
X59209750Y-117699500D01*
X59209748Y-117699500D01*
X58270252Y-117699500D01*
X58270249Y-117699500D01*
X58211771Y-117711132D01*
X58211768Y-117711133D01*
X58145448Y-117755448D01*
X58101133Y-117821768D01*
X58101132Y-117821771D01*
X58089500Y-117880249D01*
X58089500Y-118719750D01*
X58099445Y-118769748D01*
X58101133Y-118778231D01*
X58145448Y-118844552D01*
X58211769Y-118888867D01*
X58270252Y-118900500D01*
X58288500Y-118900500D01*
X58356621Y-118920502D01*
X58403114Y-118974158D01*
X58414500Y-119026500D01*
X58414500Y-119287292D01*
X58394498Y-119355413D01*
X58340842Y-119401906D01*
X58313089Y-119410869D01*
X58311777Y-119411129D01*
X58311768Y-119411133D01*
X58245448Y-119455448D01*
X58201133Y-119521768D01*
X58201132Y-119521771D01*
X58189500Y-119580249D01*
X58189500Y-120519750D01*
X58189882Y-120523633D01*
X58189500Y-120525645D01*
X58189500Y-120525938D01*
X58189445Y-120525938D01*
X58176645Y-120593385D01*
X58127800Y-120644908D01*
X58058853Y-120661844D01*
X57991695Y-120638816D01*
X57975391Y-120625065D01*
X57876264Y-120525938D01*
X57627404Y-120277077D01*
X57593379Y-120214765D01*
X57590500Y-120187982D01*
X57590500Y-119580253D01*
X57590499Y-119580249D01*
X57584064Y-119547900D01*
X57578867Y-119521769D01*
X57534552Y-119455448D01*
X57468231Y-119411133D01*
X57468228Y-119411132D01*
X57409750Y-119399500D01*
X57409748Y-119399500D01*
X56670252Y-119399500D01*
X56670249Y-119399500D01*
X56611771Y-119411132D01*
X56611768Y-119411133D01*
X56545448Y-119455447D01*
X56528497Y-119480816D01*
X56474019Y-119526343D01*
X56403576Y-119535189D01*
X56339532Y-119504547D01*
X56311466Y-119468014D01*
X56258701Y-119364457D01*
X56137684Y-119197892D01*
X56137682Y-119197889D01*
X55992110Y-119052317D01*
X55992107Y-119052315D01*
X55890422Y-118978436D01*
X55847068Y-118922214D01*
X55840993Y-118851477D01*
X55874124Y-118788686D01*
X55935945Y-118753774D01*
X55964483Y-118750500D01*
X56111961Y-118750500D01*
X56250053Y-118709953D01*
X56371128Y-118632143D01*
X56465377Y-118523373D01*
X56525165Y-118392457D01*
X56545647Y-118250000D01*
X56525165Y-118107543D01*
X56525164Y-118107541D01*
X56523882Y-118098622D01*
X56526474Y-118098249D01*
X56526470Y-118041013D01*
X56564848Y-117981283D01*
X56629426Y-117951784D01*
X56647369Y-117950500D01*
X57209747Y-117950500D01*
X57209748Y-117950500D01*
X57268231Y-117938867D01*
X57334552Y-117894552D01*
X57378867Y-117828231D01*
X57390500Y-117769748D01*
X57390500Y-116930252D01*
X57378867Y-116871769D01*
X57363384Y-116848597D01*
X57782000Y-116848597D01*
X57788505Y-116909093D01*
X57839555Y-117045964D01*
X57839555Y-117045965D01*
X57927095Y-117162904D01*
X58044034Y-117250444D01*
X58180906Y-117301494D01*
X58241402Y-117307999D01*
X58241415Y-117308000D01*
X58486000Y-117308000D01*
X58486000Y-116654000D01*
X57782000Y-116654000D01*
X57782000Y-116848597D01*
X57363384Y-116848597D01*
X57334552Y-116805448D01*
X57268231Y-116761133D01*
X57268228Y-116761132D01*
X57209750Y-116749500D01*
X57209748Y-116749500D01*
X56270252Y-116749500D01*
X56270249Y-116749500D01*
X56211771Y-116761132D01*
X56211768Y-116761133D01*
X56145448Y-116805448D01*
X56101133Y-116871768D01*
X56101132Y-116871771D01*
X56090926Y-116923082D01*
X56058018Y-116985991D01*
X55996323Y-117021123D01*
X55967347Y-117024500D01*
X55877017Y-117024500D01*
X55808896Y-117004498D01*
X55787921Y-116987595D01*
X55727404Y-116927077D01*
X55693379Y-116864764D01*
X55690500Y-116837982D01*
X55690500Y-116330253D01*
X55690499Y-116330249D01*
X55690489Y-116330201D01*
X55678867Y-116271769D01*
X55634552Y-116205448D01*
X55568231Y-116161133D01*
X55568228Y-116161132D01*
X55517347Y-116151011D01*
X55454438Y-116118102D01*
X55419307Y-116056407D01*
X55423108Y-115985512D01*
X55442938Y-115951402D01*
X57782000Y-115951402D01*
X57782000Y-116146000D01*
X58486000Y-116146000D01*
X58486000Y-115492000D01*
X58241402Y-115492000D01*
X58180906Y-115498505D01*
X58044035Y-115549555D01*
X58044034Y-115549555D01*
X57927095Y-115637095D01*
X57839555Y-115754034D01*
X57839555Y-115754035D01*
X57788505Y-115890906D01*
X57782000Y-115951402D01*
X55442938Y-115951402D01*
X55446707Y-115944919D01*
X55465377Y-115923373D01*
X55525165Y-115792457D01*
X55545647Y-115650000D01*
X55525165Y-115507543D01*
X55465377Y-115376627D01*
X55371128Y-115267857D01*
X55371127Y-115267856D01*
X55371126Y-115267855D01*
X55250053Y-115190047D01*
X55111961Y-115149500D01*
X54968039Y-115149500D01*
X54829946Y-115190047D01*
X54708873Y-115267855D01*
X54614623Y-115376626D01*
X54614623Y-115376627D01*
X54554835Y-115507543D01*
X54534353Y-115650000D01*
X54554835Y-115792457D01*
X54599796Y-115890906D01*
X54614623Y-115923373D01*
X54633293Y-115944919D01*
X54662786Y-116009499D01*
X54652683Y-116079773D01*
X54606191Y-116133429D01*
X54562652Y-116151011D01*
X54511771Y-116161132D01*
X54511768Y-116161133D01*
X54445448Y-116205448D01*
X54401133Y-116271768D01*
X54401132Y-116271771D01*
X54389500Y-116330249D01*
X54389500Y-117069750D01*
X54390223Y-117073387D01*
X54401133Y-117128231D01*
X54445448Y-117194552D01*
X54511769Y-117238867D01*
X54570252Y-117250500D01*
X55077982Y-117250500D01*
X55146103Y-117270502D01*
X55167077Y-117287404D01*
X55425129Y-117545455D01*
X55425150Y-117545478D01*
X55490133Y-117610461D01*
X55490136Y-117610463D01*
X55490138Y-117610465D01*
X55495903Y-117613793D01*
X55496919Y-117614380D01*
X55545913Y-117665762D01*
X55559350Y-117735476D01*
X55532964Y-117801387D01*
X55475132Y-117842570D01*
X55433920Y-117849500D01*
X54570249Y-117849500D01*
X54511771Y-117861132D01*
X54511768Y-117861133D01*
X54445448Y-117905448D01*
X54401133Y-117971768D01*
X54401132Y-117971771D01*
X54389500Y-118030249D01*
X54389500Y-118616000D01*
X54369498Y-118684121D01*
X54315842Y-118730614D01*
X54263500Y-118742000D01*
X54237061Y-118742000D01*
X54185711Y-118750133D01*
X54115300Y-118741033D01*
X54060986Y-118695311D01*
X54040013Y-118627483D01*
X54040000Y-118625684D01*
X54040000Y-118129175D01*
X54040500Y-118120267D01*
X54040500Y-114779729D01*
X54040000Y-114770826D01*
X54040000Y-114250000D01*
X53519173Y-114250000D01*
X53510268Y-114249500D01*
X53507660Y-114249500D01*
X53459991Y-114249500D01*
X52666929Y-114249500D01*
X52640000Y-114249500D01*
X52572340Y-114249500D01*
X52569732Y-114249500D01*
X52560827Y-114250000D01*
X52040000Y-114250000D01*
X52040000Y-114770826D01*
X52039500Y-114779729D01*
X52039500Y-114883942D01*
X52019498Y-114952063D01*
X51965842Y-114998556D01*
X51895568Y-115008660D01*
X51830988Y-114979166D01*
X51824405Y-114973037D01*
X51710894Y-114859526D01*
X51710891Y-114859524D01*
X51710890Y-114859523D01*
X51588055Y-114782340D01*
X51567689Y-114769543D01*
X51445871Y-114726918D01*
X51408059Y-114713687D01*
X51240000Y-114694751D01*
X51071941Y-114713687D01*
X51071938Y-114713687D01*
X51071938Y-114713688D01*
X50912309Y-114769544D01*
X50912307Y-114769545D01*
X50778536Y-114853600D01*
X50710215Y-114872906D01*
X50642302Y-114852211D01*
X50596359Y-114798084D01*
X50585500Y-114746913D01*
X50585500Y-93117016D01*
X50605502Y-93048895D01*
X50622400Y-93027925D01*
X51429487Y-92220837D01*
X51429497Y-92220830D01*
X51462923Y-92187405D01*
X51525235Y-92153379D01*
X51552018Y-92150500D01*
X51611961Y-92150500D01*
X51750053Y-92109953D01*
X51871128Y-92032143D01*
X51965377Y-91923373D01*
X52025165Y-91792457D01*
X52045647Y-91650000D01*
X52025165Y-91507543D01*
X51965377Y-91376627D01*
X51871128Y-91267857D01*
X51871127Y-91267856D01*
X51871126Y-91267855D01*
X51750053Y-91190047D01*
X51611961Y-91149500D01*
X51468039Y-91149500D01*
X51329946Y-91190047D01*
X51208873Y-91267855D01*
X51114623Y-91376626D01*
X51054835Y-91507543D01*
X51033071Y-91658919D01*
X51029852Y-91658456D01*
X51014351Y-91711249D01*
X50997451Y-91732221D01*
X50983071Y-91746602D01*
X50979536Y-91750137D01*
X50979534Y-91750139D01*
X50508843Y-92220830D01*
X50055595Y-92674078D01*
X49993283Y-92708103D01*
X49922467Y-92703038D01*
X49865632Y-92660491D01*
X49840821Y-92593971D01*
X49840500Y-92584982D01*
X49840500Y-85279729D01*
X49840000Y-85270826D01*
X49840000Y-84691940D01*
X49856883Y-84628937D01*
X49859796Y-84623891D01*
X49859795Y-84623891D01*
X49859799Y-84623886D01*
X49890500Y-84509309D01*
X49890500Y-84390691D01*
X49859799Y-84276114D01*
X49856879Y-84271057D01*
X49840000Y-84208060D01*
X49840000Y-84091940D01*
X49856883Y-84028937D01*
X49859796Y-84023891D01*
X49859795Y-84023891D01*
X49859799Y-84023886D01*
X49890500Y-83909309D01*
X49890500Y-83790691D01*
X49859799Y-83676114D01*
X49856879Y-83671057D01*
X49840000Y-83608060D01*
X49840000Y-83491940D01*
X49856883Y-83428937D01*
X49859796Y-83423891D01*
X49859795Y-83423891D01*
X49859799Y-83423886D01*
X49890500Y-83309309D01*
X49890500Y-83190691D01*
X49859799Y-83076114D01*
X49856879Y-83071057D01*
X49840000Y-83008060D01*
X49840000Y-82429175D01*
X49840500Y-82420267D01*
X49840500Y-68279729D01*
X49840000Y-68270826D01*
X49840000Y-67691940D01*
X49856883Y-67628937D01*
X49859796Y-67623891D01*
X49859795Y-67623891D01*
X49859799Y-67623886D01*
X49890500Y-67509309D01*
X49890500Y-67390691D01*
X49859799Y-67276114D01*
X49856879Y-67271057D01*
X49840000Y-67208060D01*
X49840000Y-67091940D01*
X49856883Y-67028937D01*
X49859796Y-67023891D01*
X49859795Y-67023891D01*
X49859799Y-67023886D01*
X49890500Y-66909309D01*
X49890500Y-66790691D01*
X49859799Y-66676114D01*
X49856879Y-66671057D01*
X49840000Y-66608060D01*
X49840000Y-66491940D01*
X49856883Y-66428937D01*
X49859796Y-66423891D01*
X49859795Y-66423891D01*
X49859799Y-66423886D01*
X49890500Y-66309309D01*
X49890500Y-66190691D01*
X49859799Y-66076114D01*
X49856879Y-66071057D01*
X49840000Y-66008060D01*
X49840000Y-65429175D01*
X49840500Y-65420267D01*
X49840500Y-43552540D01*
X49860502Y-43484419D01*
X49914158Y-43437926D01*
X49984432Y-43427822D01*
X50049012Y-43457316D01*
X50061725Y-43470028D01*
X50064622Y-43473371D01*
X50064623Y-43473373D01*
X50133221Y-43552540D01*
X50158873Y-43582144D01*
X50219409Y-43621048D01*
X50279947Y-43659953D01*
X50418039Y-43700500D01*
X50561961Y-43700500D01*
X50700053Y-43659953D01*
X50821128Y-43582143D01*
X50915377Y-43473373D01*
X50975165Y-43342457D01*
X50995647Y-43200000D01*
X50975165Y-43057543D01*
X50915377Y-42926627D01*
X50821128Y-42817857D01*
X50821127Y-42817856D01*
X50821126Y-42817855D01*
X50700053Y-42740047D01*
X50581003Y-42705091D01*
X50521277Y-42666708D01*
X50491784Y-42602127D01*
X50490501Y-42584195D01*
X50490501Y-42166059D01*
X50510503Y-42097938D01*
X50564159Y-42051445D01*
X50634433Y-42041341D01*
X50699013Y-42070835D01*
X50705596Y-42076964D01*
X50769105Y-42140473D01*
X50769107Y-42140474D01*
X50769110Y-42140477D01*
X50912310Y-42230456D01*
X51071941Y-42286313D01*
X51240000Y-42305249D01*
X51408059Y-42286313D01*
X51567690Y-42230456D01*
X51710890Y-42140477D01*
X51830477Y-42020890D01*
X51906813Y-41899403D01*
X51959992Y-41852365D01*
X52030159Y-41841545D01*
X52095037Y-41870378D01*
X52134028Y-41929710D01*
X52139500Y-41966439D01*
X52139500Y-66047825D01*
X52119498Y-66115946D01*
X52065842Y-66162439D01*
X51995568Y-66172543D01*
X51976932Y-66168401D01*
X51970313Y-66166394D01*
X51970306Y-66166392D01*
X51970301Y-66166391D01*
X51970303Y-66166391D01*
X51892288Y-66150874D01*
X51892256Y-66150868D01*
X51872302Y-66147909D01*
X51847758Y-66145492D01*
X51847732Y-66145490D01*
X51827591Y-66144500D01*
X51827590Y-66144500D01*
X50802410Y-66144500D01*
X50802408Y-66144500D01*
X50782266Y-66145490D01*
X50782240Y-66145492D01*
X50757704Y-66147908D01*
X50737762Y-66150865D01*
X50737747Y-66150868D01*
X50712025Y-66155983D01*
X50712024Y-66155982D01*
X50712024Y-66155983D01*
X50659695Y-66166391D01*
X50621136Y-66178087D01*
X50575713Y-66196902D01*
X50540188Y-66215891D01*
X50484540Y-66253074D01*
X50484536Y-66253076D01*
X50453394Y-66278633D01*
X50453377Y-66278649D01*
X50418649Y-66313377D01*
X50418633Y-66313394D01*
X50393076Y-66344536D01*
X50393074Y-66344540D01*
X50355891Y-66400188D01*
X50336899Y-66435719D01*
X50318090Y-66481132D01*
X50318087Y-66481139D01*
X50306396Y-66519679D01*
X50306393Y-66519691D01*
X50291396Y-66595092D01*
X50291376Y-66595191D01*
X50290864Y-66597759D01*
X50287912Y-66617672D01*
X50287910Y-66617687D01*
X50285491Y-66642244D01*
X50285490Y-66642266D01*
X50284500Y-66662407D01*
X50284500Y-68437591D01*
X50285490Y-68457732D01*
X50285492Y-68457758D01*
X50287909Y-68482302D01*
X50290868Y-68502256D01*
X50290874Y-68502288D01*
X50306391Y-68580303D01*
X50306392Y-68580308D01*
X50318084Y-68618851D01*
X50318088Y-68618864D01*
X50336903Y-68664287D01*
X50355886Y-68699804D01*
X50355888Y-68699806D01*
X50393071Y-68755456D01*
X50393074Y-68755460D01*
X50393077Y-68755464D01*
X50407529Y-68773074D01*
X50418628Y-68786597D01*
X50418648Y-68786619D01*
X50453379Y-68821350D01*
X50453389Y-68821359D01*
X50453394Y-68821364D01*
X50484533Y-68846920D01*
X50540185Y-68884106D01*
X50575715Y-68903097D01*
X50607263Y-68916164D01*
X50621119Y-68921904D01*
X50621134Y-68921910D01*
X50659686Y-68933605D01*
X50707863Y-68943187D01*
X50707864Y-68943188D01*
X50707865Y-68943188D01*
X50737735Y-68949130D01*
X50757687Y-68952089D01*
X50782268Y-68954510D01*
X50802410Y-68955500D01*
X50802412Y-68955500D01*
X51827588Y-68955500D01*
X51827590Y-68955500D01*
X51847733Y-68954510D01*
X51872313Y-68952089D01*
X51892263Y-68949130D01*
X51892270Y-68949129D01*
X51962695Y-68935119D01*
X51970315Y-68933604D01*
X51970323Y-68933601D01*
X51973166Y-68933036D01*
X51974391Y-68932367D01*
X51976958Y-68931589D01*
X51980603Y-68931557D01*
X51986027Y-68930479D01*
X51986231Y-68931508D01*
X52047952Y-68930975D01*
X52108007Y-68968841D01*
X52138058Y-69033165D01*
X52139500Y-69052174D01*
X52139500Y-88920267D01*
X52140000Y-88929175D01*
X52140000Y-89450000D01*
X52660827Y-89450000D01*
X52669732Y-89450500D01*
X52672340Y-89450500D01*
X56210268Y-89450500D01*
X56219173Y-89450000D01*
X56740000Y-89450000D01*
X56740000Y-88929175D01*
X56740500Y-88920267D01*
X56740500Y-38679729D01*
X56740000Y-38670826D01*
X56740000Y-38150000D01*
X56219173Y-38150000D01*
X56210268Y-38149500D01*
X56207660Y-38149500D01*
X56159991Y-38149500D01*
X55775981Y-38149500D01*
X55707860Y-38129498D01*
X55661367Y-38075842D01*
X55651263Y-38005568D01*
X55664859Y-37964104D01*
X55722193Y-37856838D01*
X55782692Y-37657397D01*
X55803119Y-37450000D01*
X55803119Y-37449997D01*
X55782692Y-37242602D01*
X55722194Y-37043163D01*
X55689589Y-36982164D01*
X55675117Y-36912658D01*
X55700520Y-36846361D01*
X55743508Y-36810500D01*
X55825545Y-36768699D01*
X55992107Y-36647684D01*
X55992110Y-36647682D01*
X56137682Y-36502110D01*
X56137684Y-36502107D01*
X56258699Y-36335545D01*
X56352170Y-36152099D01*
X56352173Y-36152093D01*
X56415791Y-35956295D01*
X56424074Y-35904000D01*
X55250060Y-35904000D01*
X55274205Y-35890060D01*
X55330060Y-35834205D01*
X55369556Y-35765796D01*
X55390000Y-35689496D01*
X55390000Y-35610504D01*
X55369556Y-35534204D01*
X55330060Y-35465795D01*
X55274205Y-35409940D01*
X55250060Y-35396000D01*
X56424074Y-35396000D01*
X56415792Y-35343706D01*
X56372172Y-35209459D01*
X56370144Y-35138491D01*
X56406807Y-35077693D01*
X56470519Y-35046367D01*
X56541053Y-35054460D01*
X56581100Y-35081427D01*
X58077594Y-36577920D01*
X58111619Y-36640232D01*
X58114499Y-36667015D01*
X58114499Y-89441535D01*
X58094497Y-89509656D01*
X58040841Y-89556149D01*
X58023998Y-89562431D01*
X57929946Y-89590047D01*
X57808873Y-89667855D01*
X57714623Y-89776626D01*
X57654835Y-89907543D01*
X57634353Y-90050000D01*
X57654835Y-90192456D01*
X57714623Y-90323373D01*
X57808873Y-90432144D01*
X57869409Y-90471048D01*
X57929947Y-90509953D01*
X58068039Y-90550500D01*
X58211961Y-90550500D01*
X58350053Y-90509953D01*
X58471128Y-90432143D01*
X58565377Y-90323373D01*
X58625165Y-90192457D01*
X58645647Y-90050000D01*
X58645646Y-90049998D01*
X58646929Y-90041081D01*
X58650147Y-90041543D01*
X58665649Y-89988749D01*
X58682550Y-89967776D01*
X58700464Y-89949863D01*
X58743317Y-89875639D01*
X58750150Y-89850138D01*
X58765500Y-89792854D01*
X58765500Y-89707148D01*
X58765500Y-89699431D01*
X58765499Y-89699413D01*
X58765499Y-36533015D01*
X58765500Y-36533002D01*
X58765500Y-36437146D01*
X58765499Y-36437142D01*
X58743318Y-36354364D01*
X58743317Y-36354363D01*
X58743317Y-36354361D01*
X58700464Y-36280137D01*
X58700461Y-36280134D01*
X58700458Y-36280130D01*
X58635472Y-36215144D01*
X58635449Y-36215123D01*
X56150107Y-33729780D01*
X56116081Y-33667468D01*
X56121146Y-33596652D01*
X56122772Y-33592520D01*
X56152051Y-33521835D01*
X56190500Y-33328541D01*
X56190500Y-33131459D01*
X56152051Y-32938165D01*
X56076632Y-32756086D01*
X55967139Y-32592218D01*
X55827782Y-32452861D01*
X55663914Y-32343368D01*
X55481838Y-32267950D01*
X55481835Y-32267949D01*
X55288544Y-32229500D01*
X55288541Y-32229500D01*
X54191459Y-32229500D01*
X54191455Y-32229500D01*
X53998164Y-32267949D01*
X53998161Y-32267950D01*
X53816085Y-32343368D01*
X53652222Y-32452858D01*
X53652215Y-32452863D01*
X53512863Y-32592215D01*
X53512858Y-32592222D01*
X53403368Y-32756085D01*
X53327950Y-32938161D01*
X53327949Y-32938164D01*
X53289500Y-33131455D01*
X53289500Y-33328544D01*
X53327949Y-33521835D01*
X53327950Y-33521838D01*
X53357205Y-33592465D01*
X53403368Y-33703914D01*
X53512861Y-33867782D01*
X53652218Y-34007139D01*
X53816086Y-34116632D01*
X53879390Y-34142853D01*
X53944694Y-34169903D01*
X53999975Y-34214451D01*
X54022396Y-34281815D01*
X54004838Y-34350606D01*
X53952876Y-34398984D01*
X53935413Y-34406145D01*
X53837902Y-34437828D01*
X53837900Y-34437829D01*
X53654454Y-34531300D01*
X53487892Y-34652315D01*
X53487889Y-34652317D01*
X53342317Y-34797889D01*
X53342315Y-34797892D01*
X53221300Y-34964454D01*
X53127829Y-35147900D01*
X53127826Y-35147906D01*
X53064208Y-35343704D01*
X53055926Y-35396000D01*
X54229940Y-35396000D01*
X54205795Y-35409940D01*
X54149940Y-35465795D01*
X54110444Y-35534204D01*
X54090000Y-35610504D01*
X54090000Y-35689496D01*
X54110444Y-35765796D01*
X54149940Y-35834205D01*
X54205795Y-35890060D01*
X54229940Y-35904000D01*
X53055926Y-35904000D01*
X53064208Y-35956295D01*
X53127826Y-36152093D01*
X53127829Y-36152099D01*
X53221300Y-36335545D01*
X53342315Y-36502107D01*
X53342317Y-36502110D01*
X53487889Y-36647682D01*
X53487892Y-36647684D01*
X53654457Y-36768701D01*
X53736490Y-36810499D01*
X53788106Y-36859247D01*
X53805172Y-36928162D01*
X53790411Y-36982161D01*
X53757805Y-37043163D01*
X53697307Y-37242602D01*
X53688074Y-37336351D01*
X53661491Y-37402183D01*
X53603537Y-37443192D01*
X53562681Y-37450000D01*
X53319173Y-37450000D01*
X53310268Y-37449500D01*
X53307660Y-37449500D01*
X53259991Y-37449500D01*
X52766929Y-37449500D01*
X52740000Y-37449500D01*
X52672340Y-37449500D01*
X52669732Y-37449500D01*
X52660827Y-37450000D01*
X52207849Y-37450000D01*
X52139728Y-37429998D01*
X52093235Y-37376342D01*
X52082642Y-37338111D01*
X52076313Y-37281941D01*
X52020456Y-37122310D01*
X51930477Y-36979110D01*
X51930473Y-36979106D01*
X51930473Y-36979105D01*
X51810894Y-36859526D01*
X51810891Y-36859524D01*
X51810890Y-36859523D01*
X51729700Y-36808507D01*
X51667689Y-36769543D01*
X51558485Y-36731331D01*
X51508059Y-36713687D01*
X51340000Y-36694751D01*
X51171941Y-36713687D01*
X51171938Y-36713687D01*
X51171938Y-36713688D01*
X51012310Y-36769543D01*
X50947129Y-36810500D01*
X50869110Y-36859523D01*
X50869108Y-36859524D01*
X50869106Y-36859526D01*
X50869105Y-36859526D01*
X50749526Y-36979105D01*
X50749526Y-36979106D01*
X50659543Y-37122310D01*
X50617452Y-37242602D01*
X50603687Y-37281941D01*
X50584751Y-37450000D01*
X50603687Y-37618059D01*
X50603688Y-37618061D01*
X50659543Y-37777689D01*
X50659544Y-37777690D01*
X50749523Y-37920890D01*
X50749526Y-37920893D01*
X50749526Y-37920894D01*
X50869105Y-38040473D01*
X50869107Y-38040474D01*
X50869110Y-38040477D01*
X51012310Y-38130456D01*
X51171941Y-38186313D01*
X51340000Y-38205249D01*
X51508059Y-38186313D01*
X51667690Y-38130456D01*
X51810890Y-38040477D01*
X51810894Y-38040473D01*
X51924405Y-37926963D01*
X51986717Y-37892937D01*
X52057532Y-37898002D01*
X52114368Y-37940549D01*
X52139179Y-38007069D01*
X52139500Y-38016058D01*
X52139500Y-41133560D01*
X52119498Y-41201681D01*
X52065842Y-41248174D01*
X51995568Y-41258278D01*
X51930988Y-41228784D01*
X51906813Y-41200597D01*
X51830474Y-41079106D01*
X51710894Y-40959526D01*
X51710891Y-40959524D01*
X51710890Y-40959523D01*
X51629700Y-40908507D01*
X51567689Y-40869543D01*
X51434877Y-40823071D01*
X51408059Y-40813687D01*
X51240000Y-40794751D01*
X51071941Y-40813687D01*
X51071938Y-40813687D01*
X51071938Y-40813688D01*
X50912310Y-40869543D01*
X50827721Y-40922695D01*
X50769110Y-40959523D01*
X50769108Y-40959524D01*
X50769106Y-40959526D01*
X50769105Y-40959526D01*
X50705596Y-41023036D01*
X50643284Y-41057062D01*
X50572469Y-41051997D01*
X50515633Y-41009450D01*
X50490822Y-40942930D01*
X50490501Y-40933941D01*
X50490501Y-39876660D01*
X50510503Y-39808539D01*
X50527406Y-39787565D01*
X50627566Y-39687405D01*
X50689878Y-39653379D01*
X50716661Y-39650500D01*
X50811961Y-39650500D01*
X50950053Y-39609953D01*
X51071128Y-39532143D01*
X51165377Y-39423373D01*
X51225165Y-39292457D01*
X51245647Y-39150000D01*
X51225165Y-39007543D01*
X51165377Y-38876627D01*
X51071128Y-38767857D01*
X51071127Y-38767856D01*
X51071126Y-38767855D01*
X50950053Y-38690047D01*
X50811961Y-38649500D01*
X50668039Y-38649500D01*
X50529946Y-38690047D01*
X50408873Y-38767855D01*
X50314623Y-38876626D01*
X50254835Y-39007543D01*
X50234353Y-39150002D01*
X50234353Y-39150004D01*
X50235518Y-39158110D01*
X50225411Y-39228384D01*
X50199896Y-39265131D01*
X50105596Y-39359432D01*
X50043284Y-39393457D01*
X49972468Y-39388393D01*
X49915632Y-39345847D01*
X49890821Y-39279326D01*
X49890500Y-39270337D01*
X49890500Y-39190692D01*
X49879597Y-39150002D01*
X49859799Y-39076114D01*
X49856879Y-39071057D01*
X49840000Y-39008060D01*
X49840000Y-38429175D01*
X49840500Y-38420267D01*
X49840500Y-36276748D01*
X49860502Y-36208627D01*
X49914158Y-36162134D01*
X49984432Y-36152030D01*
X50036499Y-36171982D01*
X50061769Y-36188867D01*
X50120252Y-36200500D01*
X50120253Y-36200500D01*
X50859747Y-36200500D01*
X50859748Y-36200500D01*
X50918231Y-36188867D01*
X50984552Y-36144552D01*
X51028867Y-36078231D01*
X51040500Y-36019748D01*
X51040500Y-35080252D01*
X51040499Y-35080249D01*
X51639500Y-35080249D01*
X51639500Y-35080251D01*
X51639500Y-35080252D01*
X51639500Y-36019748D01*
X51651133Y-36078231D01*
X51695448Y-36144552D01*
X51761769Y-36188867D01*
X51820252Y-36200500D01*
X51820253Y-36200500D01*
X52559747Y-36200500D01*
X52559748Y-36200500D01*
X52618231Y-36188867D01*
X52684552Y-36144552D01*
X52728867Y-36078231D01*
X52740500Y-36019748D01*
X52740500Y-35080252D01*
X52728867Y-35021769D01*
X52728865Y-35021767D01*
X52728480Y-35019828D01*
X52727342Y-34977313D01*
X52745647Y-34850003D01*
X52745647Y-34850002D01*
X52738155Y-34797892D01*
X52725165Y-34707543D01*
X52665377Y-34576627D01*
X52571128Y-34467857D01*
X52571127Y-34467856D01*
X52571126Y-34467855D01*
X52450053Y-34390047D01*
X52311961Y-34349500D01*
X52168039Y-34349500D01*
X52029946Y-34390047D01*
X51908873Y-34467855D01*
X51814623Y-34576626D01*
X51814623Y-34576627D01*
X51754835Y-34707543D01*
X51741846Y-34797889D01*
X51734353Y-34850002D01*
X51734353Y-34859011D01*
X51731836Y-34859011D01*
X51723634Y-34916030D01*
X51698123Y-34952772D01*
X51695449Y-34955445D01*
X51651133Y-35021768D01*
X51651132Y-35021771D01*
X51639500Y-35080249D01*
X51040499Y-35080249D01*
X51028867Y-35021769D01*
X50984552Y-34955448D01*
X50918231Y-34911133D01*
X50918222Y-34911129D01*
X50916911Y-34910869D01*
X50914319Y-34909513D01*
X50906763Y-34906383D01*
X50907043Y-34905706D01*
X50854003Y-34877958D01*
X50818875Y-34816261D01*
X50815500Y-34787292D01*
X50815500Y-34203016D01*
X50815501Y-34203003D01*
X50815501Y-34107147D01*
X50815500Y-34107143D01*
X50793318Y-34024362D01*
X50793318Y-34024361D01*
X50783375Y-34007139D01*
X50782380Y-34005415D01*
X50765500Y-33942417D01*
X50765500Y-31850000D01*
X52790000Y-31850000D01*
X56790000Y-31850000D01*
X56790000Y-27662500D01*
X52790000Y-27662500D01*
X52790000Y-31850000D01*
X50765500Y-31850000D01*
X50765500Y-25837017D01*
X50785502Y-25768896D01*
X50802405Y-25747922D01*
X51237922Y-25312405D01*
X51300234Y-25278379D01*
X51327017Y-25275500D01*
X53270106Y-25275500D01*
X53338227Y-25295502D01*
X53384720Y-25349158D01*
X53386514Y-25353280D01*
X53397677Y-25380229D01*
X53397677Y-25380230D01*
X53397678Y-25380231D01*
X53501698Y-25535908D01*
X53634092Y-25668302D01*
X53789769Y-25772322D01*
X53962749Y-25843973D01*
X54146384Y-25880500D01*
X54146385Y-25880500D01*
X55333615Y-25880500D01*
X55333616Y-25880500D01*
X55517251Y-25843973D01*
X55690231Y-25772322D01*
X55845908Y-25668302D01*
X55978302Y-25535908D01*
X56082322Y-25380231D01*
X56153973Y-25207251D01*
X56190500Y-25023616D01*
X56190500Y-24836384D01*
X56153973Y-24652749D01*
X56082322Y-24479769D01*
X55978302Y-24324092D01*
X55845908Y-24191698D01*
X55830294Y-24181265D01*
X55784766Y-24126788D01*
X55775918Y-24056345D01*
X55806559Y-23992301D01*
X55866961Y-23954990D01*
X55900296Y-23950500D01*
X59513653Y-23950500D01*
X59581774Y-23970502D01*
G37*
%TD.AperFunction*%
%TA.AperFunction,Conductor*%
G36*
X57883185Y-111470502D02*
G01*
X57929678Y-111524158D01*
X57939782Y-111594432D01*
X57915932Y-111652009D01*
X57839555Y-111754034D01*
X57839555Y-111754035D01*
X57788505Y-111890906D01*
X57782000Y-111951402D01*
X57782000Y-112146000D01*
X58868000Y-112146000D01*
X58936121Y-112166002D01*
X58982614Y-112219658D01*
X58994000Y-112272000D01*
X58994000Y-113308000D01*
X59238585Y-113308000D01*
X59238597Y-113307999D01*
X59299093Y-113301494D01*
X59435964Y-113250444D01*
X59437986Y-113248931D01*
X59440355Y-113248046D01*
X59443876Y-113246125D01*
X59444152Y-113246630D01*
X59504504Y-113224117D01*
X59573879Y-113239204D01*
X59624084Y-113289404D01*
X59639500Y-113349795D01*
X59639500Y-113852758D01*
X59619498Y-113920879D01*
X59565842Y-113967372D01*
X59495568Y-113977476D01*
X59430988Y-113947982D01*
X59392604Y-113888256D01*
X59389921Y-113877340D01*
X59380152Y-113828231D01*
X59378867Y-113821769D01*
X59334552Y-113755448D01*
X59268231Y-113711133D01*
X59268228Y-113711132D01*
X59209750Y-113699500D01*
X59209748Y-113699500D01*
X58270252Y-113699500D01*
X58270249Y-113699500D01*
X58211771Y-113711132D01*
X58211768Y-113711133D01*
X58145448Y-113755448D01*
X58101133Y-113821768D01*
X58101132Y-113821771D01*
X58090926Y-113873082D01*
X58058018Y-113935991D01*
X57996323Y-113971123D01*
X57967347Y-113974500D01*
X57603817Y-113974500D01*
X57535696Y-113954498D01*
X57508594Y-113931013D01*
X57477265Y-113894858D01*
X57477264Y-113894857D01*
X57448379Y-113876294D01*
X57401886Y-113822638D01*
X57390500Y-113770296D01*
X57390500Y-112930253D01*
X57390499Y-112930249D01*
X57385982Y-112907543D01*
X57378867Y-112871769D01*
X57363384Y-112848597D01*
X57782000Y-112848597D01*
X57788505Y-112909093D01*
X57839555Y-113045964D01*
X57839555Y-113045965D01*
X57927095Y-113162904D01*
X58044034Y-113250444D01*
X58180906Y-113301494D01*
X58241402Y-113307999D01*
X58241415Y-113308000D01*
X58486000Y-113308000D01*
X58486000Y-112654000D01*
X57782000Y-112654000D01*
X57782000Y-112848597D01*
X57363384Y-112848597D01*
X57334552Y-112805448D01*
X57268231Y-112761133D01*
X57268228Y-112761132D01*
X57209750Y-112749500D01*
X57209748Y-112749500D01*
X56270252Y-112749500D01*
X56270251Y-112749500D01*
X56270241Y-112749501D01*
X56235857Y-112756340D01*
X56165143Y-112750011D01*
X56122182Y-112721856D01*
X55827404Y-112427077D01*
X55793379Y-112364765D01*
X55790500Y-112337982D01*
X55790500Y-111830253D01*
X55790499Y-111830249D01*
X55789131Y-111823373D01*
X55778867Y-111771769D01*
X55734552Y-111705448D01*
X55715108Y-111692456D01*
X55698360Y-111681265D01*
X55652832Y-111626788D01*
X55643985Y-111556344D01*
X55674626Y-111492301D01*
X55735028Y-111454989D01*
X55768362Y-111450500D01*
X57815064Y-111450500D01*
X57883185Y-111470502D01*
G37*
%TD.AperFunction*%
%TD*%
%TA.AperFunction,Conductor*%
%TO.N,V_INPUT*%
G36*
X47368326Y-73721674D02*
G01*
X47390000Y-73774000D01*
X47390000Y-81069348D01*
X47368326Y-81121674D01*
X44761674Y-83728326D01*
X44709348Y-83750000D01*
X42214000Y-83750000D01*
X42161674Y-83728326D01*
X42140000Y-83676000D01*
X42140000Y-83124000D01*
X42161674Y-83071674D01*
X42214000Y-83050000D01*
X42840000Y-83050000D01*
X42840000Y-81350000D01*
X42214000Y-81350000D01*
X42161674Y-81328326D01*
X42140000Y-81276000D01*
X42140000Y-80724000D01*
X42161674Y-80671674D01*
X42214000Y-80650000D01*
X44540000Y-80650000D01*
X45840000Y-79350000D01*
X45840000Y-73774000D01*
X45861674Y-73721674D01*
X45914000Y-73700000D01*
X47316000Y-73700000D01*
X47368326Y-73721674D01*
G37*
%TD.AperFunction*%
%TD*%
%TA.AperFunction,Conductor*%
%TO.N,Net-(C12-Pad1)*%
G36*
X41952171Y-106052421D02*
G01*
X42030224Y-106067946D01*
X42075640Y-106086758D01*
X42131295Y-106123945D01*
X42166054Y-106158704D01*
X42203240Y-106214356D01*
X42222053Y-106259775D01*
X42237579Y-106337827D01*
X42240000Y-106362409D01*
X42240000Y-107637590D01*
X42237579Y-107662172D01*
X42222053Y-107740224D01*
X42203240Y-107785643D01*
X42166057Y-107841292D01*
X42131292Y-107876057D01*
X42075643Y-107913240D01*
X42030224Y-107932053D01*
X41971856Y-107943663D01*
X41952170Y-107947579D01*
X41927590Y-107950000D01*
X34352410Y-107950000D01*
X34327829Y-107947579D01*
X34297954Y-107941636D01*
X34249775Y-107932053D01*
X34204356Y-107913240D01*
X34148704Y-107876054D01*
X34113945Y-107841295D01*
X34076758Y-107785640D01*
X34057946Y-107740224D01*
X34042421Y-107662171D01*
X34040000Y-107637590D01*
X34040000Y-106362409D01*
X34042421Y-106337828D01*
X34042421Y-106337827D01*
X34057947Y-106259773D01*
X34076757Y-106214360D01*
X34113947Y-106158701D01*
X34148701Y-106123947D01*
X34204360Y-106086757D01*
X34249775Y-106067946D01*
X34296043Y-106058743D01*
X34327830Y-106052421D01*
X34352410Y-106050000D01*
X41927590Y-106050000D01*
X41952171Y-106052421D01*
G37*
%TD.AperFunction*%
%TD*%
%TA.AperFunction,Conductor*%
%TO.N,Net-(C13-Pad1)*%
G36*
X42152171Y-95852421D02*
G01*
X42230224Y-95867946D01*
X42275640Y-95886758D01*
X42331295Y-95923945D01*
X42366054Y-95958704D01*
X42403240Y-96014356D01*
X42422053Y-96059775D01*
X42437579Y-96137827D01*
X42440000Y-96162409D01*
X42440000Y-97437590D01*
X42437579Y-97462172D01*
X42422053Y-97540224D01*
X42403240Y-97585643D01*
X42366057Y-97641292D01*
X42331292Y-97676057D01*
X42275643Y-97713240D01*
X42230224Y-97732053D01*
X42171856Y-97743663D01*
X42152170Y-97747579D01*
X42127590Y-97750000D01*
X34352410Y-97750000D01*
X34327829Y-97747579D01*
X34297954Y-97741636D01*
X34249775Y-97732053D01*
X34204356Y-97713240D01*
X34148704Y-97676054D01*
X34113945Y-97641295D01*
X34076758Y-97585640D01*
X34057946Y-97540224D01*
X34042421Y-97462171D01*
X34040000Y-97437590D01*
X34040000Y-96162409D01*
X34042421Y-96137828D01*
X34042421Y-96137827D01*
X34057947Y-96059773D01*
X34076757Y-96014360D01*
X34113947Y-95958701D01*
X34148701Y-95923947D01*
X34204360Y-95886757D01*
X34249775Y-95867946D01*
X34296043Y-95858743D01*
X34327830Y-95852421D01*
X34352410Y-95850000D01*
X42127590Y-95850000D01*
X42152171Y-95852421D01*
G37*
%TD.AperFunction*%
%TD*%
%TA.AperFunction,NonConductor*%
G36*
X51852171Y-66352421D02*
G01*
X51930224Y-66367946D01*
X51975640Y-66386758D01*
X52031295Y-66423945D01*
X52066054Y-66458704D01*
X52103240Y-66514356D01*
X52122053Y-66559775D01*
X52137079Y-66635313D01*
X52139500Y-66659895D01*
X52139500Y-68440103D01*
X52137079Y-68464685D01*
X52122053Y-68540224D01*
X52103240Y-68585643D01*
X52066057Y-68641292D01*
X52031292Y-68676057D01*
X51975643Y-68713240D01*
X51930224Y-68732053D01*
X51871856Y-68743663D01*
X51852170Y-68747579D01*
X51827590Y-68750000D01*
X50802410Y-68750000D01*
X50777829Y-68747579D01*
X50747954Y-68741636D01*
X50699775Y-68732053D01*
X50654356Y-68713240D01*
X50598704Y-68676054D01*
X50563945Y-68641295D01*
X50526758Y-68585640D01*
X50507946Y-68540224D01*
X50492421Y-68462171D01*
X50490000Y-68437590D01*
X50490000Y-66662409D01*
X50492421Y-66637828D01*
X50492921Y-66635313D01*
X50507947Y-66559773D01*
X50526757Y-66514360D01*
X50563947Y-66458701D01*
X50598701Y-66423947D01*
X50654360Y-66386757D01*
X50699775Y-66367946D01*
X50746043Y-66358743D01*
X50777830Y-66352421D01*
X50802410Y-66350000D01*
X51827590Y-66350000D01*
X51852171Y-66352421D01*
G37*
%TD.AperFunction*%
%TA.AperFunction,Conductor*%
%TO.N,Net-(C13-Pad1)*%
G36*
X36199562Y-37701902D02*
G01*
X36285492Y-37718994D01*
X36321177Y-37733775D01*
X36385761Y-37776929D01*
X36413070Y-37804238D01*
X36447821Y-37856246D01*
X36456223Y-37868821D01*
X36471005Y-37904507D01*
X36488098Y-37990436D01*
X36490000Y-38009751D01*
X36490000Y-44400000D01*
X36505855Y-44446812D01*
X36505856Y-44446813D01*
X36505862Y-44446834D01*
X37522845Y-47449353D01*
X37525123Y-47457107D01*
X37534044Y-47492799D01*
X37536669Y-47508729D01*
X37539670Y-47545392D01*
X37540000Y-47553468D01*
X37540000Y-54149414D01*
X37777097Y-54149414D01*
X37795830Y-54159904D01*
X37805449Y-54172105D01*
X37820448Y-54194552D01*
X37886769Y-54238867D01*
X37931231Y-54247711D01*
X37945241Y-54250498D01*
X37945246Y-54250498D01*
X37945252Y-54250500D01*
X38089634Y-54250500D01*
X38104162Y-54251571D01*
X38107784Y-54252109D01*
X38127097Y-54254011D01*
X38147238Y-54255000D01*
X38147256Y-54255000D01*
X38632744Y-54255000D01*
X38632762Y-54255000D01*
X38652904Y-54254011D01*
X38672216Y-54252109D01*
X38675837Y-54251571D01*
X38690366Y-54250500D01*
X38839043Y-54250500D01*
X38897234Y-54269407D01*
X38933198Y-54318907D01*
X38936140Y-54368815D01*
X38928616Y-54406638D01*
X38913835Y-54442324D01*
X38892362Y-54474461D01*
X38865047Y-54501776D01*
X38832910Y-54523249D01*
X38797224Y-54538030D01*
X38749563Y-54547511D01*
X38730248Y-54549414D01*
X37249752Y-54549414D01*
X37230438Y-54547512D01*
X37144508Y-54530419D01*
X37108821Y-54515637D01*
X37088076Y-54501776D01*
X37044238Y-54472484D01*
X37016929Y-54445175D01*
X36973775Y-54380591D01*
X36958994Y-54344905D01*
X36941902Y-54258976D01*
X36940000Y-54239662D01*
X36940000Y-53029687D01*
X36940477Y-53019978D01*
X36940500Y-53019744D01*
X36940500Y-52280252D01*
X36940476Y-52280009D01*
X36940000Y-52270310D01*
X36940000Y-49225945D01*
X36940000Y-49225941D01*
X36940000Y-49050000D01*
X36786445Y-48964113D01*
X35576199Y-48287195D01*
X35560939Y-48276672D01*
X35496738Y-48222872D01*
X35473363Y-48194305D01*
X35433337Y-48120737D01*
X35426041Y-48103697D01*
X35087122Y-47048426D01*
X34365000Y-44800000D01*
X34202787Y-44800000D01*
X34200028Y-44799337D01*
X34146873Y-44785094D01*
X34102492Y-44759471D01*
X34080528Y-44737507D01*
X34054905Y-44693126D01*
X34043373Y-44650088D01*
X34040000Y-44624465D01*
X34040000Y-38009751D01*
X34041902Y-37990437D01*
X34058994Y-37904508D01*
X34058995Y-37904507D01*
X34058994Y-37904506D01*
X34073774Y-37868824D01*
X34116931Y-37804235D01*
X34144235Y-37776931D01*
X34208824Y-37733774D01*
X34244507Y-37718994D01*
X34289341Y-37710076D01*
X34330439Y-37701902D01*
X34349752Y-37700000D01*
X36180248Y-37700000D01*
X36199562Y-37701902D01*
G37*
%TD.AperFunction*%
%TD*%
%TA.AperFunction,Conductor*%
%TO.N,Earth*%
G36*
X40040000Y-55650000D02*
G01*
X39585700Y-55974500D01*
X39520252Y-55974500D01*
X39520251Y-55974500D01*
X39520241Y-55974501D01*
X39461772Y-55986132D01*
X39461766Y-55986134D01*
X39395451Y-56030445D01*
X39395445Y-56030451D01*
X39351134Y-56096766D01*
X39351132Y-56096772D01*
X39340633Y-56149547D01*
X39340000Y-56150000D01*
X39340000Y-56152732D01*
X39339501Y-56155241D01*
X39339500Y-56155253D01*
X39339500Y-57144746D01*
X39339501Y-57144758D01*
X39340000Y-57147266D01*
X39340000Y-57171148D01*
X39334582Y-57216935D01*
X39293050Y-57261865D01*
X39244675Y-57274489D01*
X38957864Y-57274489D01*
X38872158Y-57274489D01*
X38789372Y-57296671D01*
X38789371Y-57296671D01*
X38789369Y-57296672D01*
X38764950Y-57310771D01*
X38740000Y-57325176D01*
X38740000Y-56750000D01*
X38740000Y-56600000D01*
X38957911Y-56245892D01*
X38993231Y-56238867D01*
X39059552Y-56194552D01*
X39103867Y-56128231D01*
X39115500Y-56069748D01*
X39115500Y-55989812D01*
X39140000Y-55950000D01*
X39140000Y-55750000D01*
X39440000Y-55150000D01*
X40040000Y-55650000D01*
G37*
%TD.AperFunction*%
%TD*%
%TA.AperFunction,Conductor*%
%TO.N,Net-(C12-Pad1)*%
G36*
X41226876Y-56166580D02*
G01*
X41271257Y-56192203D01*
X41297796Y-56218742D01*
X41323418Y-56263122D01*
X41333275Y-56299907D01*
X41336174Y-56335217D01*
X41335989Y-56337093D01*
X41335000Y-56357241D01*
X41335000Y-57137042D01*
X41334881Y-57141891D01*
X41334748Y-57144594D01*
X41334500Y-57154687D01*
X41334500Y-59052622D01*
X41332786Y-59070965D01*
X41322861Y-59123603D01*
X41309503Y-59157769D01*
X41265347Y-59228346D01*
X41254164Y-59242987D01*
X40740000Y-59800000D01*
X40740000Y-59917296D01*
X40740000Y-60045367D01*
X40739154Y-60058285D01*
X40738768Y-60061218D01*
X40737100Y-60073886D01*
X40735788Y-60087216D01*
X40734939Y-60100153D01*
X40734500Y-60113594D01*
X40734500Y-64393511D01*
X40734939Y-64406952D01*
X40735786Y-64419872D01*
X40737106Y-64433264D01*
X40739153Y-64448812D01*
X40740000Y-64461732D01*
X40740000Y-65100000D01*
X41378264Y-65100000D01*
X41391185Y-65100846D01*
X41401522Y-65102207D01*
X41406742Y-65102895D01*
X41408081Y-65103026D01*
X41420125Y-65104213D01*
X41433047Y-65105060D01*
X41446488Y-65105500D01*
X42533512Y-65105500D01*
X42546953Y-65105060D01*
X42559875Y-65104213D01*
X42573258Y-65102895D01*
X42588815Y-65100846D01*
X42601737Y-65100000D01*
X42820376Y-65100000D01*
X42830821Y-65100553D01*
X42852894Y-65102895D01*
X42878115Y-65105571D01*
X42898544Y-65109955D01*
X42943747Y-65124792D01*
X42953499Y-65128575D01*
X43704445Y-65466500D01*
X43720871Y-65475873D01*
X43790681Y-65525100D01*
X43816764Y-65552253D01*
X43857891Y-65615859D01*
X43871950Y-65650787D01*
X43888194Y-65734650D01*
X43890000Y-65753476D01*
X43890000Y-66290248D01*
X43888098Y-66309563D01*
X43871005Y-66395492D01*
X43856223Y-66431178D01*
X43813073Y-66495758D01*
X43785758Y-66523073D01*
X43721178Y-66566223D01*
X43685492Y-66581005D01*
X43620801Y-66593873D01*
X43599561Y-66598098D01*
X43580248Y-66600000D01*
X35599752Y-66600000D01*
X35580438Y-66598098D01*
X35494508Y-66581005D01*
X35458821Y-66566223D01*
X35446246Y-66557821D01*
X35394238Y-66523070D01*
X35366929Y-66495761D01*
X35323775Y-66431177D01*
X35308994Y-66395491D01*
X35291902Y-66309562D01*
X35290000Y-66290248D01*
X35290000Y-64459751D01*
X35291902Y-64440437D01*
X35295993Y-64419872D01*
X35308994Y-64354506D01*
X35323774Y-64318824D01*
X35366931Y-64254235D01*
X35394235Y-64226931D01*
X35458824Y-64183774D01*
X35494507Y-64168994D01*
X35539341Y-64160076D01*
X35580439Y-64151902D01*
X35599752Y-64150000D01*
X37597159Y-64150000D01*
X37597161Y-64150000D01*
X37840000Y-64150000D01*
X37846785Y-64118132D01*
X37868231Y-64113867D01*
X37934552Y-64069552D01*
X37978867Y-64003231D01*
X37990500Y-63944748D01*
X37990500Y-63453729D01*
X37992671Y-63433108D01*
X38940514Y-58982365D01*
X38967337Y-58932988D01*
X39344738Y-58555588D01*
X39495831Y-58404496D01*
X39550347Y-58376719D01*
X39565834Y-58375500D01*
X40119262Y-58375500D01*
X40119264Y-58375500D01*
X40202050Y-58353318D01*
X40202052Y-58353316D01*
X40202054Y-58353316D01*
X40276268Y-58310468D01*
X40276268Y-58310467D01*
X40276273Y-58310465D01*
X40950465Y-57636273D01*
X40993318Y-57562050D01*
X41015500Y-57479264D01*
X41015500Y-57393558D01*
X41015500Y-57253268D01*
X41027632Y-57213277D01*
X41025134Y-57212243D01*
X41028863Y-57203235D01*
X41028867Y-57203231D01*
X41040500Y-57144748D01*
X41040500Y-56259325D01*
X41059407Y-56201134D01*
X41108907Y-56165170D01*
X41113879Y-56163698D01*
X41139379Y-56156866D01*
X41190623Y-56156866D01*
X41226876Y-56166580D01*
G37*
%TD.AperFunction*%
%TD*%
%TA.AperFunction,Conductor*%
%TO.N,Net-(D2-Pad1)*%
G36*
X44049562Y-47051902D02*
G01*
X44135492Y-47068994D01*
X44171177Y-47083775D01*
X44235761Y-47126929D01*
X44263070Y-47154238D01*
X44297821Y-47206246D01*
X44306223Y-47218821D01*
X44321005Y-47254507D01*
X44338098Y-47340436D01*
X44340000Y-47359751D01*
X44340000Y-49240248D01*
X44338098Y-49259563D01*
X44321005Y-49345492D01*
X44306223Y-49381178D01*
X44263073Y-49445758D01*
X44235758Y-49473073D01*
X44171178Y-49516223D01*
X44135492Y-49531005D01*
X44070801Y-49543873D01*
X44049561Y-49548098D01*
X44030248Y-49550000D01*
X40240000Y-49550000D01*
X40152132Y-49637868D01*
X40152128Y-49637871D01*
X39027871Y-50762128D01*
X39027868Y-50762132D01*
X38940000Y-50850000D01*
X38940000Y-50974261D01*
X38940000Y-51947763D01*
X38921093Y-52005954D01*
X38896003Y-52030077D01*
X38895451Y-52030445D01*
X38895445Y-52030451D01*
X38851134Y-52096766D01*
X38851132Y-52096772D01*
X38839501Y-52155241D01*
X38839500Y-52155253D01*
X38839500Y-53144746D01*
X38839501Y-53144758D01*
X38851132Y-53203227D01*
X38851133Y-53203231D01*
X38895448Y-53269552D01*
X38895501Y-53269587D01*
X38895564Y-53269667D01*
X38902343Y-53276446D01*
X38901540Y-53277248D01*
X38933381Y-53317637D01*
X38939500Y-53351903D01*
X38939500Y-53742761D01*
X38937598Y-53762076D01*
X38921005Y-53845492D01*
X38906223Y-53881178D01*
X38863073Y-53945758D01*
X38835758Y-53973073D01*
X38771178Y-54016223D01*
X38735492Y-54031005D01*
X38677485Y-54042543D01*
X38652074Y-54047598D01*
X38632762Y-54049500D01*
X38147238Y-54049500D01*
X38127925Y-54047598D01*
X38094409Y-54040931D01*
X38044507Y-54031005D01*
X38008821Y-54016223D01*
X37996246Y-54007821D01*
X37944238Y-53973070D01*
X37916929Y-53945761D01*
X37873775Y-53881177D01*
X37858994Y-53845491D01*
X37841902Y-53759562D01*
X37840000Y-53740248D01*
X37840000Y-47584015D01*
X37841902Y-47564701D01*
X37858994Y-47478772D01*
X37873774Y-47443088D01*
X37922453Y-47370235D01*
X37934755Y-47355244D01*
X38145244Y-47144755D01*
X38160235Y-47132453D01*
X38233088Y-47083774D01*
X38268771Y-47068994D01*
X38313605Y-47060076D01*
X38354703Y-47051902D01*
X38374016Y-47050000D01*
X44030248Y-47050000D01*
X44049562Y-47051902D01*
G37*
%TD.AperFunction*%
%TD*%
%TA.AperFunction,Conductor*%
%TO.N,V_INPUT*%
G36*
X45344476Y-52750500D02*
G01*
X45348039Y-52750500D01*
X45495524Y-52750500D01*
X45502519Y-52750000D01*
X47130248Y-52750000D01*
X47149562Y-52751902D01*
X47235492Y-52768994D01*
X47271177Y-52783775D01*
X47335761Y-52826929D01*
X47363070Y-52854238D01*
X47397821Y-52906246D01*
X47406223Y-52918821D01*
X47421005Y-52954507D01*
X47438098Y-53040436D01*
X47440000Y-53059751D01*
X47440000Y-55315984D01*
X47438098Y-55335299D01*
X47421005Y-55421228D01*
X47406223Y-55456914D01*
X47363073Y-55521494D01*
X47335758Y-55548809D01*
X47271178Y-55591959D01*
X47235491Y-55606741D01*
X47159314Y-55621894D01*
X47120686Y-55621894D01*
X47044508Y-55606741D01*
X47008821Y-55591959D01*
X46935978Y-55543287D01*
X46920975Y-55530975D01*
X45227871Y-53837871D01*
X45227868Y-53837868D01*
X45140000Y-53750000D01*
X45015738Y-53750000D01*
X44283773Y-53750000D01*
X44265294Y-53747343D01*
X44265245Y-53747689D01*
X44258236Y-53746681D01*
X44258235Y-53746681D01*
X44114313Y-53746681D01*
X44114311Y-53746681D01*
X44107303Y-53747689D01*
X44107253Y-53747343D01*
X44088775Y-53750000D01*
X43640002Y-53750000D01*
X43640000Y-53750000D01*
X43540000Y-53750000D01*
X43460000Y-53809999D01*
X43459998Y-53810001D01*
X43226382Y-53985213D01*
X43212930Y-53993704D01*
X43149098Y-54027148D01*
X43119012Y-54037178D01*
X43047875Y-54048722D01*
X43032017Y-54050000D01*
X42944689Y-54050000D01*
X42934988Y-54049524D01*
X42934751Y-54049500D01*
X42934748Y-54049500D01*
X42247238Y-54049500D01*
X42227925Y-54047598D01*
X42194409Y-54040931D01*
X42144507Y-54031005D01*
X42108821Y-54016223D01*
X42069575Y-53990000D01*
X42044238Y-53973070D01*
X42016929Y-53945761D01*
X41973775Y-53881177D01*
X41958994Y-53845490D01*
X41942402Y-53762074D01*
X41940500Y-53742761D01*
X41940500Y-53381501D01*
X41942402Y-53362189D01*
X41943601Y-53356158D01*
X41949192Y-53328052D01*
X41977934Y-53276725D01*
X41977656Y-53276447D01*
X41978644Y-53275458D01*
X41979086Y-53274670D01*
X41980722Y-53273380D01*
X41984545Y-53269556D01*
X41984552Y-53269552D01*
X42028867Y-53203231D01*
X42033461Y-53180134D01*
X42060553Y-53129446D01*
X42345242Y-52844757D01*
X42360232Y-52832455D01*
X42433088Y-52783774D01*
X42468771Y-52768994D01*
X42513605Y-52760076D01*
X42554703Y-52751902D01*
X42574016Y-52750000D01*
X45337481Y-52750000D01*
X45344476Y-52750500D01*
G37*
%TD.AperFunction*%
%TD*%
%TA.AperFunction,Conductor*%
%TO.N,Net-(D1-Pad2)*%
G36*
X42906032Y-55769407D02*
G01*
X42926382Y-55789231D01*
X42965078Y-55839659D01*
X42978000Y-55862041D01*
X42983368Y-55875000D01*
X43017975Y-55958548D01*
X43024664Y-55983512D01*
X43039153Y-56093566D01*
X43040000Y-56106488D01*
X43040000Y-64393511D01*
X43039153Y-64406433D01*
X43024664Y-64516487D01*
X43017975Y-64541451D01*
X42978001Y-64637957D01*
X42965079Y-64660339D01*
X42901487Y-64743213D01*
X42883213Y-64761487D01*
X42800339Y-64825079D01*
X42777957Y-64838001D01*
X42681451Y-64877975D01*
X42656487Y-64884664D01*
X42546434Y-64899153D01*
X42533512Y-64900000D01*
X41446488Y-64900000D01*
X41433566Y-64899153D01*
X41323512Y-64884664D01*
X41298548Y-64877975D01*
X41202042Y-64838001D01*
X41179660Y-64825079D01*
X41096783Y-64761484D01*
X41078515Y-64743216D01*
X41014918Y-64660336D01*
X41002000Y-64637960D01*
X40962023Y-64541447D01*
X40955336Y-64516489D01*
X40940847Y-64406432D01*
X40940000Y-64393511D01*
X40940000Y-60113595D01*
X40940847Y-60100674D01*
X40942511Y-60088030D01*
X40955336Y-59990615D01*
X40962022Y-59965661D01*
X41002002Y-59869141D01*
X41014918Y-59846771D01*
X41082499Y-59758697D01*
X41091022Y-59748977D01*
X41393553Y-59446447D01*
X41540000Y-59300000D01*
X41540000Y-57154687D01*
X41540477Y-57144978D01*
X41540500Y-57144744D01*
X41540500Y-56357237D01*
X41542402Y-56337924D01*
X41551382Y-56292777D01*
X41566162Y-56257092D01*
X41587642Y-56224946D01*
X41614946Y-56197642D01*
X41647092Y-56176162D01*
X41682775Y-56161382D01*
X41710279Y-56155911D01*
X41727925Y-56152402D01*
X41747238Y-56150500D01*
X41759747Y-56150500D01*
X41759748Y-56150500D01*
X41762262Y-56150000D01*
X41940000Y-56150000D01*
X41940000Y-55972261D01*
X41940498Y-55969758D01*
X41940500Y-55969746D01*
X41940500Y-55882237D01*
X41942402Y-55862922D01*
X41944973Y-55850000D01*
X41948914Y-55830184D01*
X41978811Y-55776802D01*
X42034376Y-55751186D01*
X42046012Y-55750500D01*
X42847841Y-55750500D01*
X42906032Y-55769407D01*
G37*
%TD.AperFunction*%
%TD*%
%TA.AperFunction,Conductor*%
%TO.N,Earth*%
G36*
X43452075Y-36452402D02*
G01*
X43497222Y-36461382D01*
X43532908Y-36476163D01*
X43565050Y-36497640D01*
X43592359Y-36524949D01*
X43613328Y-36556330D01*
X43613835Y-36557089D01*
X43628616Y-36592775D01*
X43637597Y-36637922D01*
X43639500Y-36657237D01*
X43639500Y-37318754D01*
X43640000Y-37327656D01*
X43640000Y-37850000D01*
X44162344Y-37850000D01*
X44171241Y-37850500D01*
X44172340Y-37850500D01*
X45008759Y-37850500D01*
X45017656Y-37850000D01*
X45330248Y-37850000D01*
X45349561Y-37851902D01*
X45397222Y-37861382D01*
X45432908Y-37876163D01*
X45465050Y-37897640D01*
X45492359Y-37924949D01*
X45502804Y-37940580D01*
X45513835Y-37957089D01*
X45528616Y-37992775D01*
X45538097Y-38040436D01*
X45540000Y-38059751D01*
X45540000Y-38450000D01*
X47430248Y-38450000D01*
X47449561Y-38451902D01*
X47497222Y-38461382D01*
X47532908Y-38476163D01*
X47565050Y-38497640D01*
X47592359Y-38524949D01*
X47613328Y-38556330D01*
X47613835Y-38557089D01*
X47628616Y-38592775D01*
X47638097Y-38640436D01*
X47640000Y-38659751D01*
X47640000Y-39015293D01*
X47626738Y-39064790D01*
X47620202Y-39076110D01*
X47620201Y-39076112D01*
X47599733Y-39152498D01*
X47589500Y-39190691D01*
X47589500Y-39309309D01*
X47609967Y-39385693D01*
X47620201Y-39423887D01*
X47623287Y-39429231D01*
X47626735Y-39435204D01*
X47640000Y-39484705D01*
X47640000Y-39615293D01*
X47626738Y-39664790D01*
X47620202Y-39676110D01*
X47620201Y-39676112D01*
X47599733Y-39752498D01*
X47589500Y-39790691D01*
X47589500Y-39909309D01*
X47609967Y-39985693D01*
X47620201Y-40023887D01*
X47623287Y-40029231D01*
X47626735Y-40035204D01*
X47640000Y-40084705D01*
X47640000Y-40215293D01*
X47626738Y-40264790D01*
X47620202Y-40276110D01*
X47620201Y-40276112D01*
X47599733Y-40352498D01*
X47589500Y-40390691D01*
X47589500Y-40509309D01*
X47609967Y-40585693D01*
X47620201Y-40623887D01*
X47623287Y-40629231D01*
X47626735Y-40635204D01*
X47640000Y-40684705D01*
X47640000Y-41272344D01*
X47639500Y-41281241D01*
X47639500Y-43000663D01*
X47620593Y-43058854D01*
X47571093Y-43094818D01*
X47509907Y-43094818D01*
X47460407Y-43058854D01*
X47458184Y-43055664D01*
X47455602Y-43051800D01*
X47455599Y-43051797D01*
X47372742Y-42996435D01*
X47372740Y-42996434D01*
X47372737Y-42996433D01*
X47372736Y-42996433D01*
X47299684Y-42981901D01*
X47299674Y-42981900D01*
X47299673Y-42981900D01*
X47239500Y-42981900D01*
X47181309Y-42962993D01*
X47145345Y-42913493D01*
X47140500Y-42882900D01*
X47140500Y-41968291D01*
X47155675Y-41915619D01*
X47165787Y-41899525D01*
X47165788Y-41899523D01*
X47165789Y-41899522D01*
X47225368Y-41729255D01*
X47245565Y-41550000D01*
X47225368Y-41370745D01*
X47165789Y-41200478D01*
X47134330Y-41150412D01*
X47069818Y-41047741D01*
X47069817Y-41047740D01*
X47069816Y-41047738D01*
X46942262Y-40920184D01*
X46942259Y-40920182D01*
X46942258Y-40920181D01*
X46789523Y-40824211D01*
X46619261Y-40764633D01*
X46619257Y-40764632D01*
X46440000Y-40744435D01*
X46260742Y-40764632D01*
X46260738Y-40764633D01*
X46090477Y-40824211D01*
X46090476Y-40824211D01*
X45937741Y-40920181D01*
X45810181Y-41047741D01*
X45714211Y-41200476D01*
X45714211Y-41200477D01*
X45654633Y-41370738D01*
X45654632Y-41370742D01*
X45634435Y-41550000D01*
X45654632Y-41729257D01*
X45654633Y-41729261D01*
X45714211Y-41899522D01*
X45714211Y-41899523D01*
X45757421Y-41968291D01*
X45810184Y-42052262D01*
X45937738Y-42179816D01*
X45937741Y-42179818D01*
X45937740Y-42179818D01*
X45998452Y-42217965D01*
X46090478Y-42275789D01*
X46090481Y-42275790D01*
X46093171Y-42277480D01*
X46132383Y-42324448D01*
X46139500Y-42361306D01*
X46139500Y-42882900D01*
X46120593Y-42941091D01*
X46071093Y-42977055D01*
X46040500Y-42981900D01*
X45980326Y-42981900D01*
X45980325Y-42981900D01*
X45980315Y-42981901D01*
X45907263Y-42996433D01*
X45907257Y-42996435D01*
X45824400Y-43051797D01*
X45824397Y-43051800D01*
X45769035Y-43134657D01*
X45765305Y-43143665D01*
X45763360Y-43142859D01*
X45739724Y-43185051D01*
X45684156Y-43210659D01*
X45659611Y-43210497D01*
X45540001Y-43194750D01*
X45540000Y-43194750D01*
X45396291Y-43213669D01*
X45396290Y-43213670D01*
X45262378Y-43269137D01*
X45262374Y-43269139D01*
X45147381Y-43357377D01*
X45147377Y-43357381D01*
X45059139Y-43472374D01*
X45059137Y-43472378D01*
X45003670Y-43606290D01*
X45003669Y-43606291D01*
X44984750Y-43749999D01*
X44984750Y-43750000D01*
X45003669Y-43893708D01*
X45003670Y-43893709D01*
X45059139Y-44027625D01*
X45147379Y-44142621D01*
X45262375Y-44230861D01*
X45396291Y-44286330D01*
X45540000Y-44305250D01*
X45658526Y-44289645D01*
X45718686Y-44300795D01*
X45760804Y-44345177D01*
X45768790Y-44405839D01*
X45768546Y-44407112D01*
X45754500Y-44477723D01*
X45754500Y-45492272D01*
X45754501Y-45492284D01*
X45769033Y-45565336D01*
X45769035Y-45565342D01*
X45824397Y-45648199D01*
X45824399Y-45648201D01*
X45907260Y-45703566D01*
X45962808Y-45714615D01*
X45980315Y-45718098D01*
X45980320Y-45718098D01*
X45980326Y-45718100D01*
X46189226Y-45718100D01*
X46247417Y-45737007D01*
X46283381Y-45786507D01*
X46287379Y-45830022D01*
X46284748Y-45850007D01*
X46284748Y-45850008D01*
X46287377Y-45869978D01*
X46276227Y-45930139D01*
X46231845Y-45972256D01*
X46189224Y-45981900D01*
X45980326Y-45981900D01*
X45980325Y-45981900D01*
X45980315Y-45981901D01*
X45907263Y-45996433D01*
X45907257Y-45996435D01*
X45824400Y-46051797D01*
X45824397Y-46051800D01*
X45769035Y-46134657D01*
X45769033Y-46134663D01*
X45754501Y-46207715D01*
X45754500Y-46207727D01*
X45754500Y-47222272D01*
X45754501Y-47222284D01*
X45768087Y-47290580D01*
X45769034Y-47295340D01*
X45769035Y-47295342D01*
X45772767Y-47304352D01*
X45771582Y-47304842D01*
X45785414Y-47353887D01*
X45771954Y-47395311D01*
X45772767Y-47395648D01*
X45769033Y-47404663D01*
X45754501Y-47477715D01*
X45754500Y-47477727D01*
X45754500Y-48492272D01*
X45754501Y-48492284D01*
X45758684Y-48513316D01*
X45751491Y-48574077D01*
X45740128Y-48592894D01*
X45679144Y-48672370D01*
X45679139Y-48672378D01*
X45623672Y-48806290D01*
X45623671Y-48806291D01*
X45604752Y-48949999D01*
X45604752Y-48950000D01*
X45623671Y-49093708D01*
X45623672Y-49093709D01*
X45679141Y-49227625D01*
X45767381Y-49342621D01*
X45882377Y-49430861D01*
X46016293Y-49486330D01*
X46160002Y-49505250D01*
X46303711Y-49486330D01*
X46437627Y-49430861D01*
X46552623Y-49342621D01*
X46640863Y-49227625D01*
X46696332Y-49093709D01*
X46715252Y-48950000D01*
X46699456Y-48830021D01*
X46710606Y-48769862D01*
X46754988Y-48727744D01*
X46797609Y-48718100D01*
X47299673Y-48718100D01*
X47299674Y-48718100D01*
X47372740Y-48703566D01*
X47455601Y-48648201D01*
X47458182Y-48644337D01*
X47506230Y-48606457D01*
X47567368Y-48604052D01*
X47618244Y-48638042D01*
X47639424Y-48695445D01*
X47639500Y-48699336D01*
X47639500Y-50999290D01*
X47620593Y-51057481D01*
X47571093Y-51093445D01*
X47509907Y-51093445D01*
X47478940Y-51074468D01*
X47478709Y-51074816D01*
X47387742Y-51014035D01*
X47387740Y-51014034D01*
X47387737Y-51014033D01*
X47387736Y-51014033D01*
X47314684Y-50999501D01*
X47314674Y-50999500D01*
X46365326Y-50999500D01*
X46365325Y-50999500D01*
X46365315Y-50999501D01*
X46292263Y-51014033D01*
X46292257Y-51014035D01*
X46209400Y-51069397D01*
X46209397Y-51069400D01*
X46154035Y-51152257D01*
X46154033Y-51152263D01*
X46139501Y-51225315D01*
X46139500Y-51225327D01*
X46139500Y-51225500D01*
X46139475Y-51225575D01*
X46139024Y-51230162D01*
X46138017Y-51230062D01*
X46120593Y-51283691D01*
X46071093Y-51319655D01*
X46040500Y-51324500D01*
X45956528Y-51324500D01*
X45898337Y-51305593D01*
X45862373Y-51256093D01*
X45859432Y-51244824D01*
X45850966Y-51202260D01*
X45795601Y-51119399D01*
X45795599Y-51119397D01*
X45712742Y-51064035D01*
X45712740Y-51064034D01*
X45712737Y-51064033D01*
X45712736Y-51064033D01*
X45639684Y-51049501D01*
X45639674Y-51049500D01*
X45639673Y-51049500D01*
X44943099Y-51049500D01*
X44884908Y-51030593D01*
X44851635Y-50988386D01*
X44840861Y-50962375D01*
X44840860Y-50962374D01*
X44823327Y-50939525D01*
X44752621Y-50847379D01*
X44637625Y-50759139D01*
X44637621Y-50759137D01*
X44503709Y-50703670D01*
X44503708Y-50703669D01*
X44360000Y-50684750D01*
X44216291Y-50703669D01*
X44216290Y-50703670D01*
X44082378Y-50759137D01*
X44082374Y-50759139D01*
X44031146Y-50798448D01*
X43971726Y-50844042D01*
X43914053Y-50864466D01*
X43911461Y-50864500D01*
X40917447Y-50864500D01*
X40818575Y-50864500D01*
X40770824Y-50877295D01*
X40770823Y-50877294D01*
X40723073Y-50890089D01*
X40723069Y-50890091D01*
X40637447Y-50939525D01*
X40637448Y-50939526D01*
X39959438Y-51617536D01*
X39959437Y-51617535D01*
X39889524Y-51687449D01*
X39840092Y-51773067D01*
X39840088Y-51773077D01*
X39834657Y-51793350D01*
X39834657Y-51793351D01*
X39816781Y-51860065D01*
X39814500Y-51868577D01*
X39814500Y-52032300D01*
X39806966Y-52070182D01*
X39804033Y-52077263D01*
X39789501Y-52150315D01*
X39789500Y-52150327D01*
X39789500Y-53149672D01*
X39789501Y-53149684D01*
X39804033Y-53222736D01*
X39804035Y-53222742D01*
X39859397Y-53305599D01*
X39859399Y-53305601D01*
X39942260Y-53360966D01*
X39997808Y-53372015D01*
X40015315Y-53375498D01*
X40015320Y-53375498D01*
X40015326Y-53375500D01*
X40015327Y-53375500D01*
X40364673Y-53375500D01*
X40364674Y-53375500D01*
X40437740Y-53360966D01*
X40520601Y-53305601D01*
X40575966Y-53222740D01*
X40590500Y-53149674D01*
X40590500Y-52150326D01*
X40583937Y-52117332D01*
X40591129Y-52056571D01*
X40611026Y-52028020D01*
X40633417Y-52005629D01*
X40687930Y-51977855D01*
X40748362Y-51987426D01*
X40791627Y-52030691D01*
X40801198Y-52091123D01*
X40800515Y-52094950D01*
X40789500Y-52150323D01*
X40789500Y-53149672D01*
X40789501Y-53149684D01*
X40804033Y-53222736D01*
X40804035Y-53222742D01*
X40859397Y-53305599D01*
X40859399Y-53305601D01*
X40942260Y-53360966D01*
X40997808Y-53372015D01*
X41015315Y-53375498D01*
X41015320Y-53375498D01*
X41015326Y-53375500D01*
X41015327Y-53375500D01*
X41364673Y-53375500D01*
X41364674Y-53375500D01*
X41420688Y-53364358D01*
X41459312Y-53364358D01*
X41515326Y-53375500D01*
X41586000Y-53375500D01*
X41644191Y-53394407D01*
X41680155Y-53443907D01*
X41685000Y-53474500D01*
X41685000Y-53742755D01*
X41686230Y-53767810D01*
X41688130Y-53787102D01*
X41688134Y-53787136D01*
X41691811Y-53811922D01*
X41708402Y-53895333D01*
X41710236Y-53901376D01*
X41714500Y-53930118D01*
X41714500Y-54074679D01*
X41725641Y-54130687D01*
X41725641Y-54169313D01*
X41714500Y-54225320D01*
X41714500Y-54574672D01*
X41714501Y-54574684D01*
X41729033Y-54647736D01*
X41729035Y-54647742D01*
X41784397Y-54730599D01*
X41784400Y-54730602D01*
X41862873Y-54783035D01*
X41867260Y-54785966D01*
X41922808Y-54797015D01*
X41940315Y-54800498D01*
X41940320Y-54800498D01*
X41940326Y-54800500D01*
X41940327Y-54800500D01*
X42939673Y-54800500D01*
X42939674Y-54800500D01*
X43012740Y-54785966D01*
X43012746Y-54785961D01*
X43019815Y-54783035D01*
X43057699Y-54775500D01*
X43758934Y-54775500D01*
X43984019Y-54775500D01*
X44003531Y-54775500D01*
X44036245Y-54782006D01*
X44036293Y-54781831D01*
X44038978Y-54782550D01*
X44041415Y-54783035D01*
X44041827Y-54783205D01*
X44042565Y-54783511D01*
X44186274Y-54802431D01*
X44329983Y-54783511D01*
X44463899Y-54728042D01*
X44578895Y-54639802D01*
X44667135Y-54524806D01*
X44722604Y-54390890D01*
X44741524Y-54247181D01*
X44738646Y-54225320D01*
X44736948Y-54212422D01*
X44748098Y-54152261D01*
X44792480Y-54110144D01*
X44835101Y-54100500D01*
X45088124Y-54100500D01*
X45146315Y-54119407D01*
X45158128Y-54129496D01*
X46160494Y-55131861D01*
X46188271Y-55186378D01*
X46189490Y-55201865D01*
X46189490Y-58350500D01*
X46170583Y-58408691D01*
X46121083Y-58444655D01*
X46090490Y-58449500D01*
X45365326Y-58449500D01*
X45365325Y-58449500D01*
X45365315Y-58449501D01*
X45292263Y-58464033D01*
X45292257Y-58464035D01*
X45209400Y-58519397D01*
X45209397Y-58519400D01*
X45154035Y-58602257D01*
X45154033Y-58602263D01*
X45139501Y-58675315D01*
X45139500Y-58675327D01*
X45139500Y-58748124D01*
X45120593Y-58806315D01*
X45110504Y-58818127D01*
X45057047Y-58871584D01*
X45018587Y-58929146D01*
X44974914Y-58994507D01*
X44918342Y-59131085D01*
X44889500Y-59276081D01*
X44889500Y-60180500D01*
X44870593Y-60238691D01*
X44821093Y-60274655D01*
X44790500Y-60279500D01*
X44305326Y-60279500D01*
X44305325Y-60279500D01*
X44305315Y-60279501D01*
X44232263Y-60294033D01*
X44232257Y-60294035D01*
X44149400Y-60349397D01*
X44149397Y-60349400D01*
X44094035Y-60432257D01*
X44094033Y-60432263D01*
X44079501Y-60505315D01*
X44079500Y-60505327D01*
X44079500Y-64754672D01*
X44079501Y-64754684D01*
X44094033Y-64827736D01*
X44094035Y-64827742D01*
X44149397Y-64910599D01*
X44149400Y-64910602D01*
X44169476Y-64924016D01*
X44232260Y-64965966D01*
X44287808Y-64977015D01*
X44305315Y-64980498D01*
X44305320Y-64980498D01*
X44305326Y-64980500D01*
X44305327Y-64980500D01*
X46090490Y-64980500D01*
X46148681Y-64999407D01*
X46184645Y-65048907D01*
X46189490Y-65079500D01*
X46189490Y-72598134D01*
X46170583Y-72656325D01*
X46160494Y-72668137D01*
X46017047Y-72811584D01*
X45967813Y-72885270D01*
X45934914Y-72934506D01*
X45878342Y-73071085D01*
X45849500Y-73216081D01*
X45849500Y-73384016D01*
X45830593Y-73442207D01*
X45788384Y-73475481D01*
X45768396Y-73483760D01*
X45759255Y-73487031D01*
X45750953Y-73489549D01*
X45751266Y-73490303D01*
X45742259Y-73494033D01*
X45659402Y-73549395D01*
X45659397Y-73549400D01*
X45604035Y-73632257D01*
X45604033Y-73632263D01*
X45589501Y-73705315D01*
X45589500Y-73705327D01*
X45589500Y-73739110D01*
X45587598Y-73758424D01*
X45584500Y-73773996D01*
X45584500Y-79203160D01*
X45565593Y-79261351D01*
X45555504Y-79273164D01*
X44463164Y-80365504D01*
X44408647Y-80393281D01*
X44393160Y-80394500D01*
X42213999Y-80394500D01*
X42116223Y-80413949D01*
X42068396Y-80433760D01*
X42064715Y-80435077D01*
X41981007Y-80491009D01*
X41925621Y-80573900D01*
X41903949Y-80626223D01*
X41903947Y-80626232D01*
X41900250Y-80644816D01*
X41870352Y-80698200D01*
X41814787Y-80723814D01*
X41803153Y-80724500D01*
X41379500Y-80724500D01*
X41321309Y-80705593D01*
X41285345Y-80656093D01*
X41280500Y-80625500D01*
X41280500Y-80055566D01*
X41280500Y-80055565D01*
X41254910Y-79960062D01*
X41254908Y-79960059D01*
X41254908Y-79960057D01*
X41205475Y-79874438D01*
X41135562Y-79804524D01*
X41135562Y-79804525D01*
X40960563Y-79629526D01*
X40960563Y-79629525D01*
X40874941Y-79580091D01*
X40868943Y-79577607D01*
X40869786Y-79575570D01*
X40826703Y-79547584D01*
X40821330Y-79540290D01*
X40815966Y-79532262D01*
X40815966Y-79532260D01*
X40760601Y-79449399D01*
X40760599Y-79449397D01*
X40677742Y-79394035D01*
X40677740Y-79394034D01*
X40677737Y-79394033D01*
X40677736Y-79394033D01*
X40604684Y-79379501D01*
X40604674Y-79379500D01*
X40604673Y-79379500D01*
X39495556Y-79379500D01*
X39437365Y-79360593D01*
X39401401Y-79311093D01*
X39399929Y-79306123D01*
X39391098Y-79273164D01*
X39376281Y-79217865D01*
X39376279Y-79217862D01*
X39376279Y-79217860D01*
X39300518Y-79086639D01*
X39300516Y-79086637D01*
X39300515Y-79086635D01*
X39193365Y-78979485D01*
X39193362Y-78979483D01*
X39193360Y-78979481D01*
X39062138Y-78903720D01*
X39062140Y-78903720D01*
X39005347Y-78888503D01*
X38915766Y-78864500D01*
X38764234Y-78864500D01*
X38674652Y-78888503D01*
X38617860Y-78903720D01*
X38486639Y-78979481D01*
X38379481Y-79086639D01*
X38303720Y-79217860D01*
X38303719Y-79217865D01*
X38264500Y-79364234D01*
X38264500Y-79515766D01*
X38281736Y-79580091D01*
X38303720Y-79662139D01*
X38379481Y-79793360D01*
X38379483Y-79793362D01*
X38379485Y-79793365D01*
X38486635Y-79900515D01*
X38486637Y-79900516D01*
X38486639Y-79900518D01*
X38617861Y-79976279D01*
X38617859Y-79976279D01*
X38617863Y-79976280D01*
X38617865Y-79976281D01*
X38764234Y-80015500D01*
X38764236Y-80015500D01*
X38915764Y-80015500D01*
X38915766Y-80015500D01*
X38964879Y-80002340D01*
X39025978Y-80005542D01*
X39073528Y-80044047D01*
X39089500Y-80097967D01*
X39089500Y-80254679D01*
X39100641Y-80310687D01*
X39100641Y-80349313D01*
X39089500Y-80405320D01*
X39089500Y-80754679D01*
X39100641Y-80810687D01*
X39100641Y-80849313D01*
X39089500Y-80905320D01*
X39089500Y-81254679D01*
X39100641Y-81310687D01*
X39100641Y-81349313D01*
X39089500Y-81405320D01*
X39089500Y-81754679D01*
X39100641Y-81810687D01*
X39100641Y-81849313D01*
X39089500Y-81905320D01*
X39089500Y-82254679D01*
X39100641Y-82310687D01*
X39100641Y-82349313D01*
X39089500Y-82405320D01*
X39089500Y-82754679D01*
X39100641Y-82810687D01*
X39100641Y-82849313D01*
X39089500Y-82905320D01*
X39089500Y-83254679D01*
X39100641Y-83310687D01*
X39100641Y-83349313D01*
X39089500Y-83405320D01*
X39089500Y-83754679D01*
X39100641Y-83810687D01*
X39100641Y-83849313D01*
X39089500Y-83905320D01*
X39089500Y-84254679D01*
X39100641Y-84310687D01*
X39100641Y-84349313D01*
X39089500Y-84405320D01*
X39089500Y-84562032D01*
X39070593Y-84620223D01*
X39021093Y-84656187D01*
X38964878Y-84657659D01*
X38936459Y-84650044D01*
X38915766Y-84644500D01*
X38764234Y-84644500D01*
X38674652Y-84668503D01*
X38617860Y-84683720D01*
X38486639Y-84759481D01*
X38379481Y-84866639D01*
X38303720Y-84997860D01*
X38303719Y-84997865D01*
X38264500Y-85144234D01*
X38264500Y-85295766D01*
X38277206Y-85343186D01*
X38303720Y-85442139D01*
X38379481Y-85573360D01*
X38379483Y-85573362D01*
X38379485Y-85573365D01*
X38486635Y-85680515D01*
X38486637Y-85680516D01*
X38486639Y-85680518D01*
X38617861Y-85756279D01*
X38617859Y-85756279D01*
X38617863Y-85756280D01*
X38617865Y-85756281D01*
X38764234Y-85795500D01*
X38764236Y-85795500D01*
X38915764Y-85795500D01*
X38915766Y-85795500D01*
X39062135Y-85756281D01*
X39062137Y-85756279D01*
X39062139Y-85756279D01*
X39193360Y-85680518D01*
X39193360Y-85680517D01*
X39193365Y-85680515D01*
X39300515Y-85573365D01*
X39300518Y-85573360D01*
X39376279Y-85442139D01*
X39376279Y-85442137D01*
X39376281Y-85442135D01*
X39399929Y-85353875D01*
X39433253Y-85302563D01*
X39490375Y-85280636D01*
X39495556Y-85280500D01*
X40604673Y-85280500D01*
X40604674Y-85280500D01*
X40677740Y-85265966D01*
X40760601Y-85210601D01*
X40815966Y-85127740D01*
X40815966Y-85127735D01*
X40821330Y-85119709D01*
X40869379Y-85081829D01*
X40873347Y-85080568D01*
X40874932Y-85079911D01*
X40874938Y-85079910D01*
X40960562Y-85030475D01*
X41030475Y-84960562D01*
X41205474Y-84785563D01*
X41205475Y-84785562D01*
X41254910Y-84699938D01*
X41280500Y-84604435D01*
X41280500Y-84074500D01*
X41299407Y-84016309D01*
X41348907Y-83980345D01*
X41379500Y-83975500D01*
X42071061Y-83975500D01*
X42108945Y-83983035D01*
X42116225Y-83986051D01*
X42214000Y-84005500D01*
X44440500Y-84005500D01*
X44498691Y-84024407D01*
X44534655Y-84073907D01*
X44539500Y-84104500D01*
X44539500Y-84901678D01*
X44520593Y-84959869D01*
X44510504Y-84971682D01*
X42061682Y-87420504D01*
X42007165Y-87448281D01*
X41991678Y-87449500D01*
X39405892Y-87449500D01*
X39274108Y-87449500D01*
X39196200Y-87470375D01*
X39146809Y-87483609D01*
X39032690Y-87549496D01*
X38261682Y-88320504D01*
X38207165Y-88348281D01*
X38191678Y-88349500D01*
X37065326Y-88349500D01*
X37065325Y-88349500D01*
X37065315Y-88349501D01*
X36992263Y-88364033D01*
X36992257Y-88364035D01*
X36909400Y-88419397D01*
X36909397Y-88419400D01*
X36854035Y-88502257D01*
X36854033Y-88502263D01*
X36839501Y-88575315D01*
X36839500Y-88575327D01*
X36839500Y-90324672D01*
X36839501Y-90324684D01*
X36854033Y-90397736D01*
X36854035Y-90397742D01*
X36909397Y-90480599D01*
X36909399Y-90480601D01*
X36992260Y-90535966D01*
X37047808Y-90547015D01*
X37065315Y-90550498D01*
X37065320Y-90550498D01*
X37065326Y-90550500D01*
X37340500Y-90550500D01*
X37398691Y-90569407D01*
X37434655Y-90618907D01*
X37439500Y-90649500D01*
X37439500Y-90884110D01*
X37439500Y-91015894D01*
X37469579Y-91128153D01*
X37473609Y-91143192D01*
X37539496Y-91257311D01*
X37539497Y-91257312D01*
X37539498Y-91257313D01*
X37539500Y-91257316D01*
X38431687Y-92149503D01*
X39139501Y-92857317D01*
X39165968Y-92883784D01*
X39193745Y-92938301D01*
X39194342Y-92964871D01*
X39184751Y-93050002D01*
X39184751Y-93050004D01*
X39203685Y-93218053D01*
X39203688Y-93218065D01*
X39259544Y-93377690D01*
X39259544Y-93377691D01*
X39349520Y-93520886D01*
X39349523Y-93520890D01*
X39469110Y-93640477D01*
X39612310Y-93730456D01*
X39676232Y-93752823D01*
X39771934Y-93786311D01*
X39771938Y-93786312D01*
X39771941Y-93786313D01*
X39771942Y-93786313D01*
X39771946Y-93786314D01*
X39939996Y-93805249D01*
X39940000Y-93805249D01*
X39940004Y-93805249D01*
X40108053Y-93786314D01*
X40108055Y-93786313D01*
X40108059Y-93786313D01*
X40267690Y-93730456D01*
X40410890Y-93640477D01*
X40530477Y-93520890D01*
X40620456Y-93377690D01*
X40676313Y-93218059D01*
X40695249Y-93050000D01*
X40695249Y-93049995D01*
X40676314Y-92881946D01*
X40676311Y-92881934D01*
X40653480Y-92816690D01*
X40620456Y-92722310D01*
X40530477Y-92579110D01*
X40410890Y-92459523D01*
X40410887Y-92459521D01*
X40410886Y-92459520D01*
X40267691Y-92369544D01*
X40108059Y-92313686D01*
X40033660Y-92305303D01*
X39977953Y-92279999D01*
X39974742Y-92276930D01*
X38469496Y-90771684D01*
X38441719Y-90717167D01*
X38440500Y-90701680D01*
X38440500Y-90649500D01*
X38459407Y-90591309D01*
X38508907Y-90555345D01*
X38539500Y-90550500D01*
X38814673Y-90550500D01*
X38814674Y-90550500D01*
X38887740Y-90535966D01*
X38970601Y-90480601D01*
X39025966Y-90397740D01*
X39040500Y-90324674D01*
X39040500Y-88998322D01*
X39059407Y-88940131D01*
X39069496Y-88928318D01*
X39518318Y-88479496D01*
X39572835Y-88451719D01*
X39588322Y-88450500D01*
X42305890Y-88450500D01*
X42305892Y-88450500D01*
X42433186Y-88416392D01*
X42433188Y-88416390D01*
X42433190Y-88416390D01*
X42547309Y-88350503D01*
X42547309Y-88350502D01*
X42547314Y-88350500D01*
X45440500Y-85457314D01*
X45506392Y-85343186D01*
X45540500Y-85215892D01*
X45540500Y-85084108D01*
X45540500Y-83351839D01*
X45559407Y-83293648D01*
X45569490Y-83281841D01*
X47470498Y-81380833D01*
X47525013Y-81353058D01*
X47585445Y-81362629D01*
X47628710Y-81405894D01*
X47639500Y-81450839D01*
X47639500Y-82418754D01*
X47640000Y-82427656D01*
X47640000Y-83015293D01*
X47626738Y-83064790D01*
X47620202Y-83076110D01*
X47620201Y-83076112D01*
X47606074Y-83128836D01*
X47589500Y-83190691D01*
X47589500Y-83309309D01*
X47600219Y-83349313D01*
X47620201Y-83423887D01*
X47623287Y-83429231D01*
X47626735Y-83435204D01*
X47640000Y-83484705D01*
X47640000Y-83615293D01*
X47626738Y-83664790D01*
X47620202Y-83676110D01*
X47620201Y-83676112D01*
X47599733Y-83752498D01*
X47589500Y-83790691D01*
X47589500Y-83909309D01*
X47607236Y-83975500D01*
X47620201Y-84023887D01*
X47623287Y-84029231D01*
X47626735Y-84035204D01*
X47640000Y-84084705D01*
X47640000Y-84215293D01*
X47626738Y-84264790D01*
X47620202Y-84276110D01*
X47620201Y-84276112D01*
X47600587Y-84349313D01*
X47589500Y-84390691D01*
X47589500Y-84509309D01*
X47603627Y-84562032D01*
X47620201Y-84623887D01*
X47623287Y-84629231D01*
X47626735Y-84635204D01*
X47640000Y-84684705D01*
X47640000Y-85272344D01*
X47639500Y-85281241D01*
X47639500Y-88146107D01*
X47639195Y-88153875D01*
X47625343Y-88329875D01*
X47622913Y-88345218D01*
X47582610Y-88513091D01*
X47577809Y-88527865D01*
X47511742Y-88687366D01*
X47504689Y-88701208D01*
X47414487Y-88848404D01*
X47405356Y-88860972D01*
X47293235Y-88992250D01*
X47282250Y-89003235D01*
X47150972Y-89115356D01*
X47138404Y-89124487D01*
X46991208Y-89214689D01*
X46977366Y-89221742D01*
X46817865Y-89287809D01*
X46803091Y-89292610D01*
X46635218Y-89332913D01*
X46619875Y-89335343D01*
X46443875Y-89349195D01*
X46436107Y-89349500D01*
X45547238Y-89349500D01*
X45527914Y-89347596D01*
X45520176Y-89346056D01*
X45466795Y-89316154D01*
X45441185Y-89260586D01*
X45440500Y-89248960D01*
X45440500Y-88882340D01*
X45410390Y-88750415D01*
X45410389Y-88750414D01*
X45410389Y-88750412D01*
X45351675Y-88628493D01*
X45267305Y-88522695D01*
X45161507Y-88438325D01*
X45039588Y-88379611D01*
X45039586Y-88379610D01*
X45039584Y-88379609D01*
X44907660Y-88349500D01*
X44859991Y-88349500D01*
X44266929Y-88349500D01*
X44240000Y-88349500D01*
X44172340Y-88349500D01*
X44040415Y-88379609D01*
X44040412Y-88379611D01*
X43918493Y-88438325D01*
X43868803Y-88477951D01*
X43812697Y-88522693D01*
X43812693Y-88522697D01*
X43728327Y-88628491D01*
X43728325Y-88628493D01*
X43669611Y-88750412D01*
X43669609Y-88750415D01*
X43639500Y-88882340D01*
X43639500Y-114118754D01*
X43640000Y-114127656D01*
X43640000Y-118540248D01*
X43638097Y-118559563D01*
X43628616Y-118607224D01*
X43613835Y-118642910D01*
X43592362Y-118675047D01*
X43565047Y-118702362D01*
X43532910Y-118723835D01*
X43497224Y-118738616D01*
X43452077Y-118747597D01*
X43432762Y-118749500D01*
X34047238Y-118749500D01*
X34027925Y-118747598D01*
X34009749Y-118743982D01*
X33982775Y-118738617D01*
X33947089Y-118723835D01*
X33946330Y-118723328D01*
X33914949Y-118702359D01*
X33887640Y-118675050D01*
X33866163Y-118642908D01*
X33851382Y-118607222D01*
X33842402Y-118562074D01*
X33840500Y-118542761D01*
X33840500Y-113684234D01*
X35184500Y-113684234D01*
X35184500Y-113835766D01*
X35219086Y-113964847D01*
X35223720Y-113982139D01*
X35299481Y-114113360D01*
X35299483Y-114113362D01*
X35299485Y-114113365D01*
X35406635Y-114220515D01*
X35406637Y-114220516D01*
X35406639Y-114220518D01*
X35537861Y-114296279D01*
X35537859Y-114296279D01*
X35537863Y-114296280D01*
X35537865Y-114296281D01*
X35684234Y-114335500D01*
X35684236Y-114335500D01*
X35835764Y-114335500D01*
X35835766Y-114335500D01*
X35982135Y-114296281D01*
X35982137Y-114296279D01*
X35982139Y-114296279D01*
X36113360Y-114220518D01*
X36113360Y-114220517D01*
X36113365Y-114220515D01*
X36220515Y-114113365D01*
X36257099Y-114050000D01*
X36296279Y-113982139D01*
X36296279Y-113982137D01*
X36296281Y-113982135D01*
X36335500Y-113835766D01*
X36335500Y-113684234D01*
X36322340Y-113635120D01*
X36325542Y-113574022D01*
X36364047Y-113526472D01*
X36417967Y-113510500D01*
X36574673Y-113510500D01*
X36574674Y-113510500D01*
X36630688Y-113499358D01*
X36669312Y-113499358D01*
X36725326Y-113510500D01*
X36725327Y-113510500D01*
X37074673Y-113510500D01*
X37074674Y-113510500D01*
X37130688Y-113499358D01*
X37169312Y-113499358D01*
X37225326Y-113510500D01*
X37225327Y-113510500D01*
X37574673Y-113510500D01*
X37574674Y-113510500D01*
X37630688Y-113499358D01*
X37669312Y-113499358D01*
X37725326Y-113510500D01*
X37725327Y-113510500D01*
X38074673Y-113510500D01*
X38074674Y-113510500D01*
X38130688Y-113499358D01*
X38169312Y-113499358D01*
X38225326Y-113510500D01*
X38225327Y-113510500D01*
X38574673Y-113510500D01*
X38574674Y-113510500D01*
X38630688Y-113499358D01*
X38669312Y-113499358D01*
X38725326Y-113510500D01*
X38725327Y-113510500D01*
X39074673Y-113510500D01*
X39074674Y-113510500D01*
X39130688Y-113499358D01*
X39169312Y-113499358D01*
X39225326Y-113510500D01*
X39225327Y-113510500D01*
X39574673Y-113510500D01*
X39574674Y-113510500D01*
X39630688Y-113499358D01*
X39669312Y-113499358D01*
X39725326Y-113510500D01*
X39725327Y-113510500D01*
X40074673Y-113510500D01*
X40074674Y-113510500D01*
X40130688Y-113499358D01*
X40169312Y-113499358D01*
X40225326Y-113510500D01*
X40225327Y-113510500D01*
X40574673Y-113510500D01*
X40574674Y-113510500D01*
X40630688Y-113499358D01*
X40669312Y-113499358D01*
X40725326Y-113510500D01*
X40882033Y-113510500D01*
X40940224Y-113529407D01*
X40976188Y-113578907D01*
X40977659Y-113635119D01*
X40964500Y-113684234D01*
X40964500Y-113835766D01*
X40999086Y-113964847D01*
X41003720Y-113982139D01*
X41079481Y-114113360D01*
X41079483Y-114113362D01*
X41079485Y-114113365D01*
X41186635Y-114220515D01*
X41186637Y-114220516D01*
X41186639Y-114220518D01*
X41317861Y-114296279D01*
X41317859Y-114296279D01*
X41317863Y-114296280D01*
X41317865Y-114296281D01*
X41464234Y-114335500D01*
X41464236Y-114335500D01*
X41615764Y-114335500D01*
X41615766Y-114335500D01*
X41762135Y-114296281D01*
X41762137Y-114296279D01*
X41762139Y-114296279D01*
X41893360Y-114220518D01*
X41893360Y-114220517D01*
X41893365Y-114220515D01*
X42000515Y-114113365D01*
X42037099Y-114050000D01*
X42076279Y-113982139D01*
X42076279Y-113982137D01*
X42076281Y-113982135D01*
X42115500Y-113835766D01*
X42115500Y-113684234D01*
X42076281Y-113537865D01*
X42076279Y-113537862D01*
X42076279Y-113537860D01*
X42000518Y-113406639D01*
X42000516Y-113406637D01*
X42000515Y-113406635D01*
X41893365Y-113299485D01*
X41893362Y-113299483D01*
X41893360Y-113299481D01*
X41762138Y-113223720D01*
X41762140Y-113223720D01*
X41720779Y-113212638D01*
X41673875Y-113200070D01*
X41622563Y-113166747D01*
X41600636Y-113109625D01*
X41600500Y-113104444D01*
X41600500Y-111995327D01*
X41600498Y-111995315D01*
X41597015Y-111977808D01*
X41585966Y-111922260D01*
X41530601Y-111839399D01*
X41530599Y-111839397D01*
X41469499Y-111798572D01*
X41431619Y-111750522D01*
X41427393Y-111726861D01*
X41426347Y-111726999D01*
X41425500Y-111720572D01*
X41425500Y-111720565D01*
X41423742Y-111714004D01*
X41399911Y-111625063D01*
X41399908Y-111625057D01*
X41350478Y-111539442D01*
X41350477Y-111539441D01*
X41350476Y-111539440D01*
X41350475Y-111539438D01*
X40800563Y-110989526D01*
X40800563Y-110989525D01*
X40714941Y-110940091D01*
X40714934Y-110940088D01*
X40667185Y-110927294D01*
X40667184Y-110927294D01*
X40619438Y-110914500D01*
X40619436Y-110914500D01*
X40619435Y-110914500D01*
X40408539Y-110914500D01*
X40350348Y-110895593D01*
X40348314Y-110894074D01*
X40237625Y-110809139D01*
X40237621Y-110809137D01*
X40103709Y-110753670D01*
X40103708Y-110753669D01*
X39960000Y-110734750D01*
X39816291Y-110753669D01*
X39816290Y-110753670D01*
X39682378Y-110809137D01*
X39682374Y-110809139D01*
X39567381Y-110897377D01*
X39567377Y-110897381D01*
X39479139Y-111012374D01*
X39479137Y-111012378D01*
X39423670Y-111146290D01*
X39423669Y-111146291D01*
X39404750Y-111289999D01*
X39404750Y-111290000D01*
X39423669Y-111433708D01*
X39423670Y-111433709D01*
X39479137Y-111567621D01*
X39479139Y-111567625D01*
X39511833Y-111610232D01*
X39532257Y-111667908D01*
X39514880Y-111726574D01*
X39466338Y-111763821D01*
X39433291Y-111769500D01*
X39225320Y-111769500D01*
X39169313Y-111780641D01*
X39130687Y-111780641D01*
X39074679Y-111769500D01*
X39074674Y-111769500D01*
X38725326Y-111769500D01*
X38725320Y-111769500D01*
X38669313Y-111780641D01*
X38630687Y-111780641D01*
X38574679Y-111769500D01*
X38574674Y-111769500D01*
X38225326Y-111769500D01*
X38225320Y-111769500D01*
X38169313Y-111780641D01*
X38130687Y-111780641D01*
X38074679Y-111769500D01*
X38074674Y-111769500D01*
X38044382Y-111769500D01*
X37986191Y-111750593D01*
X37950227Y-111701093D01*
X37950227Y-111639907D01*
X37965841Y-111610232D01*
X37990857Y-111577630D01*
X37990856Y-111577630D01*
X37990861Y-111577625D01*
X38046330Y-111443709D01*
X38065250Y-111300000D01*
X38063933Y-111290000D01*
X38046330Y-111156291D01*
X37990861Y-111022375D01*
X37902621Y-110907379D01*
X37787625Y-110819139D01*
X37787621Y-110819137D01*
X37653709Y-110763670D01*
X37653708Y-110763669D01*
X37510000Y-110744750D01*
X37366291Y-110763669D01*
X37366290Y-110763670D01*
X37232378Y-110819137D01*
X37232370Y-110819142D01*
X37134759Y-110894042D01*
X37077084Y-110914466D01*
X37074492Y-110914500D01*
X36879436Y-110914500D01*
X36780564Y-110914500D01*
X36732813Y-110927295D01*
X36732812Y-110927294D01*
X36685062Y-110940089D01*
X36661149Y-110953896D01*
X36657448Y-110956033D01*
X36599437Y-110989525D01*
X36019438Y-111569525D01*
X36019437Y-111569524D01*
X35949524Y-111639438D01*
X35900091Y-111725058D01*
X35897607Y-111731057D01*
X35895572Y-111730214D01*
X35867572Y-111773305D01*
X35860291Y-111778667D01*
X35769400Y-111839397D01*
X35769397Y-111839400D01*
X35714035Y-111922257D01*
X35714033Y-111922263D01*
X35699501Y-111995315D01*
X35699500Y-111995327D01*
X35699500Y-113104444D01*
X35680593Y-113162635D01*
X35631093Y-113198599D01*
X35626136Y-113200066D01*
X35579220Y-113212638D01*
X35537860Y-113223720D01*
X35406639Y-113299481D01*
X35299481Y-113406639D01*
X35223720Y-113537860D01*
X35223719Y-113537865D01*
X35184500Y-113684234D01*
X33840500Y-113684234D01*
X33840500Y-108161370D01*
X33859407Y-108103179D01*
X33908907Y-108067215D01*
X33970093Y-108067215D01*
X34002305Y-108084842D01*
X34006754Y-108088494D01*
X34006758Y-108088497D01*
X34017675Y-108095791D01*
X34062406Y-108125680D01*
X34106581Y-108149292D01*
X34152000Y-108168105D01*
X34199931Y-108182644D01*
X34239942Y-108190601D01*
X34248104Y-108192225D01*
X34248104Y-108192226D01*
X34277979Y-108198169D01*
X34302786Y-108201849D01*
X34327367Y-108204270D01*
X34352410Y-108205500D01*
X34352427Y-108205500D01*
X41927573Y-108205500D01*
X41927590Y-108205500D01*
X41952634Y-108204270D01*
X41977214Y-108201849D01*
X41999243Y-108198580D01*
X42001911Y-108198185D01*
X42001931Y-108198186D01*
X42002011Y-108198169D01*
X42002018Y-108198169D01*
X42007424Y-108197093D01*
X42021700Y-108194253D01*
X42021701Y-108194254D01*
X42080069Y-108182644D01*
X42080070Y-108182643D01*
X42080073Y-108182643D01*
X42098657Y-108177005D01*
X42127999Y-108168105D01*
X42173418Y-108149292D01*
X42217590Y-108125681D01*
X42273239Y-108088498D01*
X42311958Y-108056723D01*
X42346723Y-108021958D01*
X42378498Y-107983239D01*
X42415681Y-107927590D01*
X42439292Y-107883418D01*
X42458105Y-107837999D01*
X42461490Y-107826838D01*
X42472642Y-107790076D01*
X42472643Y-107790071D01*
X42488169Y-107712019D01*
X42491849Y-107687214D01*
X42494270Y-107662632D01*
X42495500Y-107637590D01*
X42495500Y-106362409D01*
X42494270Y-106337367D01*
X42491849Y-106312785D01*
X42488169Y-106287980D01*
X42472643Y-106209928D01*
X42472642Y-106209922D01*
X42458110Y-106162016D01*
X42458109Y-106162013D01*
X42458105Y-106162000D01*
X42439292Y-106116581D01*
X42415680Y-106072406D01*
X42378494Y-106016754D01*
X42346720Y-105978038D01*
X42311961Y-105943279D01*
X42273245Y-105911506D01*
X42273236Y-105911499D01*
X42273233Y-105911497D01*
X42217587Y-105874316D01*
X42217576Y-105874310D01*
X42173434Y-105850716D01*
X42173424Y-105850711D01*
X42173416Y-105850707D01*
X42173406Y-105850703D01*
X42173400Y-105850700D01*
X42128007Y-105831898D01*
X42128000Y-105831895D01*
X42127996Y-105831894D01*
X42127989Y-105831891D01*
X42080069Y-105817355D01*
X42002015Y-105801830D01*
X41977230Y-105798153D01*
X41977216Y-105798151D01*
X41977214Y-105798151D01*
X41977210Y-105798150D01*
X41977205Y-105798150D01*
X41952637Y-105795730D01*
X41952641Y-105795730D01*
X41939276Y-105795074D01*
X41927590Y-105794500D01*
X34352410Y-105794500D01*
X34341975Y-105795012D01*
X34327359Y-105795730D01*
X34302794Y-105798150D01*
X34302763Y-105798153D01*
X34278005Y-105801826D01*
X34277964Y-105801833D01*
X34246229Y-105808145D01*
X34246143Y-105808163D01*
X34199928Y-105817355D01*
X34152013Y-105831890D01*
X34151994Y-105831897D01*
X34106577Y-105850708D01*
X34062418Y-105874312D01*
X34062405Y-105874320D01*
X34006754Y-105911505D01*
X34002302Y-105915159D01*
X33945324Y-105937457D01*
X33886122Y-105922005D01*
X33847308Y-105874707D01*
X33840500Y-105838628D01*
X33840500Y-97961370D01*
X33859407Y-97903179D01*
X33908907Y-97867215D01*
X33970093Y-97867215D01*
X34002305Y-97884842D01*
X34006754Y-97888494D01*
X34006758Y-97888497D01*
X34017675Y-97895791D01*
X34062406Y-97925680D01*
X34106581Y-97949292D01*
X34152000Y-97968105D01*
X34199931Y-97982644D01*
X34239942Y-97990601D01*
X34248104Y-97992225D01*
X34248104Y-97992226D01*
X34277979Y-97998169D01*
X34302786Y-98001849D01*
X34327367Y-98004270D01*
X34352410Y-98005500D01*
X34352427Y-98005500D01*
X42127573Y-98005500D01*
X42127590Y-98005500D01*
X42152634Y-98004270D01*
X42177214Y-98001849D01*
X42199243Y-97998580D01*
X42201911Y-97998185D01*
X42201931Y-97998186D01*
X42202011Y-97998169D01*
X42202018Y-97998169D01*
X42207424Y-97997093D01*
X42221700Y-97994253D01*
X42221701Y-97994254D01*
X42280069Y-97982644D01*
X42280070Y-97982643D01*
X42280073Y-97982643D01*
X42298657Y-97977005D01*
X42327999Y-97968105D01*
X42373418Y-97949292D01*
X42417590Y-97925681D01*
X42473239Y-97888498D01*
X42511958Y-97856723D01*
X42546723Y-97821958D01*
X42578498Y-97783239D01*
X42615681Y-97727590D01*
X42639292Y-97683418D01*
X42658105Y-97637999D01*
X42661490Y-97626838D01*
X42672642Y-97590076D01*
X42672643Y-97590071D01*
X42688169Y-97512019D01*
X42691849Y-97487214D01*
X42694270Y-97462632D01*
X42695500Y-97437590D01*
X42695500Y-96162409D01*
X42694270Y-96137367D01*
X42691849Y-96112785D01*
X42688169Y-96087980D01*
X42672643Y-96009928D01*
X42672642Y-96009922D01*
X42658110Y-95962016D01*
X42658109Y-95962013D01*
X42658105Y-95962000D01*
X42639292Y-95916581D01*
X42615680Y-95872406D01*
X42578494Y-95816754D01*
X42546720Y-95778038D01*
X42511961Y-95743279D01*
X42473245Y-95711506D01*
X42473236Y-95711499D01*
X42473233Y-95711497D01*
X42417587Y-95674316D01*
X42417576Y-95674310D01*
X42373434Y-95650716D01*
X42373424Y-95650711D01*
X42373416Y-95650707D01*
X42373406Y-95650703D01*
X42373400Y-95650700D01*
X42328007Y-95631898D01*
X42328000Y-95631895D01*
X42327996Y-95631894D01*
X42327989Y-95631891D01*
X42280069Y-95617355D01*
X42202015Y-95601830D01*
X42177230Y-95598153D01*
X42177216Y-95598151D01*
X42177214Y-95598151D01*
X42177210Y-95598150D01*
X42177205Y-95598150D01*
X42152637Y-95595730D01*
X42152641Y-95595730D01*
X42139276Y-95595074D01*
X42127590Y-95594500D01*
X42127583Y-95594500D01*
X42095876Y-95594500D01*
X42037685Y-95575593D01*
X42001721Y-95526093D01*
X42001721Y-95464907D01*
X42025872Y-95425497D01*
X42179409Y-95271958D01*
X42332952Y-95118416D01*
X42382186Y-95044729D01*
X42415084Y-94995495D01*
X42471658Y-94858913D01*
X42500500Y-94713918D01*
X42500500Y-92433188D01*
X42500500Y-91847703D01*
X42501123Y-91836617D01*
X42505249Y-91800002D01*
X42505249Y-91799996D01*
X42501123Y-91763380D01*
X42500500Y-91752295D01*
X42500500Y-90847705D01*
X42501123Y-90836619D01*
X42505249Y-90800004D01*
X42505249Y-90799998D01*
X42501123Y-90763382D01*
X42500500Y-90752297D01*
X42500500Y-89936458D01*
X42501120Y-89925392D01*
X42501778Y-89919550D01*
X42503051Y-89911358D01*
X42510500Y-89873918D01*
X42510500Y-89847703D01*
X42511123Y-89836617D01*
X42515249Y-89800002D01*
X42515249Y-89799996D01*
X42511123Y-89763380D01*
X42510500Y-89752295D01*
X42510500Y-89726087D01*
X42510500Y-89726083D01*
X42503052Y-89688646D01*
X42501779Y-89680461D01*
X42496313Y-89631941D01*
X42488091Y-89608444D01*
X42484436Y-89595055D01*
X42481659Y-89581094D01*
X42481658Y-89581088D01*
X42462495Y-89534825D01*
X42460514Y-89529636D01*
X42452569Y-89506929D01*
X42440456Y-89472310D01*
X42433582Y-89461370D01*
X42425945Y-89446584D01*
X42425086Y-89444510D01*
X42425083Y-89444504D01*
X42414736Y-89429020D01*
X42390638Y-89392954D01*
X42389153Y-89390663D01*
X42350479Y-89329113D01*
X42350478Y-89329112D01*
X42350477Y-89329110D01*
X42230890Y-89209523D01*
X42230887Y-89209521D01*
X42230886Y-89209520D01*
X42169359Y-89170860D01*
X42167030Y-89169350D01*
X42115494Y-89134916D01*
X42115494Y-89134915D01*
X42113404Y-89134050D01*
X42098626Y-89126415D01*
X42087690Y-89119544D01*
X42030349Y-89099479D01*
X42025161Y-89097499D01*
X41978914Y-89078343D01*
X41978912Y-89078342D01*
X41964934Y-89075561D01*
X41951561Y-89071910D01*
X41928057Y-89063686D01*
X41879571Y-89058223D01*
X41871342Y-89056944D01*
X41833920Y-89049500D01*
X41833917Y-89049500D01*
X41807704Y-89049500D01*
X41796619Y-89048877D01*
X41788962Y-89048014D01*
X41760003Y-89044751D01*
X41759997Y-89044751D01*
X41731037Y-89048014D01*
X41723380Y-89048877D01*
X41712296Y-89049500D01*
X41686077Y-89049500D01*
X41648656Y-89056944D01*
X41640428Y-89058223D01*
X41591946Y-89063685D01*
X41591943Y-89063686D01*
X41568437Y-89071911D01*
X41555058Y-89075562D01*
X41541094Y-89078339D01*
X41536159Y-89080383D01*
X41494803Y-89097512D01*
X41489649Y-89099479D01*
X41432310Y-89119544D01*
X41432308Y-89119544D01*
X41432306Y-89119546D01*
X41421368Y-89126418D01*
X41406610Y-89134043D01*
X41404516Y-89134910D01*
X41404507Y-89134915D01*
X41404506Y-89134916D01*
X41352975Y-89169347D01*
X41350648Y-89170854D01*
X41289112Y-89209521D01*
X41289110Y-89209523D01*
X41281584Y-89217049D01*
X41281581Y-89217052D01*
X41281580Y-89217051D01*
X41167052Y-89331578D01*
X41167049Y-89331582D01*
X41164536Y-89335343D01*
X41125965Y-89393071D01*
X41084919Y-89454498D01*
X41084913Y-89454509D01*
X41028342Y-89591085D01*
X40999500Y-89736081D01*
X40999500Y-90752297D01*
X40998877Y-90763382D01*
X40994751Y-90799998D01*
X40994751Y-90800004D01*
X40998877Y-90836619D01*
X40999500Y-90847705D01*
X40999500Y-91752295D01*
X40998877Y-91763380D01*
X40994751Y-91799996D01*
X40994751Y-91800002D01*
X40998877Y-91836617D01*
X40999500Y-91847703D01*
X40999500Y-94288124D01*
X40980593Y-94346315D01*
X40970504Y-94358128D01*
X39763128Y-95565504D01*
X39708611Y-95593281D01*
X39693124Y-95594500D01*
X34352410Y-95594500D01*
X34341975Y-95595012D01*
X34327359Y-95595730D01*
X34302794Y-95598150D01*
X34302763Y-95598153D01*
X34278005Y-95601826D01*
X34277964Y-95601833D01*
X34246229Y-95608145D01*
X34246143Y-95608163D01*
X34199928Y-95617355D01*
X34152013Y-95631890D01*
X34151994Y-95631897D01*
X34106577Y-95650708D01*
X34062418Y-95674312D01*
X34062405Y-95674320D01*
X34006754Y-95711505D01*
X34002302Y-95715159D01*
X33945324Y-95737457D01*
X33886122Y-95722005D01*
X33847308Y-95674707D01*
X33840500Y-95638628D01*
X33840500Y-75825327D01*
X34599500Y-75825327D01*
X34599500Y-76774672D01*
X34599501Y-76774684D01*
X34614033Y-76847736D01*
X34614035Y-76847742D01*
X34669397Y-76930599D01*
X34669399Y-76930601D01*
X34752260Y-76985966D01*
X34807808Y-76997015D01*
X34825315Y-77000498D01*
X34825320Y-77000498D01*
X34825326Y-77000500D01*
X34825327Y-77000500D01*
X36174673Y-77000500D01*
X36174674Y-77000500D01*
X36247740Y-76985966D01*
X36330601Y-76930601D01*
X36385966Y-76847740D01*
X36400500Y-76774674D01*
X36400500Y-76614500D01*
X36419407Y-76556309D01*
X36468907Y-76520345D01*
X36499500Y-76515500D01*
X36938418Y-76515500D01*
X36996609Y-76534407D01*
X37029159Y-76579208D01*
X37030304Y-76578734D01*
X37032278Y-76583502D01*
X37032573Y-76583907D01*
X37032787Y-76584731D01*
X37034034Y-76587741D01*
X37089397Y-76670599D01*
X37089399Y-76670601D01*
X37172260Y-76725966D01*
X37227808Y-76737015D01*
X37245315Y-76740498D01*
X37245320Y-76740498D01*
X37245326Y-76740500D01*
X37245327Y-76740500D01*
X38194673Y-76740500D01*
X38194674Y-76740500D01*
X38267740Y-76725966D01*
X38350601Y-76670601D01*
X38405966Y-76587740D01*
X38420500Y-76514674D01*
X38420500Y-75765326D01*
X38405966Y-75692260D01*
X38353698Y-75614034D01*
X38350602Y-75609400D01*
X38350599Y-75609397D01*
X38267742Y-75554035D01*
X38267740Y-75554034D01*
X38267737Y-75554033D01*
X38267736Y-75554033D01*
X38194684Y-75539501D01*
X38194674Y-75539500D01*
X37245326Y-75539500D01*
X37245325Y-75539500D01*
X37245315Y-75539501D01*
X37172263Y-75554033D01*
X37172257Y-75554035D01*
X37089400Y-75609397D01*
X37089397Y-75609400D01*
X37034034Y-75692258D01*
X37030304Y-75701266D01*
X37027053Y-75699919D01*
X37005629Y-75738189D01*
X36950067Y-75763812D01*
X36938418Y-75764500D01*
X36447062Y-75764500D01*
X36388871Y-75745593D01*
X36364746Y-75720501D01*
X36330602Y-75669400D01*
X36330599Y-75669397D01*
X36247742Y-75614035D01*
X36247740Y-75614034D01*
X36247737Y-75614033D01*
X36247736Y-75614033D01*
X36174684Y-75599501D01*
X36174674Y-75599500D01*
X34825326Y-75599500D01*
X34825325Y-75599500D01*
X34825315Y-75599501D01*
X34752263Y-75614033D01*
X34752257Y-75614035D01*
X34669400Y-75669397D01*
X34669397Y-75669400D01*
X34614035Y-75752257D01*
X34614033Y-75752263D01*
X34599501Y-75825315D01*
X34599500Y-75825327D01*
X33840500Y-75825327D01*
X33840500Y-74654001D01*
X34650000Y-74654001D01*
X34650000Y-74869700D01*
X34661603Y-74928036D01*
X34705806Y-74994189D01*
X34705810Y-74994193D01*
X34771963Y-75038396D01*
X34830299Y-75049999D01*
X34830303Y-75050000D01*
X35245999Y-75050000D01*
X35246000Y-75049999D01*
X35246000Y-74654001D01*
X35754000Y-74654001D01*
X35754000Y-75049999D01*
X35754001Y-75050000D01*
X36169697Y-75050000D01*
X36169700Y-75049999D01*
X36228036Y-75038396D01*
X36294189Y-74994193D01*
X36294193Y-74994189D01*
X36338396Y-74928036D01*
X36349999Y-74869700D01*
X36350000Y-74869697D01*
X36350000Y-74654001D01*
X36349999Y-74654000D01*
X35754001Y-74654000D01*
X35754000Y-74654001D01*
X35246000Y-74654001D01*
X35245999Y-74654000D01*
X34650001Y-74654000D01*
X34650000Y-74654001D01*
X33840500Y-74654001D01*
X33840500Y-73930299D01*
X34650000Y-73930299D01*
X34650000Y-74145999D01*
X34650001Y-74146000D01*
X35245999Y-74146000D01*
X35246000Y-74145999D01*
X35246000Y-73750001D01*
X35754000Y-73750001D01*
X35754000Y-74145999D01*
X35754001Y-74146000D01*
X36349999Y-74146000D01*
X36350000Y-74145999D01*
X36350000Y-73930302D01*
X36349999Y-73930299D01*
X36338396Y-73871963D01*
X36294193Y-73805810D01*
X36294189Y-73805806D01*
X36228036Y-73761603D01*
X36169700Y-73750000D01*
X35754001Y-73750000D01*
X35754000Y-73750001D01*
X35246000Y-73750001D01*
X35245999Y-73750000D01*
X34830299Y-73750000D01*
X34771963Y-73761603D01*
X34705810Y-73805806D01*
X34705806Y-73805810D01*
X34661603Y-73871963D01*
X34650000Y-73930299D01*
X33840500Y-73930299D01*
X33840500Y-73054001D01*
X34640000Y-73054001D01*
X34640000Y-73269700D01*
X34651603Y-73328036D01*
X34695806Y-73394189D01*
X34695810Y-73394193D01*
X34761963Y-73438396D01*
X34820299Y-73449999D01*
X34820303Y-73450000D01*
X35235999Y-73450000D01*
X35236000Y-73449999D01*
X35236000Y-73054001D01*
X35744000Y-73054001D01*
X35744000Y-73449999D01*
X35744001Y-73450000D01*
X36159697Y-73450000D01*
X36159700Y-73449999D01*
X36218036Y-73438396D01*
X36284189Y-73394193D01*
X36284193Y-73394189D01*
X36328396Y-73328036D01*
X36339999Y-73269700D01*
X36340000Y-73269697D01*
X36340000Y-73054001D01*
X36339999Y-73054000D01*
X35744001Y-73054000D01*
X35744000Y-73054001D01*
X35236000Y-73054001D01*
X35235999Y-73054000D01*
X34640001Y-73054000D01*
X34640000Y-73054001D01*
X33840500Y-73054001D01*
X33840500Y-72330299D01*
X34640000Y-72330299D01*
X34640000Y-72545999D01*
X34640001Y-72546000D01*
X35235999Y-72546000D01*
X35236000Y-72545999D01*
X35236000Y-72150001D01*
X35235999Y-72150000D01*
X34820299Y-72150000D01*
X34761963Y-72161603D01*
X34695810Y-72205806D01*
X34695806Y-72205810D01*
X34651603Y-72271963D01*
X34640000Y-72330299D01*
X33840500Y-72330299D01*
X33840500Y-70425327D01*
X34589500Y-70425327D01*
X34589500Y-71374672D01*
X34589501Y-71374684D01*
X34604033Y-71447736D01*
X34604035Y-71447742D01*
X34659397Y-71530599D01*
X34659400Y-71530602D01*
X34742257Y-71585964D01*
X34742260Y-71585966D01*
X34797808Y-71597015D01*
X34815315Y-71600498D01*
X34815320Y-71600498D01*
X34815326Y-71600500D01*
X34815327Y-71600500D01*
X36164673Y-71600500D01*
X36164674Y-71600500D01*
X36237740Y-71585966D01*
X36320601Y-71530601D01*
X36362602Y-71467742D01*
X36381383Y-71439633D01*
X36384833Y-71441938D01*
X36411978Y-71410119D01*
X36463754Y-71395500D01*
X36948418Y-71395500D01*
X37006609Y-71414407D01*
X37039159Y-71459208D01*
X37040304Y-71458734D01*
X37042278Y-71463502D01*
X37042573Y-71463907D01*
X37042787Y-71464731D01*
X37044034Y-71467741D01*
X37087908Y-71533404D01*
X37104516Y-71592293D01*
X37083338Y-71649696D01*
X37032464Y-71683688D01*
X36992670Y-71686558D01*
X36865001Y-71669750D01*
X36865000Y-71669750D01*
X36721291Y-71688669D01*
X36721290Y-71688670D01*
X36587378Y-71744137D01*
X36587374Y-71744139D01*
X36472381Y-71832377D01*
X36472377Y-71832381D01*
X36384139Y-71947374D01*
X36384137Y-71947378D01*
X36328670Y-72081290D01*
X36326990Y-72087561D01*
X36324271Y-72086832D01*
X36302990Y-72131436D01*
X36249215Y-72160624D01*
X36211875Y-72160377D01*
X36159705Y-72150000D01*
X35744001Y-72150000D01*
X35744000Y-72150001D01*
X35744000Y-72545999D01*
X35744001Y-72546000D01*
X36368601Y-72546000D01*
X36426792Y-72564907D01*
X36447143Y-72584733D01*
X36472379Y-72617621D01*
X36587375Y-72705861D01*
X36721291Y-72761330D01*
X36859564Y-72779534D01*
X36914789Y-72805875D01*
X36916645Y-72807683D01*
X37000503Y-72891540D01*
X37028281Y-72946056D01*
X37029500Y-72961544D01*
X37029500Y-73094672D01*
X37029501Y-73094684D01*
X37044033Y-73167736D01*
X37044035Y-73167742D01*
X37099397Y-73250599D01*
X37099400Y-73250602D01*
X37127983Y-73269700D01*
X37182260Y-73305966D01*
X37237808Y-73317015D01*
X37255315Y-73320498D01*
X37255320Y-73320498D01*
X37255326Y-73320500D01*
X37255327Y-73320500D01*
X38169455Y-73320500D01*
X38227646Y-73339407D01*
X38263610Y-73388907D01*
X38263610Y-73450093D01*
X38239459Y-73489504D01*
X37918459Y-73810504D01*
X37863942Y-73838281D01*
X37848455Y-73839500D01*
X37245326Y-73839500D01*
X37245325Y-73839500D01*
X37245315Y-73839501D01*
X37172263Y-73854033D01*
X37172257Y-73854035D01*
X37089400Y-73909397D01*
X37089397Y-73909400D01*
X37034035Y-73992257D01*
X37034033Y-73992263D01*
X37019501Y-74065315D01*
X37019500Y-74065327D01*
X37019500Y-74814672D01*
X37019501Y-74814684D01*
X37034033Y-74887736D01*
X37034035Y-74887742D01*
X37089397Y-74970599D01*
X37089400Y-74970602D01*
X37172257Y-75025964D01*
X37172260Y-75025966D01*
X37227808Y-75037015D01*
X37245315Y-75040498D01*
X37245320Y-75040498D01*
X37245326Y-75040500D01*
X37245327Y-75040500D01*
X38194673Y-75040500D01*
X38194674Y-75040500D01*
X38267740Y-75025966D01*
X38350601Y-74970601D01*
X38405966Y-74887740D01*
X38420500Y-74814674D01*
X38420500Y-74411545D01*
X38439407Y-74353354D01*
X38449496Y-74341541D01*
X40590474Y-72200563D01*
X40639908Y-72114942D01*
X40639908Y-72114940D01*
X40639910Y-72114938D01*
X40665500Y-72019435D01*
X40665500Y-71578539D01*
X40684407Y-71520348D01*
X40685925Y-71518314D01*
X40770861Y-71407625D01*
X40826330Y-71273709D01*
X40845250Y-71130000D01*
X40826330Y-70986291D01*
X40770861Y-70852375D01*
X40682621Y-70737379D01*
X40567625Y-70649139D01*
X40567621Y-70649137D01*
X40433709Y-70593670D01*
X40433708Y-70593669D01*
X40290000Y-70574750D01*
X40146291Y-70593669D01*
X40146290Y-70593670D01*
X40012378Y-70649137D01*
X40012374Y-70649139D01*
X39897381Y-70737377D01*
X39897377Y-70737381D01*
X39809139Y-70852374D01*
X39809137Y-70852378D01*
X39753670Y-70986290D01*
X39753669Y-70986291D01*
X39734750Y-71129999D01*
X39734750Y-71130000D01*
X39753669Y-71273708D01*
X39753670Y-71273709D01*
X39804116Y-71395500D01*
X39809139Y-71407625D01*
X39894042Y-71518273D01*
X39914466Y-71575947D01*
X39914500Y-71578539D01*
X39914500Y-71773455D01*
X39895593Y-71831646D01*
X39885504Y-71843459D01*
X38599504Y-73129459D01*
X38544987Y-73157236D01*
X38484555Y-73147665D01*
X38441290Y-73104400D01*
X38430500Y-73059455D01*
X38430500Y-72345327D01*
X38430498Y-72345315D01*
X38427015Y-72327808D01*
X38415966Y-72272260D01*
X38415768Y-72271963D01*
X38360602Y-72189400D01*
X38360599Y-72189397D01*
X38277742Y-72134035D01*
X38277740Y-72134034D01*
X38277737Y-72134033D01*
X38277736Y-72134033D01*
X38204684Y-72119501D01*
X38204674Y-72119500D01*
X38204673Y-72119500D01*
X37483306Y-72119500D01*
X37425115Y-72100593D01*
X37391842Y-72058385D01*
X37345862Y-71947378D01*
X37345861Y-71947375D01*
X37257621Y-71832379D01*
X37212871Y-71798041D01*
X37178217Y-71747617D01*
X37179819Y-71686453D01*
X37217066Y-71637911D01*
X37273140Y-71620500D01*
X38204673Y-71620500D01*
X38204674Y-71620500D01*
X38277740Y-71605966D01*
X38360601Y-71550601D01*
X38415966Y-71467740D01*
X38430500Y-71394674D01*
X38430500Y-70645326D01*
X38415966Y-70572260D01*
X38360601Y-70489399D01*
X38360599Y-70489397D01*
X38277742Y-70434035D01*
X38277740Y-70434034D01*
X38277737Y-70434033D01*
X38277736Y-70434033D01*
X38204684Y-70419501D01*
X38204674Y-70419500D01*
X37255326Y-70419500D01*
X37255325Y-70419500D01*
X37255315Y-70419501D01*
X37182263Y-70434033D01*
X37182257Y-70434035D01*
X37099400Y-70489397D01*
X37099397Y-70489400D01*
X37044034Y-70572258D01*
X37040304Y-70581266D01*
X37037053Y-70579919D01*
X37015629Y-70618189D01*
X36960067Y-70643812D01*
X36948418Y-70644500D01*
X36489500Y-70644500D01*
X36431309Y-70625593D01*
X36395345Y-70576093D01*
X36390500Y-70545500D01*
X36390500Y-70425327D01*
X36390498Y-70425315D01*
X36387015Y-70407808D01*
X36375966Y-70352260D01*
X36320601Y-70269399D01*
X36320599Y-70269397D01*
X36237742Y-70214035D01*
X36237740Y-70214034D01*
X36237737Y-70214033D01*
X36237736Y-70214033D01*
X36164684Y-70199501D01*
X36164674Y-70199500D01*
X34815326Y-70199500D01*
X34815325Y-70199500D01*
X34815315Y-70199501D01*
X34742263Y-70214033D01*
X34742257Y-70214035D01*
X34659400Y-70269397D01*
X34659397Y-70269400D01*
X34604035Y-70352257D01*
X34604033Y-70352263D01*
X34589501Y-70425315D01*
X34589500Y-70425327D01*
X33840500Y-70425327D01*
X33840500Y-54779354D01*
X33859407Y-54721163D01*
X33908907Y-54685199D01*
X33970093Y-54685199D01*
X34019593Y-54721163D01*
X34021816Y-54724354D01*
X34059395Y-54780597D01*
X34059400Y-54780602D01*
X34063754Y-54783511D01*
X34142260Y-54835966D01*
X34197808Y-54847015D01*
X34215315Y-54850498D01*
X34215320Y-54850498D01*
X34215326Y-54850500D01*
X34818455Y-54850500D01*
X34876646Y-54869407D01*
X34888459Y-54879496D01*
X35510504Y-55501541D01*
X35538281Y-55556058D01*
X35539500Y-55571545D01*
X35539500Y-56049672D01*
X35539501Y-56049684D01*
X35554033Y-56122736D01*
X35554035Y-56122742D01*
X35609397Y-56205599D01*
X35609400Y-56205602D01*
X35646813Y-56230600D01*
X35692260Y-56260966D01*
X35736319Y-56269730D01*
X35765315Y-56275498D01*
X35765320Y-56275498D01*
X35765326Y-56275500D01*
X36369455Y-56275500D01*
X36427646Y-56294407D01*
X36463610Y-56343907D01*
X36463610Y-56405093D01*
X36439459Y-56444504D01*
X36338459Y-56545504D01*
X36283942Y-56573281D01*
X36268455Y-56574500D01*
X35765326Y-56574500D01*
X35765325Y-56574500D01*
X35765315Y-56574501D01*
X35692263Y-56589033D01*
X35692257Y-56589035D01*
X35609400Y-56644397D01*
X35609397Y-56644400D01*
X35554035Y-56727257D01*
X35554033Y-56727263D01*
X35539501Y-56800315D01*
X35539500Y-56800327D01*
X35539500Y-57599672D01*
X35539501Y-57599684D01*
X35554033Y-57672736D01*
X35554035Y-57672742D01*
X35609397Y-57755599D01*
X35609399Y-57755601D01*
X35692260Y-57810966D01*
X35747808Y-57822015D01*
X35765315Y-57825498D01*
X35765320Y-57825498D01*
X35765326Y-57825500D01*
X35765327Y-57825500D01*
X36614673Y-57825500D01*
X36614674Y-57825500D01*
X36687740Y-57810966D01*
X36770601Y-57755601D01*
X36825966Y-57672740D01*
X36840500Y-57599674D01*
X36840500Y-57146545D01*
X36859407Y-57088354D01*
X36869496Y-57076541D01*
X37648530Y-56297507D01*
X37703047Y-56269730D01*
X37718534Y-56268511D01*
X37811106Y-56268511D01*
X37858038Y-56282747D01*
X37858251Y-56282234D01*
X37863465Y-56284393D01*
X37866105Y-56285194D01*
X37867260Y-56285966D01*
X37922808Y-56297015D01*
X37940315Y-56300498D01*
X37940320Y-56300498D01*
X37940326Y-56300500D01*
X37940327Y-56300500D01*
X38924308Y-56300500D01*
X38740000Y-56600000D01*
X38740000Y-56750000D01*
X38740000Y-57267439D01*
X38727261Y-57274794D01*
X38727262Y-57274795D01*
X38684449Y-57299513D01*
X37888458Y-58095504D01*
X37833941Y-58123281D01*
X37818454Y-58124500D01*
X37814674Y-58124500D01*
X36965326Y-58124500D01*
X36965325Y-58124500D01*
X36965315Y-58124501D01*
X36892263Y-58139033D01*
X36892257Y-58139035D01*
X36809400Y-58194397D01*
X36809397Y-58194400D01*
X36754035Y-58277257D01*
X36754033Y-58277263D01*
X36739501Y-58350315D01*
X36739500Y-58350327D01*
X36739500Y-59149672D01*
X36739501Y-59149684D01*
X36754033Y-59222736D01*
X36754035Y-59222742D01*
X36809397Y-59305599D01*
X36809399Y-59305601D01*
X36892260Y-59360966D01*
X36947808Y-59372015D01*
X36965315Y-59375498D01*
X36965320Y-59375498D01*
X36965326Y-59375500D01*
X37294455Y-59375500D01*
X37352646Y-59394407D01*
X37388610Y-59443907D01*
X37388610Y-59505093D01*
X37364459Y-59544504D01*
X37288459Y-59620504D01*
X37233942Y-59648281D01*
X37218455Y-59649500D01*
X37115326Y-59649500D01*
X37115325Y-59649500D01*
X37115315Y-59649501D01*
X37042263Y-59664033D01*
X37042257Y-59664035D01*
X36959400Y-59719397D01*
X36959397Y-59719400D01*
X36904035Y-59802257D01*
X36904033Y-59802263D01*
X36889501Y-59875315D01*
X36889500Y-59875327D01*
X36889500Y-60824672D01*
X36889501Y-60824684D01*
X36904033Y-60897736D01*
X36904035Y-60897742D01*
X36959397Y-60980599D01*
X36959402Y-60980604D01*
X37042260Y-61035966D01*
X37051271Y-61039699D01*
X37049925Y-61042948D01*
X37088195Y-61064379D01*
X37113813Y-61119942D01*
X37114500Y-61131583D01*
X37114500Y-61168417D01*
X37095593Y-61226608D01*
X37050791Y-61259158D01*
X37051266Y-61260304D01*
X37046494Y-61262280D01*
X37046093Y-61262572D01*
X37045273Y-61262785D01*
X37042258Y-61264034D01*
X36959400Y-61319397D01*
X36959397Y-61319400D01*
X36904035Y-61402257D01*
X36904033Y-61402263D01*
X36889501Y-61475315D01*
X36889500Y-61475327D01*
X36889500Y-62424672D01*
X36889501Y-62424684D01*
X36904033Y-62497736D01*
X36904035Y-62497742D01*
X36959397Y-62580599D01*
X36959402Y-62580604D01*
X37042260Y-62635966D01*
X37051271Y-62639699D01*
X37049925Y-62642948D01*
X37088195Y-62664379D01*
X37113813Y-62719942D01*
X37114500Y-62731583D01*
X37114500Y-62825500D01*
X37095593Y-62883691D01*
X37046093Y-62919655D01*
X37015500Y-62924500D01*
X36965326Y-62924500D01*
X36965325Y-62924500D01*
X36965315Y-62924501D01*
X36892263Y-62939033D01*
X36892257Y-62939035D01*
X36809400Y-62994397D01*
X36809397Y-62994400D01*
X36754035Y-63077257D01*
X36754033Y-63077263D01*
X36739501Y-63150315D01*
X36739500Y-63150327D01*
X36739500Y-63795500D01*
X36720593Y-63853691D01*
X36671093Y-63889655D01*
X36640500Y-63894500D01*
X36639500Y-63894500D01*
X36581309Y-63875593D01*
X36545345Y-63826093D01*
X36540500Y-63795500D01*
X36540500Y-63150327D01*
X36540498Y-63150315D01*
X36537015Y-63132808D01*
X36525966Y-63077260D01*
X36470601Y-62994399D01*
X36470599Y-62994397D01*
X36387742Y-62939035D01*
X36387740Y-62939034D01*
X36387737Y-62939033D01*
X36387736Y-62939033D01*
X36314684Y-62924501D01*
X36314674Y-62924500D01*
X36314673Y-62924500D01*
X36264500Y-62924500D01*
X36206309Y-62905593D01*
X36170345Y-62856093D01*
X36165500Y-62825500D01*
X36165500Y-62731583D01*
X36184407Y-62673392D01*
X36229203Y-62640845D01*
X36228729Y-62639699D01*
X36233503Y-62637721D01*
X36233907Y-62637428D01*
X36234729Y-62637213D01*
X36237738Y-62635966D01*
X36237740Y-62635966D01*
X36320601Y-62580601D01*
X36375966Y-62497740D01*
X36390500Y-62424674D01*
X36390500Y-61475326D01*
X36375966Y-61402260D01*
X36375964Y-61402257D01*
X36320602Y-61319400D01*
X36320599Y-61319397D01*
X36237742Y-61264035D01*
X36237740Y-61264034D01*
X36237737Y-61264033D01*
X36237736Y-61264033D01*
X36164684Y-61249501D01*
X36164674Y-61249500D01*
X35415326Y-61249500D01*
X35415325Y-61249500D01*
X35415315Y-61249501D01*
X35342263Y-61264033D01*
X35342257Y-61264035D01*
X35259400Y-61319397D01*
X35259397Y-61319400D01*
X35204035Y-61402257D01*
X35204033Y-61402263D01*
X35189501Y-61475315D01*
X35189500Y-61475327D01*
X35189500Y-62424672D01*
X35189501Y-62424684D01*
X35204033Y-62497736D01*
X35204035Y-62497742D01*
X35259397Y-62580599D01*
X35259402Y-62580604D01*
X35342260Y-62635966D01*
X35351271Y-62639699D01*
X35349925Y-62642948D01*
X35388195Y-62664379D01*
X35413813Y-62719942D01*
X35414500Y-62731583D01*
X35414500Y-62871256D01*
X35395593Y-62929447D01*
X35370501Y-62953572D01*
X35309400Y-62994397D01*
X35309397Y-62994400D01*
X35254035Y-63077257D01*
X35254033Y-63077263D01*
X35239501Y-63150315D01*
X35239500Y-63150327D01*
X35239500Y-63949680D01*
X35240900Y-63956717D01*
X35233705Y-64017478D01*
X35213806Y-64046027D01*
X35186263Y-64073570D01*
X35154495Y-64112281D01*
X35154489Y-64112289D01*
X35111339Y-64176867D01*
X35087722Y-64221047D01*
X35072946Y-64256722D01*
X35072943Y-64256730D01*
X35058403Y-64304665D01*
X35045403Y-64370022D01*
X35043366Y-64380261D01*
X35041311Y-64390589D01*
X35037635Y-64415369D01*
X35037635Y-64415372D01*
X35037633Y-64415386D01*
X35037632Y-64415397D01*
X35036869Y-64423144D01*
X35035729Y-64434721D01*
X35034500Y-64459758D01*
X35034500Y-66290240D01*
X35035730Y-66315287D01*
X35035731Y-66315303D01*
X35037630Y-66334588D01*
X35037631Y-66334595D01*
X35041314Y-66359425D01*
X35058403Y-66445338D01*
X35072940Y-66493261D01*
X35087718Y-66528942D01*
X35087719Y-66528944D01*
X35111329Y-66573117D01*
X35140060Y-66616115D01*
X35149558Y-66639042D01*
X35150304Y-66638734D01*
X35154034Y-66647741D01*
X35209397Y-66730599D01*
X35209400Y-66730602D01*
X35292260Y-66785966D01*
X35292259Y-66785966D01*
X35309127Y-66789321D01*
X35339491Y-66795360D01*
X35358653Y-66801696D01*
X35358800Y-66801344D01*
X35373909Y-66807602D01*
X35396733Y-66817056D01*
X35396737Y-66817057D01*
X35396739Y-66817058D01*
X35415904Y-66822871D01*
X35444661Y-66831595D01*
X35530591Y-66848688D01*
X35550048Y-66851574D01*
X35555363Y-66852363D01*
X35555373Y-66852364D01*
X35555398Y-66852368D01*
X35574712Y-66854270D01*
X35599752Y-66855500D01*
X35599768Y-66855500D01*
X43580232Y-66855500D01*
X43580248Y-66855500D01*
X43605289Y-66854270D01*
X43624602Y-66852368D01*
X43649408Y-66848688D01*
X43649410Y-66848687D01*
X43649414Y-66848687D01*
X43670646Y-66844463D01*
X43670647Y-66844464D01*
X43735338Y-66831596D01*
X43783270Y-66817055D01*
X43796782Y-66811457D01*
X43805044Y-66808036D01*
X43842930Y-66800500D01*
X43914673Y-66800500D01*
X43914674Y-66800500D01*
X43987740Y-66785966D01*
X44070601Y-66730601D01*
X44125966Y-66647740D01*
X44140500Y-66574674D01*
X44140500Y-66354497D01*
X44141571Y-66339971D01*
X44142368Y-66334602D01*
X44144270Y-66315287D01*
X44145500Y-66290248D01*
X44145500Y-65753476D01*
X44144332Y-65729078D01*
X44142526Y-65710252D01*
X44141517Y-65703266D01*
X44140500Y-65689114D01*
X44140500Y-65525327D01*
X44140498Y-65525315D01*
X44126192Y-65453398D01*
X44125966Y-65452260D01*
X44070601Y-65369399D01*
X44070599Y-65369397D01*
X43987742Y-65314035D01*
X43987737Y-65314033D01*
X43934467Y-65303436D01*
X43896730Y-65287246D01*
X43868122Y-65267072D01*
X43868119Y-65267070D01*
X43857730Y-65260465D01*
X43847499Y-65253960D01*
X43847492Y-65253956D01*
X43847481Y-65253949D01*
X43831081Y-65244591D01*
X43809323Y-65233519D01*
X43809281Y-65233498D01*
X43212923Y-64965137D01*
X43167616Y-64924016D01*
X43155133Y-64864117D01*
X43164740Y-64837786D01*
X43162235Y-64836749D01*
X43169698Y-64818730D01*
X43170856Y-64819209D01*
X43179500Y-64798337D01*
X43186350Y-64788087D01*
X43199272Y-64765705D01*
X43214052Y-64735732D01*
X43254026Y-64639226D01*
X43264769Y-64607578D01*
X43271458Y-64582614D01*
X43277978Y-64549837D01*
X43292467Y-64439783D01*
X43294106Y-64423144D01*
X43294953Y-64410222D01*
X43295500Y-64393511D01*
X43295500Y-56106488D01*
X43294953Y-56089777D01*
X43294106Y-56076855D01*
X43292467Y-56060216D01*
X43277978Y-55950162D01*
X43271458Y-55917385D01*
X43264769Y-55892421D01*
X43254026Y-55860772D01*
X43219419Y-55777224D01*
X43219418Y-55777221D01*
X43214050Y-55764262D01*
X43199271Y-55734293D01*
X43186349Y-55711911D01*
X43180019Y-55702438D01*
X43167781Y-55684122D01*
X43167697Y-55684013D01*
X43167687Y-55683991D01*
X43166850Y-55682824D01*
X43166892Y-55682793D01*
X43166876Y-55682768D01*
X43167074Y-55682635D01*
X43156991Y-55660318D01*
X43154697Y-55661269D01*
X43150966Y-55652263D01*
X43150966Y-55652260D01*
X43147946Y-55647740D01*
X43095604Y-55569402D01*
X43095599Y-55569397D01*
X43012742Y-55514035D01*
X43012740Y-55514034D01*
X43012737Y-55514033D01*
X43012736Y-55514033D01*
X42939684Y-55499501D01*
X42939674Y-55499500D01*
X42939673Y-55499500D01*
X42884044Y-55499500D01*
X42868556Y-55498281D01*
X42857520Y-55496533D01*
X42847843Y-55495000D01*
X42847841Y-55495000D01*
X42046012Y-55495000D01*
X42046011Y-55495000D01*
X42030967Y-55495443D01*
X42019338Y-55496129D01*
X42017726Y-55496533D01*
X41993670Y-55499500D01*
X41940326Y-55499500D01*
X41940325Y-55499500D01*
X41940315Y-55499501D01*
X41867263Y-55514033D01*
X41867257Y-55514035D01*
X41784400Y-55569397D01*
X41784397Y-55569400D01*
X41729035Y-55652257D01*
X41729033Y-55652263D01*
X41714499Y-55725323D01*
X41714244Y-55727918D01*
X41708602Y-55752479D01*
X41698320Y-55780348D01*
X41694386Y-55800133D01*
X41694385Y-55800139D01*
X41691818Y-55813039D01*
X41691810Y-55813085D01*
X41688606Y-55834683D01*
X41661363Y-55889469D01*
X41619419Y-55914889D01*
X41601794Y-55920236D01*
X41573053Y-55924500D01*
X41515320Y-55924500D01*
X41459313Y-55935641D01*
X41420687Y-55935641D01*
X41364679Y-55924500D01*
X41364674Y-55924500D01*
X41323237Y-55924500D01*
X41296289Y-55920051D01*
X41296136Y-55920625D01*
X41256753Y-55910072D01*
X41256744Y-55910071D01*
X41256736Y-55910070D01*
X41237711Y-55907565D01*
X41190624Y-55901366D01*
X41190623Y-55901366D01*
X41139379Y-55901366D01*
X41139375Y-55901366D01*
X41073255Y-55910070D01*
X41073253Y-55910070D01*
X41047787Y-55916893D01*
X41041326Y-55918715D01*
X41034038Y-55920873D01*
X41015646Y-55924468D01*
X41015326Y-55924499D01*
X40959313Y-55935641D01*
X40920687Y-55935641D01*
X40864679Y-55924500D01*
X40864674Y-55924500D01*
X40515326Y-55924500D01*
X40515320Y-55924500D01*
X40459313Y-55935641D01*
X40420687Y-55935641D01*
X40364679Y-55924500D01*
X40364674Y-55924500D01*
X40015326Y-55924500D01*
X40015320Y-55924500D01*
X39959313Y-55935641D01*
X39920687Y-55935641D01*
X39864679Y-55924500D01*
X39864674Y-55924500D01*
X39655700Y-55924500D01*
X40040000Y-55650000D01*
X39440000Y-55150000D01*
X39161753Y-55706492D01*
X39154358Y-55669312D01*
X39154358Y-55630687D01*
X39165500Y-55574674D01*
X39165500Y-55225326D01*
X39154358Y-55169312D01*
X39154358Y-55130687D01*
X39165500Y-55074674D01*
X39165500Y-54725326D01*
X39154358Y-54669312D01*
X39154358Y-54630687D01*
X39165500Y-54574674D01*
X39165500Y-54516355D01*
X39169762Y-54487618D01*
X39179206Y-54456487D01*
X39186730Y-54418664D01*
X39191197Y-54353780D01*
X39188255Y-54303872D01*
X39181638Y-54259261D01*
X39170030Y-54234080D01*
X39162839Y-54211949D01*
X39154358Y-54169314D01*
X39154359Y-54130684D01*
X39165498Y-54074684D01*
X39165500Y-54074672D01*
X39165500Y-53930115D01*
X39169762Y-53901380D01*
X39171595Y-53895339D01*
X39188188Y-53811923D01*
X39191868Y-53787115D01*
X39193770Y-53767800D01*
X39195000Y-53742761D01*
X39195000Y-53474500D01*
X39213907Y-53416309D01*
X39263407Y-53380345D01*
X39294000Y-53375500D01*
X39364673Y-53375500D01*
X39364674Y-53375500D01*
X39437740Y-53360966D01*
X39520601Y-53305601D01*
X39575966Y-53222740D01*
X39590500Y-53149674D01*
X39590500Y-52150326D01*
X39575966Y-52077260D01*
X39570287Y-52068760D01*
X39520602Y-51994400D01*
X39520599Y-51994397D01*
X39437742Y-51939035D01*
X39437740Y-51939034D01*
X39437737Y-51939033D01*
X39437736Y-51939033D01*
X39364684Y-51924501D01*
X39364674Y-51924500D01*
X39364673Y-51924500D01*
X39294500Y-51924500D01*
X39236309Y-51905593D01*
X39200345Y-51856093D01*
X39195500Y-51825500D01*
X39195500Y-50996838D01*
X39214407Y-50938647D01*
X39224490Y-50926840D01*
X40316834Y-49834495D01*
X40371351Y-49806719D01*
X40386838Y-49805500D01*
X44030232Y-49805500D01*
X44030248Y-49805500D01*
X44055289Y-49804270D01*
X44074602Y-49802368D01*
X44099408Y-49798688D01*
X44099410Y-49798687D01*
X44099414Y-49798687D01*
X44120646Y-49794463D01*
X44120647Y-49794464D01*
X44185338Y-49781596D01*
X44233270Y-49767055D01*
X44268956Y-49752273D01*
X44313124Y-49728665D01*
X44377704Y-49685515D01*
X44416424Y-49653739D01*
X44443739Y-49626424D01*
X44475515Y-49587704D01*
X44518665Y-49523124D01*
X44542273Y-49478956D01*
X44557055Y-49443270D01*
X44562362Y-49425773D01*
X44574787Y-49399504D01*
X44575966Y-49397740D01*
X44590500Y-49324674D01*
X44590500Y-49304497D01*
X44591571Y-49289971D01*
X44592368Y-49284602D01*
X44594270Y-49265287D01*
X44595500Y-49240248D01*
X44595500Y-47359751D01*
X44594270Y-47334712D01*
X44592368Y-47315397D01*
X44588688Y-47290589D01*
X44571595Y-47204660D01*
X44557055Y-47156729D01*
X44542273Y-47121043D01*
X44532454Y-47102672D01*
X44518668Y-47076880D01*
X44518664Y-47076874D01*
X44510266Y-47064304D01*
X44475509Y-47012287D01*
X44461571Y-46995304D01*
X44443736Y-46973572D01*
X44416427Y-46946263D01*
X44399442Y-46932324D01*
X44377711Y-46914489D01*
X44313130Y-46871337D01*
X44268953Y-46847724D01*
X44268936Y-46847716D01*
X44233273Y-46832945D01*
X44233266Y-46832942D01*
X44233262Y-46832941D01*
X44233255Y-46832938D01*
X44185338Y-46818403D01*
X44099407Y-46801311D01*
X44074625Y-46797635D01*
X44074616Y-46797634D01*
X44074602Y-46797632D01*
X44055288Y-46795730D01*
X44055286Y-46795729D01*
X44055277Y-46795729D01*
X44041779Y-46795066D01*
X44030248Y-46794500D01*
X38374016Y-46794500D01*
X38365072Y-46794939D01*
X38348966Y-46795730D01*
X38329664Y-46797631D01*
X38304868Y-46801308D01*
X38263758Y-46809484D01*
X38263759Y-46809485D01*
X38218925Y-46818402D01*
X38170999Y-46832941D01*
X38135331Y-46847715D01*
X38135304Y-46847727D01*
X38091136Y-46871335D01*
X38091131Y-46871338D01*
X38018293Y-46920007D01*
X38018271Y-46920023D01*
X37998160Y-46934938D01*
X37983156Y-46947252D01*
X37964564Y-46964102D01*
X37825994Y-47102672D01*
X37771478Y-47130449D01*
X37711046Y-47120877D01*
X37667781Y-47077613D01*
X37662227Y-47064436D01*
X37206210Y-45718100D01*
X36750949Y-44373994D01*
X36750914Y-44373892D01*
X36750698Y-44373252D01*
X36745500Y-44341594D01*
X36745500Y-41190000D01*
X39034415Y-41190000D01*
X39054738Y-41538929D01*
X39115430Y-41883133D01*
X39115430Y-41883134D01*
X39215672Y-42217965D01*
X39215674Y-42217972D01*
X39348118Y-42525012D01*
X39354111Y-42538904D01*
X39528870Y-42841596D01*
X39737588Y-43121953D01*
X39977442Y-43376183D01*
X40245189Y-43600849D01*
X40537207Y-43792913D01*
X40849549Y-43949777D01*
X41177989Y-44069319D01*
X41177992Y-44069319D01*
X41177993Y-44069320D01*
X41518075Y-44149921D01*
X41518080Y-44149921D01*
X41518086Y-44149923D01*
X41865241Y-44190500D01*
X41865244Y-44190500D01*
X42214756Y-44190500D01*
X42214759Y-44190500D01*
X42561914Y-44149923D01*
X42561920Y-44149921D01*
X42561924Y-44149921D01*
X42788645Y-44096187D01*
X42902011Y-44069319D01*
X43230451Y-43949777D01*
X43542793Y-43792913D01*
X43834811Y-43600849D01*
X44102558Y-43376183D01*
X44342412Y-43121953D01*
X44551130Y-42841596D01*
X44725889Y-42538904D01*
X44864326Y-42217971D01*
X44964569Y-41883136D01*
X45025262Y-41538927D01*
X45045585Y-41190000D01*
X45025262Y-40841073D01*
X44964569Y-40496864D01*
X44864326Y-40162029D01*
X44725889Y-39841096D01*
X44551130Y-39538404D01*
X44342412Y-39258047D01*
X44102558Y-39003817D01*
X43834811Y-38779151D01*
X43623906Y-38640436D01*
X43542794Y-38587087D01*
X43230453Y-38430224D01*
X43230452Y-38430223D01*
X43230451Y-38430223D01*
X42967165Y-38334395D01*
X42902006Y-38310679D01*
X42561924Y-38230078D01*
X42449089Y-38216889D01*
X42214759Y-38189500D01*
X41865241Y-38189500D01*
X41673950Y-38211858D01*
X41518075Y-38230078D01*
X41177993Y-38310679D01*
X40981191Y-38382309D01*
X40849549Y-38430223D01*
X40849548Y-38430223D01*
X40849546Y-38430224D01*
X40537205Y-38587087D01*
X40245190Y-38779150D01*
X39977443Y-39003815D01*
X39737591Y-39258043D01*
X39528871Y-39538402D01*
X39528869Y-39538405D01*
X39354111Y-39841095D01*
X39354108Y-39841102D01*
X39215674Y-40162027D01*
X39215672Y-40162034D01*
X39115430Y-40496865D01*
X39115430Y-40496866D01*
X39054738Y-40841070D01*
X39034415Y-41190000D01*
X36745500Y-41190000D01*
X36745500Y-38009766D01*
X36745500Y-38009751D01*
X36744270Y-37984712D01*
X36742368Y-37965397D01*
X36738688Y-37940589D01*
X36721595Y-37854660D01*
X36707055Y-37806729D01*
X36692273Y-37771043D01*
X36692263Y-37771024D01*
X36668668Y-37726880D01*
X36668664Y-37726874D01*
X36660266Y-37714304D01*
X36625509Y-37662287D01*
X36611571Y-37645304D01*
X36593736Y-37623572D01*
X36566427Y-37596263D01*
X36536262Y-37571507D01*
X36527711Y-37564489D01*
X36463130Y-37521337D01*
X36418953Y-37497724D01*
X36418936Y-37497716D01*
X36383273Y-37482945D01*
X36383266Y-37482942D01*
X36383262Y-37482941D01*
X36383255Y-37482938D01*
X36335338Y-37468403D01*
X36249407Y-37451311D01*
X36224625Y-37447635D01*
X36224616Y-37447634D01*
X36224602Y-37447632D01*
X36205288Y-37445730D01*
X36205286Y-37445729D01*
X36205277Y-37445729D01*
X36191779Y-37445066D01*
X36180248Y-37444500D01*
X34349752Y-37444500D01*
X34340808Y-37444939D01*
X34324702Y-37445730D01*
X34305400Y-37447631D01*
X34280604Y-37451308D01*
X34239494Y-37459484D01*
X34239495Y-37459485D01*
X34194661Y-37468402D01*
X34146735Y-37482941D01*
X34111053Y-37497720D01*
X34066871Y-37521336D01*
X34002289Y-37564489D01*
X34000328Y-37565944D01*
X33999929Y-37565406D01*
X33945325Y-37586776D01*
X33886123Y-37571326D01*
X33847309Y-37524028D01*
X33840500Y-37487948D01*
X33840500Y-36657237D01*
X33842402Y-36637924D01*
X33851382Y-36592777D01*
X33866162Y-36557092D01*
X33887642Y-36524946D01*
X33914946Y-36497642D01*
X33947092Y-36476162D01*
X33982775Y-36461382D01*
X34010279Y-36455911D01*
X34027925Y-36452402D01*
X34047238Y-36450500D01*
X43432762Y-36450500D01*
X43452075Y-36452402D01*
G37*
%TD.AperFunction*%
%TD*%
M02*
