%TF.GenerationSoftware,KiCad,Pcbnew,8.0.3*%
%TF.CreationDate,2024-07-16T15:40:11-03:00*%
%TF.ProjectId,IPS2,49505332-2e6b-4696-9361-645f70636258,rev?*%
%TF.SameCoordinates,Original*%
%TF.FileFunction,Legend,Top*%
%TF.FilePolarity,Positive*%
%FSLAX46Y46*%
G04 Gerber Fmt 4.6, Leading zero omitted, Abs format (unit mm)*
G04 Created by KiCad (PCBNEW 8.0.3) date 2024-07-16 15:40:11*
%MOMM*%
%LPD*%
G01*
G04 APERTURE LIST*
G04 Aperture macros list*
%AMRoundRect*
0 Rectangle with rounded corners*
0 $1 Rounding radius*
0 $2 $3 $4 $5 $6 $7 $8 $9 X,Y pos of 4 corners*
0 Add a 4 corners polygon primitive as box body*
4,1,4,$2,$3,$4,$5,$6,$7,$8,$9,$2,$3,0*
0 Add four circle primitives for the rounded corners*
1,1,$1+$1,$2,$3*
1,1,$1+$1,$4,$5*
1,1,$1+$1,$6,$7*
1,1,$1+$1,$8,$9*
0 Add four rect primitives between the rounded corners*
20,1,$1+$1,$2,$3,$4,$5,0*
20,1,$1+$1,$4,$5,$6,$7,0*
20,1,$1+$1,$6,$7,$8,$9,0*
20,1,$1+$1,$8,$9,$2,$3,0*%
G04 Aperture macros list end*
%ADD10C,0.150000*%
%ADD11C,0.200000*%
%ADD12C,0.100000*%
%ADD13C,0.300000*%
%ADD14C,0.250000*%
%ADD15C,0.120000*%
%ADD16C,0.450000*%
%ADD17C,2.000000*%
%ADD18C,0.500000*%
%ADD19C,1.600000*%
%ADD20RoundRect,0.200000X-0.750000X-1.200000X0.750000X-1.200000X0.750000X1.200000X-0.750000X1.200000X0*%
%ADD21RoundRect,0.200000X0.375000X-0.400000X0.375000X0.400000X-0.375000X0.400000X-0.375000X-0.400000X0*%
%ADD22RoundRect,0.200000X0.400000X0.375000X-0.400000X0.375000X-0.400000X-0.375000X0.400000X-0.375000X0*%
%ADD23RoundRect,0.200000X-0.400000X-0.375000X0.400000X-0.375000X0.400000X0.375000X-0.400000X0.375000X0*%
%ADD24RoundRect,0.200000X-0.900000X-2.100000X0.900000X-2.100000X0.900000X2.100000X-0.900000X2.100000X0*%
%ADD25RoundRect,0.200000X-2.100000X0.900000X-2.100000X-0.900000X2.100000X-0.900000X2.100000X0.900000X0*%
%ADD26RoundRect,0.200000X-0.850000X-0.850000X0.850000X-0.850000X0.850000X0.850000X-0.850000X0.850000X0*%
%ADD27O,2.100000X2.100000*%
%ADD28RoundRect,0.200000X-0.450000X0.350000X-0.450000X-0.350000X0.450000X-0.350000X0.450000X0.350000X0*%
%ADD29RoundRect,0.200000X0.475000X0.150000X-0.475000X0.150000X-0.475000X-0.150000X0.475000X-0.150000X0*%
%ADD30RoundRect,0.200000X-0.150000X0.475000X-0.150000X-0.475000X0.150000X-0.475000X0.150000X0.475000X0*%
%ADD31C,1.000000*%
%ADD32RoundRect,0.200000X0.650000X0.650000X-0.650000X0.650000X-0.650000X-0.650000X0.650000X-0.650000X0*%
%ADD33C,2.400000*%
%ADD34RoundRect,0.200000X-0.550000X-0.550000X0.550000X-0.550000X0.550000X0.550000X-0.550000X0.550000X0*%
%ADD35RoundRect,0.200000X0.550000X0.550000X-0.550000X0.550000X-0.550000X-0.550000X0.550000X-0.550000X0*%
%ADD36RoundRect,0.200000X-0.635000X-0.482600X0.635000X-0.482600X0.635000X0.482600X-0.635000X0.482600X0*%
%ADD37RoundRect,0.200000X0.635000X0.482600X-0.635000X0.482600X-0.635000X-0.482600X0.635000X-0.482600X0*%
%ADD38O,2.900000X1.900000*%
%ADD39O,2.900000X2.000000*%
%ADD40O,2.800000X2.000000*%
%ADD41RoundRect,0.200000X0.450000X-0.350000X0.450000X0.350000X-0.450000X0.350000X-0.450000X-0.350000X0*%
%ADD42C,0.402000*%
%ADD43RoundRect,0.200000X-0.800000X0.500000X-0.800000X-0.500000X0.800000X-0.500000X0.800000X0.500000X0*%
%ADD44RoundRect,0.200000X-0.500000X-0.800000X0.500000X-0.800000X0.500000X0.800000X-0.500000X0.800000X0*%
%ADD45RoundRect,0.200000X0.800000X-0.500000X0.800000X0.500000X-0.800000X0.500000X-0.800000X-0.500000X0*%
%ADD46RoundRect,0.200000X0.450000X0.400000X-0.450000X0.400000X-0.450000X-0.400000X0.450000X-0.400000X0*%
%ADD47RoundRect,0.200000X-0.350000X-0.450000X0.350000X-0.450000X0.350000X0.450000X-0.350000X0.450000X0*%
%ADD48RoundRect,0.200000X0.850000X-0.850000X0.850000X0.850000X-0.850000X0.850000X-0.850000X-0.850000X0*%
%ADD49RoundRect,0.200000X0.450000X0.650000X-0.450000X0.650000X-0.450000X-0.650000X0.450000X-0.650000X0*%
%ADD50RoundRect,0.200000X-0.650000X0.450000X-0.650000X-0.450000X0.650000X-0.450000X0.650000X0.450000X0*%
%ADD51RoundRect,0.200000X-0.375000X0.400000X-0.375000X-0.400000X0.375000X-0.400000X0.375000X0.400000X0*%
%ADD52RoundRect,0.200000X0.350000X0.450000X-0.350000X0.450000X-0.350000X-0.450000X0.350000X-0.450000X0*%
%ADD53C,1.050000*%
%ADD54RoundRect,0.200000X-0.620000X0.300000X-0.620000X-0.300000X0.620000X-0.300000X0.620000X0.300000X0*%
%ADD55RoundRect,0.200000X-0.620000X0.150000X-0.620000X-0.150000X0.620000X-0.150000X0.620000X0.150000X0*%
%ADD56O,2.500000X1.400000*%
%ADD57O,2.200000X1.400000*%
%ADD58C,1.200000*%
%ADD59C,5.900000*%
%ADD60C,1.500000*%
%ADD61RoundRect,0.200000X-0.750000X-0.750000X0.750000X-0.750000X0.750000X0.750000X-0.750000X0.750000X0*%
%ADD62RoundRect,0.200000X0.650000X-0.450000X0.650000X0.450000X-0.650000X0.450000X-0.650000X-0.450000X0*%
%ADD63O,1.400000X2.200000*%
%ADD64O,1.400000X2.500000*%
%ADD65RoundRect,0.200000X-0.300000X-0.620000X0.300000X-0.620000X0.300000X0.620000X-0.300000X0.620000X0*%
%ADD66RoundRect,0.200000X-0.150000X-0.620000X0.150000X-0.620000X0.150000X0.620000X-0.150000X0.620000X0*%
%ADD67C,2.600000*%
%ADD68C,6.500000*%
G04 APERTURE END LIST*
D10*
X34190000Y-95150000D02*
X38540000Y-95150000D01*
X34928095Y-94473866D02*
X35690000Y-94473866D01*
X36689999Y-94854819D02*
X36118571Y-94854819D01*
X36404285Y-94854819D02*
X36404285Y-93854819D01*
X36404285Y-93854819D02*
X36309047Y-93997676D01*
X36309047Y-93997676D02*
X36213809Y-94092914D01*
X36213809Y-94092914D02*
X36118571Y-94140533D01*
X37070952Y-93950057D02*
X37118571Y-93902438D01*
X37118571Y-93902438D02*
X37213809Y-93854819D01*
X37213809Y-93854819D02*
X37451904Y-93854819D01*
X37451904Y-93854819D02*
X37547142Y-93902438D01*
X37547142Y-93902438D02*
X37594761Y-93950057D01*
X37594761Y-93950057D02*
X37642380Y-94045295D01*
X37642380Y-94045295D02*
X37642380Y-94140533D01*
X37642380Y-94140533D02*
X37594761Y-94283390D01*
X37594761Y-94283390D02*
X37023333Y-94854819D01*
X37023333Y-94854819D02*
X37642380Y-94854819D01*
X37928095Y-93854819D02*
X38261428Y-94854819D01*
X38261428Y-94854819D02*
X38594761Y-93854819D01*
D11*
X50940000Y-105350000D02*
G75*
G02*
X50740000Y-105550000I-200000J0D01*
G01*
X50740000Y-105550000D02*
X49840000Y-105550000D01*
X50940000Y-105350000D02*
X50940000Y-103150000D01*
X51540000Y-105650000D02*
X51540000Y-103150000D01*
D12*
X50640000Y-106850000D02*
X50640000Y-104150000D01*
X51740000Y-105250000D02*
X50640000Y-105250000D01*
X51740000Y-104850000D02*
X50640000Y-104850000D01*
X51740000Y-104850000D02*
X51740000Y-105250000D01*
X50240000Y-106850000D02*
X50240000Y-104150000D01*
X50240000Y-104950000D02*
X50640000Y-104550000D01*
X50240000Y-105250000D02*
X50640000Y-104850000D01*
X50240000Y-105550000D02*
X50640000Y-105150000D01*
X50240000Y-105850000D02*
X50640000Y-105450000D01*
X50240000Y-106150000D02*
X50640000Y-105750000D01*
X50240000Y-106450000D02*
X50640000Y-106050000D01*
X50240000Y-104650000D02*
X50640000Y-104250000D01*
X50240000Y-106750000D02*
X50640000Y-106350000D01*
D11*
X50940000Y-102250000D02*
X50940000Y-102450000D01*
X51540000Y-98650000D02*
X51540000Y-102450000D01*
X38090000Y-61100000D02*
X37840000Y-60850000D01*
X50440000Y-101550000D02*
X50940000Y-102250000D01*
X51540000Y-105650000D02*
G75*
G02*
X51040000Y-106150000I-500000J0D01*
G01*
X34540000Y-58550000D02*
X34740000Y-57950000D01*
X52840000Y-119250000D02*
X54140000Y-118450000D01*
X49840000Y-106150000D02*
X51040000Y-106150000D01*
D13*
X51033100Y-95800000D02*
X50961671Y-95942857D01*
X50961671Y-95942857D02*
X50961671Y-96228571D01*
X50961671Y-96228571D02*
X51033100Y-96371428D01*
X51033100Y-96371428D02*
X51175957Y-96442857D01*
X51175957Y-96442857D02*
X51247385Y-96442857D01*
X51247385Y-96442857D02*
X51390242Y-96371428D01*
X51390242Y-96371428D02*
X51461671Y-96228571D01*
X51461671Y-96228571D02*
X51461671Y-96014286D01*
X51461671Y-96014286D02*
X51533100Y-95871428D01*
X51533100Y-95871428D02*
X51675957Y-95800000D01*
X51675957Y-95800000D02*
X51747385Y-95800000D01*
X51747385Y-95800000D02*
X51890242Y-95871428D01*
X51890242Y-95871428D02*
X51961671Y-96014286D01*
X51961671Y-96014286D02*
X51961671Y-96228571D01*
X51961671Y-96228571D02*
X51890242Y-96371428D01*
X51533100Y-97085714D02*
X51533100Y-98228572D01*
D10*
X63549524Y-21352228D02*
X63692381Y-21399847D01*
X63692381Y-21399847D02*
X63930476Y-21399847D01*
X63930476Y-21399847D02*
X64025714Y-21352228D01*
X64025714Y-21352228D02*
X64073333Y-21304608D01*
X64073333Y-21304608D02*
X64120952Y-21209370D01*
X64120952Y-21209370D02*
X64120952Y-21114132D01*
X64120952Y-21114132D02*
X64073333Y-21018894D01*
X64073333Y-21018894D02*
X64025714Y-20971275D01*
X64025714Y-20971275D02*
X63930476Y-20923656D01*
X63930476Y-20923656D02*
X63740000Y-20876037D01*
X63740000Y-20876037D02*
X63644762Y-20828418D01*
X63644762Y-20828418D02*
X63597143Y-20780799D01*
X63597143Y-20780799D02*
X63549524Y-20685561D01*
X63549524Y-20685561D02*
X63549524Y-20590323D01*
X63549524Y-20590323D02*
X63597143Y-20495085D01*
X63597143Y-20495085D02*
X63644762Y-20447466D01*
X63644762Y-20447466D02*
X63740000Y-20399847D01*
X63740000Y-20399847D02*
X63978095Y-20399847D01*
X63978095Y-20399847D02*
X64120952Y-20447466D01*
X64930476Y-21352228D02*
X64835238Y-21399847D01*
X64835238Y-21399847D02*
X64644762Y-21399847D01*
X64644762Y-21399847D02*
X64549524Y-21352228D01*
X64549524Y-21352228D02*
X64501905Y-21256989D01*
X64501905Y-21256989D02*
X64501905Y-20876037D01*
X64501905Y-20876037D02*
X64549524Y-20780799D01*
X64549524Y-20780799D02*
X64644762Y-20733180D01*
X64644762Y-20733180D02*
X64835238Y-20733180D01*
X64835238Y-20733180D02*
X64930476Y-20780799D01*
X64930476Y-20780799D02*
X64978095Y-20876037D01*
X64978095Y-20876037D02*
X64978095Y-20971275D01*
X64978095Y-20971275D02*
X64501905Y-21066513D01*
X65406667Y-21399847D02*
X65406667Y-20733180D01*
X65406667Y-20399847D02*
X65359048Y-20447466D01*
X65359048Y-20447466D02*
X65406667Y-20495085D01*
X65406667Y-20495085D02*
X65454286Y-20447466D01*
X65454286Y-20447466D02*
X65406667Y-20399847D01*
X65406667Y-20399847D02*
X65406667Y-20495085D01*
X65835238Y-21352228D02*
X65930476Y-21399847D01*
X65930476Y-21399847D02*
X66120952Y-21399847D01*
X66120952Y-21399847D02*
X66216190Y-21352228D01*
X66216190Y-21352228D02*
X66263809Y-21256989D01*
X66263809Y-21256989D02*
X66263809Y-21209370D01*
X66263809Y-21209370D02*
X66216190Y-21114132D01*
X66216190Y-21114132D02*
X66120952Y-21066513D01*
X66120952Y-21066513D02*
X65978095Y-21066513D01*
X65978095Y-21066513D02*
X65882857Y-21018894D01*
X65882857Y-21018894D02*
X65835238Y-20923656D01*
X65835238Y-20923656D02*
X65835238Y-20876037D01*
X65835238Y-20876037D02*
X65882857Y-20780799D01*
X65882857Y-20780799D02*
X65978095Y-20733180D01*
X65978095Y-20733180D02*
X66120952Y-20733180D01*
X66120952Y-20733180D02*
X66216190Y-20780799D01*
X66692381Y-21399847D02*
X66692381Y-20733180D01*
X66692381Y-20828418D02*
X66740000Y-20780799D01*
X66740000Y-20780799D02*
X66835238Y-20733180D01*
X66835238Y-20733180D02*
X66978095Y-20733180D01*
X66978095Y-20733180D02*
X67073333Y-20780799D01*
X67073333Y-20780799D02*
X67120952Y-20876037D01*
X67120952Y-20876037D02*
X67120952Y-21399847D01*
X67120952Y-20876037D02*
X67168571Y-20780799D01*
X67168571Y-20780799D02*
X67263809Y-20733180D01*
X67263809Y-20733180D02*
X67406666Y-20733180D01*
X67406666Y-20733180D02*
X67501905Y-20780799D01*
X67501905Y-20780799D02*
X67549524Y-20876037D01*
X67549524Y-20876037D02*
X67549524Y-21399847D01*
X68025714Y-21399847D02*
X68025714Y-20733180D01*
X68025714Y-20399847D02*
X67978095Y-20447466D01*
X67978095Y-20447466D02*
X68025714Y-20495085D01*
X68025714Y-20495085D02*
X68073333Y-20447466D01*
X68073333Y-20447466D02*
X68025714Y-20399847D01*
X68025714Y-20399847D02*
X68025714Y-20495085D01*
X68930475Y-21352228D02*
X68835237Y-21399847D01*
X68835237Y-21399847D02*
X68644761Y-21399847D01*
X68644761Y-21399847D02*
X68549523Y-21352228D01*
X68549523Y-21352228D02*
X68501904Y-21304608D01*
X68501904Y-21304608D02*
X68454285Y-21209370D01*
X68454285Y-21209370D02*
X68454285Y-20923656D01*
X68454285Y-20923656D02*
X68501904Y-20828418D01*
X68501904Y-20828418D02*
X68549523Y-20780799D01*
X68549523Y-20780799D02*
X68644761Y-20733180D01*
X68644761Y-20733180D02*
X68835237Y-20733180D01*
X68835237Y-20733180D02*
X68930475Y-20780799D01*
X63573333Y-23009791D02*
X63573333Y-22009791D01*
X64049523Y-22343124D02*
X64049523Y-23009791D01*
X64049523Y-22438362D02*
X64097142Y-22390743D01*
X64097142Y-22390743D02*
X64192380Y-22343124D01*
X64192380Y-22343124D02*
X64335237Y-22343124D01*
X64335237Y-22343124D02*
X64430475Y-22390743D01*
X64430475Y-22390743D02*
X64478094Y-22485981D01*
X64478094Y-22485981D02*
X64478094Y-23009791D01*
X65382856Y-23009791D02*
X65382856Y-22009791D01*
X65382856Y-22962172D02*
X65287618Y-23009791D01*
X65287618Y-23009791D02*
X65097142Y-23009791D01*
X65097142Y-23009791D02*
X65001904Y-22962172D01*
X65001904Y-22962172D02*
X64954285Y-22914552D01*
X64954285Y-22914552D02*
X64906666Y-22819314D01*
X64906666Y-22819314D02*
X64906666Y-22533600D01*
X64906666Y-22533600D02*
X64954285Y-22438362D01*
X64954285Y-22438362D02*
X65001904Y-22390743D01*
X65001904Y-22390743D02*
X65097142Y-22343124D01*
X65097142Y-22343124D02*
X65287618Y-22343124D01*
X65287618Y-22343124D02*
X65382856Y-22390743D01*
X66287618Y-22343124D02*
X66287618Y-23009791D01*
X65859047Y-22343124D02*
X65859047Y-22866933D01*
X65859047Y-22866933D02*
X65906666Y-22962172D01*
X65906666Y-22962172D02*
X66001904Y-23009791D01*
X66001904Y-23009791D02*
X66144761Y-23009791D01*
X66144761Y-23009791D02*
X66239999Y-22962172D01*
X66239999Y-22962172D02*
X66287618Y-22914552D01*
X66716190Y-22962172D02*
X66811428Y-23009791D01*
X66811428Y-23009791D02*
X67001904Y-23009791D01*
X67001904Y-23009791D02*
X67097142Y-22962172D01*
X67097142Y-22962172D02*
X67144761Y-22866933D01*
X67144761Y-22866933D02*
X67144761Y-22819314D01*
X67144761Y-22819314D02*
X67097142Y-22724076D01*
X67097142Y-22724076D02*
X67001904Y-22676457D01*
X67001904Y-22676457D02*
X66859047Y-22676457D01*
X66859047Y-22676457D02*
X66763809Y-22628838D01*
X66763809Y-22628838D02*
X66716190Y-22533600D01*
X66716190Y-22533600D02*
X66716190Y-22485981D01*
X66716190Y-22485981D02*
X66763809Y-22390743D01*
X66763809Y-22390743D02*
X66859047Y-22343124D01*
X66859047Y-22343124D02*
X67001904Y-22343124D01*
X67001904Y-22343124D02*
X67097142Y-22390743D01*
X67430476Y-22343124D02*
X67811428Y-22343124D01*
X67573333Y-22009791D02*
X67573333Y-22866933D01*
X67573333Y-22866933D02*
X67620952Y-22962172D01*
X67620952Y-22962172D02*
X67716190Y-23009791D01*
X67716190Y-23009791D02*
X67811428Y-23009791D01*
X68144762Y-23009791D02*
X68144762Y-22343124D01*
X68144762Y-22533600D02*
X68192381Y-22438362D01*
X68192381Y-22438362D02*
X68240000Y-22390743D01*
X68240000Y-22390743D02*
X68335238Y-22343124D01*
X68335238Y-22343124D02*
X68430476Y-22343124D01*
X68763810Y-23009791D02*
X68763810Y-22343124D01*
X68763810Y-22009791D02*
X68716191Y-22057410D01*
X68716191Y-22057410D02*
X68763810Y-22105029D01*
X68763810Y-22105029D02*
X68811429Y-22057410D01*
X68811429Y-22057410D02*
X68763810Y-22009791D01*
X68763810Y-22009791D02*
X68763810Y-22105029D01*
X69620952Y-22962172D02*
X69525714Y-23009791D01*
X69525714Y-23009791D02*
X69335238Y-23009791D01*
X69335238Y-23009791D02*
X69240000Y-22962172D01*
X69240000Y-22962172D02*
X69192381Y-22866933D01*
X69192381Y-22866933D02*
X69192381Y-22485981D01*
X69192381Y-22485981D02*
X69240000Y-22390743D01*
X69240000Y-22390743D02*
X69335238Y-22343124D01*
X69335238Y-22343124D02*
X69525714Y-22343124D01*
X69525714Y-22343124D02*
X69620952Y-22390743D01*
X69620952Y-22390743D02*
X69668571Y-22485981D01*
X69668571Y-22485981D02*
X69668571Y-22581219D01*
X69668571Y-22581219D02*
X69192381Y-22676457D01*
X70049524Y-22962172D02*
X70144762Y-23009791D01*
X70144762Y-23009791D02*
X70335238Y-23009791D01*
X70335238Y-23009791D02*
X70430476Y-22962172D01*
X70430476Y-22962172D02*
X70478095Y-22866933D01*
X70478095Y-22866933D02*
X70478095Y-22819314D01*
X70478095Y-22819314D02*
X70430476Y-22724076D01*
X70430476Y-22724076D02*
X70335238Y-22676457D01*
X70335238Y-22676457D02*
X70192381Y-22676457D01*
X70192381Y-22676457D02*
X70097143Y-22628838D01*
X70097143Y-22628838D02*
X70049524Y-22533600D01*
X70049524Y-22533600D02*
X70049524Y-22485981D01*
X70049524Y-22485981D02*
X70097143Y-22390743D01*
X70097143Y-22390743D02*
X70192381Y-22343124D01*
X70192381Y-22343124D02*
X70335238Y-22343124D01*
X70335238Y-22343124D02*
X70430476Y-22390743D01*
D14*
X64045238Y-135642238D02*
X64045238Y-133642238D01*
X64997619Y-135642238D02*
X64997619Y-133642238D01*
X64997619Y-133642238D02*
X65759524Y-133642238D01*
X65759524Y-133642238D02*
X65950000Y-133737476D01*
X65950000Y-133737476D02*
X66045238Y-133832714D01*
X66045238Y-133832714D02*
X66140476Y-134023190D01*
X66140476Y-134023190D02*
X66140476Y-134308904D01*
X66140476Y-134308904D02*
X66045238Y-134499380D01*
X66045238Y-134499380D02*
X65950000Y-134594619D01*
X65950000Y-134594619D02*
X65759524Y-134689857D01*
X65759524Y-134689857D02*
X64997619Y-134689857D01*
X66902381Y-135547000D02*
X67188095Y-135642238D01*
X67188095Y-135642238D02*
X67664286Y-135642238D01*
X67664286Y-135642238D02*
X67854762Y-135547000D01*
X67854762Y-135547000D02*
X67950000Y-135451761D01*
X67950000Y-135451761D02*
X68045238Y-135261285D01*
X68045238Y-135261285D02*
X68045238Y-135070809D01*
X68045238Y-135070809D02*
X67950000Y-134880333D01*
X67950000Y-134880333D02*
X67854762Y-134785095D01*
X67854762Y-134785095D02*
X67664286Y-134689857D01*
X67664286Y-134689857D02*
X67283333Y-134594619D01*
X67283333Y-134594619D02*
X67092857Y-134499380D01*
X67092857Y-134499380D02*
X66997619Y-134404142D01*
X66997619Y-134404142D02*
X66902381Y-134213666D01*
X66902381Y-134213666D02*
X66902381Y-134023190D01*
X66902381Y-134023190D02*
X66997619Y-133832714D01*
X66997619Y-133832714D02*
X67092857Y-133737476D01*
X67092857Y-133737476D02*
X67283333Y-133642238D01*
X67283333Y-133642238D02*
X67759524Y-133642238D01*
X67759524Y-133642238D02*
X68045238Y-133737476D01*
X68807143Y-133832714D02*
X68902381Y-133737476D01*
X68902381Y-133737476D02*
X69092857Y-133642238D01*
X69092857Y-133642238D02*
X69569048Y-133642238D01*
X69569048Y-133642238D02*
X69759524Y-133737476D01*
X69759524Y-133737476D02*
X69854762Y-133832714D01*
X69854762Y-133832714D02*
X69950000Y-134023190D01*
X69950000Y-134023190D02*
X69950000Y-134213666D01*
X69950000Y-134213666D02*
X69854762Y-134499380D01*
X69854762Y-134499380D02*
X68711905Y-135642238D01*
X68711905Y-135642238D02*
X69950000Y-135642238D01*
D13*
X49933100Y-98800000D02*
X49861671Y-98942857D01*
X49861671Y-98942857D02*
X49861671Y-99228571D01*
X49861671Y-99228571D02*
X49933100Y-99371428D01*
X49933100Y-99371428D02*
X50075957Y-99442857D01*
X50075957Y-99442857D02*
X50147385Y-99442857D01*
X50147385Y-99442857D02*
X50290242Y-99371428D01*
X50290242Y-99371428D02*
X50361671Y-99228571D01*
X50361671Y-99228571D02*
X50361671Y-99014286D01*
X50361671Y-99014286D02*
X50433100Y-98871428D01*
X50433100Y-98871428D02*
X50575957Y-98800000D01*
X50575957Y-98800000D02*
X50647385Y-98800000D01*
X50647385Y-98800000D02*
X50790242Y-98871428D01*
X50790242Y-98871428D02*
X50861671Y-99014286D01*
X50861671Y-99014286D02*
X50861671Y-99228571D01*
X50861671Y-99228571D02*
X50790242Y-99371428D01*
X50433100Y-100085714D02*
X50433100Y-101228572D01*
X49861671Y-100657143D02*
X51004528Y-100657143D01*
D10*
X61878095Y-75423866D02*
X62640000Y-75423866D01*
X63639999Y-75804819D02*
X63068571Y-75804819D01*
X63354285Y-75804819D02*
X63354285Y-74804819D01*
X63354285Y-74804819D02*
X63259047Y-74947676D01*
X63259047Y-74947676D02*
X63163809Y-75042914D01*
X63163809Y-75042914D02*
X63068571Y-75090533D01*
X64020952Y-74900057D02*
X64068571Y-74852438D01*
X64068571Y-74852438D02*
X64163809Y-74804819D01*
X64163809Y-74804819D02*
X64401904Y-74804819D01*
X64401904Y-74804819D02*
X64497142Y-74852438D01*
X64497142Y-74852438D02*
X64544761Y-74900057D01*
X64544761Y-74900057D02*
X64592380Y-74995295D01*
X64592380Y-74995295D02*
X64592380Y-75090533D01*
X64592380Y-75090533D02*
X64544761Y-75233390D01*
X64544761Y-75233390D02*
X63973333Y-75804819D01*
X63973333Y-75804819D02*
X64592380Y-75804819D01*
X64878095Y-74804819D02*
X65211428Y-75804819D01*
X65211428Y-75804819D02*
X65544761Y-74804819D01*
X61778095Y-71923866D02*
X62540000Y-71923866D01*
X62159047Y-72304819D02*
X62159047Y-71542914D01*
X63539999Y-72304819D02*
X62968571Y-72304819D01*
X63254285Y-72304819D02*
X63254285Y-71304819D01*
X63254285Y-71304819D02*
X63159047Y-71447676D01*
X63159047Y-71447676D02*
X63063809Y-71542914D01*
X63063809Y-71542914D02*
X62968571Y-71590533D01*
X63920952Y-71400057D02*
X63968571Y-71352438D01*
X63968571Y-71352438D02*
X64063809Y-71304819D01*
X64063809Y-71304819D02*
X64301904Y-71304819D01*
X64301904Y-71304819D02*
X64397142Y-71352438D01*
X64397142Y-71352438D02*
X64444761Y-71400057D01*
X64444761Y-71400057D02*
X64492380Y-71495295D01*
X64492380Y-71495295D02*
X64492380Y-71590533D01*
X64492380Y-71590533D02*
X64444761Y-71733390D01*
X64444761Y-71733390D02*
X63873333Y-72304819D01*
X63873333Y-72304819D02*
X64492380Y-72304819D01*
X64778095Y-71304819D02*
X65111428Y-72304819D01*
X65111428Y-72304819D02*
X65444761Y-71304819D01*
X63714819Y-84580951D02*
X64524342Y-84580951D01*
X64524342Y-84580951D02*
X64619580Y-84533332D01*
X64619580Y-84533332D02*
X64667200Y-84485713D01*
X64667200Y-84485713D02*
X64714819Y-84390475D01*
X64714819Y-84390475D02*
X64714819Y-84199999D01*
X64714819Y-84199999D02*
X64667200Y-84104761D01*
X64667200Y-84104761D02*
X64619580Y-84057142D01*
X64619580Y-84057142D02*
X64524342Y-84009523D01*
X64524342Y-84009523D02*
X63714819Y-84009523D01*
X64667200Y-83580951D02*
X64714819Y-83438094D01*
X64714819Y-83438094D02*
X64714819Y-83199999D01*
X64714819Y-83199999D02*
X64667200Y-83104761D01*
X64667200Y-83104761D02*
X64619580Y-83057142D01*
X64619580Y-83057142D02*
X64524342Y-83009523D01*
X64524342Y-83009523D02*
X64429104Y-83009523D01*
X64429104Y-83009523D02*
X64333866Y-83057142D01*
X64333866Y-83057142D02*
X64286247Y-83104761D01*
X64286247Y-83104761D02*
X64238628Y-83199999D01*
X64238628Y-83199999D02*
X64191009Y-83390475D01*
X64191009Y-83390475D02*
X64143390Y-83485713D01*
X64143390Y-83485713D02*
X64095771Y-83533332D01*
X64095771Y-83533332D02*
X64000533Y-83580951D01*
X64000533Y-83580951D02*
X63905295Y-83580951D01*
X63905295Y-83580951D02*
X63810057Y-83533332D01*
X63810057Y-83533332D02*
X63762438Y-83485713D01*
X63762438Y-83485713D02*
X63714819Y-83390475D01*
X63714819Y-83390475D02*
X63714819Y-83152380D01*
X63714819Y-83152380D02*
X63762438Y-83009523D01*
X64191009Y-82247618D02*
X64238628Y-82104761D01*
X64238628Y-82104761D02*
X64286247Y-82057142D01*
X64286247Y-82057142D02*
X64381485Y-82009523D01*
X64381485Y-82009523D02*
X64524342Y-82009523D01*
X64524342Y-82009523D02*
X64619580Y-82057142D01*
X64619580Y-82057142D02*
X64667200Y-82104761D01*
X64667200Y-82104761D02*
X64714819Y-82199999D01*
X64714819Y-82199999D02*
X64714819Y-82580951D01*
X64714819Y-82580951D02*
X63714819Y-82580951D01*
X63714819Y-82580951D02*
X63714819Y-82247618D01*
X63714819Y-82247618D02*
X63762438Y-82152380D01*
X63762438Y-82152380D02*
X63810057Y-82104761D01*
X63810057Y-82104761D02*
X63905295Y-82057142D01*
X63905295Y-82057142D02*
X64000533Y-82057142D01*
X64000533Y-82057142D02*
X64095771Y-82104761D01*
X64095771Y-82104761D02*
X64143390Y-82152380D01*
X64143390Y-82152380D02*
X64191009Y-82247618D01*
X64191009Y-82247618D02*
X64191009Y-82580951D01*
X64333866Y-81580951D02*
X64333866Y-80819047D01*
X64619580Y-79771428D02*
X64667200Y-79819047D01*
X64667200Y-79819047D02*
X64714819Y-79961904D01*
X64714819Y-79961904D02*
X64714819Y-80057142D01*
X64714819Y-80057142D02*
X64667200Y-80199999D01*
X64667200Y-80199999D02*
X64571961Y-80295237D01*
X64571961Y-80295237D02*
X64476723Y-80342856D01*
X64476723Y-80342856D02*
X64286247Y-80390475D01*
X64286247Y-80390475D02*
X64143390Y-80390475D01*
X64143390Y-80390475D02*
X63952914Y-80342856D01*
X63952914Y-80342856D02*
X63857676Y-80295237D01*
X63857676Y-80295237D02*
X63762438Y-80199999D01*
X63762438Y-80199999D02*
X63714819Y-80057142D01*
X63714819Y-80057142D02*
X63714819Y-79961904D01*
X63714819Y-79961904D02*
X63762438Y-79819047D01*
X63762438Y-79819047D02*
X63810057Y-79771428D01*
X43923333Y-72389580D02*
X43875714Y-72437200D01*
X43875714Y-72437200D02*
X43732857Y-72484819D01*
X43732857Y-72484819D02*
X43637619Y-72484819D01*
X43637619Y-72484819D02*
X43494762Y-72437200D01*
X43494762Y-72437200D02*
X43399524Y-72341961D01*
X43399524Y-72341961D02*
X43351905Y-72246723D01*
X43351905Y-72246723D02*
X43304286Y-72056247D01*
X43304286Y-72056247D02*
X43304286Y-71913390D01*
X43304286Y-71913390D02*
X43351905Y-71722914D01*
X43351905Y-71722914D02*
X43399524Y-71627676D01*
X43399524Y-71627676D02*
X43494762Y-71532438D01*
X43494762Y-71532438D02*
X43637619Y-71484819D01*
X43637619Y-71484819D02*
X43732857Y-71484819D01*
X43732857Y-71484819D02*
X43875714Y-71532438D01*
X43875714Y-71532438D02*
X43923333Y-71580057D01*
X44875714Y-72484819D02*
X44304286Y-72484819D01*
X44590000Y-72484819D02*
X44590000Y-71484819D01*
X44590000Y-71484819D02*
X44494762Y-71627676D01*
X44494762Y-71627676D02*
X44399524Y-71722914D01*
X44399524Y-71722914D02*
X44304286Y-71770533D01*
X44299580Y-50666666D02*
X44347200Y-50714285D01*
X44347200Y-50714285D02*
X44394819Y-50857142D01*
X44394819Y-50857142D02*
X44394819Y-50952380D01*
X44394819Y-50952380D02*
X44347200Y-51095237D01*
X44347200Y-51095237D02*
X44251961Y-51190475D01*
X44251961Y-51190475D02*
X44156723Y-51238094D01*
X44156723Y-51238094D02*
X43966247Y-51285713D01*
X43966247Y-51285713D02*
X43823390Y-51285713D01*
X43823390Y-51285713D02*
X43632914Y-51238094D01*
X43632914Y-51238094D02*
X43537676Y-51190475D01*
X43537676Y-51190475D02*
X43442438Y-51095237D01*
X43442438Y-51095237D02*
X43394819Y-50952380D01*
X43394819Y-50952380D02*
X43394819Y-50857142D01*
X43394819Y-50857142D02*
X43442438Y-50714285D01*
X43442438Y-50714285D02*
X43490057Y-50666666D01*
X43394819Y-50333332D02*
X43394819Y-49714285D01*
X43394819Y-49714285D02*
X43775771Y-50047618D01*
X43775771Y-50047618D02*
X43775771Y-49904761D01*
X43775771Y-49904761D02*
X43823390Y-49809523D01*
X43823390Y-49809523D02*
X43871009Y-49761904D01*
X43871009Y-49761904D02*
X43966247Y-49714285D01*
X43966247Y-49714285D02*
X44204342Y-49714285D01*
X44204342Y-49714285D02*
X44299580Y-49761904D01*
X44299580Y-49761904D02*
X44347200Y-49809523D01*
X44347200Y-49809523D02*
X44394819Y-49904761D01*
X44394819Y-49904761D02*
X44394819Y-50190475D01*
X44394819Y-50190475D02*
X44347200Y-50285713D01*
X44347200Y-50285713D02*
X44299580Y-50333332D01*
X37673333Y-58109580D02*
X37625714Y-58157200D01*
X37625714Y-58157200D02*
X37482857Y-58204819D01*
X37482857Y-58204819D02*
X37387619Y-58204819D01*
X37387619Y-58204819D02*
X37244762Y-58157200D01*
X37244762Y-58157200D02*
X37149524Y-58061961D01*
X37149524Y-58061961D02*
X37101905Y-57966723D01*
X37101905Y-57966723D02*
X37054286Y-57776247D01*
X37054286Y-57776247D02*
X37054286Y-57633390D01*
X37054286Y-57633390D02*
X37101905Y-57442914D01*
X37101905Y-57442914D02*
X37149524Y-57347676D01*
X37149524Y-57347676D02*
X37244762Y-57252438D01*
X37244762Y-57252438D02*
X37387619Y-57204819D01*
X37387619Y-57204819D02*
X37482857Y-57204819D01*
X37482857Y-57204819D02*
X37625714Y-57252438D01*
X37625714Y-57252438D02*
X37673333Y-57300057D01*
X38530476Y-57538152D02*
X38530476Y-58204819D01*
X38292381Y-57157200D02*
X38054286Y-57871485D01*
X38054286Y-57871485D02*
X38673333Y-57871485D01*
X34999580Y-59616666D02*
X35047200Y-59664285D01*
X35047200Y-59664285D02*
X35094819Y-59807142D01*
X35094819Y-59807142D02*
X35094819Y-59902380D01*
X35094819Y-59902380D02*
X35047200Y-60045237D01*
X35047200Y-60045237D02*
X34951961Y-60140475D01*
X34951961Y-60140475D02*
X34856723Y-60188094D01*
X34856723Y-60188094D02*
X34666247Y-60235713D01*
X34666247Y-60235713D02*
X34523390Y-60235713D01*
X34523390Y-60235713D02*
X34332914Y-60188094D01*
X34332914Y-60188094D02*
X34237676Y-60140475D01*
X34237676Y-60140475D02*
X34142438Y-60045237D01*
X34142438Y-60045237D02*
X34094819Y-59902380D01*
X34094819Y-59902380D02*
X34094819Y-59807142D01*
X34094819Y-59807142D02*
X34142438Y-59664285D01*
X34142438Y-59664285D02*
X34190057Y-59616666D01*
X34094819Y-58711904D02*
X34094819Y-59188094D01*
X34094819Y-59188094D02*
X34571009Y-59235713D01*
X34571009Y-59235713D02*
X34523390Y-59188094D01*
X34523390Y-59188094D02*
X34475771Y-59092856D01*
X34475771Y-59092856D02*
X34475771Y-58854761D01*
X34475771Y-58854761D02*
X34523390Y-58759523D01*
X34523390Y-58759523D02*
X34571009Y-58711904D01*
X34571009Y-58711904D02*
X34666247Y-58664285D01*
X34666247Y-58664285D02*
X34904342Y-58664285D01*
X34904342Y-58664285D02*
X34999580Y-58711904D01*
X34999580Y-58711904D02*
X35047200Y-58759523D01*
X35047200Y-58759523D02*
X35094819Y-58854761D01*
X35094819Y-58854761D02*
X35094819Y-59092856D01*
X35094819Y-59092856D02*
X35047200Y-59188094D01*
X35047200Y-59188094D02*
X34999580Y-59235713D01*
X37699580Y-56016666D02*
X37747200Y-56064285D01*
X37747200Y-56064285D02*
X37794819Y-56207142D01*
X37794819Y-56207142D02*
X37794819Y-56302380D01*
X37794819Y-56302380D02*
X37747200Y-56445237D01*
X37747200Y-56445237D02*
X37651961Y-56540475D01*
X37651961Y-56540475D02*
X37556723Y-56588094D01*
X37556723Y-56588094D02*
X37366247Y-56635713D01*
X37366247Y-56635713D02*
X37223390Y-56635713D01*
X37223390Y-56635713D02*
X37032914Y-56588094D01*
X37032914Y-56588094D02*
X36937676Y-56540475D01*
X36937676Y-56540475D02*
X36842438Y-56445237D01*
X36842438Y-56445237D02*
X36794819Y-56302380D01*
X36794819Y-56302380D02*
X36794819Y-56207142D01*
X36794819Y-56207142D02*
X36842438Y-56064285D01*
X36842438Y-56064285D02*
X36890057Y-56016666D01*
X36794819Y-55683332D02*
X36794819Y-55016666D01*
X36794819Y-55016666D02*
X37794819Y-55445237D01*
X45363333Y-66134819D02*
X44887143Y-66134819D01*
X44887143Y-66134819D02*
X44887143Y-65134819D01*
X46220476Y-66134819D02*
X45649048Y-66134819D01*
X45934762Y-66134819D02*
X45934762Y-65134819D01*
X45934762Y-65134819D02*
X45839524Y-65277676D01*
X45839524Y-65277676D02*
X45744286Y-65372914D01*
X45744286Y-65372914D02*
X45649048Y-65420533D01*
X42073333Y-50704819D02*
X41597143Y-50704819D01*
X41597143Y-50704819D02*
X41597143Y-49704819D01*
X42359048Y-49800057D02*
X42406667Y-49752438D01*
X42406667Y-49752438D02*
X42501905Y-49704819D01*
X42501905Y-49704819D02*
X42740000Y-49704819D01*
X42740000Y-49704819D02*
X42835238Y-49752438D01*
X42835238Y-49752438D02*
X42882857Y-49800057D01*
X42882857Y-49800057D02*
X42930476Y-49895295D01*
X42930476Y-49895295D02*
X42930476Y-49990533D01*
X42930476Y-49990533D02*
X42882857Y-50133390D01*
X42882857Y-50133390D02*
X42311429Y-50704819D01*
X42311429Y-50704819D02*
X42930476Y-50704819D01*
X47344819Y-50316666D02*
X46868628Y-50649999D01*
X47344819Y-50888094D02*
X46344819Y-50888094D01*
X46344819Y-50888094D02*
X46344819Y-50507142D01*
X46344819Y-50507142D02*
X46392438Y-50411904D01*
X46392438Y-50411904D02*
X46440057Y-50364285D01*
X46440057Y-50364285D02*
X46535295Y-50316666D01*
X46535295Y-50316666D02*
X46678152Y-50316666D01*
X46678152Y-50316666D02*
X46773390Y-50364285D01*
X46773390Y-50364285D02*
X46821009Y-50411904D01*
X46821009Y-50411904D02*
X46868628Y-50507142D01*
X46868628Y-50507142D02*
X46868628Y-50888094D01*
X47344819Y-49364285D02*
X47344819Y-49935713D01*
X47344819Y-49649999D02*
X46344819Y-49649999D01*
X46344819Y-49649999D02*
X46487676Y-49745237D01*
X46487676Y-49745237D02*
X46582914Y-49840475D01*
X46582914Y-49840475D02*
X46630533Y-49935713D01*
X42578095Y-56911808D02*
X42578095Y-57721331D01*
X42578095Y-57721331D02*
X42625714Y-57816569D01*
X42625714Y-57816569D02*
X42673333Y-57864189D01*
X42673333Y-57864189D02*
X42768571Y-57911808D01*
X42768571Y-57911808D02*
X42959047Y-57911808D01*
X42959047Y-57911808D02*
X43054285Y-57864189D01*
X43054285Y-57864189D02*
X43101904Y-57816569D01*
X43101904Y-57816569D02*
X43149523Y-57721331D01*
X43149523Y-57721331D02*
X43149523Y-56911808D01*
X44149523Y-57911808D02*
X43578095Y-57911808D01*
X43863809Y-57911808D02*
X43863809Y-56911808D01*
X43863809Y-56911808D02*
X43768571Y-57054665D01*
X43768571Y-57054665D02*
X43673333Y-57149903D01*
X43673333Y-57149903D02*
X43578095Y-57197522D01*
X40844819Y-61888094D02*
X39844819Y-61888094D01*
X39844819Y-61888094D02*
X39844819Y-61649999D01*
X39844819Y-61649999D02*
X39892438Y-61507142D01*
X39892438Y-61507142D02*
X39987676Y-61411904D01*
X39987676Y-61411904D02*
X40082914Y-61364285D01*
X40082914Y-61364285D02*
X40273390Y-61316666D01*
X40273390Y-61316666D02*
X40416247Y-61316666D01*
X40416247Y-61316666D02*
X40606723Y-61364285D01*
X40606723Y-61364285D02*
X40701961Y-61411904D01*
X40701961Y-61411904D02*
X40797200Y-61507142D01*
X40797200Y-61507142D02*
X40844819Y-61649999D01*
X40844819Y-61649999D02*
X40844819Y-61888094D01*
X40844819Y-60364285D02*
X40844819Y-60935713D01*
X40844819Y-60649999D02*
X39844819Y-60649999D01*
X39844819Y-60649999D02*
X39987676Y-60745237D01*
X39987676Y-60745237D02*
X40082914Y-60840475D01*
X40082914Y-60840475D02*
X40130533Y-60935713D01*
X35094819Y-48488094D02*
X34094819Y-48488094D01*
X34094819Y-48488094D02*
X34094819Y-48249999D01*
X34094819Y-48249999D02*
X34142438Y-48107142D01*
X34142438Y-48107142D02*
X34237676Y-48011904D01*
X34237676Y-48011904D02*
X34332914Y-47964285D01*
X34332914Y-47964285D02*
X34523390Y-47916666D01*
X34523390Y-47916666D02*
X34666247Y-47916666D01*
X34666247Y-47916666D02*
X34856723Y-47964285D01*
X34856723Y-47964285D02*
X34951961Y-48011904D01*
X34951961Y-48011904D02*
X35047200Y-48107142D01*
X35047200Y-48107142D02*
X35094819Y-48249999D01*
X35094819Y-48249999D02*
X35094819Y-48488094D01*
X34190057Y-47535713D02*
X34142438Y-47488094D01*
X34142438Y-47488094D02*
X34094819Y-47392856D01*
X34094819Y-47392856D02*
X34094819Y-47154761D01*
X34094819Y-47154761D02*
X34142438Y-47059523D01*
X34142438Y-47059523D02*
X34190057Y-47011904D01*
X34190057Y-47011904D02*
X34285295Y-46964285D01*
X34285295Y-46964285D02*
X34380533Y-46964285D01*
X34380533Y-46964285D02*
X34523390Y-47011904D01*
X34523390Y-47011904D02*
X35094819Y-47583332D01*
X35094819Y-47583332D02*
X35094819Y-46964285D01*
X44844819Y-47633333D02*
X45559104Y-47633333D01*
X45559104Y-47633333D02*
X45701961Y-47680952D01*
X45701961Y-47680952D02*
X45797200Y-47776190D01*
X45797200Y-47776190D02*
X45844819Y-47919047D01*
X45844819Y-47919047D02*
X45844819Y-48014285D01*
X44844819Y-46680952D02*
X44844819Y-47157142D01*
X44844819Y-47157142D02*
X45321009Y-47204761D01*
X45321009Y-47204761D02*
X45273390Y-47157142D01*
X45273390Y-47157142D02*
X45225771Y-47061904D01*
X45225771Y-47061904D02*
X45225771Y-46823809D01*
X45225771Y-46823809D02*
X45273390Y-46728571D01*
X45273390Y-46728571D02*
X45321009Y-46680952D01*
X45321009Y-46680952D02*
X45416247Y-46633333D01*
X45416247Y-46633333D02*
X45654342Y-46633333D01*
X45654342Y-46633333D02*
X45749580Y-46680952D01*
X45749580Y-46680952D02*
X45797200Y-46728571D01*
X45797200Y-46728571D02*
X45844819Y-46823809D01*
X45844819Y-46823809D02*
X45844819Y-47061904D01*
X45844819Y-47061904D02*
X45797200Y-47157142D01*
X45797200Y-47157142D02*
X45749580Y-47204761D01*
X44894819Y-44733333D02*
X45609104Y-44733333D01*
X45609104Y-44733333D02*
X45751961Y-44780952D01*
X45751961Y-44780952D02*
X45847200Y-44876190D01*
X45847200Y-44876190D02*
X45894819Y-45019047D01*
X45894819Y-45019047D02*
X45894819Y-45114285D01*
X44894819Y-43828571D02*
X44894819Y-44019047D01*
X44894819Y-44019047D02*
X44942438Y-44114285D01*
X44942438Y-44114285D02*
X44990057Y-44161904D01*
X44990057Y-44161904D02*
X45132914Y-44257142D01*
X45132914Y-44257142D02*
X45323390Y-44304761D01*
X45323390Y-44304761D02*
X45704342Y-44304761D01*
X45704342Y-44304761D02*
X45799580Y-44257142D01*
X45799580Y-44257142D02*
X45847200Y-44209523D01*
X45847200Y-44209523D02*
X45894819Y-44114285D01*
X45894819Y-44114285D02*
X45894819Y-43923809D01*
X45894819Y-43923809D02*
X45847200Y-43828571D01*
X45847200Y-43828571D02*
X45799580Y-43780952D01*
X45799580Y-43780952D02*
X45704342Y-43733333D01*
X45704342Y-43733333D02*
X45466247Y-43733333D01*
X45466247Y-43733333D02*
X45371009Y-43780952D01*
X45371009Y-43780952D02*
X45323390Y-43828571D01*
X45323390Y-43828571D02*
X45275771Y-43923809D01*
X45275771Y-43923809D02*
X45275771Y-44114285D01*
X45275771Y-44114285D02*
X45323390Y-44209523D01*
X45323390Y-44209523D02*
X45371009Y-44257142D01*
X45371009Y-44257142D02*
X45466247Y-44304761D01*
X51547143Y-129157200D02*
X51690000Y-129204819D01*
X51690000Y-129204819D02*
X51928095Y-129204819D01*
X51928095Y-129204819D02*
X52023333Y-129157200D01*
X52023333Y-129157200D02*
X52070952Y-129109580D01*
X52070952Y-129109580D02*
X52118571Y-129014342D01*
X52118571Y-129014342D02*
X52118571Y-128919104D01*
X52118571Y-128919104D02*
X52070952Y-128823866D01*
X52070952Y-128823866D02*
X52023333Y-128776247D01*
X52023333Y-128776247D02*
X51928095Y-128728628D01*
X51928095Y-128728628D02*
X51737619Y-128681009D01*
X51737619Y-128681009D02*
X51642381Y-128633390D01*
X51642381Y-128633390D02*
X51594762Y-128585771D01*
X51594762Y-128585771D02*
X51547143Y-128490533D01*
X51547143Y-128490533D02*
X51547143Y-128395295D01*
X51547143Y-128395295D02*
X51594762Y-128300057D01*
X51594762Y-128300057D02*
X51642381Y-128252438D01*
X51642381Y-128252438D02*
X51737619Y-128204819D01*
X51737619Y-128204819D02*
X51975714Y-128204819D01*
X51975714Y-128204819D02*
X52118571Y-128252438D01*
X52547143Y-129204819D02*
X52547143Y-128204819D01*
X52547143Y-128681009D02*
X53118571Y-128681009D01*
X53118571Y-129204819D02*
X53118571Y-128204819D01*
X53594762Y-128204819D02*
X53594762Y-129014342D01*
X53594762Y-129014342D02*
X53642381Y-129109580D01*
X53642381Y-129109580D02*
X53690000Y-129157200D01*
X53690000Y-129157200D02*
X53785238Y-129204819D01*
X53785238Y-129204819D02*
X53975714Y-129204819D01*
X53975714Y-129204819D02*
X54070952Y-129157200D01*
X54070952Y-129157200D02*
X54118571Y-129109580D01*
X54118571Y-129109580D02*
X54166190Y-129014342D01*
X54166190Y-129014342D02*
X54166190Y-128204819D01*
X54499524Y-128204819D02*
X55070952Y-128204819D01*
X54785238Y-129204819D02*
X54785238Y-128204819D01*
X55166191Y-129300057D02*
X55928095Y-129300057D01*
X56166191Y-129204819D02*
X56166191Y-128204819D01*
X56166191Y-128204819D02*
X56499524Y-128919104D01*
X56499524Y-128919104D02*
X56832857Y-128204819D01*
X56832857Y-128204819D02*
X56832857Y-129204819D01*
X57832857Y-129204819D02*
X57261429Y-129204819D01*
X57547143Y-129204819D02*
X57547143Y-128204819D01*
X57547143Y-128204819D02*
X57451905Y-128347676D01*
X57451905Y-128347676D02*
X57356667Y-128442914D01*
X57356667Y-128442914D02*
X57261429Y-128490533D01*
X51668571Y-27357200D02*
X51811428Y-27404819D01*
X51811428Y-27404819D02*
X52049523Y-27404819D01*
X52049523Y-27404819D02*
X52144761Y-27357200D01*
X52144761Y-27357200D02*
X52192380Y-27309580D01*
X52192380Y-27309580D02*
X52239999Y-27214342D01*
X52239999Y-27214342D02*
X52239999Y-27119104D01*
X52239999Y-27119104D02*
X52192380Y-27023866D01*
X52192380Y-27023866D02*
X52144761Y-26976247D01*
X52144761Y-26976247D02*
X52049523Y-26928628D01*
X52049523Y-26928628D02*
X51859047Y-26881009D01*
X51859047Y-26881009D02*
X51763809Y-26833390D01*
X51763809Y-26833390D02*
X51716190Y-26785771D01*
X51716190Y-26785771D02*
X51668571Y-26690533D01*
X51668571Y-26690533D02*
X51668571Y-26595295D01*
X51668571Y-26595295D02*
X51716190Y-26500057D01*
X51716190Y-26500057D02*
X51763809Y-26452438D01*
X51763809Y-26452438D02*
X51859047Y-26404819D01*
X51859047Y-26404819D02*
X52097142Y-26404819D01*
X52097142Y-26404819D02*
X52239999Y-26452438D01*
X52668571Y-27404819D02*
X52668571Y-26404819D01*
X52668571Y-26881009D02*
X53239999Y-26881009D01*
X53239999Y-27404819D02*
X53239999Y-26404819D01*
X53716190Y-26404819D02*
X53716190Y-27214342D01*
X53716190Y-27214342D02*
X53763809Y-27309580D01*
X53763809Y-27309580D02*
X53811428Y-27357200D01*
X53811428Y-27357200D02*
X53906666Y-27404819D01*
X53906666Y-27404819D02*
X54097142Y-27404819D01*
X54097142Y-27404819D02*
X54192380Y-27357200D01*
X54192380Y-27357200D02*
X54239999Y-27309580D01*
X54239999Y-27309580D02*
X54287618Y-27214342D01*
X54287618Y-27214342D02*
X54287618Y-26404819D01*
X54620952Y-26404819D02*
X55192380Y-26404819D01*
X54906666Y-27404819D02*
X54906666Y-26404819D01*
X55287619Y-27500057D02*
X56049523Y-27500057D01*
X56287619Y-27404819D02*
X56287619Y-26404819D01*
X56287619Y-26404819D02*
X56668571Y-26404819D01*
X56668571Y-26404819D02*
X56763809Y-26452438D01*
X56763809Y-26452438D02*
X56811428Y-26500057D01*
X56811428Y-26500057D02*
X56859047Y-26595295D01*
X56859047Y-26595295D02*
X56859047Y-26738152D01*
X56859047Y-26738152D02*
X56811428Y-26833390D01*
X56811428Y-26833390D02*
X56763809Y-26881009D01*
X56763809Y-26881009D02*
X56668571Y-26928628D01*
X56668571Y-26928628D02*
X56287619Y-26928628D01*
X57811428Y-27404819D02*
X57240000Y-27404819D01*
X57525714Y-27404819D02*
X57525714Y-26404819D01*
X57525714Y-26404819D02*
X57430476Y-26547676D01*
X57430476Y-26547676D02*
X57335238Y-26642914D01*
X57335238Y-26642914D02*
X57240000Y-26690533D01*
X39373333Y-72404819D02*
X39040000Y-71928628D01*
X38801905Y-72404819D02*
X38801905Y-71404819D01*
X38801905Y-71404819D02*
X39182857Y-71404819D01*
X39182857Y-71404819D02*
X39278095Y-71452438D01*
X39278095Y-71452438D02*
X39325714Y-71500057D01*
X39325714Y-71500057D02*
X39373333Y-71595295D01*
X39373333Y-71595295D02*
X39373333Y-71738152D01*
X39373333Y-71738152D02*
X39325714Y-71833390D01*
X39325714Y-71833390D02*
X39278095Y-71881009D01*
X39278095Y-71881009D02*
X39182857Y-71928628D01*
X39182857Y-71928628D02*
X38801905Y-71928628D01*
X40230476Y-71404819D02*
X40040000Y-71404819D01*
X40040000Y-71404819D02*
X39944762Y-71452438D01*
X39944762Y-71452438D02*
X39897143Y-71500057D01*
X39897143Y-71500057D02*
X39801905Y-71642914D01*
X39801905Y-71642914D02*
X39754286Y-71833390D01*
X39754286Y-71833390D02*
X39754286Y-72214342D01*
X39754286Y-72214342D02*
X39801905Y-72309580D01*
X39801905Y-72309580D02*
X39849524Y-72357200D01*
X39849524Y-72357200D02*
X39944762Y-72404819D01*
X39944762Y-72404819D02*
X40135238Y-72404819D01*
X40135238Y-72404819D02*
X40230476Y-72357200D01*
X40230476Y-72357200D02*
X40278095Y-72309580D01*
X40278095Y-72309580D02*
X40325714Y-72214342D01*
X40325714Y-72214342D02*
X40325714Y-71976247D01*
X40325714Y-71976247D02*
X40278095Y-71881009D01*
X40278095Y-71881009D02*
X40230476Y-71833390D01*
X40230476Y-71833390D02*
X40135238Y-71785771D01*
X40135238Y-71785771D02*
X39944762Y-71785771D01*
X39944762Y-71785771D02*
X39849524Y-71833390D01*
X39849524Y-71833390D02*
X39801905Y-71881009D01*
X39801905Y-71881009D02*
X39754286Y-71976247D01*
X37673333Y-78004819D02*
X37340000Y-77528628D01*
X37101905Y-78004819D02*
X37101905Y-77004819D01*
X37101905Y-77004819D02*
X37482857Y-77004819D01*
X37482857Y-77004819D02*
X37578095Y-77052438D01*
X37578095Y-77052438D02*
X37625714Y-77100057D01*
X37625714Y-77100057D02*
X37673333Y-77195295D01*
X37673333Y-77195295D02*
X37673333Y-77338152D01*
X37673333Y-77338152D02*
X37625714Y-77433390D01*
X37625714Y-77433390D02*
X37578095Y-77481009D01*
X37578095Y-77481009D02*
X37482857Y-77528628D01*
X37482857Y-77528628D02*
X37101905Y-77528628D01*
X38006667Y-77004819D02*
X38673333Y-77004819D01*
X38673333Y-77004819D02*
X38244762Y-78004819D01*
X36597142Y-70809580D02*
X36549523Y-70857200D01*
X36549523Y-70857200D02*
X36406666Y-70904819D01*
X36406666Y-70904819D02*
X36311428Y-70904819D01*
X36311428Y-70904819D02*
X36168571Y-70857200D01*
X36168571Y-70857200D02*
X36073333Y-70761961D01*
X36073333Y-70761961D02*
X36025714Y-70666723D01*
X36025714Y-70666723D02*
X35978095Y-70476247D01*
X35978095Y-70476247D02*
X35978095Y-70333390D01*
X35978095Y-70333390D02*
X36025714Y-70142914D01*
X36025714Y-70142914D02*
X36073333Y-70047676D01*
X36073333Y-70047676D02*
X36168571Y-69952438D01*
X36168571Y-69952438D02*
X36311428Y-69904819D01*
X36311428Y-69904819D02*
X36406666Y-69904819D01*
X36406666Y-69904819D02*
X36549523Y-69952438D01*
X36549523Y-69952438D02*
X36597142Y-70000057D01*
X37549523Y-70904819D02*
X36978095Y-70904819D01*
X37263809Y-70904819D02*
X37263809Y-69904819D01*
X37263809Y-69904819D02*
X37168571Y-70047676D01*
X37168571Y-70047676D02*
X37073333Y-70142914D01*
X37073333Y-70142914D02*
X36978095Y-70190533D01*
X37930476Y-70000057D02*
X37978095Y-69952438D01*
X37978095Y-69952438D02*
X38073333Y-69904819D01*
X38073333Y-69904819D02*
X38311428Y-69904819D01*
X38311428Y-69904819D02*
X38406666Y-69952438D01*
X38406666Y-69952438D02*
X38454285Y-70000057D01*
X38454285Y-70000057D02*
X38501904Y-70095295D01*
X38501904Y-70095295D02*
X38501904Y-70190533D01*
X38501904Y-70190533D02*
X38454285Y-70333390D01*
X38454285Y-70333390D02*
X37882857Y-70904819D01*
X37882857Y-70904819D02*
X38501904Y-70904819D01*
X37497142Y-37309580D02*
X37449523Y-37357200D01*
X37449523Y-37357200D02*
X37306666Y-37404819D01*
X37306666Y-37404819D02*
X37211428Y-37404819D01*
X37211428Y-37404819D02*
X37068571Y-37357200D01*
X37068571Y-37357200D02*
X36973333Y-37261961D01*
X36973333Y-37261961D02*
X36925714Y-37166723D01*
X36925714Y-37166723D02*
X36878095Y-36976247D01*
X36878095Y-36976247D02*
X36878095Y-36833390D01*
X36878095Y-36833390D02*
X36925714Y-36642914D01*
X36925714Y-36642914D02*
X36973333Y-36547676D01*
X36973333Y-36547676D02*
X37068571Y-36452438D01*
X37068571Y-36452438D02*
X37211428Y-36404819D01*
X37211428Y-36404819D02*
X37306666Y-36404819D01*
X37306666Y-36404819D02*
X37449523Y-36452438D01*
X37449523Y-36452438D02*
X37497142Y-36500057D01*
X38449523Y-37404819D02*
X37878095Y-37404819D01*
X38163809Y-37404819D02*
X38163809Y-36404819D01*
X38163809Y-36404819D02*
X38068571Y-36547676D01*
X38068571Y-36547676D02*
X37973333Y-36642914D01*
X37973333Y-36642914D02*
X37878095Y-36690533D01*
X38782857Y-36404819D02*
X39401904Y-36404819D01*
X39401904Y-36404819D02*
X39068571Y-36785771D01*
X39068571Y-36785771D02*
X39211428Y-36785771D01*
X39211428Y-36785771D02*
X39306666Y-36833390D01*
X39306666Y-36833390D02*
X39354285Y-36881009D01*
X39354285Y-36881009D02*
X39401904Y-36976247D01*
X39401904Y-36976247D02*
X39401904Y-37214342D01*
X39401904Y-37214342D02*
X39354285Y-37309580D01*
X39354285Y-37309580D02*
X39306666Y-37357200D01*
X39306666Y-37357200D02*
X39211428Y-37404819D01*
X39211428Y-37404819D02*
X38925714Y-37404819D01*
X38925714Y-37404819D02*
X38830476Y-37357200D01*
X38830476Y-37357200D02*
X38782857Y-37309580D01*
X34897142Y-37309580D02*
X34849523Y-37357200D01*
X34849523Y-37357200D02*
X34706666Y-37404819D01*
X34706666Y-37404819D02*
X34611428Y-37404819D01*
X34611428Y-37404819D02*
X34468571Y-37357200D01*
X34468571Y-37357200D02*
X34373333Y-37261961D01*
X34373333Y-37261961D02*
X34325714Y-37166723D01*
X34325714Y-37166723D02*
X34278095Y-36976247D01*
X34278095Y-36976247D02*
X34278095Y-36833390D01*
X34278095Y-36833390D02*
X34325714Y-36642914D01*
X34325714Y-36642914D02*
X34373333Y-36547676D01*
X34373333Y-36547676D02*
X34468571Y-36452438D01*
X34468571Y-36452438D02*
X34611428Y-36404819D01*
X34611428Y-36404819D02*
X34706666Y-36404819D01*
X34706666Y-36404819D02*
X34849523Y-36452438D01*
X34849523Y-36452438D02*
X34897142Y-36500057D01*
X35849523Y-37404819D02*
X35278095Y-37404819D01*
X35563809Y-37404819D02*
X35563809Y-36404819D01*
X35563809Y-36404819D02*
X35468571Y-36547676D01*
X35468571Y-36547676D02*
X35373333Y-36642914D01*
X35373333Y-36642914D02*
X35278095Y-36690533D01*
X36706666Y-36738152D02*
X36706666Y-37404819D01*
X36468571Y-36357200D02*
X36230476Y-37071485D01*
X36230476Y-37071485D02*
X36849523Y-37071485D01*
X34899580Y-67892857D02*
X34947200Y-67940476D01*
X34947200Y-67940476D02*
X34994819Y-68083333D01*
X34994819Y-68083333D02*
X34994819Y-68178571D01*
X34994819Y-68178571D02*
X34947200Y-68321428D01*
X34947200Y-68321428D02*
X34851961Y-68416666D01*
X34851961Y-68416666D02*
X34756723Y-68464285D01*
X34756723Y-68464285D02*
X34566247Y-68511904D01*
X34566247Y-68511904D02*
X34423390Y-68511904D01*
X34423390Y-68511904D02*
X34232914Y-68464285D01*
X34232914Y-68464285D02*
X34137676Y-68416666D01*
X34137676Y-68416666D02*
X34042438Y-68321428D01*
X34042438Y-68321428D02*
X33994819Y-68178571D01*
X33994819Y-68178571D02*
X33994819Y-68083333D01*
X33994819Y-68083333D02*
X34042438Y-67940476D01*
X34042438Y-67940476D02*
X34090057Y-67892857D01*
X34994819Y-66940476D02*
X34994819Y-67511904D01*
X34994819Y-67226190D02*
X33994819Y-67226190D01*
X33994819Y-67226190D02*
X34137676Y-67321428D01*
X34137676Y-67321428D02*
X34232914Y-67416666D01*
X34232914Y-67416666D02*
X34280533Y-67511904D01*
X33994819Y-66035714D02*
X33994819Y-66511904D01*
X33994819Y-66511904D02*
X34471009Y-66559523D01*
X34471009Y-66559523D02*
X34423390Y-66511904D01*
X34423390Y-66511904D02*
X34375771Y-66416666D01*
X34375771Y-66416666D02*
X34375771Y-66178571D01*
X34375771Y-66178571D02*
X34423390Y-66083333D01*
X34423390Y-66083333D02*
X34471009Y-66035714D01*
X34471009Y-66035714D02*
X34566247Y-65988095D01*
X34566247Y-65988095D02*
X34804342Y-65988095D01*
X34804342Y-65988095D02*
X34899580Y-66035714D01*
X34899580Y-66035714D02*
X34947200Y-66083333D01*
X34947200Y-66083333D02*
X34994819Y-66178571D01*
X34994819Y-66178571D02*
X34994819Y-66416666D01*
X34994819Y-66416666D02*
X34947200Y-66511904D01*
X34947200Y-66511904D02*
X34899580Y-66559523D01*
X39699580Y-43892857D02*
X39747200Y-43940476D01*
X39747200Y-43940476D02*
X39794819Y-44083333D01*
X39794819Y-44083333D02*
X39794819Y-44178571D01*
X39794819Y-44178571D02*
X39747200Y-44321428D01*
X39747200Y-44321428D02*
X39651961Y-44416666D01*
X39651961Y-44416666D02*
X39556723Y-44464285D01*
X39556723Y-44464285D02*
X39366247Y-44511904D01*
X39366247Y-44511904D02*
X39223390Y-44511904D01*
X39223390Y-44511904D02*
X39032914Y-44464285D01*
X39032914Y-44464285D02*
X38937676Y-44416666D01*
X38937676Y-44416666D02*
X38842438Y-44321428D01*
X38842438Y-44321428D02*
X38794819Y-44178571D01*
X38794819Y-44178571D02*
X38794819Y-44083333D01*
X38794819Y-44083333D02*
X38842438Y-43940476D01*
X38842438Y-43940476D02*
X38890057Y-43892857D01*
X39794819Y-42940476D02*
X39794819Y-43511904D01*
X39794819Y-43226190D02*
X38794819Y-43226190D01*
X38794819Y-43226190D02*
X38937676Y-43321428D01*
X38937676Y-43321428D02*
X39032914Y-43416666D01*
X39032914Y-43416666D02*
X39080533Y-43511904D01*
X38794819Y-42083333D02*
X38794819Y-42273809D01*
X38794819Y-42273809D02*
X38842438Y-42369047D01*
X38842438Y-42369047D02*
X38890057Y-42416666D01*
X38890057Y-42416666D02*
X39032914Y-42511904D01*
X39032914Y-42511904D02*
X39223390Y-42559523D01*
X39223390Y-42559523D02*
X39604342Y-42559523D01*
X39604342Y-42559523D02*
X39699580Y-42511904D01*
X39699580Y-42511904D02*
X39747200Y-42464285D01*
X39747200Y-42464285D02*
X39794819Y-42369047D01*
X39794819Y-42369047D02*
X39794819Y-42178571D01*
X39794819Y-42178571D02*
X39747200Y-42083333D01*
X39747200Y-42083333D02*
X39699580Y-42035714D01*
X39699580Y-42035714D02*
X39604342Y-41988095D01*
X39604342Y-41988095D02*
X39366247Y-41988095D01*
X39366247Y-41988095D02*
X39271009Y-42035714D01*
X39271009Y-42035714D02*
X39223390Y-42083333D01*
X39223390Y-42083333D02*
X39175771Y-42178571D01*
X39175771Y-42178571D02*
X39175771Y-42369047D01*
X39175771Y-42369047D02*
X39223390Y-42464285D01*
X39223390Y-42464285D02*
X39271009Y-42511904D01*
X39271009Y-42511904D02*
X39366247Y-42559523D01*
X42397142Y-70809580D02*
X42349523Y-70857200D01*
X42349523Y-70857200D02*
X42206666Y-70904819D01*
X42206666Y-70904819D02*
X42111428Y-70904819D01*
X42111428Y-70904819D02*
X41968571Y-70857200D01*
X41968571Y-70857200D02*
X41873333Y-70761961D01*
X41873333Y-70761961D02*
X41825714Y-70666723D01*
X41825714Y-70666723D02*
X41778095Y-70476247D01*
X41778095Y-70476247D02*
X41778095Y-70333390D01*
X41778095Y-70333390D02*
X41825714Y-70142914D01*
X41825714Y-70142914D02*
X41873333Y-70047676D01*
X41873333Y-70047676D02*
X41968571Y-69952438D01*
X41968571Y-69952438D02*
X42111428Y-69904819D01*
X42111428Y-69904819D02*
X42206666Y-69904819D01*
X42206666Y-69904819D02*
X42349523Y-69952438D01*
X42349523Y-69952438D02*
X42397142Y-70000057D01*
X43349523Y-70904819D02*
X42778095Y-70904819D01*
X43063809Y-70904819D02*
X43063809Y-69904819D01*
X43063809Y-69904819D02*
X42968571Y-70047676D01*
X42968571Y-70047676D02*
X42873333Y-70142914D01*
X42873333Y-70142914D02*
X42778095Y-70190533D01*
X43682857Y-69904819D02*
X44349523Y-69904819D01*
X44349523Y-69904819D02*
X43920952Y-70904819D01*
X34699580Y-46192857D02*
X34747200Y-46240476D01*
X34747200Y-46240476D02*
X34794819Y-46383333D01*
X34794819Y-46383333D02*
X34794819Y-46478571D01*
X34794819Y-46478571D02*
X34747200Y-46621428D01*
X34747200Y-46621428D02*
X34651961Y-46716666D01*
X34651961Y-46716666D02*
X34556723Y-46764285D01*
X34556723Y-46764285D02*
X34366247Y-46811904D01*
X34366247Y-46811904D02*
X34223390Y-46811904D01*
X34223390Y-46811904D02*
X34032914Y-46764285D01*
X34032914Y-46764285D02*
X33937676Y-46716666D01*
X33937676Y-46716666D02*
X33842438Y-46621428D01*
X33842438Y-46621428D02*
X33794819Y-46478571D01*
X33794819Y-46478571D02*
X33794819Y-46383333D01*
X33794819Y-46383333D02*
X33842438Y-46240476D01*
X33842438Y-46240476D02*
X33890057Y-46192857D01*
X34794819Y-45240476D02*
X34794819Y-45811904D01*
X34794819Y-45526190D02*
X33794819Y-45526190D01*
X33794819Y-45526190D02*
X33937676Y-45621428D01*
X33937676Y-45621428D02*
X34032914Y-45716666D01*
X34032914Y-45716666D02*
X34080533Y-45811904D01*
X34223390Y-44669047D02*
X34175771Y-44764285D01*
X34175771Y-44764285D02*
X34128152Y-44811904D01*
X34128152Y-44811904D02*
X34032914Y-44859523D01*
X34032914Y-44859523D02*
X33985295Y-44859523D01*
X33985295Y-44859523D02*
X33890057Y-44811904D01*
X33890057Y-44811904D02*
X33842438Y-44764285D01*
X33842438Y-44764285D02*
X33794819Y-44669047D01*
X33794819Y-44669047D02*
X33794819Y-44478571D01*
X33794819Y-44478571D02*
X33842438Y-44383333D01*
X33842438Y-44383333D02*
X33890057Y-44335714D01*
X33890057Y-44335714D02*
X33985295Y-44288095D01*
X33985295Y-44288095D02*
X34032914Y-44288095D01*
X34032914Y-44288095D02*
X34128152Y-44335714D01*
X34128152Y-44335714D02*
X34175771Y-44383333D01*
X34175771Y-44383333D02*
X34223390Y-44478571D01*
X34223390Y-44478571D02*
X34223390Y-44669047D01*
X34223390Y-44669047D02*
X34271009Y-44764285D01*
X34271009Y-44764285D02*
X34318628Y-44811904D01*
X34318628Y-44811904D02*
X34413866Y-44859523D01*
X34413866Y-44859523D02*
X34604342Y-44859523D01*
X34604342Y-44859523D02*
X34699580Y-44811904D01*
X34699580Y-44811904D02*
X34747200Y-44764285D01*
X34747200Y-44764285D02*
X34794819Y-44669047D01*
X34794819Y-44669047D02*
X34794819Y-44478571D01*
X34794819Y-44478571D02*
X34747200Y-44383333D01*
X34747200Y-44383333D02*
X34699580Y-44335714D01*
X34699580Y-44335714D02*
X34604342Y-44288095D01*
X34604342Y-44288095D02*
X34413866Y-44288095D01*
X34413866Y-44288095D02*
X34318628Y-44335714D01*
X34318628Y-44335714D02*
X34271009Y-44383333D01*
X34271009Y-44383333D02*
X34223390Y-44478571D01*
X39497142Y-70809580D02*
X39449523Y-70857200D01*
X39449523Y-70857200D02*
X39306666Y-70904819D01*
X39306666Y-70904819D02*
X39211428Y-70904819D01*
X39211428Y-70904819D02*
X39068571Y-70857200D01*
X39068571Y-70857200D02*
X38973333Y-70761961D01*
X38973333Y-70761961D02*
X38925714Y-70666723D01*
X38925714Y-70666723D02*
X38878095Y-70476247D01*
X38878095Y-70476247D02*
X38878095Y-70333390D01*
X38878095Y-70333390D02*
X38925714Y-70142914D01*
X38925714Y-70142914D02*
X38973333Y-70047676D01*
X38973333Y-70047676D02*
X39068571Y-69952438D01*
X39068571Y-69952438D02*
X39211428Y-69904819D01*
X39211428Y-69904819D02*
X39306666Y-69904819D01*
X39306666Y-69904819D02*
X39449523Y-69952438D01*
X39449523Y-69952438D02*
X39497142Y-70000057D01*
X40449523Y-70904819D02*
X39878095Y-70904819D01*
X40163809Y-70904819D02*
X40163809Y-69904819D01*
X40163809Y-69904819D02*
X40068571Y-70047676D01*
X40068571Y-70047676D02*
X39973333Y-70142914D01*
X39973333Y-70142914D02*
X39878095Y-70190533D01*
X40925714Y-70904819D02*
X41116190Y-70904819D01*
X41116190Y-70904819D02*
X41211428Y-70857200D01*
X41211428Y-70857200D02*
X41259047Y-70809580D01*
X41259047Y-70809580D02*
X41354285Y-70666723D01*
X41354285Y-70666723D02*
X41401904Y-70476247D01*
X41401904Y-70476247D02*
X41401904Y-70095295D01*
X41401904Y-70095295D02*
X41354285Y-70000057D01*
X41354285Y-70000057D02*
X41306666Y-69952438D01*
X41306666Y-69952438D02*
X41211428Y-69904819D01*
X41211428Y-69904819D02*
X41020952Y-69904819D01*
X41020952Y-69904819D02*
X40925714Y-69952438D01*
X40925714Y-69952438D02*
X40878095Y-70000057D01*
X40878095Y-70000057D02*
X40830476Y-70095295D01*
X40830476Y-70095295D02*
X40830476Y-70333390D01*
X40830476Y-70333390D02*
X40878095Y-70428628D01*
X40878095Y-70428628D02*
X40925714Y-70476247D01*
X40925714Y-70476247D02*
X41020952Y-70523866D01*
X41020952Y-70523866D02*
X41211428Y-70523866D01*
X41211428Y-70523866D02*
X41306666Y-70476247D01*
X41306666Y-70476247D02*
X41354285Y-70428628D01*
X41354285Y-70428628D02*
X41401904Y-70333390D01*
X56744761Y-112600057D02*
X56649523Y-112552438D01*
X56649523Y-112552438D02*
X56554285Y-112457200D01*
X56554285Y-112457200D02*
X56411428Y-112314342D01*
X56411428Y-112314342D02*
X56316190Y-112266723D01*
X56316190Y-112266723D02*
X56220952Y-112266723D01*
X56268571Y-112504819D02*
X56173333Y-112457200D01*
X56173333Y-112457200D02*
X56078095Y-112361961D01*
X56078095Y-112361961D02*
X56030476Y-112171485D01*
X56030476Y-112171485D02*
X56030476Y-111838152D01*
X56030476Y-111838152D02*
X56078095Y-111647676D01*
X56078095Y-111647676D02*
X56173333Y-111552438D01*
X56173333Y-111552438D02*
X56268571Y-111504819D01*
X56268571Y-111504819D02*
X56459047Y-111504819D01*
X56459047Y-111504819D02*
X56554285Y-111552438D01*
X56554285Y-111552438D02*
X56649523Y-111647676D01*
X56649523Y-111647676D02*
X56697142Y-111838152D01*
X56697142Y-111838152D02*
X56697142Y-112171485D01*
X56697142Y-112171485D02*
X56649523Y-112361961D01*
X56649523Y-112361961D02*
X56554285Y-112457200D01*
X56554285Y-112457200D02*
X56459047Y-112504819D01*
X56459047Y-112504819D02*
X56268571Y-112504819D01*
X57649523Y-112504819D02*
X57078095Y-112504819D01*
X57363809Y-112504819D02*
X57363809Y-111504819D01*
X57363809Y-111504819D02*
X57268571Y-111647676D01*
X57268571Y-111647676D02*
X57173333Y-111742914D01*
X57173333Y-111742914D02*
X57078095Y-111790533D01*
X56844761Y-116200057D02*
X56749523Y-116152438D01*
X56749523Y-116152438D02*
X56654285Y-116057200D01*
X56654285Y-116057200D02*
X56511428Y-115914342D01*
X56511428Y-115914342D02*
X56416190Y-115866723D01*
X56416190Y-115866723D02*
X56320952Y-115866723D01*
X56368571Y-116104819D02*
X56273333Y-116057200D01*
X56273333Y-116057200D02*
X56178095Y-115961961D01*
X56178095Y-115961961D02*
X56130476Y-115771485D01*
X56130476Y-115771485D02*
X56130476Y-115438152D01*
X56130476Y-115438152D02*
X56178095Y-115247676D01*
X56178095Y-115247676D02*
X56273333Y-115152438D01*
X56273333Y-115152438D02*
X56368571Y-115104819D01*
X56368571Y-115104819D02*
X56559047Y-115104819D01*
X56559047Y-115104819D02*
X56654285Y-115152438D01*
X56654285Y-115152438D02*
X56749523Y-115247676D01*
X56749523Y-115247676D02*
X56797142Y-115438152D01*
X56797142Y-115438152D02*
X56797142Y-115771485D01*
X56797142Y-115771485D02*
X56749523Y-115961961D01*
X56749523Y-115961961D02*
X56654285Y-116057200D01*
X56654285Y-116057200D02*
X56559047Y-116104819D01*
X56559047Y-116104819D02*
X56368571Y-116104819D01*
X57178095Y-115200057D02*
X57225714Y-115152438D01*
X57225714Y-115152438D02*
X57320952Y-115104819D01*
X57320952Y-115104819D02*
X57559047Y-115104819D01*
X57559047Y-115104819D02*
X57654285Y-115152438D01*
X57654285Y-115152438D02*
X57701904Y-115200057D01*
X57701904Y-115200057D02*
X57749523Y-115295295D01*
X57749523Y-115295295D02*
X57749523Y-115390533D01*
X57749523Y-115390533D02*
X57701904Y-115533390D01*
X57701904Y-115533390D02*
X57130476Y-116104819D01*
X57130476Y-116104819D02*
X57749523Y-116104819D01*
X51223333Y-34404819D02*
X50890000Y-33928628D01*
X50651905Y-34404819D02*
X50651905Y-33404819D01*
X50651905Y-33404819D02*
X51032857Y-33404819D01*
X51032857Y-33404819D02*
X51128095Y-33452438D01*
X51128095Y-33452438D02*
X51175714Y-33500057D01*
X51175714Y-33500057D02*
X51223333Y-33595295D01*
X51223333Y-33595295D02*
X51223333Y-33738152D01*
X51223333Y-33738152D02*
X51175714Y-33833390D01*
X51175714Y-33833390D02*
X51128095Y-33881009D01*
X51128095Y-33881009D02*
X51032857Y-33928628D01*
X51032857Y-33928628D02*
X50651905Y-33928628D01*
X51794762Y-33833390D02*
X51699524Y-33785771D01*
X51699524Y-33785771D02*
X51651905Y-33738152D01*
X51651905Y-33738152D02*
X51604286Y-33642914D01*
X51604286Y-33642914D02*
X51604286Y-33595295D01*
X51604286Y-33595295D02*
X51651905Y-33500057D01*
X51651905Y-33500057D02*
X51699524Y-33452438D01*
X51699524Y-33452438D02*
X51794762Y-33404819D01*
X51794762Y-33404819D02*
X51985238Y-33404819D01*
X51985238Y-33404819D02*
X52080476Y-33452438D01*
X52080476Y-33452438D02*
X52128095Y-33500057D01*
X52128095Y-33500057D02*
X52175714Y-33595295D01*
X52175714Y-33595295D02*
X52175714Y-33642914D01*
X52175714Y-33642914D02*
X52128095Y-33738152D01*
X52128095Y-33738152D02*
X52080476Y-33785771D01*
X52080476Y-33785771D02*
X51985238Y-33833390D01*
X51985238Y-33833390D02*
X51794762Y-33833390D01*
X51794762Y-33833390D02*
X51699524Y-33881009D01*
X51699524Y-33881009D02*
X51651905Y-33928628D01*
X51651905Y-33928628D02*
X51604286Y-34023866D01*
X51604286Y-34023866D02*
X51604286Y-34214342D01*
X51604286Y-34214342D02*
X51651905Y-34309580D01*
X51651905Y-34309580D02*
X51699524Y-34357200D01*
X51699524Y-34357200D02*
X51794762Y-34404819D01*
X51794762Y-34404819D02*
X51985238Y-34404819D01*
X51985238Y-34404819D02*
X52080476Y-34357200D01*
X52080476Y-34357200D02*
X52128095Y-34309580D01*
X52128095Y-34309580D02*
X52175714Y-34214342D01*
X52175714Y-34214342D02*
X52175714Y-34023866D01*
X52175714Y-34023866D02*
X52128095Y-33928628D01*
X52128095Y-33928628D02*
X52080476Y-33881009D01*
X52080476Y-33881009D02*
X51985238Y-33833390D01*
X57094819Y-113616666D02*
X56618628Y-113949999D01*
X57094819Y-114188094D02*
X56094819Y-114188094D01*
X56094819Y-114188094D02*
X56094819Y-113807142D01*
X56094819Y-113807142D02*
X56142438Y-113711904D01*
X56142438Y-113711904D02*
X56190057Y-113664285D01*
X56190057Y-113664285D02*
X56285295Y-113616666D01*
X56285295Y-113616666D02*
X56428152Y-113616666D01*
X56428152Y-113616666D02*
X56523390Y-113664285D01*
X56523390Y-113664285D02*
X56571009Y-113711904D01*
X56571009Y-113711904D02*
X56618628Y-113807142D01*
X56618628Y-113807142D02*
X56618628Y-114188094D01*
X57094819Y-113140475D02*
X57094819Y-112949999D01*
X57094819Y-112949999D02*
X57047200Y-112854761D01*
X57047200Y-112854761D02*
X56999580Y-112807142D01*
X56999580Y-112807142D02*
X56856723Y-112711904D01*
X56856723Y-112711904D02*
X56666247Y-112664285D01*
X56666247Y-112664285D02*
X56285295Y-112664285D01*
X56285295Y-112664285D02*
X56190057Y-112711904D01*
X56190057Y-112711904D02*
X56142438Y-112759523D01*
X56142438Y-112759523D02*
X56094819Y-112854761D01*
X56094819Y-112854761D02*
X56094819Y-113045237D01*
X56094819Y-113045237D02*
X56142438Y-113140475D01*
X56142438Y-113140475D02*
X56190057Y-113188094D01*
X56190057Y-113188094D02*
X56285295Y-113235713D01*
X56285295Y-113235713D02*
X56523390Y-113235713D01*
X56523390Y-113235713D02*
X56618628Y-113188094D01*
X56618628Y-113188094D02*
X56666247Y-113140475D01*
X56666247Y-113140475D02*
X56713866Y-113045237D01*
X56713866Y-113045237D02*
X56713866Y-112854761D01*
X56713866Y-112854761D02*
X56666247Y-112759523D01*
X56666247Y-112759523D02*
X56618628Y-112711904D01*
X56618628Y-112711904D02*
X56523390Y-112664285D01*
X57097142Y-122204819D02*
X56763809Y-121728628D01*
X56525714Y-122204819D02*
X56525714Y-121204819D01*
X56525714Y-121204819D02*
X56906666Y-121204819D01*
X56906666Y-121204819D02*
X57001904Y-121252438D01*
X57001904Y-121252438D02*
X57049523Y-121300057D01*
X57049523Y-121300057D02*
X57097142Y-121395295D01*
X57097142Y-121395295D02*
X57097142Y-121538152D01*
X57097142Y-121538152D02*
X57049523Y-121633390D01*
X57049523Y-121633390D02*
X57001904Y-121681009D01*
X57001904Y-121681009D02*
X56906666Y-121728628D01*
X56906666Y-121728628D02*
X56525714Y-121728628D01*
X58049523Y-122204819D02*
X57478095Y-122204819D01*
X57763809Y-122204819D02*
X57763809Y-121204819D01*
X57763809Y-121204819D02*
X57668571Y-121347676D01*
X57668571Y-121347676D02*
X57573333Y-121442914D01*
X57573333Y-121442914D02*
X57478095Y-121490533D01*
X58668571Y-121204819D02*
X58763809Y-121204819D01*
X58763809Y-121204819D02*
X58859047Y-121252438D01*
X58859047Y-121252438D02*
X58906666Y-121300057D01*
X58906666Y-121300057D02*
X58954285Y-121395295D01*
X58954285Y-121395295D02*
X59001904Y-121585771D01*
X59001904Y-121585771D02*
X59001904Y-121823866D01*
X59001904Y-121823866D02*
X58954285Y-122014342D01*
X58954285Y-122014342D02*
X58906666Y-122109580D01*
X58906666Y-122109580D02*
X58859047Y-122157200D01*
X58859047Y-122157200D02*
X58763809Y-122204819D01*
X58763809Y-122204819D02*
X58668571Y-122204819D01*
X58668571Y-122204819D02*
X58573333Y-122157200D01*
X58573333Y-122157200D02*
X58525714Y-122109580D01*
X58525714Y-122109580D02*
X58478095Y-122014342D01*
X58478095Y-122014342D02*
X58430476Y-121823866D01*
X58430476Y-121823866D02*
X58430476Y-121585771D01*
X58430476Y-121585771D02*
X58478095Y-121395295D01*
X58478095Y-121395295D02*
X58525714Y-121300057D01*
X58525714Y-121300057D02*
X58573333Y-121252438D01*
X58573333Y-121252438D02*
X58668571Y-121204819D01*
X53194819Y-121192857D02*
X52718628Y-121526190D01*
X53194819Y-121764285D02*
X52194819Y-121764285D01*
X52194819Y-121764285D02*
X52194819Y-121383333D01*
X52194819Y-121383333D02*
X52242438Y-121288095D01*
X52242438Y-121288095D02*
X52290057Y-121240476D01*
X52290057Y-121240476D02*
X52385295Y-121192857D01*
X52385295Y-121192857D02*
X52528152Y-121192857D01*
X52528152Y-121192857D02*
X52623390Y-121240476D01*
X52623390Y-121240476D02*
X52671009Y-121288095D01*
X52671009Y-121288095D02*
X52718628Y-121383333D01*
X52718628Y-121383333D02*
X52718628Y-121764285D01*
X53194819Y-120240476D02*
X53194819Y-120811904D01*
X53194819Y-120526190D02*
X52194819Y-120526190D01*
X52194819Y-120526190D02*
X52337676Y-120621428D01*
X52337676Y-120621428D02*
X52432914Y-120716666D01*
X52432914Y-120716666D02*
X52480533Y-120811904D01*
X53194819Y-119288095D02*
X53194819Y-119859523D01*
X53194819Y-119573809D02*
X52194819Y-119573809D01*
X52194819Y-119573809D02*
X52337676Y-119669047D01*
X52337676Y-119669047D02*
X52432914Y-119764285D01*
X52432914Y-119764285D02*
X52480533Y-119859523D01*
X48224819Y-114788333D02*
X48939104Y-114788333D01*
X48939104Y-114788333D02*
X49081961Y-114835952D01*
X49081961Y-114835952D02*
X49177200Y-114931190D01*
X49177200Y-114931190D02*
X49224819Y-115074047D01*
X49224819Y-115074047D02*
X49224819Y-115169285D01*
X48224819Y-114407380D02*
X48224819Y-113788333D01*
X48224819Y-113788333D02*
X48605771Y-114121666D01*
X48605771Y-114121666D02*
X48605771Y-113978809D01*
X48605771Y-113978809D02*
X48653390Y-113883571D01*
X48653390Y-113883571D02*
X48701009Y-113835952D01*
X48701009Y-113835952D02*
X48796247Y-113788333D01*
X48796247Y-113788333D02*
X49034342Y-113788333D01*
X49034342Y-113788333D02*
X49129580Y-113835952D01*
X49129580Y-113835952D02*
X49177200Y-113883571D01*
X49177200Y-113883571D02*
X49224819Y-113978809D01*
X49224819Y-113978809D02*
X49224819Y-114264523D01*
X49224819Y-114264523D02*
X49177200Y-114359761D01*
X49177200Y-114359761D02*
X49129580Y-114407380D01*
X47399580Y-59516666D02*
X47447200Y-59564285D01*
X47447200Y-59564285D02*
X47494819Y-59707142D01*
X47494819Y-59707142D02*
X47494819Y-59802380D01*
X47494819Y-59802380D02*
X47447200Y-59945237D01*
X47447200Y-59945237D02*
X47351961Y-60040475D01*
X47351961Y-60040475D02*
X47256723Y-60088094D01*
X47256723Y-60088094D02*
X47066247Y-60135713D01*
X47066247Y-60135713D02*
X46923390Y-60135713D01*
X46923390Y-60135713D02*
X46732914Y-60088094D01*
X46732914Y-60088094D02*
X46637676Y-60040475D01*
X46637676Y-60040475D02*
X46542438Y-59945237D01*
X46542438Y-59945237D02*
X46494819Y-59802380D01*
X46494819Y-59802380D02*
X46494819Y-59707142D01*
X46494819Y-59707142D02*
X46542438Y-59564285D01*
X46542438Y-59564285D02*
X46590057Y-59516666D01*
X46590057Y-59135713D02*
X46542438Y-59088094D01*
X46542438Y-59088094D02*
X46494819Y-58992856D01*
X46494819Y-58992856D02*
X46494819Y-58754761D01*
X46494819Y-58754761D02*
X46542438Y-58659523D01*
X46542438Y-58659523D02*
X46590057Y-58611904D01*
X46590057Y-58611904D02*
X46685295Y-58564285D01*
X46685295Y-58564285D02*
X46780533Y-58564285D01*
X46780533Y-58564285D02*
X46923390Y-58611904D01*
X46923390Y-58611904D02*
X47494819Y-59183332D01*
X47494819Y-59183332D02*
X47494819Y-58564285D01*
X47049580Y-56092857D02*
X47097200Y-56140476D01*
X47097200Y-56140476D02*
X47144819Y-56283333D01*
X47144819Y-56283333D02*
X47144819Y-56378571D01*
X47144819Y-56378571D02*
X47097200Y-56521428D01*
X47097200Y-56521428D02*
X47001961Y-56616666D01*
X47001961Y-56616666D02*
X46906723Y-56664285D01*
X46906723Y-56664285D02*
X46716247Y-56711904D01*
X46716247Y-56711904D02*
X46573390Y-56711904D01*
X46573390Y-56711904D02*
X46382914Y-56664285D01*
X46382914Y-56664285D02*
X46287676Y-56616666D01*
X46287676Y-56616666D02*
X46192438Y-56521428D01*
X46192438Y-56521428D02*
X46144819Y-56378571D01*
X46144819Y-56378571D02*
X46144819Y-56283333D01*
X46144819Y-56283333D02*
X46192438Y-56140476D01*
X46192438Y-56140476D02*
X46240057Y-56092857D01*
X47144819Y-55140476D02*
X47144819Y-55711904D01*
X47144819Y-55426190D02*
X46144819Y-55426190D01*
X46144819Y-55426190D02*
X46287676Y-55521428D01*
X46287676Y-55521428D02*
X46382914Y-55616666D01*
X46382914Y-55616666D02*
X46430533Y-55711904D01*
X47144819Y-54188095D02*
X47144819Y-54759523D01*
X47144819Y-54473809D02*
X46144819Y-54473809D01*
X46144819Y-54473809D02*
X46287676Y-54569047D01*
X46287676Y-54569047D02*
X46382914Y-54664285D01*
X46382914Y-54664285D02*
X46430533Y-54759523D01*
X37799580Y-50916666D02*
X37847200Y-50964285D01*
X37847200Y-50964285D02*
X37894819Y-51107142D01*
X37894819Y-51107142D02*
X37894819Y-51202380D01*
X37894819Y-51202380D02*
X37847200Y-51345237D01*
X37847200Y-51345237D02*
X37751961Y-51440475D01*
X37751961Y-51440475D02*
X37656723Y-51488094D01*
X37656723Y-51488094D02*
X37466247Y-51535713D01*
X37466247Y-51535713D02*
X37323390Y-51535713D01*
X37323390Y-51535713D02*
X37132914Y-51488094D01*
X37132914Y-51488094D02*
X37037676Y-51440475D01*
X37037676Y-51440475D02*
X36942438Y-51345237D01*
X36942438Y-51345237D02*
X36894819Y-51202380D01*
X36894819Y-51202380D02*
X36894819Y-51107142D01*
X36894819Y-51107142D02*
X36942438Y-50964285D01*
X36942438Y-50964285D02*
X36990057Y-50916666D01*
X36894819Y-50059523D02*
X36894819Y-50249999D01*
X36894819Y-50249999D02*
X36942438Y-50345237D01*
X36942438Y-50345237D02*
X36990057Y-50392856D01*
X36990057Y-50392856D02*
X37132914Y-50488094D01*
X37132914Y-50488094D02*
X37323390Y-50535713D01*
X37323390Y-50535713D02*
X37704342Y-50535713D01*
X37704342Y-50535713D02*
X37799580Y-50488094D01*
X37799580Y-50488094D02*
X37847200Y-50440475D01*
X37847200Y-50440475D02*
X37894819Y-50345237D01*
X37894819Y-50345237D02*
X37894819Y-50154761D01*
X37894819Y-50154761D02*
X37847200Y-50059523D01*
X37847200Y-50059523D02*
X37799580Y-50011904D01*
X37799580Y-50011904D02*
X37704342Y-49964285D01*
X37704342Y-49964285D02*
X37466247Y-49964285D01*
X37466247Y-49964285D02*
X37371009Y-50011904D01*
X37371009Y-50011904D02*
X37323390Y-50059523D01*
X37323390Y-50059523D02*
X37275771Y-50154761D01*
X37275771Y-50154761D02*
X37275771Y-50345237D01*
X37275771Y-50345237D02*
X37323390Y-50440475D01*
X37323390Y-50440475D02*
X37371009Y-50488094D01*
X37371009Y-50488094D02*
X37466247Y-50535713D01*
X38673333Y-63909580D02*
X38625714Y-63957200D01*
X38625714Y-63957200D02*
X38482857Y-64004819D01*
X38482857Y-64004819D02*
X38387619Y-64004819D01*
X38387619Y-64004819D02*
X38244762Y-63957200D01*
X38244762Y-63957200D02*
X38149524Y-63861961D01*
X38149524Y-63861961D02*
X38101905Y-63766723D01*
X38101905Y-63766723D02*
X38054286Y-63576247D01*
X38054286Y-63576247D02*
X38054286Y-63433390D01*
X38054286Y-63433390D02*
X38101905Y-63242914D01*
X38101905Y-63242914D02*
X38149524Y-63147676D01*
X38149524Y-63147676D02*
X38244762Y-63052438D01*
X38244762Y-63052438D02*
X38387619Y-63004819D01*
X38387619Y-63004819D02*
X38482857Y-63004819D01*
X38482857Y-63004819D02*
X38625714Y-63052438D01*
X38625714Y-63052438D02*
X38673333Y-63100057D01*
X39244762Y-63433390D02*
X39149524Y-63385771D01*
X39149524Y-63385771D02*
X39101905Y-63338152D01*
X39101905Y-63338152D02*
X39054286Y-63242914D01*
X39054286Y-63242914D02*
X39054286Y-63195295D01*
X39054286Y-63195295D02*
X39101905Y-63100057D01*
X39101905Y-63100057D02*
X39149524Y-63052438D01*
X39149524Y-63052438D02*
X39244762Y-63004819D01*
X39244762Y-63004819D02*
X39435238Y-63004819D01*
X39435238Y-63004819D02*
X39530476Y-63052438D01*
X39530476Y-63052438D02*
X39578095Y-63100057D01*
X39578095Y-63100057D02*
X39625714Y-63195295D01*
X39625714Y-63195295D02*
X39625714Y-63242914D01*
X39625714Y-63242914D02*
X39578095Y-63338152D01*
X39578095Y-63338152D02*
X39530476Y-63385771D01*
X39530476Y-63385771D02*
X39435238Y-63433390D01*
X39435238Y-63433390D02*
X39244762Y-63433390D01*
X39244762Y-63433390D02*
X39149524Y-63481009D01*
X39149524Y-63481009D02*
X39101905Y-63528628D01*
X39101905Y-63528628D02*
X39054286Y-63623866D01*
X39054286Y-63623866D02*
X39054286Y-63814342D01*
X39054286Y-63814342D02*
X39101905Y-63909580D01*
X39101905Y-63909580D02*
X39149524Y-63957200D01*
X39149524Y-63957200D02*
X39244762Y-64004819D01*
X39244762Y-64004819D02*
X39435238Y-64004819D01*
X39435238Y-64004819D02*
X39530476Y-63957200D01*
X39530476Y-63957200D02*
X39578095Y-63909580D01*
X39578095Y-63909580D02*
X39625714Y-63814342D01*
X39625714Y-63814342D02*
X39625714Y-63623866D01*
X39625714Y-63623866D02*
X39578095Y-63528628D01*
X39578095Y-63528628D02*
X39530476Y-63481009D01*
X39530476Y-63481009D02*
X39435238Y-63433390D01*
X37794819Y-54316666D02*
X37318628Y-54649999D01*
X37794819Y-54888094D02*
X36794819Y-54888094D01*
X36794819Y-54888094D02*
X36794819Y-54507142D01*
X36794819Y-54507142D02*
X36842438Y-54411904D01*
X36842438Y-54411904D02*
X36890057Y-54364285D01*
X36890057Y-54364285D02*
X36985295Y-54316666D01*
X36985295Y-54316666D02*
X37128152Y-54316666D01*
X37128152Y-54316666D02*
X37223390Y-54364285D01*
X37223390Y-54364285D02*
X37271009Y-54411904D01*
X37271009Y-54411904D02*
X37318628Y-54507142D01*
X37318628Y-54507142D02*
X37318628Y-54888094D01*
X36890057Y-53935713D02*
X36842438Y-53888094D01*
X36842438Y-53888094D02*
X36794819Y-53792856D01*
X36794819Y-53792856D02*
X36794819Y-53554761D01*
X36794819Y-53554761D02*
X36842438Y-53459523D01*
X36842438Y-53459523D02*
X36890057Y-53411904D01*
X36890057Y-53411904D02*
X36985295Y-53364285D01*
X36985295Y-53364285D02*
X37080533Y-53364285D01*
X37080533Y-53364285D02*
X37223390Y-53411904D01*
X37223390Y-53411904D02*
X37794819Y-53983332D01*
X37794819Y-53983332D02*
X37794819Y-53364285D01*
X39094819Y-50916666D02*
X38618628Y-51249999D01*
X39094819Y-51488094D02*
X38094819Y-51488094D01*
X38094819Y-51488094D02*
X38094819Y-51107142D01*
X38094819Y-51107142D02*
X38142438Y-51011904D01*
X38142438Y-51011904D02*
X38190057Y-50964285D01*
X38190057Y-50964285D02*
X38285295Y-50916666D01*
X38285295Y-50916666D02*
X38428152Y-50916666D01*
X38428152Y-50916666D02*
X38523390Y-50964285D01*
X38523390Y-50964285D02*
X38571009Y-51011904D01*
X38571009Y-51011904D02*
X38618628Y-51107142D01*
X38618628Y-51107142D02*
X38618628Y-51488094D01*
X38094819Y-50583332D02*
X38094819Y-49964285D01*
X38094819Y-49964285D02*
X38475771Y-50297618D01*
X38475771Y-50297618D02*
X38475771Y-50154761D01*
X38475771Y-50154761D02*
X38523390Y-50059523D01*
X38523390Y-50059523D02*
X38571009Y-50011904D01*
X38571009Y-50011904D02*
X38666247Y-49964285D01*
X38666247Y-49964285D02*
X38904342Y-49964285D01*
X38904342Y-49964285D02*
X38999580Y-50011904D01*
X38999580Y-50011904D02*
X39047200Y-50059523D01*
X39047200Y-50059523D02*
X39094819Y-50154761D01*
X39094819Y-50154761D02*
X39094819Y-50440475D01*
X39094819Y-50440475D02*
X39047200Y-50535713D01*
X39047200Y-50535713D02*
X38999580Y-50583332D01*
X35144819Y-62116666D02*
X34668628Y-62449999D01*
X35144819Y-62688094D02*
X34144819Y-62688094D01*
X34144819Y-62688094D02*
X34144819Y-62307142D01*
X34144819Y-62307142D02*
X34192438Y-62211904D01*
X34192438Y-62211904D02*
X34240057Y-62164285D01*
X34240057Y-62164285D02*
X34335295Y-62116666D01*
X34335295Y-62116666D02*
X34478152Y-62116666D01*
X34478152Y-62116666D02*
X34573390Y-62164285D01*
X34573390Y-62164285D02*
X34621009Y-62211904D01*
X34621009Y-62211904D02*
X34668628Y-62307142D01*
X34668628Y-62307142D02*
X34668628Y-62688094D01*
X34478152Y-61259523D02*
X35144819Y-61259523D01*
X34097200Y-61497618D02*
X34811485Y-61735713D01*
X34811485Y-61735713D02*
X34811485Y-61116666D01*
X38773333Y-61404819D02*
X38440000Y-60928628D01*
X38201905Y-61404819D02*
X38201905Y-60404819D01*
X38201905Y-60404819D02*
X38582857Y-60404819D01*
X38582857Y-60404819D02*
X38678095Y-60452438D01*
X38678095Y-60452438D02*
X38725714Y-60500057D01*
X38725714Y-60500057D02*
X38773333Y-60595295D01*
X38773333Y-60595295D02*
X38773333Y-60738152D01*
X38773333Y-60738152D02*
X38725714Y-60833390D01*
X38725714Y-60833390D02*
X38678095Y-60881009D01*
X38678095Y-60881009D02*
X38582857Y-60928628D01*
X38582857Y-60928628D02*
X38201905Y-60928628D01*
X39678095Y-60404819D02*
X39201905Y-60404819D01*
X39201905Y-60404819D02*
X39154286Y-60881009D01*
X39154286Y-60881009D02*
X39201905Y-60833390D01*
X39201905Y-60833390D02*
X39297143Y-60785771D01*
X39297143Y-60785771D02*
X39535238Y-60785771D01*
X39535238Y-60785771D02*
X39630476Y-60833390D01*
X39630476Y-60833390D02*
X39678095Y-60881009D01*
X39678095Y-60881009D02*
X39725714Y-60976247D01*
X39725714Y-60976247D02*
X39725714Y-61214342D01*
X39725714Y-61214342D02*
X39678095Y-61309580D01*
X39678095Y-61309580D02*
X39630476Y-61357200D01*
X39630476Y-61357200D02*
X39535238Y-61404819D01*
X39535238Y-61404819D02*
X39297143Y-61404819D01*
X39297143Y-61404819D02*
X39201905Y-61357200D01*
X39201905Y-61357200D02*
X39154286Y-61309580D01*
X37497142Y-49804819D02*
X37163809Y-49328628D01*
X36925714Y-49804819D02*
X36925714Y-48804819D01*
X36925714Y-48804819D02*
X37306666Y-48804819D01*
X37306666Y-48804819D02*
X37401904Y-48852438D01*
X37401904Y-48852438D02*
X37449523Y-48900057D01*
X37449523Y-48900057D02*
X37497142Y-48995295D01*
X37497142Y-48995295D02*
X37497142Y-49138152D01*
X37497142Y-49138152D02*
X37449523Y-49233390D01*
X37449523Y-49233390D02*
X37401904Y-49281009D01*
X37401904Y-49281009D02*
X37306666Y-49328628D01*
X37306666Y-49328628D02*
X36925714Y-49328628D01*
X38449523Y-49804819D02*
X37878095Y-49804819D01*
X38163809Y-49804819D02*
X38163809Y-48804819D01*
X38163809Y-48804819D02*
X38068571Y-48947676D01*
X38068571Y-48947676D02*
X37973333Y-49042914D01*
X37973333Y-49042914D02*
X37878095Y-49090533D01*
X38830476Y-48900057D02*
X38878095Y-48852438D01*
X38878095Y-48852438D02*
X38973333Y-48804819D01*
X38973333Y-48804819D02*
X39211428Y-48804819D01*
X39211428Y-48804819D02*
X39306666Y-48852438D01*
X39306666Y-48852438D02*
X39354285Y-48900057D01*
X39354285Y-48900057D02*
X39401904Y-48995295D01*
X39401904Y-48995295D02*
X39401904Y-49090533D01*
X39401904Y-49090533D02*
X39354285Y-49233390D01*
X39354285Y-49233390D02*
X38782857Y-49804819D01*
X38782857Y-49804819D02*
X39401904Y-49804819D01*
X41189819Y-82663333D02*
X41904104Y-82663333D01*
X41904104Y-82663333D02*
X42046961Y-82710952D01*
X42046961Y-82710952D02*
X42142200Y-82806190D01*
X42142200Y-82806190D02*
X42189819Y-82949047D01*
X42189819Y-82949047D02*
X42189819Y-83044285D01*
X42189819Y-81663333D02*
X42189819Y-82234761D01*
X42189819Y-81949047D02*
X41189819Y-81949047D01*
X41189819Y-81949047D02*
X41332676Y-82044285D01*
X41332676Y-82044285D02*
X41427914Y-82139523D01*
X41427914Y-82139523D02*
X41475533Y-82234761D01*
X34994819Y-70378094D02*
X33994819Y-70378094D01*
X33994819Y-70378094D02*
X33994819Y-70139999D01*
X33994819Y-70139999D02*
X34042438Y-69997142D01*
X34042438Y-69997142D02*
X34137676Y-69901904D01*
X34137676Y-69901904D02*
X34232914Y-69854285D01*
X34232914Y-69854285D02*
X34423390Y-69806666D01*
X34423390Y-69806666D02*
X34566247Y-69806666D01*
X34566247Y-69806666D02*
X34756723Y-69854285D01*
X34756723Y-69854285D02*
X34851961Y-69901904D01*
X34851961Y-69901904D02*
X34947200Y-69997142D01*
X34947200Y-69997142D02*
X34994819Y-70139999D01*
X34994819Y-70139999D02*
X34994819Y-70378094D01*
X33994819Y-69473332D02*
X33994819Y-68854285D01*
X33994819Y-68854285D02*
X34375771Y-69187618D01*
X34375771Y-69187618D02*
X34375771Y-69044761D01*
X34375771Y-69044761D02*
X34423390Y-68949523D01*
X34423390Y-68949523D02*
X34471009Y-68901904D01*
X34471009Y-68901904D02*
X34566247Y-68854285D01*
X34566247Y-68854285D02*
X34804342Y-68854285D01*
X34804342Y-68854285D02*
X34899580Y-68901904D01*
X34899580Y-68901904D02*
X34947200Y-68949523D01*
X34947200Y-68949523D02*
X34994819Y-69044761D01*
X34994819Y-69044761D02*
X34994819Y-69330475D01*
X34994819Y-69330475D02*
X34947200Y-69425713D01*
X34947200Y-69425713D02*
X34899580Y-69473332D01*
X34801905Y-77944819D02*
X34801905Y-76944819D01*
X34801905Y-76944819D02*
X35040000Y-76944819D01*
X35040000Y-76944819D02*
X35182857Y-76992438D01*
X35182857Y-76992438D02*
X35278095Y-77087676D01*
X35278095Y-77087676D02*
X35325714Y-77182914D01*
X35325714Y-77182914D02*
X35373333Y-77373390D01*
X35373333Y-77373390D02*
X35373333Y-77516247D01*
X35373333Y-77516247D02*
X35325714Y-77706723D01*
X35325714Y-77706723D02*
X35278095Y-77801961D01*
X35278095Y-77801961D02*
X35182857Y-77897200D01*
X35182857Y-77897200D02*
X35040000Y-77944819D01*
X35040000Y-77944819D02*
X34801905Y-77944819D01*
X36230476Y-77278152D02*
X36230476Y-77944819D01*
X35992381Y-76897200D02*
X35754286Y-77611485D01*
X35754286Y-77611485D02*
X36373333Y-77611485D01*
X38316666Y-110319819D02*
X38316666Y-111034104D01*
X38316666Y-111034104D02*
X38269047Y-111176961D01*
X38269047Y-111176961D02*
X38173809Y-111272200D01*
X38173809Y-111272200D02*
X38030952Y-111319819D01*
X38030952Y-111319819D02*
X37935714Y-111319819D01*
X39221428Y-110653152D02*
X39221428Y-111319819D01*
X38983333Y-110272200D02*
X38745238Y-110986485D01*
X38745238Y-110986485D02*
X39364285Y-110986485D01*
D15*
%TO.C,C1*%
X47040000Y-77080000D02*
X39740000Y-77080000D01*
X47040000Y-72780000D02*
X39740000Y-72780000D01*
D16*
X45390000Y-76330000D02*
X45390000Y-73530000D01*
D10*
%TO.C,C3*%
X44640000Y-51300000D02*
X44640000Y-50600000D01*
X45840000Y-50600000D02*
X45840000Y-51300000D01*
%TO.C,C4*%
X36290000Y-58150000D02*
X36990000Y-58150000D01*
X36990000Y-59350000D02*
X36290000Y-59350000D01*
%TO.C,C5*%
X35090000Y-56600000D02*
X35790000Y-56600000D01*
X35790000Y-57800000D02*
X35090000Y-57800000D01*
%TO.C,C7*%
X35090000Y-55050000D02*
X35790000Y-55050000D01*
X35790000Y-56250000D02*
X35090000Y-56250000D01*
D15*
%TO.C,P1*%
X33800000Y-95500000D02*
X35070000Y-95500000D01*
X33800000Y-96770000D02*
X33800000Y-95500000D01*
X36040000Y-96330000D02*
X36640000Y-96330000D01*
X36040000Y-97210000D02*
X36640000Y-97210000D01*
X36040000Y-98870000D02*
X36640000Y-98870000D01*
X36040000Y-99750000D02*
X36640000Y-99750000D01*
X36040000Y-101410000D02*
X36640000Y-101410000D01*
X36040000Y-102290000D02*
X36640000Y-102290000D01*
X36040000Y-103950000D02*
X36640000Y-103950000D01*
X36040000Y-104830000D02*
X36640000Y-104830000D01*
X36040000Y-106490000D02*
X36640000Y-106490000D01*
X36040000Y-107370000D02*
X36640000Y-107370000D01*
X38580000Y-96330000D02*
X38890000Y-96330000D01*
X38580000Y-97210000D02*
X38890000Y-97210000D01*
X38580000Y-98870000D02*
X38890000Y-98870000D01*
X38580000Y-99750000D02*
X38890000Y-99750000D01*
X38580000Y-101410000D02*
X38890000Y-101410000D01*
X38580000Y-102290000D02*
X38890000Y-102290000D01*
X38580000Y-103950000D02*
X38890000Y-103950000D01*
X38580000Y-104830000D02*
X38890000Y-104830000D01*
X38580000Y-106490000D02*
X38890000Y-106490000D01*
X38580000Y-107370000D02*
X38890000Y-107370000D01*
X38890000Y-95380000D02*
X38890000Y-98040000D01*
X38890000Y-98040000D02*
X38890000Y-100580000D01*
X38890000Y-98040000D02*
X41630000Y-98040000D01*
X38890000Y-100580000D02*
X38890000Y-103120000D01*
X38890000Y-100580000D02*
X41630000Y-100580000D01*
X38890000Y-103120000D02*
X38890000Y-105660000D01*
X38890000Y-103120000D02*
X41630000Y-103120000D01*
X38890000Y-105660000D02*
X38890000Y-108320000D01*
X38890000Y-105660000D02*
X41630000Y-105660000D01*
X38890000Y-108320000D02*
X41630000Y-108320000D01*
X41630000Y-95380000D02*
X38890000Y-95380000D01*
X41630000Y-96330000D02*
X41630000Y-97210000D01*
X41630000Y-96450000D02*
X47630000Y-96450000D01*
X41630000Y-96570000D02*
X47630000Y-96570000D01*
X41630000Y-96690000D02*
X47630000Y-96690000D01*
X41630000Y-96810000D02*
X47630000Y-96810000D01*
X41630000Y-96930000D02*
X47630000Y-96930000D01*
X41630000Y-97050000D02*
X47630000Y-97050000D01*
X41630000Y-97170000D02*
X47630000Y-97170000D01*
X41630000Y-97210000D02*
X47630000Y-97210000D01*
X41630000Y-98040000D02*
X38890000Y-98040000D01*
X41630000Y-98040000D02*
X41630000Y-95380000D01*
X41630000Y-98870000D02*
X41630000Y-99750000D01*
X41630000Y-99750000D02*
X47630000Y-99750000D01*
X41630000Y-100580000D02*
X38890000Y-100580000D01*
X41630000Y-100580000D02*
X41630000Y-98040000D01*
X41630000Y-101410000D02*
X41630000Y-102290000D01*
X41630000Y-102290000D02*
X47630000Y-102290000D01*
X41630000Y-103120000D02*
X38890000Y-103120000D01*
X41630000Y-103120000D02*
X41630000Y-100580000D01*
X41630000Y-103950000D02*
X41630000Y-104830000D01*
X41630000Y-104830000D02*
X47630000Y-104830000D01*
X41630000Y-105660000D02*
X38890000Y-105660000D01*
X41630000Y-105660000D02*
X41630000Y-103120000D01*
X41630000Y-106490000D02*
X41630000Y-107370000D01*
X41630000Y-107370000D02*
X47630000Y-107370000D01*
X41630000Y-108320000D02*
X41630000Y-105660000D01*
X47630000Y-96330000D02*
X41630000Y-96330000D01*
X47630000Y-97210000D02*
X47630000Y-96330000D01*
X47630000Y-98870000D02*
X41630000Y-98870000D01*
X47630000Y-99750000D02*
X47630000Y-98870000D01*
X47630000Y-101410000D02*
X41630000Y-101410000D01*
X47630000Y-102290000D02*
X47630000Y-101410000D01*
X47630000Y-103950000D02*
X41630000Y-103950000D01*
X47630000Y-104830000D02*
X47630000Y-103950000D01*
X47630000Y-106490000D02*
X41630000Y-106490000D01*
X47630000Y-107370000D02*
X47630000Y-106490000D01*
D10*
%TO.C,R1*%
X46165000Y-52950000D02*
X46165000Y-51950000D01*
X47515000Y-51950000D02*
X47515000Y-52950000D01*
%TO.C,U1*%
X38290000Y-52500000D02*
X38290000Y-53025000D01*
X38290000Y-52500000D02*
X38815000Y-52500000D01*
X38290000Y-56800000D02*
X38290000Y-56275000D01*
X38290000Y-56800000D02*
X38815000Y-56800000D01*
X42590000Y-52500000D02*
X42065000Y-52500000D01*
X42590000Y-52500000D02*
X42590000Y-53025000D01*
X42590000Y-56800000D02*
X42065000Y-56800000D01*
D15*
%TO.C,D1*%
X38790000Y-58350000D02*
X38790000Y-60350000D01*
X38790000Y-58350000D02*
X42640000Y-58350000D01*
X38790000Y-60350000D02*
X42640000Y-60350000D01*
%TO.C,D2*%
X39640000Y-46650000D02*
X35790000Y-46650000D01*
X39640000Y-48650000D02*
X35790000Y-48650000D01*
X39640000Y-48650000D02*
X39640000Y-46650000D01*
D10*
%TO.C,J5*%
X45751000Y-46080000D02*
X45751000Y-48620000D01*
X45751000Y-46080000D02*
X47529000Y-46080000D01*
X47529000Y-48620000D02*
X45751000Y-48620000D01*
X47529000Y-48620000D02*
X47529000Y-46080000D01*
%TO.C,J6*%
X45751000Y-43080000D02*
X45751000Y-45620000D01*
X45751000Y-43080000D02*
X47529000Y-43080000D01*
X47529000Y-45620000D02*
X45751000Y-45620000D01*
X47529000Y-45620000D02*
X47529000Y-43080000D01*
D11*
%TO.C,SHUT_M1*%
X55640000Y-126650000D02*
G75*
G02*
X55440000Y-126650000I-100000J0D01*
G01*
X55440000Y-126650000D02*
G75*
G02*
X55640000Y-126650000I100000J0D01*
G01*
D10*
X56490000Y-125850000D02*
G75*
G02*
X52990000Y-125850000I-1750000J0D01*
G01*
X52990000Y-125850000D02*
G75*
G02*
X56490000Y-125850000I1750000J0D01*
G01*
D11*
X54040000Y-126650000D02*
G75*
G02*
X53840000Y-126650000I-100000J0D01*
G01*
X53840000Y-126650000D02*
G75*
G02*
X54040000Y-126650000I100000J0D01*
G01*
D10*
X53740000Y-125550000D02*
G75*
G02*
X55740000Y-125550000I1000000J-300000D01*
G01*
X59240000Y-131850000D02*
X50240000Y-131850000D01*
X59240000Y-121350000D02*
X59240000Y-131850000D01*
X50240000Y-131850000D02*
X50240000Y-121350000D01*
X50240000Y-121350000D02*
X59240000Y-121350000D01*
%TO.C,SHUT_P1*%
X50240000Y-23850000D02*
X59240000Y-23850000D01*
X50240000Y-34350000D02*
X50240000Y-23850000D01*
X59240000Y-23850000D02*
X59240000Y-34350000D01*
X59240000Y-34350000D02*
X50240000Y-34350000D01*
X55740000Y-30150000D02*
G75*
G02*
X53740000Y-30150000I-1000000J300000D01*
G01*
D11*
X54040000Y-29050000D02*
G75*
G02*
X53840000Y-29050000I-100000J0D01*
G01*
X53840000Y-29050000D02*
G75*
G02*
X54040000Y-29050000I100000J0D01*
G01*
D10*
X56490000Y-29850000D02*
G75*
G02*
X52990000Y-29850000I-1750000J0D01*
G01*
X52990000Y-29850000D02*
G75*
G02*
X56490000Y-29850000I1750000J0D01*
G01*
D11*
X55640000Y-29050000D02*
G75*
G02*
X55440000Y-29050000I-100000J0D01*
G01*
X55440000Y-29050000D02*
G75*
G02*
X55640000Y-29050000I100000J0D01*
G01*
D10*
%TO.C,R6*%
X38405000Y-71370000D02*
X38405000Y-72370000D01*
X37055000Y-72370000D02*
X37055000Y-71370000D01*
%TO.C,R7*%
X38395000Y-74790000D02*
X38395000Y-75790000D01*
X37045000Y-75790000D02*
X37045000Y-74790000D01*
%TO.C,C12*%
X39515000Y-68550000D02*
X39515000Y-66550000D01*
X37465000Y-66550000D02*
X37465000Y-68550000D01*
%TO.C,C13*%
X35540000Y-41825000D02*
X37540000Y-41825000D01*
X37540000Y-39775000D02*
X35540000Y-39775000D01*
%TO.C,C14*%
X35540000Y-39525000D02*
X37540000Y-39525000D01*
X37540000Y-37475000D02*
X35540000Y-37475000D01*
%TO.C,C15*%
X37215000Y-68550000D02*
X37215000Y-66550000D01*
X35165000Y-66550000D02*
X35165000Y-68550000D01*
%TO.C,C16*%
X35540000Y-44125000D02*
X37540000Y-44125000D01*
X37540000Y-42075000D02*
X35540000Y-42075000D01*
%TO.C,C17*%
X44115000Y-68550000D02*
X44115000Y-66550000D01*
X42065000Y-66550000D02*
X42065000Y-68550000D01*
%TO.C,C18*%
X36090000Y-46425000D02*
X38090000Y-46425000D01*
X38090000Y-44375000D02*
X36090000Y-44375000D01*
%TO.C,C19*%
X41815000Y-68550000D02*
X41815000Y-66550000D01*
X39765000Y-66550000D02*
X39765000Y-68550000D01*
D15*
%TO.C,Q1*%
X56980000Y-114930000D02*
X59140000Y-114930000D01*
X56980000Y-114930000D02*
X56980000Y-114000000D01*
X56980000Y-111770000D02*
X58440000Y-111770000D01*
X56980000Y-111770000D02*
X56980000Y-112700000D01*
%TO.C,Q2*%
X56980000Y-118930000D02*
X59140000Y-118930000D01*
X56980000Y-118930000D02*
X56980000Y-118000000D01*
X56980000Y-115770000D02*
X58440000Y-115770000D01*
X56980000Y-115770000D02*
X56980000Y-116700000D01*
D10*
%TO.C,R8*%
X50840000Y-34875000D02*
X51840000Y-34875000D01*
X51840000Y-36225000D02*
X50840000Y-36225000D01*
%TO.C,R9*%
X55815000Y-112550000D02*
X55815000Y-113550000D01*
X54465000Y-113550000D02*
X54465000Y-112550000D01*
%TO.C,R10*%
X58390000Y-120725000D02*
X57390000Y-120725000D01*
X57390000Y-119375000D02*
X58390000Y-119375000D01*
%TO.C,R11*%
X55715000Y-117050000D02*
X55715000Y-118050000D01*
X54365000Y-118050000D02*
X54365000Y-117050000D01*
D15*
%TO.C,J3*%
X52430000Y-116220000D02*
X52430000Y-113480000D01*
X52430000Y-113480000D02*
X49650000Y-113480000D01*
X52310000Y-116220000D02*
X52310000Y-113480000D01*
X52310000Y-113480000D02*
X49650000Y-113480000D01*
X51480000Y-119070000D02*
X51480000Y-118470000D01*
X51480000Y-116530000D02*
X51480000Y-116220000D01*
X51480000Y-113480000D02*
X51480000Y-107480000D01*
X51480000Y-107480000D02*
X50600000Y-107480000D01*
X51440000Y-113480000D02*
X51440000Y-107480000D01*
X51320000Y-113480000D02*
X51320000Y-107480000D01*
X51200000Y-113480000D02*
X51200000Y-107480000D01*
X51080000Y-113480000D02*
X51080000Y-107480000D01*
X51040000Y-121310000D02*
X49770000Y-121310000D01*
X50960000Y-113480000D02*
X50960000Y-107480000D01*
X50840000Y-113480000D02*
X50840000Y-107480000D01*
X50720000Y-113480000D02*
X50720000Y-107480000D01*
X50600000Y-119070000D02*
X50600000Y-118470000D01*
X50600000Y-116530000D02*
X50600000Y-116220000D01*
X50600000Y-113480000D02*
X51480000Y-113480000D01*
X50600000Y-107480000D02*
X50600000Y-113480000D01*
X49770000Y-121310000D02*
X49770000Y-120040000D01*
X49650000Y-116220000D02*
X52430000Y-116220000D01*
X49650000Y-116220000D02*
X52310000Y-116220000D01*
X49650000Y-113480000D02*
X49650000Y-116220000D01*
X49650000Y-113480000D02*
X49650000Y-116220000D01*
%TO.C,C2*%
X45490000Y-60230000D02*
X44290000Y-60230000D01*
X44290000Y-58470000D02*
X45490000Y-58470000D01*
%TO.C,C11*%
X44260000Y-54950000D02*
X44260000Y-53750000D01*
X46020000Y-53750000D02*
X46020000Y-54950000D01*
D10*
%TO.C,C6*%
X34090000Y-52200000D02*
X34090000Y-51500000D01*
X35290000Y-51500000D02*
X35290000Y-52200000D01*
%TO.C,C8*%
X36990000Y-64150000D02*
X36290000Y-64150000D01*
X36290000Y-62950000D02*
X36990000Y-62950000D01*
%TO.C,R2*%
X34940000Y-53475000D02*
X35940000Y-53475000D01*
X35940000Y-54825000D02*
X34940000Y-54825000D01*
%TO.C,R3*%
X35615000Y-52300000D02*
X35615000Y-51300000D01*
X36965000Y-51300000D02*
X36965000Y-52300000D01*
%TO.C,R4*%
X37140000Y-62625000D02*
X36140000Y-62625000D01*
X36140000Y-61275000D02*
X37140000Y-61275000D01*
%TO.C,R5*%
X37140000Y-61025000D02*
X36140000Y-61025000D01*
X36140000Y-59675000D02*
X37140000Y-59675000D01*
%TO.C,R12*%
X34990000Y-48925000D02*
X35990000Y-48925000D01*
X35990000Y-50275000D02*
X34990000Y-50275000D01*
D15*
%TO.C,J1*%
X32450000Y-77750000D02*
X34155000Y-77750000D01*
X32450000Y-86910000D02*
X32450000Y-77750000D01*
X34155000Y-86910000D02*
X32450000Y-86910000D01*
X36165000Y-86910000D02*
X38085000Y-86910000D01*
X38085000Y-77750000D02*
X36165000Y-77750000D01*
%TO.C,D3*%
X36370000Y-71250000D02*
X36370000Y-72450000D01*
X34610000Y-72450000D02*
X34610000Y-71250000D01*
%TO.C,D4*%
X34620000Y-75950000D02*
X34620000Y-74750000D01*
X36380000Y-74750000D02*
X36380000Y-75950000D01*
%TO.C,J4*%
X43230000Y-120150000D02*
X34070000Y-120150000D01*
X43230000Y-118445000D02*
X43230000Y-120150000D01*
X43230000Y-116435000D02*
X43230000Y-114515000D01*
X34070000Y-120150000D02*
X34070000Y-118445000D01*
X34070000Y-114515000D02*
X34070000Y-116435000D01*
%TD*%
%LPC*%
D17*
X39340000Y-37450000D02*
X48040000Y-37450000D01*
D18*
X51840000Y-66650000D02*
X50690000Y-66650000D01*
X51840000Y-67150000D02*
X50690000Y-67150000D01*
X51840000Y-67550000D02*
X50690000Y-67550000D01*
X51840000Y-67950000D02*
X50690000Y-67950000D01*
X51840000Y-68350000D02*
X50690000Y-68350000D01*
X51840000Y-66650000D02*
X51840000Y-68350000D01*
X51840000Y-68350000D02*
X50690000Y-68350000D01*
D19*
X34040000Y-99250000D02*
X42740000Y-99350000D01*
X34040000Y-101850000D02*
X42740000Y-101850000D01*
X34040000Y-104450000D02*
X42740000Y-104450000D01*
X34040000Y-106950000D02*
X41640000Y-106950000D01*
D18*
X50690000Y-66650000D02*
X50690000Y-68350000D01*
X51740000Y-53050000D02*
X51740000Y-56250000D01*
X51440000Y-47850000D02*
X51440000Y-63850000D01*
D13*
X51490000Y-47750000D02*
X50190000Y-47850661D01*
X51490000Y-47950000D02*
X50190000Y-47850661D01*
X51490000Y-48450000D02*
X50190000Y-48350661D01*
X51490000Y-48250000D02*
X50190000Y-48350661D01*
X51490000Y-48750000D02*
X50190000Y-48850661D01*
X51490000Y-48950000D02*
X50190000Y-48850661D01*
X51490000Y-49450000D02*
X50190000Y-49350661D01*
X51490000Y-49250000D02*
X50190000Y-49350661D01*
X51490000Y-49750000D02*
X50190000Y-49850661D01*
X51490000Y-49950000D02*
X50190000Y-49850661D01*
X51490000Y-50250000D02*
X50190000Y-50350661D01*
X51490000Y-50450000D02*
X50190000Y-50350661D01*
X51490000Y-50950000D02*
X50190000Y-50850661D01*
X51490000Y-50750000D02*
X50190000Y-50850661D01*
X51490000Y-51250000D02*
X50190000Y-51350661D01*
X51490000Y-51450000D02*
X50190000Y-51350661D01*
X51490000Y-51750000D02*
X50190000Y-51850661D01*
X51490000Y-51950000D02*
X50190000Y-51850661D01*
X51490000Y-52450000D02*
X50190000Y-52350661D01*
X51490000Y-52250000D02*
X50190000Y-52350661D01*
X51490000Y-52750000D02*
X50190000Y-52850661D01*
X51490000Y-52950000D02*
X50190000Y-52850661D01*
X51490000Y-53250000D02*
X50190000Y-53350661D01*
X51490000Y-53450000D02*
X50190000Y-53350661D01*
X51490000Y-53950000D02*
X50190000Y-53850661D01*
X51490000Y-53750000D02*
X50190000Y-53850661D01*
X51490000Y-54250000D02*
X50190000Y-54350661D01*
X51490000Y-54450000D02*
X50190000Y-54350661D01*
X51490000Y-54750000D02*
X50190000Y-54850661D01*
X51490000Y-54950000D02*
X50190000Y-54850661D01*
X51490000Y-55450000D02*
X50190000Y-55350661D01*
X51490000Y-55250000D02*
X50190000Y-55350661D01*
X51490000Y-55750000D02*
X50190000Y-55850661D01*
X51490000Y-55950000D02*
X50190000Y-55850661D01*
X51490000Y-56250000D02*
X50190000Y-56350661D01*
X51490000Y-56450000D02*
X50190000Y-56350661D01*
X51490000Y-56950000D02*
X50190000Y-56850661D01*
X51490000Y-56750000D02*
X50190000Y-56850661D01*
X51490000Y-57250000D02*
X50190000Y-57350661D01*
X51490000Y-57450000D02*
X50190000Y-57350661D01*
X51490000Y-57750000D02*
X50190000Y-57850661D01*
X51490000Y-57950000D02*
X50190000Y-57850661D01*
X51490000Y-58450000D02*
X50190000Y-58350661D01*
X51490000Y-58250000D02*
X50190000Y-58350661D01*
X51490000Y-58750000D02*
X50190000Y-58850661D01*
X51490000Y-58950000D02*
X50190000Y-58850661D01*
X51490000Y-59250000D02*
X50190000Y-59350661D01*
X51490000Y-59450000D02*
X50190000Y-59350661D01*
X51490000Y-59950000D02*
X50190000Y-59850661D01*
X51490000Y-59750000D02*
X50190000Y-59850661D01*
X51490000Y-60250000D02*
X50190000Y-60350661D01*
X51490000Y-60450000D02*
X50190000Y-60350661D01*
X51490000Y-60750000D02*
X50190000Y-60850661D01*
X51490000Y-60950000D02*
X50190000Y-60850661D01*
X51490000Y-61450000D02*
X50190000Y-61350661D01*
X51490000Y-61250000D02*
X50190000Y-61350661D01*
X51490000Y-61750000D02*
X50190000Y-61850661D01*
X51490000Y-61950000D02*
X50190000Y-61850661D01*
X51490000Y-62250000D02*
X50190000Y-62350661D01*
X51490000Y-62450000D02*
X50190000Y-62350661D01*
X51490000Y-62950000D02*
X50190000Y-62850661D01*
X51490000Y-62750000D02*
X50190000Y-62850661D01*
X51490000Y-63250000D02*
X50190000Y-63350661D01*
X51490000Y-63450000D02*
X50190000Y-63350661D01*
X51490000Y-63750000D02*
X50190000Y-63850661D01*
X51490000Y-63950000D02*
X50190000Y-63850661D01*
D18*
X51640000Y-47850000D02*
X51640000Y-63850000D01*
D19*
X34040000Y-96850000D02*
X41840000Y-96850000D01*
D17*
X57040000Y-37150000D02*
X54840000Y-37150000D01*
D13*
%TO.C,U1*%
X39297000Y-55793000D02*
X39297000Y-53507000D01*
X41583000Y-53507000D02*
X39297000Y-53507000D01*
X41583000Y-53507000D02*
X41583000Y-55793000D01*
X41583000Y-55793000D02*
X39297000Y-55793000D01*
%TD*%
D20*
%TO.C,C1*%
X40190000Y-74930000D03*
X46590000Y-74930000D03*
%TD*%
D21*
%TO.C,C3*%
X45240000Y-51700000D03*
X45240000Y-50200000D03*
%TD*%
D22*
%TO.C,C4*%
X37390000Y-58750000D03*
X35890000Y-58750000D03*
%TD*%
%TO.C,C5*%
X36190000Y-57200000D03*
X34690000Y-57200000D03*
%TD*%
D23*
%TO.C,C7*%
X34690000Y-55650000D03*
X36190000Y-55650000D03*
%TD*%
D24*
%TO.C,L1*%
X45230000Y-62630000D03*
X42030000Y-62630000D03*
%TD*%
D25*
%TO.C,L2*%
X42240000Y-45200000D03*
X42240000Y-48400000D03*
%TD*%
D26*
%TO.C,P1*%
X35070000Y-96770000D03*
D27*
X37610000Y-96770000D03*
X35070000Y-99310000D03*
X37610000Y-99310000D03*
X35070000Y-101850000D03*
X37610000Y-101850000D03*
X35070000Y-104390000D03*
X37610000Y-104390000D03*
X35070000Y-106930000D03*
X37610000Y-106930000D03*
%TD*%
D28*
%TO.C,R1*%
X46840000Y-51600000D03*
X46840000Y-53300000D03*
%TD*%
D29*
%TO.C,U1*%
X42440000Y-55900000D03*
X42440000Y-55400000D03*
X42440000Y-54900000D03*
X42440000Y-54400000D03*
X42440000Y-53900000D03*
X42440000Y-53400000D03*
D30*
X41690000Y-52650000D03*
X41190000Y-52650000D03*
X40690000Y-52650000D03*
X40190000Y-52650000D03*
X39690000Y-52650000D03*
X39190000Y-52650000D03*
D29*
X38440000Y-53400000D03*
X38440000Y-53900000D03*
X38440000Y-54400000D03*
X38440000Y-54900000D03*
X38440000Y-55400000D03*
X38440000Y-55900000D03*
D30*
X39190000Y-56650000D03*
X39690000Y-56650000D03*
X40190000Y-56650000D03*
X40690000Y-56650000D03*
X41190000Y-56650000D03*
X41690000Y-56650000D03*
D31*
X41329000Y-55539000D03*
X41329000Y-53761000D03*
D32*
X41090000Y-55300000D03*
X41090000Y-54000000D03*
D33*
X40440000Y-54650000D03*
D32*
X39790000Y-55300000D03*
X39790000Y-54000000D03*
D31*
X39551000Y-55539000D03*
X39551000Y-53761000D03*
%TD*%
D34*
%TO.C,D1*%
X39590000Y-59350000D03*
X42390000Y-59350000D03*
%TD*%
D35*
%TO.C,D2*%
X38840000Y-47650000D03*
X36040000Y-47650000D03*
%TD*%
D36*
%TO.C,J5*%
X46640000Y-46715000D03*
X46640000Y-47985000D03*
%TD*%
D37*
%TO.C,J6*%
X46640000Y-44985000D03*
X46640000Y-43715000D03*
%TD*%
D38*
%TO.C,SHUT_M1*%
X54740000Y-130770000D03*
D39*
X54740000Y-122470000D03*
D40*
X54740000Y-120050000D03*
%TD*%
%TO.C,SHUT_P1*%
X54740000Y-35650000D03*
D39*
X54740000Y-33230000D03*
D38*
X54740000Y-24930000D03*
%TD*%
D41*
%TO.C,R6*%
X37730000Y-71020000D03*
X37730000Y-72720000D03*
%TD*%
D28*
%TO.C,R7*%
X37720000Y-76140000D03*
X37720000Y-74440000D03*
%TD*%
D42*
%TO.C,REF\u002A\u002A*%
X49440000Y-116750000D03*
X48040000Y-116750000D03*
X49440000Y-117350000D03*
X48040000Y-117350000D03*
X49440000Y-117950000D03*
X48040000Y-117950000D03*
%TD*%
D43*
%TO.C,C12*%
X38490000Y-69050000D03*
X38490000Y-66050000D03*
%TD*%
D44*
%TO.C,C13*%
X35040000Y-40800000D03*
X38040000Y-40800000D03*
%TD*%
%TO.C,C14*%
X35040000Y-38500000D03*
X38040000Y-38500000D03*
%TD*%
D45*
%TO.C,C15*%
X36190000Y-66050000D03*
X36190000Y-69050000D03*
%TD*%
D44*
%TO.C,C16*%
X35040000Y-43100000D03*
X38040000Y-43100000D03*
%TD*%
D43*
%TO.C,C17*%
X43090000Y-69050000D03*
X43090000Y-66050000D03*
%TD*%
D44*
%TO.C,C18*%
X35590000Y-45400000D03*
X38590000Y-45400000D03*
%TD*%
D43*
%TO.C,C19*%
X40790000Y-69050000D03*
X40790000Y-66050000D03*
%TD*%
D46*
%TO.C,Q1*%
X56740000Y-113350000D03*
X58740000Y-112400000D03*
X58740000Y-114300000D03*
%TD*%
%TO.C,Q2*%
X56740000Y-117350000D03*
X58740000Y-116400000D03*
X58740000Y-118300000D03*
%TD*%
D47*
%TO.C,R8*%
X50490000Y-35550000D03*
X52190000Y-35550000D03*
%TD*%
D28*
%TO.C,R9*%
X55140000Y-113900000D03*
X55140000Y-112200000D03*
%TD*%
D47*
%TO.C,R10*%
X58740000Y-120050000D03*
X57040000Y-120050000D03*
%TD*%
D28*
%TO.C,R11*%
X55040000Y-118400000D03*
X55040000Y-116700000D03*
%TD*%
D42*
%TO.C,REF\u002A\u002A*%
X49440000Y-66250000D03*
X48040000Y-66250000D03*
X49440000Y-66850000D03*
X48040000Y-66850000D03*
X49440000Y-67450000D03*
X48040000Y-67450000D03*
%TD*%
%TO.C,REF\u002A\u002A*%
X49440000Y-83250000D03*
X48040000Y-83250000D03*
X49440000Y-83850000D03*
X48040000Y-83850000D03*
X49440000Y-84450000D03*
X48040000Y-84450000D03*
%TD*%
D27*
%TO.C,J3*%
X51040000Y-117500000D03*
D48*
X51040000Y-120040000D03*
%TD*%
D49*
%TO.C,C2*%
X43940000Y-59350000D03*
X45840000Y-59350000D03*
%TD*%
D50*
%TO.C,C11*%
X45140000Y-53400000D03*
X45140000Y-55300000D03*
%TD*%
D51*
%TO.C,C6*%
X34690000Y-51100000D03*
X34690000Y-52600000D03*
%TD*%
D23*
%TO.C,C8*%
X37390000Y-63550000D03*
X35890000Y-63550000D03*
%TD*%
D52*
%TO.C,R2*%
X36290000Y-54150000D03*
X34590000Y-54150000D03*
%TD*%
D28*
%TO.C,R3*%
X36290000Y-50950000D03*
X36290000Y-52650000D03*
%TD*%
D47*
%TO.C,R4*%
X37490000Y-61950000D03*
X35790000Y-61950000D03*
%TD*%
D52*
%TO.C,R5*%
X35790000Y-60350000D03*
X37490000Y-60350000D03*
%TD*%
D47*
%TO.C,R12*%
X34640000Y-49600000D03*
X36340000Y-49600000D03*
%TD*%
D42*
%TO.C,REF\u002A\u002A*%
X48040000Y-40450000D03*
X49440000Y-40450000D03*
X48040000Y-39850000D03*
X49440000Y-39850000D03*
X48040000Y-39250000D03*
X49440000Y-39250000D03*
%TD*%
D53*
%TO.C,J1*%
X38840000Y-79440000D03*
X38840000Y-85220000D03*
D54*
X39960000Y-79130000D03*
X39960000Y-79930000D03*
D55*
X39960000Y-81080000D03*
X39960000Y-82080000D03*
X39960000Y-82580000D03*
X39960000Y-83580000D03*
D54*
X39960000Y-84730000D03*
X39960000Y-85530000D03*
X39960000Y-85530000D03*
X39960000Y-84730000D03*
D55*
X39960000Y-84080000D03*
X39960000Y-83080000D03*
X39960000Y-81580000D03*
X39960000Y-80580000D03*
D54*
X39960000Y-79930000D03*
X39960000Y-79130000D03*
D56*
X39360000Y-78010000D03*
D57*
X35160000Y-78010000D03*
D56*
X39360000Y-86650000D03*
D57*
X35160000Y-86650000D03*
%TD*%
D58*
%TO.C,T9*%
X39840000Y-41190000D03*
X40490000Y-39640000D03*
X40490000Y-42740000D03*
X42040000Y-38990000D03*
D59*
X42040000Y-41190000D03*
D58*
X42040000Y-43390000D03*
X43590000Y-39640000D03*
X43590000Y-42740000D03*
X44240000Y-41190000D03*
%TD*%
D60*
%TO.C,T7*%
X54740000Y-37450000D03*
D61*
X54740000Y-37450000D03*
%TD*%
D60*
%TO.C,T8*%
X42740000Y-37350000D03*
D61*
X42740000Y-37350000D03*
%TD*%
D62*
%TO.C,D3*%
X35490000Y-70900000D03*
X35490000Y-72800000D03*
%TD*%
%TO.C,D4*%
X35500000Y-76300000D03*
X35500000Y-74400000D03*
%TD*%
D63*
%TO.C,J4*%
X42970000Y-117440000D03*
D64*
X42970000Y-113240000D03*
D63*
X34330000Y-117440000D03*
D64*
X34330000Y-113240000D03*
D65*
X35450000Y-112640000D03*
X36250000Y-112640000D03*
D66*
X36900000Y-112640000D03*
X37900000Y-112640000D03*
X39400000Y-112640000D03*
X40400000Y-112640000D03*
D65*
X41050000Y-112640000D03*
X41850000Y-112640000D03*
X41850000Y-112640000D03*
X41050000Y-112640000D03*
D66*
X39900000Y-112640000D03*
X38900000Y-112640000D03*
X38400000Y-112640000D03*
X37400000Y-112640000D03*
D65*
X36250000Y-112640000D03*
X35450000Y-112640000D03*
D53*
X41540000Y-113760000D03*
X35760000Y-113760000D03*
%TD*%
D67*
%TO.C,*%
X66940000Y-71850000D03*
%TD*%
D68*
%TO.C,*%
X66620000Y-125587500D03*
%TD*%
%TO.C,*%
X66645000Y-30112500D03*
%TD*%
D42*
%TO.C,REF\u002A\u002A*%
X59910000Y-40350000D03*
X61310000Y-40350000D03*
X59910000Y-39750000D03*
X61310000Y-39750000D03*
X59910000Y-39150000D03*
X61310000Y-39150000D03*
%TD*%
D67*
%TO.C,*%
X66940000Y-75350000D03*
%TD*%
D42*
%TO.C,REF\u002A\u002A*%
X61270000Y-116660000D03*
X59870000Y-116660000D03*
X61270000Y-117260000D03*
X59870000Y-117260000D03*
X61270000Y-117860000D03*
X59870000Y-117860000D03*
%TD*%
%TO.C,REF\u002A\u002A*%
X61290000Y-83140000D03*
X59890000Y-83140000D03*
X61290000Y-83740000D03*
X59890000Y-83740000D03*
X61290000Y-84340000D03*
X59890000Y-84340000D03*
%TD*%
%TO.C,REF\u002A\u002A*%
X61330000Y-66160000D03*
X59930000Y-66160000D03*
X61330000Y-66760000D03*
X59930000Y-66760000D03*
X61330000Y-67360000D03*
X59930000Y-67360000D03*
%TD*%
D48*
%TO.C,J2*%
X37940000Y-89450000D03*
D27*
X35400000Y-89450000D03*
%TD*%
D60*
%TO.C,T1*%
X51240000Y-115450000D03*
%TD*%
%TO.C,T2*%
X46240000Y-115450000D03*
%TD*%
%TO.C,T3*%
X46440000Y-37450000D03*
%TD*%
%TO.C,T4*%
X51340000Y-37450000D03*
%TD*%
%TO.C,T5*%
X46440000Y-41550000D03*
%TD*%
%TO.C,T6*%
X51240000Y-41550000D03*
%TD*%
%LPD*%
M02*
