%TF.GenerationSoftware,KiCad,Pcbnew,8.0.3*%
%TF.CreationDate,2024-07-16T16:01:19-03:00*%
%TF.ProjectId,IPS2,49505332-2e6b-4696-9361-645f70636258,rev?*%
%TF.SameCoordinates,Original*%
%TF.FileFunction,Soldermask,Bot*%
%TF.FilePolarity,Negative*%
%FSLAX46Y46*%
G04 Gerber Fmt 4.6, Leading zero omitted, Abs format (unit mm)*
G04 Created by KiCad (PCBNEW 8.0.3) date 2024-07-16 16:01:19*
%MOMM*%
%LPD*%
G01*
G04 APERTURE LIST*
G04 APERTURE END LIST*
G36*
X55249817Y-129820482D02*
G01*
X55312073Y-129822928D01*
X55317684Y-129823816D01*
X55333116Y-129824575D01*
X55374715Y-129832849D01*
X55461683Y-129846624D01*
X55489653Y-129855712D01*
X55515770Y-129860907D01*
X55552625Y-129876173D01*
X55603398Y-129892670D01*
X55650959Y-129916903D01*
X55687827Y-129932175D01*
X55709978Y-129946976D01*
X55736171Y-129960322D01*
X55807375Y-130012054D01*
X55842674Y-130035640D01*
X55850206Y-130043172D01*
X55856723Y-130047907D01*
X55962092Y-130153276D01*
X55966826Y-130159792D01*
X55974360Y-130167326D01*
X55997948Y-130202629D01*
X56049677Y-130273828D01*
X56063021Y-130300018D01*
X56077825Y-130322173D01*
X56093098Y-130359045D01*
X56117329Y-130406601D01*
X56133823Y-130457366D01*
X56149093Y-130494230D01*
X56154289Y-130520352D01*
X56163375Y-130548316D01*
X56177147Y-130635268D01*
X56185425Y-130676884D01*
X56185425Y-130687531D01*
X56186686Y-130695493D01*
X56186686Y-130844506D01*
X56185425Y-130852467D01*
X56185425Y-130863116D01*
X56177146Y-130904735D01*
X56163375Y-130991683D01*
X56154289Y-131019645D01*
X56149093Y-131045770D01*
X56133822Y-131082637D01*
X56117329Y-131133398D01*
X56093100Y-131180948D01*
X56077825Y-131217827D01*
X56063019Y-131239984D01*
X56049677Y-131266171D01*
X55997957Y-131337358D01*
X55974360Y-131372674D01*
X55966823Y-131380210D01*
X55962092Y-131386723D01*
X55856723Y-131492092D01*
X55850210Y-131496823D01*
X55842674Y-131504360D01*
X55807358Y-131527957D01*
X55736171Y-131579677D01*
X55709984Y-131593019D01*
X55687827Y-131607825D01*
X55650948Y-131623100D01*
X55603398Y-131647329D01*
X55552637Y-131663822D01*
X55515770Y-131679093D01*
X55489645Y-131684289D01*
X55461683Y-131693375D01*
X55374743Y-131707144D01*
X55333116Y-131715425D01*
X55322174Y-131715470D01*
X55314313Y-131716716D01*
X54242282Y-131719992D01*
X54242246Y-131719990D01*
X54240000Y-131720000D01*
X54230084Y-131719512D01*
X54167926Y-131717071D01*
X54162322Y-131716183D01*
X54146884Y-131715425D01*
X54105263Y-131707146D01*
X54018316Y-131693375D01*
X53990352Y-131684289D01*
X53964230Y-131679093D01*
X53927366Y-131663823D01*
X53876601Y-131647329D01*
X53829045Y-131623098D01*
X53792173Y-131607825D01*
X53770018Y-131593021D01*
X53743828Y-131579677D01*
X53672629Y-131527948D01*
X53637326Y-131504360D01*
X53629792Y-131496826D01*
X53623276Y-131492092D01*
X53517907Y-131386723D01*
X53513172Y-131380206D01*
X53505640Y-131372674D01*
X53482054Y-131337375D01*
X53430322Y-131266171D01*
X53416976Y-131239978D01*
X53402175Y-131217827D01*
X53386903Y-131180959D01*
X53362670Y-131133398D01*
X53346173Y-131082625D01*
X53330907Y-131045770D01*
X53325712Y-131019653D01*
X53316624Y-130991683D01*
X53302851Y-130904725D01*
X53294575Y-130863116D01*
X53294575Y-130852467D01*
X53293314Y-130844506D01*
X53293314Y-130695493D01*
X53294575Y-130687531D01*
X53294575Y-130676884D01*
X53302850Y-130635278D01*
X53316624Y-130548316D01*
X53325712Y-130520344D01*
X53330907Y-130494230D01*
X53346171Y-130457377D01*
X53362670Y-130406601D01*
X53386906Y-130359035D01*
X53402175Y-130322173D01*
X53416973Y-130300024D01*
X53430322Y-130273828D01*
X53482062Y-130202612D01*
X53505640Y-130167326D01*
X53513170Y-130159795D01*
X53517907Y-130153276D01*
X53623276Y-130047907D01*
X53629795Y-130043170D01*
X53637326Y-130035640D01*
X53672612Y-130012062D01*
X53743828Y-129960322D01*
X53770024Y-129946973D01*
X53792173Y-129932175D01*
X53829035Y-129916906D01*
X53876601Y-129892670D01*
X53927377Y-129876171D01*
X53964230Y-129860907D01*
X53990344Y-129855712D01*
X54018316Y-129846624D01*
X54105284Y-129832849D01*
X54146884Y-129824575D01*
X54157817Y-129824529D01*
X54165686Y-129823283D01*
X55237717Y-129820007D01*
X55237775Y-129820009D01*
X55240000Y-129820000D01*
X55249817Y-129820482D01*
G37*
G36*
X67145791Y-122380314D02*
G01*
X67489467Y-122455963D01*
X67822949Y-122568326D01*
X68142327Y-122716086D01*
X68443858Y-122897511D01*
X68724005Y-123110473D01*
X68979485Y-123352477D01*
X69207302Y-123620684D01*
X69404786Y-123911950D01*
X69569620Y-124222860D01*
X69699873Y-124549770D01*
X69794017Y-124888846D01*
X69850948Y-125236113D01*
X69870000Y-125587500D01*
X69850948Y-125938887D01*
X69794017Y-126286154D01*
X69699873Y-126625230D01*
X69569620Y-126952140D01*
X69404786Y-127263050D01*
X69207302Y-127554316D01*
X68979485Y-127822523D01*
X68724005Y-128064527D01*
X68443858Y-128277489D01*
X68142327Y-128458914D01*
X67822949Y-128606674D01*
X67489467Y-128719037D01*
X67145791Y-128794686D01*
X66795951Y-128832734D01*
X66444049Y-128832734D01*
X66094209Y-128794686D01*
X65750533Y-128719037D01*
X65417051Y-128606674D01*
X65097673Y-128458914D01*
X64796142Y-128277489D01*
X64515995Y-128064527D01*
X64260515Y-127822523D01*
X64032698Y-127554316D01*
X63835214Y-127263050D01*
X63670380Y-126952140D01*
X63540127Y-126625230D01*
X63445983Y-126286154D01*
X63389052Y-125938887D01*
X63370000Y-125587500D01*
X63389052Y-125236113D01*
X63445983Y-124888846D01*
X63540127Y-124549770D01*
X63670380Y-124222860D01*
X63835214Y-123911950D01*
X64032698Y-123620684D01*
X64260515Y-123352477D01*
X64515995Y-123110473D01*
X64796142Y-122897511D01*
X65097673Y-122716086D01*
X65417051Y-122568326D01*
X65750533Y-122455963D01*
X66094209Y-122380314D01*
X66444049Y-122342266D01*
X66795951Y-122342266D01*
X67145791Y-122380314D01*
G37*
G36*
X55199798Y-121470481D02*
G01*
X55265996Y-121473082D01*
X55271956Y-121474026D01*
X55288017Y-121474815D01*
X55331320Y-121483428D01*
X55423355Y-121498006D01*
X55452956Y-121507623D01*
X55480285Y-121513060D01*
X55518846Y-121529032D01*
X55572532Y-121546476D01*
X55622828Y-121572103D01*
X55661397Y-121588079D01*
X55684567Y-121603560D01*
X55712301Y-121617692D01*
X55787696Y-121672470D01*
X55824393Y-121696990D01*
X55832224Y-121704821D01*
X55839191Y-121709883D01*
X55950116Y-121820808D01*
X55955177Y-121827774D01*
X55963010Y-121835607D01*
X55987532Y-121872308D01*
X56042307Y-121947698D01*
X56056437Y-121975429D01*
X56071921Y-121998603D01*
X56087898Y-122037176D01*
X56113523Y-122087467D01*
X56130964Y-122141145D01*
X56146940Y-122179715D01*
X56152377Y-122207049D01*
X56161993Y-122236644D01*
X56176567Y-122328661D01*
X56185185Y-122371983D01*
X56185185Y-122383066D01*
X56186532Y-122391571D01*
X56186532Y-122548428D01*
X56185185Y-122556932D01*
X56185185Y-122568017D01*
X56176567Y-122611341D01*
X56161993Y-122703355D01*
X56152377Y-122732948D01*
X56146940Y-122760285D01*
X56130962Y-122798858D01*
X56113523Y-122852532D01*
X56087900Y-122902818D01*
X56071921Y-122941397D01*
X56056434Y-122964573D01*
X56042307Y-122992301D01*
X55987541Y-123067679D01*
X55963010Y-123104393D01*
X55955174Y-123112228D01*
X55950116Y-123119191D01*
X55839191Y-123230116D01*
X55832228Y-123235174D01*
X55824393Y-123243010D01*
X55787679Y-123267541D01*
X55712301Y-123322307D01*
X55684573Y-123336434D01*
X55661397Y-123351921D01*
X55622818Y-123367900D01*
X55572532Y-123393523D01*
X55518858Y-123410962D01*
X55480285Y-123426940D01*
X55452948Y-123432377D01*
X55423355Y-123441993D01*
X55331352Y-123456565D01*
X55288017Y-123465185D01*
X55276579Y-123465240D01*
X55268209Y-123466566D01*
X54292249Y-123469991D01*
X54292207Y-123469989D01*
X54290000Y-123470000D01*
X54280103Y-123469513D01*
X54214003Y-123466917D01*
X54208051Y-123465974D01*
X54191983Y-123465185D01*
X54148658Y-123456567D01*
X54056644Y-123441993D01*
X54027049Y-123432377D01*
X53999715Y-123426940D01*
X53961145Y-123410964D01*
X53907467Y-123393523D01*
X53857176Y-123367898D01*
X53818603Y-123351921D01*
X53795429Y-123336437D01*
X53767698Y-123322307D01*
X53692308Y-123267532D01*
X53655607Y-123243010D01*
X53647774Y-123235177D01*
X53640808Y-123230116D01*
X53529883Y-123119191D01*
X53524821Y-123112224D01*
X53516990Y-123104393D01*
X53492470Y-123067696D01*
X53437692Y-122992301D01*
X53423560Y-122964567D01*
X53408079Y-122941397D01*
X53392103Y-122902828D01*
X53366476Y-122852532D01*
X53349032Y-122798846D01*
X53333060Y-122760285D01*
X53327623Y-122732956D01*
X53318006Y-122703355D01*
X53303430Y-122611331D01*
X53294815Y-122568017D01*
X53294815Y-122556932D01*
X53293468Y-122548428D01*
X53293468Y-122391571D01*
X53294815Y-122383066D01*
X53294815Y-122371983D01*
X53303430Y-122328671D01*
X53318006Y-122236644D01*
X53327624Y-122207041D01*
X53333060Y-122179715D01*
X53349031Y-122141156D01*
X53366476Y-122087467D01*
X53392105Y-122037165D01*
X53408079Y-121998603D01*
X53423558Y-121975436D01*
X53437692Y-121947698D01*
X53492478Y-121872290D01*
X53516990Y-121835607D01*
X53524818Y-121827778D01*
X53529883Y-121820808D01*
X53640808Y-121709883D01*
X53647778Y-121704818D01*
X53655607Y-121696990D01*
X53692290Y-121672478D01*
X53767698Y-121617692D01*
X53795436Y-121603558D01*
X53818603Y-121588079D01*
X53857165Y-121572105D01*
X53907467Y-121546476D01*
X53961156Y-121529031D01*
X53999715Y-121513060D01*
X54027041Y-121507624D01*
X54056644Y-121498006D01*
X54148676Y-121483429D01*
X54191983Y-121474815D01*
X54203412Y-121474759D01*
X54211790Y-121473433D01*
X55187750Y-121470008D01*
X55187814Y-121470010D01*
X55190000Y-121470000D01*
X55199798Y-121470481D01*
G37*
G36*
X51906043Y-118993191D02*
G01*
X51938727Y-118997494D01*
X51946948Y-119001327D01*
X51966537Y-119005224D01*
X51992480Y-119022559D01*
X52003608Y-119027748D01*
X52010378Y-119034518D01*
X52031421Y-119048579D01*
X52045481Y-119069621D01*
X52052251Y-119076391D01*
X52057438Y-119087516D01*
X52074776Y-119113463D01*
X52078672Y-119133053D01*
X52082505Y-119141272D01*
X52086806Y-119173945D01*
X52090000Y-119190000D01*
X52090000Y-120890000D01*
X52086805Y-120906058D01*
X52082505Y-120938727D01*
X52078673Y-120946944D01*
X52074776Y-120966537D01*
X52057437Y-120992485D01*
X52052251Y-121003608D01*
X52045483Y-121010375D01*
X52031421Y-121031421D01*
X52010375Y-121045483D01*
X52003608Y-121052251D01*
X51992485Y-121057437D01*
X51966537Y-121074776D01*
X51946944Y-121078673D01*
X51938727Y-121082505D01*
X51906056Y-121086806D01*
X51890000Y-121090000D01*
X50190000Y-121090000D01*
X50173943Y-121086806D01*
X50141272Y-121082505D01*
X50133053Y-121078672D01*
X50113463Y-121074776D01*
X50087516Y-121057438D01*
X50076391Y-121052251D01*
X50069621Y-121045481D01*
X50048579Y-121031421D01*
X50034518Y-121010378D01*
X50027748Y-121003608D01*
X50022559Y-120992480D01*
X50005224Y-120966537D01*
X50001327Y-120946948D01*
X49997494Y-120938727D01*
X49993190Y-120906041D01*
X49990000Y-120890000D01*
X49990000Y-119190000D01*
X49993190Y-119173958D01*
X49997494Y-119141272D01*
X50001327Y-119133049D01*
X50005224Y-119113463D01*
X50022557Y-119087521D01*
X50027748Y-119076391D01*
X50034520Y-119069618D01*
X50048579Y-119048579D01*
X50069618Y-119034520D01*
X50076391Y-119027748D01*
X50087521Y-119022557D01*
X50113463Y-119005224D01*
X50133049Y-119001327D01*
X50141272Y-118997494D01*
X50173960Y-118993190D01*
X50190000Y-118990000D01*
X51890000Y-118990000D01*
X51906043Y-118993191D01*
G37*
G36*
X55149786Y-119050480D02*
G01*
X55215996Y-119053082D01*
X55221956Y-119054026D01*
X55238017Y-119054815D01*
X55281320Y-119063428D01*
X55373355Y-119078006D01*
X55402956Y-119087623D01*
X55430285Y-119093060D01*
X55468846Y-119109032D01*
X55522532Y-119126476D01*
X55572828Y-119152103D01*
X55611397Y-119168079D01*
X55634567Y-119183560D01*
X55662301Y-119197692D01*
X55737696Y-119252470D01*
X55774393Y-119276990D01*
X55782224Y-119284821D01*
X55789191Y-119289883D01*
X55900116Y-119400808D01*
X55905177Y-119407774D01*
X55913010Y-119415607D01*
X55937532Y-119452308D01*
X55992307Y-119527698D01*
X56006437Y-119555429D01*
X56021921Y-119578603D01*
X56037898Y-119617176D01*
X56063523Y-119667467D01*
X56080964Y-119721145D01*
X56096940Y-119759715D01*
X56102377Y-119787049D01*
X56111993Y-119816644D01*
X56126567Y-119908661D01*
X56135185Y-119951983D01*
X56135185Y-119963066D01*
X56136532Y-119971571D01*
X56136532Y-120128428D01*
X56135185Y-120136932D01*
X56135185Y-120148017D01*
X56126567Y-120191341D01*
X56111993Y-120283355D01*
X56102377Y-120312948D01*
X56096940Y-120340285D01*
X56080962Y-120378858D01*
X56063523Y-120432532D01*
X56037900Y-120482818D01*
X56021921Y-120521397D01*
X56006434Y-120544573D01*
X55992307Y-120572301D01*
X55937541Y-120647679D01*
X55913010Y-120684393D01*
X55905174Y-120692228D01*
X55900116Y-120699191D01*
X55789191Y-120810116D01*
X55782228Y-120815174D01*
X55774393Y-120823010D01*
X55737679Y-120847541D01*
X55662301Y-120902307D01*
X55634573Y-120916434D01*
X55611397Y-120931921D01*
X55572818Y-120947900D01*
X55522532Y-120973523D01*
X55468858Y-120990962D01*
X55430285Y-121006940D01*
X55402948Y-121012377D01*
X55373355Y-121021993D01*
X55281346Y-121036566D01*
X55238017Y-121045185D01*
X55226541Y-121045246D01*
X55218186Y-121046570D01*
X54342220Y-121049990D01*
X54342177Y-121049988D01*
X54340000Y-121050000D01*
X54330115Y-121049514D01*
X54264003Y-121046917D01*
X54258051Y-121045974D01*
X54241983Y-121045185D01*
X54198658Y-121036567D01*
X54106644Y-121021993D01*
X54077049Y-121012377D01*
X54049715Y-121006940D01*
X54011145Y-120990964D01*
X53957467Y-120973523D01*
X53907176Y-120947898D01*
X53868603Y-120931921D01*
X53845429Y-120916437D01*
X53817698Y-120902307D01*
X53742308Y-120847532D01*
X53705607Y-120823010D01*
X53697774Y-120815177D01*
X53690808Y-120810116D01*
X53579883Y-120699191D01*
X53574821Y-120692224D01*
X53566990Y-120684393D01*
X53542470Y-120647696D01*
X53487692Y-120572301D01*
X53473560Y-120544567D01*
X53458079Y-120521397D01*
X53442103Y-120482828D01*
X53416476Y-120432532D01*
X53399032Y-120378846D01*
X53383060Y-120340285D01*
X53377623Y-120312956D01*
X53368006Y-120283355D01*
X53353430Y-120191331D01*
X53344815Y-120148017D01*
X53344815Y-120136932D01*
X53343468Y-120128428D01*
X53343468Y-119971571D01*
X53344815Y-119963066D01*
X53344815Y-119951983D01*
X53353430Y-119908671D01*
X53368006Y-119816644D01*
X53377624Y-119787041D01*
X53383060Y-119759715D01*
X53399031Y-119721156D01*
X53416476Y-119667467D01*
X53442105Y-119617165D01*
X53458079Y-119578603D01*
X53473558Y-119555436D01*
X53487692Y-119527698D01*
X53542478Y-119452290D01*
X53566990Y-119415607D01*
X53574818Y-119407778D01*
X53579883Y-119400808D01*
X53690808Y-119289883D01*
X53697778Y-119284818D01*
X53705607Y-119276990D01*
X53742290Y-119252478D01*
X53817698Y-119197692D01*
X53845436Y-119183558D01*
X53868603Y-119168079D01*
X53907165Y-119152105D01*
X53957467Y-119126476D01*
X54011156Y-119109031D01*
X54049715Y-119093060D01*
X54077041Y-119087624D01*
X54106644Y-119078006D01*
X54198681Y-119063428D01*
X54241983Y-119054815D01*
X54253450Y-119054753D01*
X54261813Y-119053429D01*
X55137779Y-119050009D01*
X55137844Y-119050011D01*
X55140000Y-119050000D01*
X55149786Y-119050480D01*
G37*
G36*
X52006043Y-114503191D02*
G01*
X52038727Y-114507494D01*
X52046948Y-114511327D01*
X52066537Y-114515224D01*
X52092480Y-114532559D01*
X52103608Y-114537748D01*
X52110378Y-114544518D01*
X52131421Y-114558579D01*
X52145481Y-114579621D01*
X52152251Y-114586391D01*
X52157438Y-114597516D01*
X52174776Y-114623463D01*
X52178672Y-114643053D01*
X52182505Y-114651272D01*
X52186806Y-114683945D01*
X52190000Y-114700000D01*
X52190000Y-116200000D01*
X52186805Y-116216058D01*
X52182505Y-116248727D01*
X52178673Y-116256944D01*
X52174776Y-116276537D01*
X52157437Y-116302485D01*
X52152251Y-116313608D01*
X52145483Y-116320375D01*
X52131421Y-116341421D01*
X52110375Y-116355483D01*
X52103608Y-116362251D01*
X52092485Y-116367437D01*
X52066537Y-116384776D01*
X52046944Y-116388673D01*
X52038727Y-116392505D01*
X52006055Y-116396806D01*
X51990000Y-116400000D01*
X51593405Y-116400000D01*
X51541740Y-116581582D01*
X51562457Y-116594409D01*
X51623349Y-116626957D01*
X51648927Y-116647949D01*
X51672440Y-116662507D01*
X51724548Y-116710009D01*
X51782462Y-116757538D01*
X51799620Y-116778446D01*
X51815564Y-116792980D01*
X51861838Y-116854258D01*
X51913043Y-116916651D01*
X51922947Y-116935180D01*
X51932273Y-116947530D01*
X51969372Y-117022034D01*
X52010074Y-117098182D01*
X52014415Y-117112492D01*
X52018596Y-117120889D01*
X52043295Y-117207697D01*
X52069825Y-117295155D01*
X52070696Y-117304003D01*
X52071594Y-117307158D01*
X52080933Y-117407944D01*
X52090000Y-117500000D01*
X52080932Y-117592063D01*
X52071594Y-117692841D01*
X52070696Y-117695994D01*
X52069825Y-117704845D01*
X52043290Y-117792317D01*
X52018596Y-117879110D01*
X52014415Y-117887504D01*
X52010074Y-117901818D01*
X51969364Y-117977979D01*
X51932273Y-118052469D01*
X51922949Y-118064815D01*
X51913043Y-118083349D01*
X51861829Y-118145752D01*
X51815564Y-118207019D01*
X51799624Y-118221549D01*
X51782462Y-118242462D01*
X51724535Y-118290000D01*
X51672442Y-118337490D01*
X51648934Y-118352045D01*
X51623349Y-118373043D01*
X51562457Y-118405590D01*
X51507786Y-118439442D01*
X51476321Y-118451631D01*
X51441818Y-118470074D01*
X51381426Y-118488393D01*
X51327202Y-118509400D01*
X51288049Y-118516719D01*
X51244845Y-118529825D01*
X51187985Y-118535425D01*
X51136830Y-118544988D01*
X51090889Y-118544988D01*
X51040000Y-118550000D01*
X50989111Y-118544988D01*
X50943170Y-118544988D01*
X50892014Y-118535424D01*
X50835155Y-118529825D01*
X50791952Y-118516719D01*
X50752797Y-118509400D01*
X50698569Y-118488392D01*
X50638182Y-118470074D01*
X50603680Y-118451632D01*
X50572213Y-118439442D01*
X50517535Y-118405586D01*
X50456651Y-118373043D01*
X50431068Y-118352047D01*
X50407557Y-118337490D01*
X50355454Y-118289992D01*
X50297538Y-118242462D01*
X50280378Y-118221553D01*
X50264435Y-118207019D01*
X50218158Y-118145737D01*
X50166957Y-118083349D01*
X50157053Y-118064820D01*
X50147726Y-118052469D01*
X50110620Y-117977951D01*
X50069926Y-117901818D01*
X50065585Y-117887509D01*
X50061403Y-117879110D01*
X50036693Y-117792264D01*
X50010175Y-117704845D01*
X50009303Y-117696000D01*
X50008405Y-117692841D01*
X49999050Y-117591891D01*
X49990000Y-117500000D01*
X49999049Y-117408116D01*
X50008405Y-117307158D01*
X50009304Y-117303998D01*
X50010175Y-117295155D01*
X50036688Y-117207750D01*
X50061403Y-117120889D01*
X50065586Y-117112487D01*
X50069926Y-117098182D01*
X50110613Y-117022061D01*
X50147726Y-116947530D01*
X50157054Y-116935176D01*
X50166957Y-116916651D01*
X50218148Y-116854274D01*
X50264435Y-116792980D01*
X50280382Y-116778442D01*
X50297538Y-116757538D01*
X50355441Y-116710017D01*
X50407559Y-116662507D01*
X50431077Y-116647944D01*
X50456651Y-116626957D01*
X50517507Y-116594428D01*
X50550083Y-116574258D01*
X50513017Y-116401931D01*
X50498325Y-116400000D01*
X50490000Y-116400000D01*
X50473785Y-116396774D01*
X50441261Y-116392500D01*
X50433053Y-116388672D01*
X50413463Y-116384776D01*
X50387516Y-116367439D01*
X50376391Y-116362251D01*
X50369621Y-116355481D01*
X50348579Y-116341421D01*
X50334518Y-116320378D01*
X50327748Y-116313608D01*
X50322559Y-116302480D01*
X50305224Y-116276537D01*
X50301327Y-116256948D01*
X50297494Y-116248727D01*
X50293190Y-116216041D01*
X50290000Y-116200000D01*
X50290000Y-114700000D01*
X50293190Y-114683958D01*
X50297494Y-114651272D01*
X50301327Y-114643049D01*
X50305224Y-114623463D01*
X50322557Y-114597521D01*
X50327748Y-114586391D01*
X50334520Y-114579618D01*
X50348579Y-114558579D01*
X50369618Y-114544520D01*
X50376391Y-114537748D01*
X50387521Y-114532557D01*
X50413463Y-114515224D01*
X50433049Y-114511327D01*
X50441272Y-114507494D01*
X50473960Y-114503190D01*
X50490000Y-114500000D01*
X51990000Y-114500000D01*
X52006043Y-114503191D01*
G37*
G36*
X34533199Y-116370142D02*
G01*
X34659978Y-116422655D01*
X34774075Y-116498893D01*
X34871107Y-116595925D01*
X34947345Y-116710022D01*
X34999858Y-116836801D01*
X35026629Y-116971388D01*
X35030000Y-117840000D01*
X35026629Y-117908612D01*
X34999858Y-118043199D01*
X34947345Y-118169978D01*
X34871107Y-118284075D01*
X34774075Y-118381107D01*
X34659978Y-118457345D01*
X34533199Y-118509858D01*
X34398612Y-118536629D01*
X34261388Y-118536629D01*
X34126801Y-118509858D01*
X34000022Y-118457345D01*
X33885925Y-118381107D01*
X33788893Y-118284075D01*
X33712655Y-118169978D01*
X33660142Y-118043199D01*
X33633371Y-117908612D01*
X33630000Y-117040000D01*
X33633371Y-116971388D01*
X33660142Y-116836801D01*
X33712655Y-116710022D01*
X33788893Y-116595925D01*
X33885925Y-116498893D01*
X34000022Y-116422655D01*
X34126801Y-116370142D01*
X34261388Y-116343371D01*
X34398612Y-116343371D01*
X34533199Y-116370142D01*
G37*
G36*
X43173199Y-116370142D02*
G01*
X43299978Y-116422655D01*
X43414075Y-116498893D01*
X43511107Y-116595925D01*
X43587345Y-116710022D01*
X43639858Y-116836801D01*
X43666629Y-116971388D01*
X43670000Y-117840000D01*
X43666629Y-117908612D01*
X43639858Y-118043199D01*
X43587345Y-118169978D01*
X43511107Y-118284075D01*
X43414075Y-118381107D01*
X43299978Y-118457345D01*
X43173199Y-118509858D01*
X43038612Y-118536629D01*
X42901388Y-118536629D01*
X42766801Y-118509858D01*
X42640022Y-118457345D01*
X42525925Y-118381107D01*
X42428893Y-118284075D01*
X42352655Y-118169978D01*
X42300142Y-118043199D01*
X42273371Y-117908612D01*
X42270000Y-117040000D01*
X42273371Y-116971388D01*
X42300142Y-116836801D01*
X42352655Y-116710022D01*
X42428893Y-116595925D01*
X42525925Y-116498893D01*
X42640022Y-116422655D01*
X42766801Y-116370142D01*
X42901388Y-116343371D01*
X43038612Y-116343371D01*
X43173199Y-116370142D01*
G37*
G36*
X48086218Y-117758193D02*
G01*
X48116919Y-117764300D01*
X48133575Y-117775429D01*
X48139536Y-117777599D01*
X48150146Y-117786502D01*
X48182128Y-117807872D01*
X48190441Y-117820313D01*
X48192499Y-117822040D01*
X48198244Y-117831991D01*
X48225700Y-117873081D01*
X48241000Y-117950000D01*
X48225700Y-118026919D01*
X48198240Y-118068014D01*
X48192499Y-118077959D01*
X48190442Y-118079684D01*
X48182128Y-118092128D01*
X48150141Y-118113501D01*
X48139536Y-118122400D01*
X48133578Y-118124568D01*
X48116919Y-118135700D01*
X48086217Y-118141806D01*
X48074568Y-118146047D01*
X48064901Y-118146047D01*
X48040000Y-118151000D01*
X48015099Y-118146047D01*
X48005432Y-118146047D01*
X47993782Y-118141806D01*
X47963081Y-118135700D01*
X47946422Y-118124569D01*
X47940463Y-118122400D01*
X47929854Y-118113498D01*
X47897872Y-118092128D01*
X47889558Y-118079686D01*
X47887500Y-118077959D01*
X47881752Y-118068003D01*
X47854300Y-118026919D01*
X47839000Y-117950000D01*
X47854300Y-117873081D01*
X47881750Y-117831998D01*
X47887501Y-117822039D01*
X47889560Y-117820310D01*
X47897872Y-117807872D01*
X47929847Y-117786506D01*
X47940464Y-117777598D01*
X47946428Y-117775427D01*
X47963081Y-117764300D01*
X47993769Y-117758195D01*
X48039996Y-117741370D01*
X48086218Y-117758193D01*
G37*
G36*
X49486218Y-117758193D02*
G01*
X49516919Y-117764300D01*
X49533575Y-117775429D01*
X49539536Y-117777599D01*
X49550146Y-117786502D01*
X49582128Y-117807872D01*
X49590441Y-117820313D01*
X49592499Y-117822040D01*
X49598244Y-117831991D01*
X49625700Y-117873081D01*
X49641000Y-117950000D01*
X49625700Y-118026919D01*
X49598240Y-118068014D01*
X49592499Y-118077959D01*
X49590442Y-118079684D01*
X49582128Y-118092128D01*
X49550141Y-118113501D01*
X49539536Y-118122400D01*
X49533578Y-118124568D01*
X49516919Y-118135700D01*
X49486217Y-118141806D01*
X49474568Y-118146047D01*
X49464901Y-118146047D01*
X49440000Y-118151000D01*
X49415099Y-118146047D01*
X49405432Y-118146047D01*
X49393782Y-118141806D01*
X49363081Y-118135700D01*
X49346422Y-118124569D01*
X49340463Y-118122400D01*
X49329854Y-118113498D01*
X49297872Y-118092128D01*
X49289558Y-118079686D01*
X49287500Y-118077959D01*
X49281752Y-118068003D01*
X49254300Y-118026919D01*
X49239000Y-117950000D01*
X49254300Y-117873081D01*
X49281750Y-117831998D01*
X49287501Y-117822039D01*
X49289560Y-117820310D01*
X49297872Y-117807872D01*
X49329847Y-117786506D01*
X49340464Y-117777598D01*
X49346428Y-117775427D01*
X49363081Y-117764300D01*
X49393769Y-117758195D01*
X49439996Y-117741370D01*
X49486218Y-117758193D01*
G37*
G36*
X59916218Y-117668193D02*
G01*
X59946919Y-117674300D01*
X59963575Y-117685429D01*
X59969536Y-117687599D01*
X59980146Y-117696502D01*
X60012128Y-117717872D01*
X60020441Y-117730313D01*
X60022499Y-117732040D01*
X60028244Y-117741991D01*
X60055700Y-117783081D01*
X60071000Y-117860000D01*
X60055700Y-117936919D01*
X60028240Y-117978014D01*
X60022499Y-117987959D01*
X60020442Y-117989684D01*
X60012128Y-118002128D01*
X59980141Y-118023501D01*
X59969536Y-118032400D01*
X59963578Y-118034568D01*
X59946919Y-118045700D01*
X59916217Y-118051806D01*
X59904568Y-118056047D01*
X59894901Y-118056047D01*
X59870000Y-118061000D01*
X59845099Y-118056047D01*
X59835432Y-118056047D01*
X59823782Y-118051806D01*
X59793081Y-118045700D01*
X59776422Y-118034569D01*
X59770463Y-118032400D01*
X59759854Y-118023498D01*
X59727872Y-118002128D01*
X59719558Y-117989686D01*
X59717500Y-117987959D01*
X59711752Y-117978003D01*
X59684300Y-117936919D01*
X59669000Y-117860000D01*
X59684300Y-117783081D01*
X59711750Y-117741998D01*
X59717501Y-117732039D01*
X59719560Y-117730310D01*
X59727872Y-117717872D01*
X59759847Y-117696506D01*
X59770464Y-117687598D01*
X59776428Y-117685427D01*
X59793081Y-117674300D01*
X59823769Y-117668195D01*
X59869996Y-117651370D01*
X59916218Y-117668193D01*
G37*
G36*
X61316218Y-117668193D02*
G01*
X61346919Y-117674300D01*
X61363575Y-117685429D01*
X61369536Y-117687599D01*
X61380146Y-117696502D01*
X61412128Y-117717872D01*
X61420441Y-117730313D01*
X61422499Y-117732040D01*
X61428244Y-117741991D01*
X61455700Y-117783081D01*
X61471000Y-117860000D01*
X61455700Y-117936919D01*
X61428240Y-117978014D01*
X61422499Y-117987959D01*
X61420442Y-117989684D01*
X61412128Y-118002128D01*
X61380141Y-118023501D01*
X61369536Y-118032400D01*
X61363578Y-118034568D01*
X61346919Y-118045700D01*
X61316217Y-118051806D01*
X61304568Y-118056047D01*
X61294901Y-118056047D01*
X61270000Y-118061000D01*
X61245099Y-118056047D01*
X61235432Y-118056047D01*
X61223782Y-118051806D01*
X61193081Y-118045700D01*
X61176422Y-118034569D01*
X61170463Y-118032400D01*
X61159854Y-118023498D01*
X61127872Y-118002128D01*
X61119558Y-117989686D01*
X61117500Y-117987959D01*
X61111752Y-117978003D01*
X61084300Y-117936919D01*
X61069000Y-117860000D01*
X61084300Y-117783081D01*
X61111750Y-117741998D01*
X61117501Y-117732039D01*
X61119560Y-117730310D01*
X61127872Y-117717872D01*
X61159847Y-117696506D01*
X61170464Y-117687598D01*
X61176428Y-117685427D01*
X61193081Y-117674300D01*
X61223769Y-117668195D01*
X61269996Y-117651370D01*
X61316218Y-117668193D01*
G37*
G36*
X48086218Y-117158193D02*
G01*
X48116919Y-117164300D01*
X48133575Y-117175429D01*
X48139536Y-117177599D01*
X48150146Y-117186502D01*
X48182128Y-117207872D01*
X48190441Y-117220313D01*
X48192499Y-117222040D01*
X48198244Y-117231991D01*
X48225700Y-117273081D01*
X48241000Y-117350000D01*
X48225700Y-117426919D01*
X48198240Y-117468014D01*
X48192499Y-117477959D01*
X48190442Y-117479684D01*
X48182128Y-117492128D01*
X48150141Y-117513501D01*
X48139536Y-117522400D01*
X48133578Y-117524568D01*
X48116919Y-117535700D01*
X48086211Y-117541808D01*
X48039998Y-117558628D01*
X47993782Y-117541806D01*
X47963081Y-117535700D01*
X47946422Y-117524569D01*
X47940463Y-117522400D01*
X47929854Y-117513498D01*
X47897872Y-117492128D01*
X47889558Y-117479686D01*
X47887500Y-117477959D01*
X47881752Y-117468003D01*
X47854300Y-117426919D01*
X47839000Y-117350000D01*
X47854300Y-117273081D01*
X47881750Y-117231998D01*
X47887501Y-117222039D01*
X47889560Y-117220310D01*
X47897872Y-117207872D01*
X47929847Y-117186506D01*
X47940464Y-117177598D01*
X47946428Y-117175427D01*
X47963081Y-117164300D01*
X47993769Y-117158195D01*
X48039996Y-117141370D01*
X48086218Y-117158193D01*
G37*
G36*
X49486218Y-117158193D02*
G01*
X49516919Y-117164300D01*
X49533575Y-117175429D01*
X49539536Y-117177599D01*
X49550146Y-117186502D01*
X49582128Y-117207872D01*
X49590441Y-117220313D01*
X49592499Y-117222040D01*
X49598244Y-117231991D01*
X49625700Y-117273081D01*
X49641000Y-117350000D01*
X49625700Y-117426919D01*
X49598240Y-117468014D01*
X49592499Y-117477959D01*
X49590442Y-117479684D01*
X49582128Y-117492128D01*
X49550141Y-117513501D01*
X49539536Y-117522400D01*
X49533578Y-117524568D01*
X49516919Y-117535700D01*
X49486211Y-117541808D01*
X49439998Y-117558628D01*
X49393782Y-117541806D01*
X49363081Y-117535700D01*
X49346422Y-117524569D01*
X49340463Y-117522400D01*
X49329854Y-117513498D01*
X49297872Y-117492128D01*
X49289558Y-117479686D01*
X49287500Y-117477959D01*
X49281752Y-117468003D01*
X49254300Y-117426919D01*
X49239000Y-117350000D01*
X49254300Y-117273081D01*
X49281750Y-117231998D01*
X49287501Y-117222039D01*
X49289560Y-117220310D01*
X49297872Y-117207872D01*
X49329847Y-117186506D01*
X49340464Y-117177598D01*
X49346428Y-117175427D01*
X49363081Y-117164300D01*
X49393769Y-117158195D01*
X49439996Y-117141370D01*
X49486218Y-117158193D01*
G37*
G36*
X59916218Y-117068193D02*
G01*
X59946919Y-117074300D01*
X59963575Y-117085429D01*
X59969536Y-117087599D01*
X59980146Y-117096502D01*
X60012128Y-117117872D01*
X60020441Y-117130313D01*
X60022499Y-117132040D01*
X60028244Y-117141991D01*
X60055700Y-117183081D01*
X60071000Y-117260000D01*
X60055700Y-117336919D01*
X60028240Y-117378014D01*
X60022499Y-117387959D01*
X60020442Y-117389684D01*
X60012128Y-117402128D01*
X59980141Y-117423501D01*
X59969536Y-117432400D01*
X59963578Y-117434568D01*
X59946919Y-117445700D01*
X59916211Y-117451808D01*
X59869998Y-117468628D01*
X59823782Y-117451806D01*
X59793081Y-117445700D01*
X59776422Y-117434569D01*
X59770463Y-117432400D01*
X59759854Y-117423498D01*
X59727872Y-117402128D01*
X59719558Y-117389686D01*
X59717500Y-117387959D01*
X59711752Y-117378003D01*
X59684300Y-117336919D01*
X59669000Y-117260000D01*
X59684300Y-117183081D01*
X59711750Y-117141998D01*
X59717501Y-117132039D01*
X59719560Y-117130310D01*
X59727872Y-117117872D01*
X59759847Y-117096506D01*
X59770464Y-117087598D01*
X59776428Y-117085427D01*
X59793081Y-117074300D01*
X59823769Y-117068195D01*
X59869996Y-117051370D01*
X59916218Y-117068193D01*
G37*
G36*
X61316218Y-117068193D02*
G01*
X61346919Y-117074300D01*
X61363575Y-117085429D01*
X61369536Y-117087599D01*
X61380146Y-117096502D01*
X61412128Y-117117872D01*
X61420441Y-117130313D01*
X61422499Y-117132040D01*
X61428244Y-117141991D01*
X61455700Y-117183081D01*
X61471000Y-117260000D01*
X61455700Y-117336919D01*
X61428240Y-117378014D01*
X61422499Y-117387959D01*
X61420442Y-117389684D01*
X61412128Y-117402128D01*
X61380141Y-117423501D01*
X61369536Y-117432400D01*
X61363578Y-117434568D01*
X61346919Y-117445700D01*
X61316211Y-117451808D01*
X61269998Y-117468628D01*
X61223782Y-117451806D01*
X61193081Y-117445700D01*
X61176422Y-117434569D01*
X61170463Y-117432400D01*
X61159854Y-117423498D01*
X61127872Y-117402128D01*
X61119558Y-117389686D01*
X61117500Y-117387959D01*
X61111752Y-117378003D01*
X61084300Y-117336919D01*
X61069000Y-117260000D01*
X61084300Y-117183081D01*
X61111750Y-117141998D01*
X61117501Y-117132039D01*
X61119560Y-117130310D01*
X61127872Y-117117872D01*
X61159847Y-117096506D01*
X61170464Y-117087598D01*
X61176428Y-117085427D01*
X61193081Y-117074300D01*
X61223769Y-117068195D01*
X61269996Y-117051370D01*
X61316218Y-117068193D01*
G37*
G36*
X48064901Y-116553953D02*
G01*
X48074568Y-116553953D01*
X48086218Y-116558193D01*
X48116919Y-116564300D01*
X48133575Y-116575429D01*
X48139536Y-116577599D01*
X48150146Y-116586502D01*
X48182128Y-116607872D01*
X48190441Y-116620313D01*
X48192499Y-116622040D01*
X48198244Y-116631991D01*
X48225700Y-116673081D01*
X48241000Y-116750000D01*
X48225700Y-116826919D01*
X48198240Y-116868014D01*
X48192499Y-116877959D01*
X48190442Y-116879684D01*
X48182128Y-116892128D01*
X48150141Y-116913501D01*
X48139536Y-116922400D01*
X48133578Y-116924568D01*
X48116919Y-116935700D01*
X48086211Y-116941808D01*
X48039998Y-116958628D01*
X47993782Y-116941806D01*
X47963081Y-116935700D01*
X47946422Y-116924569D01*
X47940463Y-116922400D01*
X47929854Y-116913498D01*
X47897872Y-116892128D01*
X47889558Y-116879686D01*
X47887500Y-116877959D01*
X47881752Y-116868003D01*
X47854300Y-116826919D01*
X47839000Y-116750000D01*
X47854300Y-116673081D01*
X47881750Y-116631998D01*
X47887501Y-116622039D01*
X47889560Y-116620310D01*
X47897872Y-116607872D01*
X47929848Y-116586505D01*
X47940462Y-116577600D01*
X47946423Y-116575430D01*
X47963081Y-116564300D01*
X47993783Y-116558192D01*
X48005433Y-116553953D01*
X48015099Y-116553953D01*
X48040000Y-116549000D01*
X48064901Y-116553953D01*
G37*
G36*
X49464901Y-116553953D02*
G01*
X49474568Y-116553953D01*
X49486218Y-116558193D01*
X49516919Y-116564300D01*
X49533575Y-116575429D01*
X49539536Y-116577599D01*
X49550146Y-116586502D01*
X49582128Y-116607872D01*
X49590441Y-116620313D01*
X49592499Y-116622040D01*
X49598244Y-116631991D01*
X49625700Y-116673081D01*
X49641000Y-116750000D01*
X49625700Y-116826919D01*
X49598240Y-116868014D01*
X49592499Y-116877959D01*
X49590442Y-116879684D01*
X49582128Y-116892128D01*
X49550141Y-116913501D01*
X49539536Y-116922400D01*
X49533578Y-116924568D01*
X49516919Y-116935700D01*
X49486211Y-116941808D01*
X49439998Y-116958628D01*
X49393782Y-116941806D01*
X49363081Y-116935700D01*
X49346422Y-116924569D01*
X49340463Y-116922400D01*
X49329854Y-116913498D01*
X49297872Y-116892128D01*
X49289558Y-116879686D01*
X49287500Y-116877959D01*
X49281752Y-116868003D01*
X49254300Y-116826919D01*
X49239000Y-116750000D01*
X49254300Y-116673081D01*
X49281750Y-116631998D01*
X49287501Y-116622039D01*
X49289560Y-116620310D01*
X49297872Y-116607872D01*
X49329848Y-116586505D01*
X49340462Y-116577600D01*
X49346423Y-116575430D01*
X49363081Y-116564300D01*
X49393783Y-116558192D01*
X49405433Y-116553953D01*
X49415099Y-116553953D01*
X49440000Y-116549000D01*
X49464901Y-116553953D01*
G37*
G36*
X59894901Y-116463953D02*
G01*
X59904568Y-116463953D01*
X59916218Y-116468193D01*
X59946919Y-116474300D01*
X59963575Y-116485429D01*
X59969536Y-116487599D01*
X59980146Y-116496502D01*
X60012128Y-116517872D01*
X60020441Y-116530313D01*
X60022499Y-116532040D01*
X60028244Y-116541991D01*
X60055700Y-116583081D01*
X60071000Y-116660000D01*
X60055700Y-116736919D01*
X60028240Y-116778014D01*
X60022499Y-116787959D01*
X60020442Y-116789684D01*
X60012128Y-116802128D01*
X59980141Y-116823501D01*
X59969536Y-116832400D01*
X59963578Y-116834568D01*
X59946919Y-116845700D01*
X59916211Y-116851808D01*
X59869998Y-116868628D01*
X59823782Y-116851806D01*
X59793081Y-116845700D01*
X59776422Y-116834569D01*
X59770463Y-116832400D01*
X59759854Y-116823498D01*
X59727872Y-116802128D01*
X59719558Y-116789686D01*
X59717500Y-116787959D01*
X59711752Y-116778003D01*
X59684300Y-116736919D01*
X59669000Y-116660000D01*
X59684300Y-116583081D01*
X59711750Y-116541998D01*
X59717501Y-116532039D01*
X59719560Y-116530310D01*
X59727872Y-116517872D01*
X59759848Y-116496505D01*
X59770462Y-116487600D01*
X59776423Y-116485430D01*
X59793081Y-116474300D01*
X59823783Y-116468192D01*
X59835433Y-116463953D01*
X59845099Y-116463953D01*
X59870000Y-116459000D01*
X59894901Y-116463953D01*
G37*
G36*
X61294901Y-116463953D02*
G01*
X61304568Y-116463953D01*
X61316218Y-116468193D01*
X61346919Y-116474300D01*
X61363575Y-116485429D01*
X61369536Y-116487599D01*
X61380146Y-116496502D01*
X61412128Y-116517872D01*
X61420441Y-116530313D01*
X61422499Y-116532040D01*
X61428244Y-116541991D01*
X61455700Y-116583081D01*
X61471000Y-116660000D01*
X61455700Y-116736919D01*
X61428240Y-116778014D01*
X61422499Y-116787959D01*
X61420442Y-116789684D01*
X61412128Y-116802128D01*
X61380141Y-116823501D01*
X61369536Y-116832400D01*
X61363578Y-116834568D01*
X61346919Y-116845700D01*
X61316211Y-116851808D01*
X61269998Y-116868628D01*
X61223782Y-116851806D01*
X61193081Y-116845700D01*
X61176422Y-116834569D01*
X61170463Y-116832400D01*
X61159854Y-116823498D01*
X61127872Y-116802128D01*
X61119558Y-116789686D01*
X61117500Y-116787959D01*
X61111752Y-116778003D01*
X61084300Y-116736919D01*
X61069000Y-116660000D01*
X61084300Y-116583081D01*
X61111750Y-116541998D01*
X61117501Y-116532039D01*
X61119560Y-116530310D01*
X61127872Y-116517872D01*
X61159848Y-116496505D01*
X61170462Y-116487600D01*
X61176423Y-116485430D01*
X61193081Y-116474300D01*
X61223783Y-116468192D01*
X61235433Y-116463953D01*
X61245099Y-116463953D01*
X61270000Y-116459000D01*
X61294901Y-116463953D01*
G37*
G36*
X47006043Y-114503191D02*
G01*
X47038727Y-114507494D01*
X47046948Y-114511327D01*
X47066537Y-114515224D01*
X47092480Y-114532559D01*
X47103608Y-114537748D01*
X47110378Y-114544518D01*
X47131421Y-114558579D01*
X47145481Y-114579621D01*
X47152251Y-114586391D01*
X47157438Y-114597516D01*
X47174776Y-114623463D01*
X47178672Y-114643053D01*
X47182505Y-114651272D01*
X47186806Y-114683945D01*
X47190000Y-114700000D01*
X47190000Y-116200000D01*
X47186805Y-116216058D01*
X47182505Y-116248727D01*
X47178673Y-116256944D01*
X47174776Y-116276537D01*
X47157437Y-116302485D01*
X47152251Y-116313608D01*
X47145483Y-116320375D01*
X47131421Y-116341421D01*
X47110375Y-116355483D01*
X47103608Y-116362251D01*
X47092485Y-116367437D01*
X47066537Y-116384776D01*
X47046944Y-116388673D01*
X47038727Y-116392505D01*
X47006056Y-116396806D01*
X46990000Y-116400000D01*
X45490000Y-116400000D01*
X45473943Y-116396806D01*
X45441272Y-116392505D01*
X45433053Y-116388672D01*
X45413463Y-116384776D01*
X45387516Y-116367438D01*
X45376391Y-116362251D01*
X45369621Y-116355481D01*
X45348579Y-116341421D01*
X45334518Y-116320378D01*
X45327748Y-116313608D01*
X45322559Y-116302480D01*
X45305224Y-116276537D01*
X45301327Y-116256948D01*
X45297494Y-116248727D01*
X45293190Y-116216041D01*
X45290000Y-116200000D01*
X45290000Y-114700000D01*
X45293190Y-114683958D01*
X45297494Y-114651272D01*
X45301327Y-114643049D01*
X45305224Y-114623463D01*
X45322557Y-114597521D01*
X45327748Y-114586391D01*
X45334520Y-114579618D01*
X45348579Y-114558579D01*
X45369618Y-114544520D01*
X45376391Y-114537748D01*
X45387521Y-114532557D01*
X45413463Y-114515224D01*
X45433049Y-114511327D01*
X45441272Y-114507494D01*
X45473960Y-114503190D01*
X45490000Y-114500000D01*
X46990000Y-114500000D01*
X47006043Y-114503191D01*
G37*
G36*
X34533199Y-112020142D02*
G01*
X34659978Y-112072655D01*
X34774075Y-112148893D01*
X34871107Y-112245925D01*
X34947345Y-112360022D01*
X34999858Y-112486801D01*
X35026629Y-112621388D01*
X35029573Y-113642262D01*
X35234148Y-113679397D01*
X35251707Y-113633097D01*
X35252889Y-113624120D01*
X35279222Y-113560544D01*
X35295947Y-113516447D01*
X35299802Y-113510861D01*
X35305337Y-113497500D01*
X35342062Y-113449638D01*
X35367719Y-113412469D01*
X35376664Y-113404544D01*
X35388769Y-113388769D01*
X35431360Y-113356087D01*
X35462288Y-113328688D01*
X35477415Y-113320748D01*
X35497500Y-113305337D01*
X35541518Y-113287103D01*
X35574156Y-113269974D01*
X35595681Y-113264668D01*
X35624120Y-113252889D01*
X35665668Y-113247418D01*
X35696829Y-113239739D01*
X35724004Y-113239739D01*
X35760000Y-113235000D01*
X35795996Y-113239739D01*
X35823171Y-113239739D01*
X35854330Y-113247418D01*
X35895880Y-113252889D01*
X35924319Y-113264669D01*
X35945843Y-113269974D01*
X35978477Y-113287101D01*
X36022500Y-113305337D01*
X36042586Y-113320749D01*
X36057711Y-113328688D01*
X36088632Y-113356082D01*
X36131231Y-113388769D01*
X36143337Y-113404546D01*
X36152280Y-113412469D01*
X36177927Y-113449625D01*
X36214663Y-113497500D01*
X36220199Y-113510865D01*
X36224052Y-113516447D01*
X36240762Y-113560509D01*
X36267111Y-113624120D01*
X36268293Y-113633104D01*
X36268852Y-113634576D01*
X36273176Y-113670190D01*
X36285000Y-113760000D01*
X36273175Y-113849817D01*
X36268852Y-113885423D01*
X36268293Y-113886894D01*
X36267111Y-113895880D01*
X36240758Y-113959500D01*
X36224052Y-114003552D01*
X36220200Y-114009132D01*
X36214663Y-114022500D01*
X36177920Y-114070383D01*
X36152280Y-114107530D01*
X36143340Y-114115450D01*
X36131231Y-114131231D01*
X36088624Y-114163924D01*
X36057711Y-114191311D01*
X36042590Y-114199246D01*
X36022500Y-114214663D01*
X35978467Y-114232901D01*
X35945843Y-114250025D01*
X35924324Y-114255328D01*
X35895880Y-114267111D01*
X35854328Y-114272581D01*
X35823171Y-114280261D01*
X35795996Y-114280261D01*
X35760000Y-114285000D01*
X35724004Y-114280261D01*
X35696829Y-114280261D01*
X35665671Y-114272581D01*
X35624120Y-114267111D01*
X35595676Y-114255329D01*
X35574156Y-114250025D01*
X35541527Y-114232899D01*
X35497500Y-114214663D01*
X35477411Y-114199248D01*
X35462288Y-114191311D01*
X35431368Y-114163918D01*
X35388769Y-114131231D01*
X35376662Y-114115452D01*
X35367719Y-114107530D01*
X35342071Y-114070373D01*
X35305337Y-114022500D01*
X35299800Y-114009133D01*
X35295947Y-114003551D01*
X35279232Y-113959478D01*
X35252889Y-113895880D01*
X35251706Y-113886898D01*
X35221058Y-113806085D01*
X35033352Y-113821715D01*
X35026831Y-113854499D01*
X35026629Y-113858612D01*
X34999858Y-113993199D01*
X34947345Y-114119978D01*
X34871107Y-114234075D01*
X34774075Y-114331107D01*
X34659978Y-114407345D01*
X34533199Y-114459858D01*
X34398612Y-114486629D01*
X34261388Y-114486629D01*
X34126801Y-114459858D01*
X34000022Y-114407345D01*
X33885925Y-114331107D01*
X33788893Y-114234075D01*
X33712655Y-114119978D01*
X33660142Y-113993199D01*
X33633371Y-113858612D01*
X33630000Y-112690000D01*
X33633371Y-112621388D01*
X33660142Y-112486801D01*
X33712655Y-112360022D01*
X33788893Y-112245925D01*
X33885925Y-112148893D01*
X34000022Y-112072655D01*
X34126801Y-112020142D01*
X34261388Y-111993371D01*
X34398612Y-111993371D01*
X34533199Y-112020142D01*
G37*
G36*
X43173199Y-112020142D02*
G01*
X43299978Y-112072655D01*
X43414075Y-112148893D01*
X43511107Y-112245925D01*
X43587345Y-112360022D01*
X43639858Y-112486801D01*
X43666629Y-112621388D01*
X43670000Y-113790000D01*
X43666629Y-113858612D01*
X43639858Y-113993199D01*
X43587345Y-114119978D01*
X43511107Y-114234075D01*
X43414075Y-114331107D01*
X43299978Y-114407345D01*
X43173199Y-114459858D01*
X43038612Y-114486629D01*
X42901388Y-114486629D01*
X42766801Y-114459858D01*
X42640022Y-114407345D01*
X42525925Y-114331107D01*
X42428893Y-114234075D01*
X42352655Y-114119978D01*
X42300142Y-113993199D01*
X42273371Y-113858612D01*
X42273361Y-113855478D01*
X42266646Y-113821714D01*
X42078940Y-113806086D01*
X42048293Y-113886894D01*
X42047111Y-113895880D01*
X42020763Y-113959488D01*
X42004053Y-114003551D01*
X42000199Y-114009133D01*
X41994663Y-114022500D01*
X41957921Y-114070382D01*
X41932280Y-114107530D01*
X41923340Y-114115450D01*
X41911231Y-114131231D01*
X41868624Y-114163924D01*
X41837711Y-114191311D01*
X41822590Y-114199246D01*
X41802500Y-114214663D01*
X41758467Y-114232901D01*
X41725843Y-114250025D01*
X41704324Y-114255328D01*
X41675880Y-114267111D01*
X41634328Y-114272581D01*
X41603171Y-114280261D01*
X41575996Y-114280261D01*
X41540000Y-114285000D01*
X41504004Y-114280261D01*
X41476829Y-114280261D01*
X41445671Y-114272581D01*
X41404120Y-114267111D01*
X41375676Y-114255329D01*
X41354156Y-114250025D01*
X41321527Y-114232899D01*
X41277500Y-114214663D01*
X41257411Y-114199248D01*
X41242288Y-114191311D01*
X41211368Y-114163918D01*
X41168769Y-114131231D01*
X41156662Y-114115452D01*
X41147719Y-114107530D01*
X41122069Y-114070370D01*
X41085337Y-114022500D01*
X41079801Y-114009136D01*
X41075947Y-114003552D01*
X41059229Y-113959472D01*
X41032889Y-113895880D01*
X41031706Y-113886898D01*
X41031147Y-113885423D01*
X41026811Y-113849720D01*
X41015000Y-113760000D01*
X41026810Y-113670288D01*
X41031147Y-113634576D01*
X41031706Y-113633100D01*
X41032889Y-113624120D01*
X41059225Y-113560538D01*
X41075947Y-113516447D01*
X41079802Y-113510861D01*
X41085337Y-113497500D01*
X41122062Y-113449638D01*
X41147719Y-113412469D01*
X41156664Y-113404544D01*
X41168769Y-113388769D01*
X41211360Y-113356087D01*
X41242288Y-113328688D01*
X41257415Y-113320748D01*
X41277500Y-113305337D01*
X41321518Y-113287103D01*
X41354156Y-113269974D01*
X41375681Y-113264668D01*
X41404120Y-113252889D01*
X41445668Y-113247418D01*
X41476829Y-113239739D01*
X41504004Y-113239739D01*
X41540000Y-113235000D01*
X41575996Y-113239739D01*
X41603171Y-113239739D01*
X41634330Y-113247418D01*
X41675880Y-113252889D01*
X41704319Y-113264669D01*
X41725843Y-113269974D01*
X41758477Y-113287101D01*
X41802500Y-113305337D01*
X41822586Y-113320749D01*
X41837711Y-113328688D01*
X41868632Y-113356082D01*
X41911231Y-113388769D01*
X41923337Y-113404546D01*
X41932280Y-113412469D01*
X41957928Y-113449626D01*
X41994663Y-113497500D01*
X42000198Y-113510864D01*
X42004053Y-113516448D01*
X42020766Y-113560518D01*
X42047111Y-113624120D01*
X42048293Y-113633105D01*
X42067998Y-113685062D01*
X42272761Y-113647181D01*
X42270000Y-112690000D01*
X42273371Y-112621388D01*
X42300142Y-112486801D01*
X42352655Y-112360022D01*
X42428893Y-112245925D01*
X42525925Y-112148893D01*
X42640022Y-112072655D01*
X42766801Y-112020142D01*
X42901388Y-111993371D01*
X43038612Y-111993371D01*
X43173199Y-112020142D01*
G37*
G36*
X35120889Y-105885012D02*
G01*
X35166830Y-105885012D01*
X35217988Y-105894575D01*
X35274845Y-105900175D01*
X35318042Y-105913278D01*
X35357202Y-105920599D01*
X35411438Y-105941609D01*
X35471818Y-105959926D01*
X35506315Y-105978365D01*
X35537786Y-105990557D01*
X35592469Y-106024415D01*
X35653349Y-106056957D01*
X35678929Y-106077950D01*
X35702442Y-106092509D01*
X35754546Y-106140008D01*
X35812462Y-106187538D01*
X35829621Y-106208446D01*
X35845564Y-106222980D01*
X35891838Y-106284258D01*
X35943043Y-106346651D01*
X35952947Y-106365180D01*
X35962273Y-106377530D01*
X35999372Y-106452034D01*
X36040074Y-106528182D01*
X36044415Y-106542492D01*
X36048596Y-106550889D01*
X36073295Y-106637697D01*
X36099825Y-106725155D01*
X36100696Y-106734003D01*
X36101594Y-106737158D01*
X36110933Y-106837944D01*
X36120000Y-106930000D01*
X36110932Y-107022063D01*
X36101594Y-107122841D01*
X36100696Y-107125994D01*
X36099825Y-107134845D01*
X36073290Y-107222317D01*
X36048596Y-107309110D01*
X36044415Y-107317504D01*
X36040074Y-107331818D01*
X35999364Y-107407979D01*
X35962273Y-107482469D01*
X35952949Y-107494815D01*
X35943043Y-107513349D01*
X35891829Y-107575752D01*
X35845564Y-107637019D01*
X35829624Y-107651549D01*
X35812462Y-107672462D01*
X35754535Y-107720000D01*
X35702442Y-107767490D01*
X35678934Y-107782045D01*
X35653349Y-107803043D01*
X35592457Y-107835590D01*
X35537786Y-107869442D01*
X35506321Y-107881631D01*
X35471818Y-107900074D01*
X35411426Y-107918393D01*
X35357202Y-107939400D01*
X35318049Y-107946719D01*
X35274845Y-107959825D01*
X35217985Y-107965425D01*
X35166830Y-107974988D01*
X35120889Y-107974988D01*
X35070000Y-107980000D01*
X35019111Y-107974988D01*
X34973170Y-107974988D01*
X34922014Y-107965424D01*
X34865155Y-107959825D01*
X34821952Y-107946719D01*
X34782797Y-107939400D01*
X34728569Y-107918392D01*
X34668182Y-107900074D01*
X34633680Y-107881632D01*
X34602213Y-107869442D01*
X34547535Y-107835586D01*
X34486651Y-107803043D01*
X34461068Y-107782047D01*
X34437557Y-107767490D01*
X34385454Y-107719992D01*
X34327538Y-107672462D01*
X34310378Y-107651553D01*
X34294435Y-107637019D01*
X34248158Y-107575737D01*
X34196957Y-107513349D01*
X34187053Y-107494820D01*
X34177726Y-107482469D01*
X34140620Y-107407951D01*
X34099926Y-107331818D01*
X34095585Y-107317509D01*
X34091403Y-107309110D01*
X34066693Y-107222264D01*
X34040175Y-107134845D01*
X34039303Y-107126000D01*
X34038405Y-107122841D01*
X34029050Y-107021891D01*
X34020000Y-106930000D01*
X34029049Y-106838116D01*
X34038405Y-106737158D01*
X34039304Y-106733998D01*
X34040175Y-106725155D01*
X34066688Y-106637750D01*
X34091403Y-106550889D01*
X34095586Y-106542487D01*
X34099926Y-106528182D01*
X34140613Y-106452061D01*
X34177726Y-106377530D01*
X34187054Y-106365176D01*
X34196957Y-106346651D01*
X34248148Y-106284274D01*
X34294435Y-106222980D01*
X34310381Y-106208442D01*
X34327538Y-106187538D01*
X34385443Y-106140016D01*
X34437557Y-106092509D01*
X34461073Y-106077948D01*
X34486651Y-106056957D01*
X34547523Y-106024419D01*
X34602213Y-105990557D01*
X34633687Y-105978363D01*
X34668182Y-105959926D01*
X34728557Y-105941611D01*
X34782797Y-105920599D01*
X34821959Y-105913278D01*
X34865155Y-105900175D01*
X34922011Y-105894575D01*
X34973170Y-105885012D01*
X35019111Y-105885012D01*
X35070000Y-105880000D01*
X35120889Y-105885012D01*
G37*
G36*
X37660889Y-105885012D02*
G01*
X37706830Y-105885012D01*
X37757988Y-105894575D01*
X37814845Y-105900175D01*
X37858042Y-105913278D01*
X37897202Y-105920599D01*
X37951438Y-105941609D01*
X38011818Y-105959926D01*
X38046315Y-105978365D01*
X38077786Y-105990557D01*
X38132469Y-106024415D01*
X38193349Y-106056957D01*
X38218929Y-106077950D01*
X38242442Y-106092509D01*
X38294546Y-106140008D01*
X38352462Y-106187538D01*
X38369621Y-106208446D01*
X38385564Y-106222980D01*
X38431838Y-106284258D01*
X38483043Y-106346651D01*
X38492947Y-106365180D01*
X38502273Y-106377530D01*
X38539372Y-106452034D01*
X38580074Y-106528182D01*
X38584415Y-106542492D01*
X38588596Y-106550889D01*
X38613295Y-106637697D01*
X38639825Y-106725155D01*
X38640696Y-106734003D01*
X38641594Y-106737158D01*
X38650933Y-106837944D01*
X38660000Y-106930000D01*
X38650932Y-107022063D01*
X38641594Y-107122841D01*
X38640696Y-107125994D01*
X38639825Y-107134845D01*
X38613290Y-107222317D01*
X38588596Y-107309110D01*
X38584415Y-107317504D01*
X38580074Y-107331818D01*
X38539364Y-107407979D01*
X38502273Y-107482469D01*
X38492949Y-107494815D01*
X38483043Y-107513349D01*
X38431829Y-107575752D01*
X38385564Y-107637019D01*
X38369624Y-107651549D01*
X38352462Y-107672462D01*
X38294535Y-107720000D01*
X38242442Y-107767490D01*
X38218934Y-107782045D01*
X38193349Y-107803043D01*
X38132457Y-107835590D01*
X38077786Y-107869442D01*
X38046321Y-107881631D01*
X38011818Y-107900074D01*
X37951426Y-107918393D01*
X37897202Y-107939400D01*
X37858049Y-107946719D01*
X37814845Y-107959825D01*
X37757985Y-107965425D01*
X37706830Y-107974988D01*
X37660889Y-107974988D01*
X37610000Y-107980000D01*
X37559111Y-107974988D01*
X37513170Y-107974988D01*
X37462014Y-107965424D01*
X37405155Y-107959825D01*
X37361952Y-107946719D01*
X37322797Y-107939400D01*
X37268569Y-107918392D01*
X37208182Y-107900074D01*
X37173680Y-107881632D01*
X37142213Y-107869442D01*
X37087535Y-107835586D01*
X37026651Y-107803043D01*
X37001068Y-107782047D01*
X36977557Y-107767490D01*
X36925454Y-107719992D01*
X36867538Y-107672462D01*
X36850378Y-107651553D01*
X36834435Y-107637019D01*
X36788158Y-107575737D01*
X36736957Y-107513349D01*
X36727053Y-107494820D01*
X36717726Y-107482469D01*
X36680620Y-107407951D01*
X36639926Y-107331818D01*
X36635585Y-107317509D01*
X36631403Y-107309110D01*
X36606693Y-107222264D01*
X36580175Y-107134845D01*
X36579303Y-107126000D01*
X36578405Y-107122841D01*
X36569050Y-107021891D01*
X36560000Y-106930000D01*
X36569049Y-106838116D01*
X36578405Y-106737158D01*
X36579304Y-106733998D01*
X36580175Y-106725155D01*
X36606688Y-106637750D01*
X36631403Y-106550889D01*
X36635586Y-106542487D01*
X36639926Y-106528182D01*
X36680613Y-106452061D01*
X36717726Y-106377530D01*
X36727054Y-106365176D01*
X36736957Y-106346651D01*
X36788148Y-106284274D01*
X36834435Y-106222980D01*
X36850381Y-106208442D01*
X36867538Y-106187538D01*
X36925443Y-106140016D01*
X36977557Y-106092509D01*
X37001073Y-106077948D01*
X37026651Y-106056957D01*
X37087523Y-106024419D01*
X37142213Y-105990557D01*
X37173687Y-105978363D01*
X37208182Y-105959926D01*
X37268557Y-105941611D01*
X37322797Y-105920599D01*
X37361959Y-105913278D01*
X37405155Y-105900175D01*
X37462011Y-105894575D01*
X37513170Y-105885012D01*
X37559111Y-105885012D01*
X37610000Y-105880000D01*
X37660889Y-105885012D01*
G37*
G36*
X35120889Y-103345012D02*
G01*
X35166830Y-103345012D01*
X35217988Y-103354575D01*
X35274845Y-103360175D01*
X35318042Y-103373278D01*
X35357202Y-103380599D01*
X35411438Y-103401609D01*
X35471818Y-103419926D01*
X35506315Y-103438365D01*
X35537786Y-103450557D01*
X35592469Y-103484415D01*
X35653349Y-103516957D01*
X35678929Y-103537950D01*
X35702442Y-103552509D01*
X35754546Y-103600008D01*
X35812462Y-103647538D01*
X35829621Y-103668446D01*
X35845564Y-103682980D01*
X35891838Y-103744258D01*
X35943043Y-103806651D01*
X35952947Y-103825180D01*
X35962273Y-103837530D01*
X35999372Y-103912034D01*
X36040074Y-103988182D01*
X36044415Y-104002492D01*
X36048596Y-104010889D01*
X36073295Y-104097697D01*
X36099825Y-104185155D01*
X36100696Y-104194003D01*
X36101594Y-104197158D01*
X36110933Y-104297944D01*
X36120000Y-104390000D01*
X36110932Y-104482063D01*
X36101594Y-104582841D01*
X36100696Y-104585994D01*
X36099825Y-104594845D01*
X36073290Y-104682317D01*
X36048596Y-104769110D01*
X36044415Y-104777504D01*
X36040074Y-104791818D01*
X35999364Y-104867979D01*
X35962273Y-104942469D01*
X35952949Y-104954815D01*
X35943043Y-104973349D01*
X35891829Y-105035752D01*
X35845564Y-105097019D01*
X35829624Y-105111549D01*
X35812462Y-105132462D01*
X35754535Y-105180000D01*
X35702442Y-105227490D01*
X35678934Y-105242045D01*
X35653349Y-105263043D01*
X35592457Y-105295590D01*
X35537786Y-105329442D01*
X35506321Y-105341631D01*
X35471818Y-105360074D01*
X35411426Y-105378393D01*
X35357202Y-105399400D01*
X35318049Y-105406719D01*
X35274845Y-105419825D01*
X35217985Y-105425425D01*
X35166830Y-105434988D01*
X35120889Y-105434988D01*
X35070000Y-105440000D01*
X35019111Y-105434988D01*
X34973170Y-105434988D01*
X34922014Y-105425424D01*
X34865155Y-105419825D01*
X34821952Y-105406719D01*
X34782797Y-105399400D01*
X34728569Y-105378392D01*
X34668182Y-105360074D01*
X34633680Y-105341632D01*
X34602213Y-105329442D01*
X34547535Y-105295586D01*
X34486651Y-105263043D01*
X34461068Y-105242047D01*
X34437557Y-105227490D01*
X34385454Y-105179992D01*
X34327538Y-105132462D01*
X34310378Y-105111553D01*
X34294435Y-105097019D01*
X34248158Y-105035737D01*
X34196957Y-104973349D01*
X34187053Y-104954820D01*
X34177726Y-104942469D01*
X34140620Y-104867951D01*
X34099926Y-104791818D01*
X34095585Y-104777509D01*
X34091403Y-104769110D01*
X34066693Y-104682264D01*
X34040175Y-104594845D01*
X34039303Y-104586000D01*
X34038405Y-104582841D01*
X34029050Y-104481891D01*
X34020000Y-104390000D01*
X34029049Y-104298116D01*
X34038405Y-104197158D01*
X34039304Y-104193998D01*
X34040175Y-104185155D01*
X34066688Y-104097750D01*
X34091403Y-104010889D01*
X34095586Y-104002487D01*
X34099926Y-103988182D01*
X34140613Y-103912061D01*
X34177726Y-103837530D01*
X34187054Y-103825176D01*
X34196957Y-103806651D01*
X34248148Y-103744274D01*
X34294435Y-103682980D01*
X34310381Y-103668442D01*
X34327538Y-103647538D01*
X34385443Y-103600016D01*
X34437557Y-103552509D01*
X34461073Y-103537948D01*
X34486651Y-103516957D01*
X34547523Y-103484419D01*
X34602213Y-103450557D01*
X34633687Y-103438363D01*
X34668182Y-103419926D01*
X34728557Y-103401611D01*
X34782797Y-103380599D01*
X34821959Y-103373278D01*
X34865155Y-103360175D01*
X34922011Y-103354575D01*
X34973170Y-103345012D01*
X35019111Y-103345012D01*
X35070000Y-103340000D01*
X35120889Y-103345012D01*
G37*
G36*
X37660889Y-103345012D02*
G01*
X37706830Y-103345012D01*
X37757988Y-103354575D01*
X37814845Y-103360175D01*
X37858042Y-103373278D01*
X37897202Y-103380599D01*
X37951438Y-103401609D01*
X38011818Y-103419926D01*
X38046315Y-103438365D01*
X38077786Y-103450557D01*
X38132469Y-103484415D01*
X38193349Y-103516957D01*
X38218929Y-103537950D01*
X38242442Y-103552509D01*
X38294546Y-103600008D01*
X38352462Y-103647538D01*
X38369621Y-103668446D01*
X38385564Y-103682980D01*
X38431838Y-103744258D01*
X38483043Y-103806651D01*
X38492947Y-103825180D01*
X38502273Y-103837530D01*
X38539372Y-103912034D01*
X38580074Y-103988182D01*
X38584415Y-104002492D01*
X38588596Y-104010889D01*
X38613295Y-104097697D01*
X38639825Y-104185155D01*
X38640696Y-104194003D01*
X38641594Y-104197158D01*
X38650933Y-104297944D01*
X38660000Y-104390000D01*
X38650932Y-104482063D01*
X38641594Y-104582841D01*
X38640696Y-104585994D01*
X38639825Y-104594845D01*
X38613290Y-104682317D01*
X38588596Y-104769110D01*
X38584415Y-104777504D01*
X38580074Y-104791818D01*
X38539364Y-104867979D01*
X38502273Y-104942469D01*
X38492949Y-104954815D01*
X38483043Y-104973349D01*
X38431829Y-105035752D01*
X38385564Y-105097019D01*
X38369624Y-105111549D01*
X38352462Y-105132462D01*
X38294535Y-105180000D01*
X38242442Y-105227490D01*
X38218934Y-105242045D01*
X38193349Y-105263043D01*
X38132457Y-105295590D01*
X38077786Y-105329442D01*
X38046321Y-105341631D01*
X38011818Y-105360074D01*
X37951426Y-105378393D01*
X37897202Y-105399400D01*
X37858049Y-105406719D01*
X37814845Y-105419825D01*
X37757985Y-105425425D01*
X37706830Y-105434988D01*
X37660889Y-105434988D01*
X37610000Y-105440000D01*
X37559111Y-105434988D01*
X37513170Y-105434988D01*
X37462014Y-105425424D01*
X37405155Y-105419825D01*
X37361952Y-105406719D01*
X37322797Y-105399400D01*
X37268569Y-105378392D01*
X37208182Y-105360074D01*
X37173680Y-105341632D01*
X37142213Y-105329442D01*
X37087535Y-105295586D01*
X37026651Y-105263043D01*
X37001068Y-105242047D01*
X36977557Y-105227490D01*
X36925454Y-105179992D01*
X36867538Y-105132462D01*
X36850378Y-105111553D01*
X36834435Y-105097019D01*
X36788158Y-105035737D01*
X36736957Y-104973349D01*
X36727053Y-104954820D01*
X36717726Y-104942469D01*
X36680620Y-104867951D01*
X36639926Y-104791818D01*
X36635585Y-104777509D01*
X36631403Y-104769110D01*
X36606693Y-104682264D01*
X36580175Y-104594845D01*
X36579303Y-104586000D01*
X36578405Y-104582841D01*
X36569050Y-104481891D01*
X36560000Y-104390000D01*
X36569049Y-104298116D01*
X36578405Y-104197158D01*
X36579304Y-104193998D01*
X36580175Y-104185155D01*
X36606688Y-104097750D01*
X36631403Y-104010889D01*
X36635586Y-104002487D01*
X36639926Y-103988182D01*
X36680613Y-103912061D01*
X36717726Y-103837530D01*
X36727054Y-103825176D01*
X36736957Y-103806651D01*
X36788148Y-103744274D01*
X36834435Y-103682980D01*
X36850381Y-103668442D01*
X36867538Y-103647538D01*
X36925443Y-103600016D01*
X36977557Y-103552509D01*
X37001073Y-103537948D01*
X37026651Y-103516957D01*
X37087523Y-103484419D01*
X37142213Y-103450557D01*
X37173687Y-103438363D01*
X37208182Y-103419926D01*
X37268557Y-103401611D01*
X37322797Y-103380599D01*
X37361959Y-103373278D01*
X37405155Y-103360175D01*
X37462011Y-103354575D01*
X37513170Y-103345012D01*
X37559111Y-103345012D01*
X37610000Y-103340000D01*
X37660889Y-103345012D01*
G37*
G36*
X35120889Y-100805012D02*
G01*
X35166830Y-100805012D01*
X35217988Y-100814575D01*
X35274845Y-100820175D01*
X35318042Y-100833278D01*
X35357202Y-100840599D01*
X35411438Y-100861609D01*
X35471818Y-100879926D01*
X35506315Y-100898365D01*
X35537786Y-100910557D01*
X35592469Y-100944415D01*
X35653349Y-100976957D01*
X35678929Y-100997950D01*
X35702442Y-101012509D01*
X35754546Y-101060008D01*
X35812462Y-101107538D01*
X35829621Y-101128446D01*
X35845564Y-101142980D01*
X35891838Y-101204258D01*
X35943043Y-101266651D01*
X35952947Y-101285180D01*
X35962273Y-101297530D01*
X35999372Y-101372034D01*
X36040074Y-101448182D01*
X36044415Y-101462492D01*
X36048596Y-101470889D01*
X36073295Y-101557697D01*
X36099825Y-101645155D01*
X36100696Y-101654003D01*
X36101594Y-101657158D01*
X36110933Y-101757944D01*
X36120000Y-101850000D01*
X36110932Y-101942063D01*
X36101594Y-102042841D01*
X36100696Y-102045994D01*
X36099825Y-102054845D01*
X36073290Y-102142317D01*
X36048596Y-102229110D01*
X36044415Y-102237504D01*
X36040074Y-102251818D01*
X35999364Y-102327979D01*
X35962273Y-102402469D01*
X35952949Y-102414815D01*
X35943043Y-102433349D01*
X35891829Y-102495752D01*
X35845564Y-102557019D01*
X35829624Y-102571549D01*
X35812462Y-102592462D01*
X35754535Y-102640000D01*
X35702442Y-102687490D01*
X35678934Y-102702045D01*
X35653349Y-102723043D01*
X35592457Y-102755590D01*
X35537786Y-102789442D01*
X35506321Y-102801631D01*
X35471818Y-102820074D01*
X35411426Y-102838393D01*
X35357202Y-102859400D01*
X35318049Y-102866719D01*
X35274845Y-102879825D01*
X35217985Y-102885425D01*
X35166830Y-102894988D01*
X35120889Y-102894988D01*
X35070000Y-102900000D01*
X35019111Y-102894988D01*
X34973170Y-102894988D01*
X34922014Y-102885424D01*
X34865155Y-102879825D01*
X34821952Y-102866719D01*
X34782797Y-102859400D01*
X34728569Y-102838392D01*
X34668182Y-102820074D01*
X34633680Y-102801632D01*
X34602213Y-102789442D01*
X34547535Y-102755586D01*
X34486651Y-102723043D01*
X34461068Y-102702047D01*
X34437557Y-102687490D01*
X34385454Y-102639992D01*
X34327538Y-102592462D01*
X34310378Y-102571553D01*
X34294435Y-102557019D01*
X34248158Y-102495737D01*
X34196957Y-102433349D01*
X34187053Y-102414820D01*
X34177726Y-102402469D01*
X34140620Y-102327951D01*
X34099926Y-102251818D01*
X34095585Y-102237509D01*
X34091403Y-102229110D01*
X34066693Y-102142264D01*
X34040175Y-102054845D01*
X34039303Y-102046000D01*
X34038405Y-102042841D01*
X34029050Y-101941891D01*
X34020000Y-101850000D01*
X34029049Y-101758116D01*
X34038405Y-101657158D01*
X34039304Y-101653998D01*
X34040175Y-101645155D01*
X34066688Y-101557750D01*
X34091403Y-101470889D01*
X34095586Y-101462487D01*
X34099926Y-101448182D01*
X34140613Y-101372061D01*
X34177726Y-101297530D01*
X34187054Y-101285176D01*
X34196957Y-101266651D01*
X34248148Y-101204274D01*
X34294435Y-101142980D01*
X34310381Y-101128442D01*
X34327538Y-101107538D01*
X34385443Y-101060016D01*
X34437557Y-101012509D01*
X34461073Y-100997948D01*
X34486651Y-100976957D01*
X34547523Y-100944419D01*
X34602213Y-100910557D01*
X34633687Y-100898363D01*
X34668182Y-100879926D01*
X34728557Y-100861611D01*
X34782797Y-100840599D01*
X34821959Y-100833278D01*
X34865155Y-100820175D01*
X34922011Y-100814575D01*
X34973170Y-100805012D01*
X35019111Y-100805012D01*
X35070000Y-100800000D01*
X35120889Y-100805012D01*
G37*
G36*
X37660889Y-100805012D02*
G01*
X37706830Y-100805012D01*
X37757988Y-100814575D01*
X37814845Y-100820175D01*
X37858042Y-100833278D01*
X37897202Y-100840599D01*
X37951438Y-100861609D01*
X38011818Y-100879926D01*
X38046315Y-100898365D01*
X38077786Y-100910557D01*
X38132469Y-100944415D01*
X38193349Y-100976957D01*
X38218929Y-100997950D01*
X38242442Y-101012509D01*
X38294546Y-101060008D01*
X38352462Y-101107538D01*
X38369621Y-101128446D01*
X38385564Y-101142980D01*
X38431838Y-101204258D01*
X38483043Y-101266651D01*
X38492947Y-101285180D01*
X38502273Y-101297530D01*
X38539372Y-101372034D01*
X38580074Y-101448182D01*
X38584415Y-101462492D01*
X38588596Y-101470889D01*
X38613295Y-101557697D01*
X38639825Y-101645155D01*
X38640696Y-101654003D01*
X38641594Y-101657158D01*
X38650933Y-101757944D01*
X38660000Y-101850000D01*
X38650932Y-101942063D01*
X38641594Y-102042841D01*
X38640696Y-102045994D01*
X38639825Y-102054845D01*
X38613290Y-102142317D01*
X38588596Y-102229110D01*
X38584415Y-102237504D01*
X38580074Y-102251818D01*
X38539364Y-102327979D01*
X38502273Y-102402469D01*
X38492949Y-102414815D01*
X38483043Y-102433349D01*
X38431829Y-102495752D01*
X38385564Y-102557019D01*
X38369624Y-102571549D01*
X38352462Y-102592462D01*
X38294535Y-102640000D01*
X38242442Y-102687490D01*
X38218934Y-102702045D01*
X38193349Y-102723043D01*
X38132457Y-102755590D01*
X38077786Y-102789442D01*
X38046321Y-102801631D01*
X38011818Y-102820074D01*
X37951426Y-102838393D01*
X37897202Y-102859400D01*
X37858049Y-102866719D01*
X37814845Y-102879825D01*
X37757985Y-102885425D01*
X37706830Y-102894988D01*
X37660889Y-102894988D01*
X37610000Y-102900000D01*
X37559111Y-102894988D01*
X37513170Y-102894988D01*
X37462014Y-102885424D01*
X37405155Y-102879825D01*
X37361952Y-102866719D01*
X37322797Y-102859400D01*
X37268569Y-102838392D01*
X37208182Y-102820074D01*
X37173680Y-102801632D01*
X37142213Y-102789442D01*
X37087535Y-102755586D01*
X37026651Y-102723043D01*
X37001068Y-102702047D01*
X36977557Y-102687490D01*
X36925454Y-102639992D01*
X36867538Y-102592462D01*
X36850378Y-102571553D01*
X36834435Y-102557019D01*
X36788158Y-102495737D01*
X36736957Y-102433349D01*
X36727053Y-102414820D01*
X36717726Y-102402469D01*
X36680620Y-102327951D01*
X36639926Y-102251818D01*
X36635585Y-102237509D01*
X36631403Y-102229110D01*
X36606693Y-102142264D01*
X36580175Y-102054845D01*
X36579303Y-102046000D01*
X36578405Y-102042841D01*
X36569050Y-101941891D01*
X36560000Y-101850000D01*
X36569049Y-101758116D01*
X36578405Y-101657158D01*
X36579304Y-101653998D01*
X36580175Y-101645155D01*
X36606688Y-101557750D01*
X36631403Y-101470889D01*
X36635586Y-101462487D01*
X36639926Y-101448182D01*
X36680613Y-101372061D01*
X36717726Y-101297530D01*
X36727054Y-101285176D01*
X36736957Y-101266651D01*
X36788148Y-101204274D01*
X36834435Y-101142980D01*
X36850381Y-101128442D01*
X36867538Y-101107538D01*
X36925443Y-101060016D01*
X36977557Y-101012509D01*
X37001073Y-100997948D01*
X37026651Y-100976957D01*
X37087523Y-100944419D01*
X37142213Y-100910557D01*
X37173687Y-100898363D01*
X37208182Y-100879926D01*
X37268557Y-100861611D01*
X37322797Y-100840599D01*
X37361959Y-100833278D01*
X37405155Y-100820175D01*
X37462011Y-100814575D01*
X37513170Y-100805012D01*
X37559111Y-100805012D01*
X37610000Y-100800000D01*
X37660889Y-100805012D01*
G37*
G36*
X35120889Y-98265012D02*
G01*
X35166830Y-98265012D01*
X35217988Y-98274575D01*
X35274845Y-98280175D01*
X35318042Y-98293278D01*
X35357202Y-98300599D01*
X35411438Y-98321609D01*
X35471818Y-98339926D01*
X35506315Y-98358365D01*
X35537786Y-98370557D01*
X35592469Y-98404415D01*
X35653349Y-98436957D01*
X35678929Y-98457950D01*
X35702442Y-98472509D01*
X35754546Y-98520008D01*
X35812462Y-98567538D01*
X35829621Y-98588446D01*
X35845564Y-98602980D01*
X35891838Y-98664258D01*
X35943043Y-98726651D01*
X35952947Y-98745180D01*
X35962273Y-98757530D01*
X35999372Y-98832034D01*
X36040074Y-98908182D01*
X36044415Y-98922492D01*
X36048596Y-98930889D01*
X36073295Y-99017697D01*
X36099825Y-99105155D01*
X36100696Y-99114003D01*
X36101594Y-99117158D01*
X36110933Y-99217944D01*
X36120000Y-99310000D01*
X36110932Y-99402063D01*
X36101594Y-99502841D01*
X36100696Y-99505994D01*
X36099825Y-99514845D01*
X36073290Y-99602317D01*
X36048596Y-99689110D01*
X36044415Y-99697504D01*
X36040074Y-99711818D01*
X35999364Y-99787979D01*
X35962273Y-99862469D01*
X35952949Y-99874815D01*
X35943043Y-99893349D01*
X35891829Y-99955752D01*
X35845564Y-100017019D01*
X35829624Y-100031549D01*
X35812462Y-100052462D01*
X35754535Y-100100000D01*
X35702442Y-100147490D01*
X35678934Y-100162045D01*
X35653349Y-100183043D01*
X35592457Y-100215590D01*
X35537786Y-100249442D01*
X35506321Y-100261631D01*
X35471818Y-100280074D01*
X35411426Y-100298393D01*
X35357202Y-100319400D01*
X35318049Y-100326719D01*
X35274845Y-100339825D01*
X35217985Y-100345425D01*
X35166830Y-100354988D01*
X35120889Y-100354988D01*
X35070000Y-100360000D01*
X35019111Y-100354988D01*
X34973170Y-100354988D01*
X34922014Y-100345424D01*
X34865155Y-100339825D01*
X34821952Y-100326719D01*
X34782797Y-100319400D01*
X34728569Y-100298392D01*
X34668182Y-100280074D01*
X34633680Y-100261632D01*
X34602213Y-100249442D01*
X34547535Y-100215586D01*
X34486651Y-100183043D01*
X34461068Y-100162047D01*
X34437557Y-100147490D01*
X34385454Y-100099992D01*
X34327538Y-100052462D01*
X34310378Y-100031553D01*
X34294435Y-100017019D01*
X34248158Y-99955737D01*
X34196957Y-99893349D01*
X34187053Y-99874820D01*
X34177726Y-99862469D01*
X34140620Y-99787951D01*
X34099926Y-99711818D01*
X34095585Y-99697509D01*
X34091403Y-99689110D01*
X34066693Y-99602264D01*
X34040175Y-99514845D01*
X34039303Y-99506000D01*
X34038405Y-99502841D01*
X34029050Y-99401891D01*
X34020000Y-99310000D01*
X34029049Y-99218116D01*
X34038405Y-99117158D01*
X34039304Y-99113998D01*
X34040175Y-99105155D01*
X34066688Y-99017750D01*
X34091403Y-98930889D01*
X34095586Y-98922487D01*
X34099926Y-98908182D01*
X34140613Y-98832061D01*
X34177726Y-98757530D01*
X34187054Y-98745176D01*
X34196957Y-98726651D01*
X34248148Y-98664274D01*
X34294435Y-98602980D01*
X34310381Y-98588442D01*
X34327538Y-98567538D01*
X34385443Y-98520016D01*
X34437557Y-98472509D01*
X34461073Y-98457948D01*
X34486651Y-98436957D01*
X34547523Y-98404419D01*
X34602213Y-98370557D01*
X34633687Y-98358363D01*
X34668182Y-98339926D01*
X34728557Y-98321611D01*
X34782797Y-98300599D01*
X34821959Y-98293278D01*
X34865155Y-98280175D01*
X34922011Y-98274575D01*
X34973170Y-98265012D01*
X35019111Y-98265012D01*
X35070000Y-98260000D01*
X35120889Y-98265012D01*
G37*
G36*
X37660889Y-98265012D02*
G01*
X37706830Y-98265012D01*
X37757988Y-98274575D01*
X37814845Y-98280175D01*
X37858042Y-98293278D01*
X37897202Y-98300599D01*
X37951438Y-98321609D01*
X38011818Y-98339926D01*
X38046315Y-98358365D01*
X38077786Y-98370557D01*
X38132469Y-98404415D01*
X38193349Y-98436957D01*
X38218929Y-98457950D01*
X38242442Y-98472509D01*
X38294546Y-98520008D01*
X38352462Y-98567538D01*
X38369621Y-98588446D01*
X38385564Y-98602980D01*
X38431838Y-98664258D01*
X38483043Y-98726651D01*
X38492947Y-98745180D01*
X38502273Y-98757530D01*
X38539372Y-98832034D01*
X38580074Y-98908182D01*
X38584415Y-98922492D01*
X38588596Y-98930889D01*
X38613295Y-99017697D01*
X38639825Y-99105155D01*
X38640696Y-99114003D01*
X38641594Y-99117158D01*
X38650933Y-99217944D01*
X38660000Y-99310000D01*
X38650932Y-99402063D01*
X38641594Y-99502841D01*
X38640696Y-99505994D01*
X38639825Y-99514845D01*
X38613290Y-99602317D01*
X38588596Y-99689110D01*
X38584415Y-99697504D01*
X38580074Y-99711818D01*
X38539364Y-99787979D01*
X38502273Y-99862469D01*
X38492949Y-99874815D01*
X38483043Y-99893349D01*
X38431829Y-99955752D01*
X38385564Y-100017019D01*
X38369624Y-100031549D01*
X38352462Y-100052462D01*
X38294535Y-100100000D01*
X38242442Y-100147490D01*
X38218934Y-100162045D01*
X38193349Y-100183043D01*
X38132457Y-100215590D01*
X38077786Y-100249442D01*
X38046321Y-100261631D01*
X38011818Y-100280074D01*
X37951426Y-100298393D01*
X37897202Y-100319400D01*
X37858049Y-100326719D01*
X37814845Y-100339825D01*
X37757985Y-100345425D01*
X37706830Y-100354988D01*
X37660889Y-100354988D01*
X37610000Y-100360000D01*
X37559111Y-100354988D01*
X37513170Y-100354988D01*
X37462014Y-100345424D01*
X37405155Y-100339825D01*
X37361952Y-100326719D01*
X37322797Y-100319400D01*
X37268569Y-100298392D01*
X37208182Y-100280074D01*
X37173680Y-100261632D01*
X37142213Y-100249442D01*
X37087535Y-100215586D01*
X37026651Y-100183043D01*
X37001068Y-100162047D01*
X36977557Y-100147490D01*
X36925454Y-100099992D01*
X36867538Y-100052462D01*
X36850378Y-100031553D01*
X36834435Y-100017019D01*
X36788158Y-99955737D01*
X36736957Y-99893349D01*
X36727053Y-99874820D01*
X36717726Y-99862469D01*
X36680620Y-99787951D01*
X36639926Y-99711818D01*
X36635585Y-99697509D01*
X36631403Y-99689110D01*
X36606693Y-99602264D01*
X36580175Y-99514845D01*
X36579303Y-99506000D01*
X36578405Y-99502841D01*
X36569050Y-99401891D01*
X36560000Y-99310000D01*
X36569049Y-99218116D01*
X36578405Y-99117158D01*
X36579304Y-99113998D01*
X36580175Y-99105155D01*
X36606688Y-99017750D01*
X36631403Y-98930889D01*
X36635586Y-98922487D01*
X36639926Y-98908182D01*
X36680613Y-98832061D01*
X36717726Y-98757530D01*
X36727054Y-98745176D01*
X36736957Y-98726651D01*
X36788148Y-98664274D01*
X36834435Y-98602980D01*
X36850381Y-98588442D01*
X36867538Y-98567538D01*
X36925443Y-98520016D01*
X36977557Y-98472509D01*
X37001073Y-98457948D01*
X37026651Y-98436957D01*
X37087523Y-98404419D01*
X37142213Y-98370557D01*
X37173687Y-98358363D01*
X37208182Y-98339926D01*
X37268557Y-98321611D01*
X37322797Y-98300599D01*
X37361959Y-98293278D01*
X37405155Y-98280175D01*
X37462011Y-98274575D01*
X37513170Y-98265012D01*
X37559111Y-98265012D01*
X37610000Y-98260000D01*
X37660889Y-98265012D01*
G37*
G36*
X35936043Y-95723191D02*
G01*
X35968727Y-95727494D01*
X35976948Y-95731327D01*
X35996537Y-95735224D01*
X36022480Y-95752559D01*
X36033608Y-95757748D01*
X36040378Y-95764518D01*
X36061421Y-95778579D01*
X36075481Y-95799621D01*
X36082251Y-95806391D01*
X36087438Y-95817516D01*
X36104776Y-95843463D01*
X36108672Y-95863053D01*
X36112505Y-95871272D01*
X36116806Y-95903945D01*
X36120000Y-95920000D01*
X36120000Y-97620000D01*
X36116805Y-97636058D01*
X36112505Y-97668727D01*
X36108673Y-97676944D01*
X36104776Y-97696537D01*
X36087437Y-97722485D01*
X36082251Y-97733608D01*
X36075483Y-97740375D01*
X36061421Y-97761421D01*
X36040375Y-97775483D01*
X36033608Y-97782251D01*
X36022485Y-97787437D01*
X35996537Y-97804776D01*
X35976944Y-97808673D01*
X35968727Y-97812505D01*
X35936056Y-97816806D01*
X35920000Y-97820000D01*
X34220000Y-97820000D01*
X34203943Y-97816806D01*
X34171272Y-97812505D01*
X34163053Y-97808672D01*
X34143463Y-97804776D01*
X34117516Y-97787438D01*
X34106391Y-97782251D01*
X34099621Y-97775481D01*
X34078579Y-97761421D01*
X34064518Y-97740378D01*
X34057748Y-97733608D01*
X34052559Y-97722480D01*
X34035224Y-97696537D01*
X34031327Y-97676948D01*
X34027494Y-97668727D01*
X34023190Y-97636041D01*
X34020000Y-97620000D01*
X34020000Y-95920000D01*
X34023190Y-95903958D01*
X34027494Y-95871272D01*
X34031327Y-95863049D01*
X34035224Y-95843463D01*
X34052557Y-95817521D01*
X34057748Y-95806391D01*
X34064520Y-95799618D01*
X34078579Y-95778579D01*
X34099618Y-95764520D01*
X34106391Y-95757748D01*
X34117521Y-95752557D01*
X34143463Y-95735224D01*
X34163049Y-95731327D01*
X34171272Y-95727494D01*
X34203960Y-95723190D01*
X34220000Y-95720000D01*
X35920000Y-95720000D01*
X35936043Y-95723191D01*
G37*
G36*
X37660889Y-95725012D02*
G01*
X37706830Y-95725012D01*
X37757988Y-95734575D01*
X37814845Y-95740175D01*
X37858042Y-95753278D01*
X37897202Y-95760599D01*
X37951438Y-95781609D01*
X38011818Y-95799926D01*
X38046315Y-95818365D01*
X38077786Y-95830557D01*
X38132469Y-95864415D01*
X38193349Y-95896957D01*
X38218929Y-95917950D01*
X38242442Y-95932509D01*
X38294546Y-95980008D01*
X38352462Y-96027538D01*
X38369621Y-96048446D01*
X38385564Y-96062980D01*
X38431838Y-96124258D01*
X38483043Y-96186651D01*
X38492947Y-96205180D01*
X38502273Y-96217530D01*
X38539372Y-96292034D01*
X38580074Y-96368182D01*
X38584415Y-96382492D01*
X38588596Y-96390889D01*
X38613295Y-96477697D01*
X38639825Y-96565155D01*
X38640696Y-96574003D01*
X38641594Y-96577158D01*
X38650933Y-96677944D01*
X38660000Y-96770000D01*
X38650932Y-96862063D01*
X38641594Y-96962841D01*
X38640696Y-96965994D01*
X38639825Y-96974845D01*
X38613290Y-97062317D01*
X38588596Y-97149110D01*
X38584415Y-97157504D01*
X38580074Y-97171818D01*
X38539364Y-97247979D01*
X38502273Y-97322469D01*
X38492949Y-97334815D01*
X38483043Y-97353349D01*
X38431829Y-97415752D01*
X38385564Y-97477019D01*
X38369624Y-97491549D01*
X38352462Y-97512462D01*
X38294535Y-97560000D01*
X38242442Y-97607490D01*
X38218934Y-97622045D01*
X38193349Y-97643043D01*
X38132457Y-97675590D01*
X38077786Y-97709442D01*
X38046321Y-97721631D01*
X38011818Y-97740074D01*
X37951426Y-97758393D01*
X37897202Y-97779400D01*
X37858049Y-97786719D01*
X37814845Y-97799825D01*
X37757985Y-97805425D01*
X37706830Y-97814988D01*
X37660889Y-97814988D01*
X37610000Y-97820000D01*
X37559111Y-97814988D01*
X37513170Y-97814988D01*
X37462014Y-97805424D01*
X37405155Y-97799825D01*
X37361952Y-97786719D01*
X37322797Y-97779400D01*
X37268569Y-97758392D01*
X37208182Y-97740074D01*
X37173680Y-97721632D01*
X37142213Y-97709442D01*
X37087535Y-97675586D01*
X37026651Y-97643043D01*
X37001068Y-97622047D01*
X36977557Y-97607490D01*
X36925454Y-97559992D01*
X36867538Y-97512462D01*
X36850378Y-97491553D01*
X36834435Y-97477019D01*
X36788158Y-97415737D01*
X36736957Y-97353349D01*
X36727053Y-97334820D01*
X36717726Y-97322469D01*
X36680620Y-97247951D01*
X36639926Y-97171818D01*
X36635585Y-97157509D01*
X36631403Y-97149110D01*
X36606693Y-97062264D01*
X36580175Y-96974845D01*
X36579303Y-96966000D01*
X36578405Y-96962841D01*
X36569050Y-96861891D01*
X36560000Y-96770000D01*
X36569049Y-96678116D01*
X36578405Y-96577158D01*
X36579304Y-96573998D01*
X36580175Y-96565155D01*
X36606688Y-96477750D01*
X36631403Y-96390889D01*
X36635586Y-96382487D01*
X36639926Y-96368182D01*
X36680613Y-96292061D01*
X36717726Y-96217530D01*
X36727054Y-96205176D01*
X36736957Y-96186651D01*
X36788148Y-96124274D01*
X36834435Y-96062980D01*
X36850381Y-96048442D01*
X36867538Y-96027538D01*
X36925443Y-95980016D01*
X36977557Y-95932509D01*
X37001073Y-95917948D01*
X37026651Y-95896957D01*
X37087523Y-95864419D01*
X37142213Y-95830557D01*
X37173687Y-95818363D01*
X37208182Y-95799926D01*
X37268557Y-95781611D01*
X37322797Y-95760599D01*
X37361959Y-95753278D01*
X37405155Y-95740175D01*
X37462011Y-95734575D01*
X37513170Y-95725012D01*
X37559111Y-95725012D01*
X37610000Y-95720000D01*
X37660889Y-95725012D01*
G37*
G36*
X35450889Y-88405012D02*
G01*
X35496830Y-88405012D01*
X35547988Y-88414575D01*
X35604845Y-88420175D01*
X35648042Y-88433278D01*
X35687202Y-88440599D01*
X35741438Y-88461609D01*
X35801818Y-88479926D01*
X35836315Y-88498365D01*
X35867786Y-88510557D01*
X35922469Y-88544415D01*
X35983349Y-88576957D01*
X36008929Y-88597950D01*
X36032442Y-88612509D01*
X36084546Y-88660008D01*
X36142462Y-88707538D01*
X36159621Y-88728446D01*
X36175564Y-88742980D01*
X36221838Y-88804258D01*
X36273043Y-88866651D01*
X36282947Y-88885180D01*
X36292273Y-88897530D01*
X36329372Y-88972034D01*
X36370074Y-89048182D01*
X36374415Y-89062492D01*
X36378596Y-89070889D01*
X36403295Y-89157697D01*
X36429825Y-89245155D01*
X36430696Y-89254003D01*
X36431594Y-89257158D01*
X36440933Y-89357944D01*
X36450000Y-89450000D01*
X36440932Y-89542063D01*
X36431594Y-89642841D01*
X36430696Y-89645994D01*
X36429825Y-89654845D01*
X36403290Y-89742317D01*
X36378596Y-89829110D01*
X36374415Y-89837504D01*
X36370074Y-89851818D01*
X36329364Y-89927979D01*
X36292273Y-90002469D01*
X36282949Y-90014815D01*
X36273043Y-90033349D01*
X36221829Y-90095752D01*
X36175564Y-90157019D01*
X36159624Y-90171549D01*
X36142462Y-90192462D01*
X36084535Y-90240000D01*
X36032442Y-90287490D01*
X36008934Y-90302045D01*
X35983349Y-90323043D01*
X35922457Y-90355590D01*
X35867786Y-90389442D01*
X35836321Y-90401631D01*
X35801818Y-90420074D01*
X35741426Y-90438393D01*
X35687202Y-90459400D01*
X35648049Y-90466719D01*
X35604845Y-90479825D01*
X35547985Y-90485425D01*
X35496830Y-90494988D01*
X35450889Y-90494988D01*
X35400000Y-90500000D01*
X35349111Y-90494988D01*
X35303170Y-90494988D01*
X35252014Y-90485424D01*
X35195155Y-90479825D01*
X35151952Y-90466719D01*
X35112797Y-90459400D01*
X35058569Y-90438392D01*
X34998182Y-90420074D01*
X34963680Y-90401632D01*
X34932213Y-90389442D01*
X34877535Y-90355586D01*
X34816651Y-90323043D01*
X34791068Y-90302047D01*
X34767557Y-90287490D01*
X34715454Y-90239992D01*
X34657538Y-90192462D01*
X34640378Y-90171553D01*
X34624435Y-90157019D01*
X34578158Y-90095737D01*
X34526957Y-90033349D01*
X34517053Y-90014820D01*
X34507726Y-90002469D01*
X34470620Y-89927951D01*
X34429926Y-89851818D01*
X34425585Y-89837509D01*
X34421403Y-89829110D01*
X34396693Y-89742264D01*
X34370175Y-89654845D01*
X34369303Y-89646000D01*
X34368405Y-89642841D01*
X34359050Y-89541891D01*
X34350000Y-89450000D01*
X34359049Y-89358116D01*
X34368405Y-89257158D01*
X34369304Y-89253998D01*
X34370175Y-89245155D01*
X34396688Y-89157750D01*
X34421403Y-89070889D01*
X34425586Y-89062487D01*
X34429926Y-89048182D01*
X34470613Y-88972061D01*
X34507726Y-88897530D01*
X34517054Y-88885176D01*
X34526957Y-88866651D01*
X34578148Y-88804274D01*
X34624435Y-88742980D01*
X34640381Y-88728442D01*
X34657538Y-88707538D01*
X34715443Y-88660016D01*
X34767557Y-88612509D01*
X34791073Y-88597948D01*
X34816651Y-88576957D01*
X34877523Y-88544419D01*
X34932213Y-88510557D01*
X34963687Y-88498363D01*
X34998182Y-88479926D01*
X35058557Y-88461611D01*
X35112797Y-88440599D01*
X35151959Y-88433278D01*
X35195155Y-88420175D01*
X35252011Y-88414575D01*
X35303170Y-88405012D01*
X35349111Y-88405012D01*
X35400000Y-88400000D01*
X35450889Y-88405012D01*
G37*
G36*
X38806043Y-88403191D02*
G01*
X38838727Y-88407494D01*
X38846948Y-88411327D01*
X38866537Y-88415224D01*
X38892480Y-88432559D01*
X38903608Y-88437748D01*
X38910378Y-88444518D01*
X38931421Y-88458579D01*
X38945481Y-88479621D01*
X38952251Y-88486391D01*
X38957438Y-88497516D01*
X38974776Y-88523463D01*
X38978672Y-88543053D01*
X38982505Y-88551272D01*
X38986806Y-88583945D01*
X38990000Y-88600000D01*
X38990000Y-90300000D01*
X38986805Y-90316058D01*
X38982505Y-90348727D01*
X38978673Y-90356944D01*
X38974776Y-90376537D01*
X38957437Y-90402485D01*
X38952251Y-90413608D01*
X38945483Y-90420375D01*
X38931421Y-90441421D01*
X38910375Y-90455483D01*
X38903608Y-90462251D01*
X38892485Y-90467437D01*
X38866537Y-90484776D01*
X38846944Y-90488673D01*
X38838727Y-90492505D01*
X38806056Y-90496806D01*
X38790000Y-90500000D01*
X37090000Y-90500000D01*
X37073943Y-90496806D01*
X37041272Y-90492505D01*
X37033053Y-90488672D01*
X37013463Y-90484776D01*
X36987516Y-90467438D01*
X36976391Y-90462251D01*
X36969621Y-90455481D01*
X36948579Y-90441421D01*
X36934518Y-90420378D01*
X36927748Y-90413608D01*
X36922559Y-90402480D01*
X36905224Y-90376537D01*
X36901327Y-90356948D01*
X36897494Y-90348727D01*
X36893190Y-90316041D01*
X36890000Y-90300000D01*
X36890000Y-88600000D01*
X36893190Y-88583958D01*
X36897494Y-88551272D01*
X36901327Y-88543049D01*
X36905224Y-88523463D01*
X36922557Y-88497521D01*
X36927748Y-88486391D01*
X36934520Y-88479618D01*
X36948579Y-88458579D01*
X36969618Y-88444520D01*
X36976391Y-88437748D01*
X36987521Y-88432557D01*
X37013463Y-88415224D01*
X37033049Y-88411327D01*
X37041272Y-88407494D01*
X37073960Y-88403190D01*
X37090000Y-88400000D01*
X38790000Y-88400000D01*
X38806043Y-88403191D01*
G37*
G36*
X35628612Y-85953371D02*
G01*
X35763199Y-85980142D01*
X35889978Y-86032655D01*
X36004075Y-86108893D01*
X36101107Y-86205925D01*
X36177345Y-86320022D01*
X36229858Y-86446801D01*
X36256629Y-86581388D01*
X36256629Y-86718612D01*
X36229858Y-86853199D01*
X36177345Y-86979978D01*
X36101107Y-87094075D01*
X36004075Y-87191107D01*
X35889978Y-87267345D01*
X35763199Y-87319858D01*
X35628612Y-87346629D01*
X34760000Y-87350000D01*
X34691388Y-87346629D01*
X34556801Y-87319858D01*
X34430022Y-87267345D01*
X34315925Y-87191107D01*
X34218893Y-87094075D01*
X34142655Y-86979978D01*
X34090142Y-86853199D01*
X34063371Y-86718612D01*
X34063371Y-86581388D01*
X34090142Y-86446801D01*
X34142655Y-86320022D01*
X34218893Y-86205925D01*
X34315925Y-86108893D01*
X34430022Y-86032655D01*
X34556801Y-85980142D01*
X34691388Y-85953371D01*
X35560000Y-85950000D01*
X35628612Y-85953371D01*
G37*
G36*
X38875996Y-84699739D02*
G01*
X38903171Y-84699739D01*
X38934330Y-84707418D01*
X38975880Y-84712889D01*
X39004319Y-84724669D01*
X39025843Y-84729974D01*
X39058477Y-84747101D01*
X39102500Y-84765337D01*
X39122586Y-84780749D01*
X39137711Y-84788688D01*
X39168632Y-84816082D01*
X39211231Y-84848769D01*
X39223337Y-84864546D01*
X39232280Y-84872469D01*
X39257927Y-84909625D01*
X39294663Y-84957500D01*
X39300199Y-84970865D01*
X39304052Y-84976447D01*
X39320762Y-85020509D01*
X39347111Y-85084120D01*
X39348293Y-85093104D01*
X39348852Y-85094576D01*
X39353176Y-85130190D01*
X39365000Y-85220000D01*
X39353175Y-85309817D01*
X39348852Y-85345423D01*
X39348293Y-85346894D01*
X39347111Y-85355880D01*
X39320758Y-85419500D01*
X39304052Y-85463552D01*
X39300200Y-85469132D01*
X39294663Y-85482500D01*
X39257920Y-85530383D01*
X39232280Y-85567530D01*
X39223340Y-85575450D01*
X39211231Y-85591231D01*
X39168624Y-85623924D01*
X39137711Y-85651311D01*
X39122591Y-85659246D01*
X39102500Y-85674663D01*
X39058459Y-85692905D01*
X39025949Y-85709968D01*
X39004763Y-85715147D01*
X38975880Y-85727111D01*
X38932686Y-85732797D01*
X38959554Y-85952741D01*
X39910000Y-85950000D01*
X39978612Y-85953371D01*
X40113199Y-85980142D01*
X40239978Y-86032655D01*
X40354075Y-86108893D01*
X40451107Y-86205925D01*
X40527345Y-86320022D01*
X40579858Y-86446801D01*
X40606629Y-86581388D01*
X40606629Y-86718612D01*
X40579858Y-86853199D01*
X40527345Y-86979978D01*
X40451107Y-87094075D01*
X40354075Y-87191107D01*
X40239978Y-87267345D01*
X40113199Y-87319858D01*
X39978612Y-87346629D01*
X38810000Y-87350000D01*
X38741388Y-87346629D01*
X38606801Y-87319858D01*
X38480022Y-87267345D01*
X38365925Y-87191107D01*
X38268893Y-87094075D01*
X38192655Y-86979978D01*
X38140142Y-86853199D01*
X38113371Y-86718612D01*
X38113371Y-86581388D01*
X38140142Y-86446801D01*
X38192655Y-86320022D01*
X38268893Y-86205925D01*
X38365925Y-86108893D01*
X38480022Y-86032655D01*
X38606801Y-85980142D01*
X38741388Y-85953371D01*
X38744515Y-85953361D01*
X38788354Y-85944642D01*
X38792896Y-85744221D01*
X38745671Y-85732581D01*
X38704120Y-85727111D01*
X38675676Y-85715329D01*
X38654156Y-85710025D01*
X38621527Y-85692899D01*
X38577500Y-85674663D01*
X38557411Y-85659248D01*
X38542288Y-85651311D01*
X38511368Y-85623918D01*
X38468769Y-85591231D01*
X38456662Y-85575452D01*
X38447719Y-85567530D01*
X38422069Y-85530370D01*
X38385337Y-85482500D01*
X38379801Y-85469136D01*
X38375947Y-85463552D01*
X38359229Y-85419472D01*
X38332889Y-85355880D01*
X38331706Y-85346898D01*
X38331147Y-85345423D01*
X38326811Y-85309720D01*
X38315000Y-85220000D01*
X38326810Y-85130288D01*
X38331147Y-85094576D01*
X38331706Y-85093100D01*
X38332889Y-85084120D01*
X38359225Y-85020538D01*
X38375947Y-84976447D01*
X38379802Y-84970861D01*
X38385337Y-84957500D01*
X38422062Y-84909638D01*
X38447719Y-84872469D01*
X38456664Y-84864544D01*
X38468769Y-84848769D01*
X38511360Y-84816087D01*
X38542288Y-84788688D01*
X38557415Y-84780748D01*
X38577500Y-84765337D01*
X38621518Y-84747103D01*
X38654156Y-84729974D01*
X38675681Y-84724668D01*
X38704120Y-84712889D01*
X38745668Y-84707418D01*
X38776829Y-84699739D01*
X38804004Y-84699739D01*
X38840000Y-84695000D01*
X38875996Y-84699739D01*
G37*
G36*
X48086218Y-84258193D02*
G01*
X48116919Y-84264300D01*
X48133575Y-84275429D01*
X48139536Y-84277599D01*
X48150146Y-84286502D01*
X48182128Y-84307872D01*
X48190441Y-84320313D01*
X48192499Y-84322040D01*
X48198244Y-84331991D01*
X48225700Y-84373081D01*
X48241000Y-84450000D01*
X48225700Y-84526919D01*
X48198240Y-84568014D01*
X48192499Y-84577959D01*
X48190442Y-84579684D01*
X48182128Y-84592128D01*
X48150141Y-84613501D01*
X48139536Y-84622400D01*
X48133578Y-84624568D01*
X48116919Y-84635700D01*
X48086217Y-84641806D01*
X48074568Y-84646047D01*
X48064901Y-84646047D01*
X48040000Y-84651000D01*
X48015099Y-84646047D01*
X48005432Y-84646047D01*
X47993782Y-84641806D01*
X47963081Y-84635700D01*
X47946422Y-84624569D01*
X47940463Y-84622400D01*
X47929854Y-84613498D01*
X47897872Y-84592128D01*
X47889558Y-84579686D01*
X47887500Y-84577959D01*
X47881752Y-84568003D01*
X47854300Y-84526919D01*
X47839000Y-84450000D01*
X47854300Y-84373081D01*
X47881750Y-84331998D01*
X47887501Y-84322039D01*
X47889560Y-84320310D01*
X47897872Y-84307872D01*
X47929847Y-84286506D01*
X47940464Y-84277598D01*
X47946428Y-84275427D01*
X47963081Y-84264300D01*
X47993769Y-84258195D01*
X48039996Y-84241370D01*
X48086218Y-84258193D01*
G37*
G36*
X49486218Y-84258193D02*
G01*
X49516919Y-84264300D01*
X49533575Y-84275429D01*
X49539536Y-84277599D01*
X49550146Y-84286502D01*
X49582128Y-84307872D01*
X49590441Y-84320313D01*
X49592499Y-84322040D01*
X49598244Y-84331991D01*
X49625700Y-84373081D01*
X49641000Y-84450000D01*
X49625700Y-84526919D01*
X49598240Y-84568014D01*
X49592499Y-84577959D01*
X49590442Y-84579684D01*
X49582128Y-84592128D01*
X49550141Y-84613501D01*
X49539536Y-84622400D01*
X49533578Y-84624568D01*
X49516919Y-84635700D01*
X49486217Y-84641806D01*
X49474568Y-84646047D01*
X49464901Y-84646047D01*
X49440000Y-84651000D01*
X49415099Y-84646047D01*
X49405432Y-84646047D01*
X49393782Y-84641806D01*
X49363081Y-84635700D01*
X49346422Y-84624569D01*
X49340463Y-84622400D01*
X49329854Y-84613498D01*
X49297872Y-84592128D01*
X49289558Y-84579686D01*
X49287500Y-84577959D01*
X49281752Y-84568003D01*
X49254300Y-84526919D01*
X49239000Y-84450000D01*
X49254300Y-84373081D01*
X49281750Y-84331998D01*
X49287501Y-84322039D01*
X49289560Y-84320310D01*
X49297872Y-84307872D01*
X49329847Y-84286506D01*
X49340464Y-84277598D01*
X49346428Y-84275427D01*
X49363081Y-84264300D01*
X49393769Y-84258195D01*
X49439996Y-84241370D01*
X49486218Y-84258193D01*
G37*
G36*
X59936218Y-84148193D02*
G01*
X59966919Y-84154300D01*
X59983575Y-84165429D01*
X59989536Y-84167599D01*
X60000146Y-84176502D01*
X60032128Y-84197872D01*
X60040441Y-84210313D01*
X60042499Y-84212040D01*
X60048244Y-84221991D01*
X60075700Y-84263081D01*
X60091000Y-84340000D01*
X60075700Y-84416919D01*
X60048240Y-84458014D01*
X60042499Y-84467959D01*
X60040442Y-84469684D01*
X60032128Y-84482128D01*
X60000141Y-84503501D01*
X59989536Y-84512400D01*
X59983578Y-84514568D01*
X59966919Y-84525700D01*
X59936217Y-84531806D01*
X59924568Y-84536047D01*
X59914901Y-84536047D01*
X59890000Y-84541000D01*
X59865099Y-84536047D01*
X59855432Y-84536047D01*
X59843782Y-84531806D01*
X59813081Y-84525700D01*
X59796422Y-84514569D01*
X59790463Y-84512400D01*
X59779854Y-84503498D01*
X59747872Y-84482128D01*
X59739558Y-84469686D01*
X59737500Y-84467959D01*
X59731752Y-84458003D01*
X59704300Y-84416919D01*
X59689000Y-84340000D01*
X59704300Y-84263081D01*
X59731750Y-84221998D01*
X59737501Y-84212039D01*
X59739560Y-84210310D01*
X59747872Y-84197872D01*
X59779847Y-84176506D01*
X59790464Y-84167598D01*
X59796428Y-84165427D01*
X59813081Y-84154300D01*
X59843769Y-84148195D01*
X59889996Y-84131370D01*
X59936218Y-84148193D01*
G37*
G36*
X61336218Y-84148193D02*
G01*
X61366919Y-84154300D01*
X61383575Y-84165429D01*
X61389536Y-84167599D01*
X61400146Y-84176502D01*
X61432128Y-84197872D01*
X61440441Y-84210313D01*
X61442499Y-84212040D01*
X61448244Y-84221991D01*
X61475700Y-84263081D01*
X61491000Y-84340000D01*
X61475700Y-84416919D01*
X61448240Y-84458014D01*
X61442499Y-84467959D01*
X61440442Y-84469684D01*
X61432128Y-84482128D01*
X61400141Y-84503501D01*
X61389536Y-84512400D01*
X61383578Y-84514568D01*
X61366919Y-84525700D01*
X61336217Y-84531806D01*
X61324568Y-84536047D01*
X61314901Y-84536047D01*
X61290000Y-84541000D01*
X61265099Y-84536047D01*
X61255432Y-84536047D01*
X61243782Y-84531806D01*
X61213081Y-84525700D01*
X61196422Y-84514569D01*
X61190463Y-84512400D01*
X61179854Y-84503498D01*
X61147872Y-84482128D01*
X61139558Y-84469686D01*
X61137500Y-84467959D01*
X61131752Y-84458003D01*
X61104300Y-84416919D01*
X61089000Y-84340000D01*
X61104300Y-84263081D01*
X61131750Y-84221998D01*
X61137501Y-84212039D01*
X61139560Y-84210310D01*
X61147872Y-84197872D01*
X61179847Y-84176506D01*
X61190464Y-84167598D01*
X61196428Y-84165427D01*
X61213081Y-84154300D01*
X61243769Y-84148195D01*
X61289996Y-84131370D01*
X61336218Y-84148193D01*
G37*
G36*
X48086218Y-83658193D02*
G01*
X48116919Y-83664300D01*
X48133575Y-83675429D01*
X48139536Y-83677599D01*
X48150146Y-83686502D01*
X48182128Y-83707872D01*
X48190441Y-83720313D01*
X48192499Y-83722040D01*
X48198244Y-83731991D01*
X48225700Y-83773081D01*
X48241000Y-83850000D01*
X48225700Y-83926919D01*
X48198240Y-83968014D01*
X48192499Y-83977959D01*
X48190442Y-83979684D01*
X48182128Y-83992128D01*
X48150141Y-84013501D01*
X48139536Y-84022400D01*
X48133578Y-84024568D01*
X48116919Y-84035700D01*
X48086211Y-84041808D01*
X48039998Y-84058628D01*
X47993782Y-84041806D01*
X47963081Y-84035700D01*
X47946422Y-84024569D01*
X47940463Y-84022400D01*
X47929854Y-84013498D01*
X47897872Y-83992128D01*
X47889558Y-83979686D01*
X47887500Y-83977959D01*
X47881752Y-83968003D01*
X47854300Y-83926919D01*
X47839000Y-83850000D01*
X47854300Y-83773081D01*
X47881750Y-83731998D01*
X47887501Y-83722039D01*
X47889560Y-83720310D01*
X47897872Y-83707872D01*
X47929847Y-83686506D01*
X47940464Y-83677598D01*
X47946428Y-83675427D01*
X47963081Y-83664300D01*
X47993769Y-83658195D01*
X48039996Y-83641370D01*
X48086218Y-83658193D01*
G37*
G36*
X49486218Y-83658193D02*
G01*
X49516919Y-83664300D01*
X49533575Y-83675429D01*
X49539536Y-83677599D01*
X49550146Y-83686502D01*
X49582128Y-83707872D01*
X49590441Y-83720313D01*
X49592499Y-83722040D01*
X49598244Y-83731991D01*
X49625700Y-83773081D01*
X49641000Y-83850000D01*
X49625700Y-83926919D01*
X49598240Y-83968014D01*
X49592499Y-83977959D01*
X49590442Y-83979684D01*
X49582128Y-83992128D01*
X49550141Y-84013501D01*
X49539536Y-84022400D01*
X49533578Y-84024568D01*
X49516919Y-84035700D01*
X49486211Y-84041808D01*
X49439998Y-84058628D01*
X49393782Y-84041806D01*
X49363081Y-84035700D01*
X49346422Y-84024569D01*
X49340463Y-84022400D01*
X49329854Y-84013498D01*
X49297872Y-83992128D01*
X49289558Y-83979686D01*
X49287500Y-83977959D01*
X49281752Y-83968003D01*
X49254300Y-83926919D01*
X49239000Y-83850000D01*
X49254300Y-83773081D01*
X49281750Y-83731998D01*
X49287501Y-83722039D01*
X49289560Y-83720310D01*
X49297872Y-83707872D01*
X49329847Y-83686506D01*
X49340464Y-83677598D01*
X49346428Y-83675427D01*
X49363081Y-83664300D01*
X49393769Y-83658195D01*
X49439996Y-83641370D01*
X49486218Y-83658193D01*
G37*
G36*
X59936218Y-83548193D02*
G01*
X59966919Y-83554300D01*
X59983575Y-83565429D01*
X59989536Y-83567599D01*
X60000146Y-83576502D01*
X60032128Y-83597872D01*
X60040441Y-83610313D01*
X60042499Y-83612040D01*
X60048244Y-83621991D01*
X60075700Y-83663081D01*
X60091000Y-83740000D01*
X60075700Y-83816919D01*
X60048240Y-83858014D01*
X60042499Y-83867959D01*
X60040442Y-83869684D01*
X60032128Y-83882128D01*
X60000141Y-83903501D01*
X59989536Y-83912400D01*
X59983578Y-83914568D01*
X59966919Y-83925700D01*
X59936211Y-83931808D01*
X59889998Y-83948628D01*
X59843782Y-83931806D01*
X59813081Y-83925700D01*
X59796422Y-83914569D01*
X59790463Y-83912400D01*
X59779854Y-83903498D01*
X59747872Y-83882128D01*
X59739558Y-83869686D01*
X59737500Y-83867959D01*
X59731752Y-83858003D01*
X59704300Y-83816919D01*
X59689000Y-83740000D01*
X59704300Y-83663081D01*
X59731750Y-83621998D01*
X59737501Y-83612039D01*
X59739560Y-83610310D01*
X59747872Y-83597872D01*
X59779847Y-83576506D01*
X59790464Y-83567598D01*
X59796428Y-83565427D01*
X59813081Y-83554300D01*
X59843769Y-83548195D01*
X59889996Y-83531370D01*
X59936218Y-83548193D01*
G37*
G36*
X61336218Y-83548193D02*
G01*
X61366919Y-83554300D01*
X61383575Y-83565429D01*
X61389536Y-83567599D01*
X61400146Y-83576502D01*
X61432128Y-83597872D01*
X61440441Y-83610313D01*
X61442499Y-83612040D01*
X61448244Y-83621991D01*
X61475700Y-83663081D01*
X61491000Y-83740000D01*
X61475700Y-83816919D01*
X61448240Y-83858014D01*
X61442499Y-83867959D01*
X61440442Y-83869684D01*
X61432128Y-83882128D01*
X61400141Y-83903501D01*
X61389536Y-83912400D01*
X61383578Y-83914568D01*
X61366919Y-83925700D01*
X61336211Y-83931808D01*
X61289998Y-83948628D01*
X61243782Y-83931806D01*
X61213081Y-83925700D01*
X61196422Y-83914569D01*
X61190463Y-83912400D01*
X61179854Y-83903498D01*
X61147872Y-83882128D01*
X61139558Y-83869686D01*
X61137500Y-83867959D01*
X61131752Y-83858003D01*
X61104300Y-83816919D01*
X61089000Y-83740000D01*
X61104300Y-83663081D01*
X61131750Y-83621998D01*
X61137501Y-83612039D01*
X61139560Y-83610310D01*
X61147872Y-83597872D01*
X61179847Y-83576506D01*
X61190464Y-83567598D01*
X61196428Y-83565427D01*
X61213081Y-83554300D01*
X61243769Y-83548195D01*
X61289996Y-83531370D01*
X61336218Y-83548193D01*
G37*
G36*
X48064901Y-83053953D02*
G01*
X48074568Y-83053953D01*
X48086218Y-83058193D01*
X48116919Y-83064300D01*
X48133575Y-83075429D01*
X48139536Y-83077599D01*
X48150146Y-83086502D01*
X48182128Y-83107872D01*
X48190441Y-83120313D01*
X48192499Y-83122040D01*
X48198244Y-83131991D01*
X48225700Y-83173081D01*
X48241000Y-83250000D01*
X48225700Y-83326919D01*
X48198240Y-83368014D01*
X48192499Y-83377959D01*
X48190442Y-83379684D01*
X48182128Y-83392128D01*
X48150141Y-83413501D01*
X48139536Y-83422400D01*
X48133578Y-83424568D01*
X48116919Y-83435700D01*
X48086211Y-83441808D01*
X48039998Y-83458628D01*
X47993782Y-83441806D01*
X47963081Y-83435700D01*
X47946422Y-83424569D01*
X47940463Y-83422400D01*
X47929854Y-83413498D01*
X47897872Y-83392128D01*
X47889558Y-83379686D01*
X47887500Y-83377959D01*
X47881752Y-83368003D01*
X47854300Y-83326919D01*
X47839000Y-83250000D01*
X47854300Y-83173081D01*
X47881750Y-83131998D01*
X47887501Y-83122039D01*
X47889560Y-83120310D01*
X47897872Y-83107872D01*
X47929848Y-83086505D01*
X47940462Y-83077600D01*
X47946423Y-83075430D01*
X47963081Y-83064300D01*
X47993783Y-83058192D01*
X48005433Y-83053953D01*
X48015099Y-83053953D01*
X48040000Y-83049000D01*
X48064901Y-83053953D01*
G37*
G36*
X49464901Y-83053953D02*
G01*
X49474568Y-83053953D01*
X49486218Y-83058193D01*
X49516919Y-83064300D01*
X49533575Y-83075429D01*
X49539536Y-83077599D01*
X49550146Y-83086502D01*
X49582128Y-83107872D01*
X49590441Y-83120313D01*
X49592499Y-83122040D01*
X49598244Y-83131991D01*
X49625700Y-83173081D01*
X49641000Y-83250000D01*
X49625700Y-83326919D01*
X49598240Y-83368014D01*
X49592499Y-83377959D01*
X49590442Y-83379684D01*
X49582128Y-83392128D01*
X49550141Y-83413501D01*
X49539536Y-83422400D01*
X49533578Y-83424568D01*
X49516919Y-83435700D01*
X49486211Y-83441808D01*
X49439998Y-83458628D01*
X49393782Y-83441806D01*
X49363081Y-83435700D01*
X49346422Y-83424569D01*
X49340463Y-83422400D01*
X49329854Y-83413498D01*
X49297872Y-83392128D01*
X49289558Y-83379686D01*
X49287500Y-83377959D01*
X49281752Y-83368003D01*
X49254300Y-83326919D01*
X49239000Y-83250000D01*
X49254300Y-83173081D01*
X49281750Y-83131998D01*
X49287501Y-83122039D01*
X49289560Y-83120310D01*
X49297872Y-83107872D01*
X49329848Y-83086505D01*
X49340462Y-83077600D01*
X49346423Y-83075430D01*
X49363081Y-83064300D01*
X49393783Y-83058192D01*
X49405433Y-83053953D01*
X49415099Y-83053953D01*
X49440000Y-83049000D01*
X49464901Y-83053953D01*
G37*
G36*
X59914901Y-82943953D02*
G01*
X59924568Y-82943953D01*
X59936218Y-82948193D01*
X59966919Y-82954300D01*
X59983575Y-82965429D01*
X59989536Y-82967599D01*
X60000146Y-82976502D01*
X60032128Y-82997872D01*
X60040441Y-83010313D01*
X60042499Y-83012040D01*
X60048244Y-83021991D01*
X60075700Y-83063081D01*
X60091000Y-83140000D01*
X60075700Y-83216919D01*
X60048240Y-83258014D01*
X60042499Y-83267959D01*
X60040442Y-83269684D01*
X60032128Y-83282128D01*
X60000141Y-83303501D01*
X59989536Y-83312400D01*
X59983578Y-83314568D01*
X59966919Y-83325700D01*
X59936211Y-83331808D01*
X59889998Y-83348628D01*
X59843782Y-83331806D01*
X59813081Y-83325700D01*
X59796422Y-83314569D01*
X59790463Y-83312400D01*
X59779854Y-83303498D01*
X59747872Y-83282128D01*
X59739558Y-83269686D01*
X59737500Y-83267959D01*
X59731752Y-83258003D01*
X59704300Y-83216919D01*
X59689000Y-83140000D01*
X59704300Y-83063081D01*
X59731750Y-83021998D01*
X59737501Y-83012039D01*
X59739560Y-83010310D01*
X59747872Y-82997872D01*
X59779848Y-82976505D01*
X59790462Y-82967600D01*
X59796423Y-82965430D01*
X59813081Y-82954300D01*
X59843783Y-82948192D01*
X59855433Y-82943953D01*
X59865099Y-82943953D01*
X59890000Y-82939000D01*
X59914901Y-82943953D01*
G37*
G36*
X61314901Y-82943953D02*
G01*
X61324568Y-82943953D01*
X61336218Y-82948193D01*
X61366919Y-82954300D01*
X61383575Y-82965429D01*
X61389536Y-82967599D01*
X61400146Y-82976502D01*
X61432128Y-82997872D01*
X61440441Y-83010313D01*
X61442499Y-83012040D01*
X61448244Y-83021991D01*
X61475700Y-83063081D01*
X61491000Y-83140000D01*
X61475700Y-83216919D01*
X61448240Y-83258014D01*
X61442499Y-83267959D01*
X61440442Y-83269684D01*
X61432128Y-83282128D01*
X61400141Y-83303501D01*
X61389536Y-83312400D01*
X61383578Y-83314568D01*
X61366919Y-83325700D01*
X61336211Y-83331808D01*
X61289998Y-83348628D01*
X61243782Y-83331806D01*
X61213081Y-83325700D01*
X61196422Y-83314569D01*
X61190463Y-83312400D01*
X61179854Y-83303498D01*
X61147872Y-83282128D01*
X61139558Y-83269686D01*
X61137500Y-83267959D01*
X61131752Y-83258003D01*
X61104300Y-83216919D01*
X61089000Y-83140000D01*
X61104300Y-83063081D01*
X61131750Y-83021998D01*
X61137501Y-83012039D01*
X61139560Y-83010310D01*
X61147872Y-82997872D01*
X61179848Y-82976505D01*
X61190462Y-82967600D01*
X61196423Y-82965430D01*
X61213081Y-82954300D01*
X61243783Y-82948192D01*
X61255433Y-82943953D01*
X61265099Y-82943953D01*
X61290000Y-82939000D01*
X61314901Y-82943953D01*
G37*
G36*
X39978612Y-77313371D02*
G01*
X40113199Y-77340142D01*
X40239978Y-77392655D01*
X40354075Y-77468893D01*
X40451107Y-77565925D01*
X40527345Y-77680022D01*
X40579858Y-77806801D01*
X40606629Y-77941388D01*
X40606629Y-78078612D01*
X40579858Y-78213199D01*
X40527345Y-78339978D01*
X40451107Y-78454075D01*
X40354075Y-78551107D01*
X40239978Y-78627345D01*
X40113199Y-78679858D01*
X39978612Y-78706629D01*
X38975856Y-78709521D01*
X38929404Y-78899359D01*
X39058478Y-78967102D01*
X39102500Y-78985337D01*
X39122583Y-79000747D01*
X39137711Y-79008687D01*
X39168638Y-79036086D01*
X39211231Y-79068769D01*
X39223337Y-79084546D01*
X39232280Y-79092469D01*
X39257927Y-79129625D01*
X39294663Y-79177500D01*
X39300199Y-79190865D01*
X39304052Y-79196447D01*
X39320762Y-79240509D01*
X39347111Y-79304120D01*
X39348293Y-79313104D01*
X39348852Y-79314576D01*
X39353176Y-79350190D01*
X39365000Y-79440000D01*
X39353175Y-79529817D01*
X39348852Y-79565423D01*
X39348293Y-79566894D01*
X39347111Y-79575880D01*
X39320758Y-79639500D01*
X39304052Y-79683552D01*
X39300200Y-79689132D01*
X39294663Y-79702500D01*
X39257920Y-79750383D01*
X39232280Y-79787530D01*
X39223340Y-79795450D01*
X39211231Y-79811231D01*
X39168624Y-79843924D01*
X39137711Y-79871311D01*
X39122590Y-79879246D01*
X39102500Y-79894663D01*
X39058467Y-79912901D01*
X39025843Y-79930025D01*
X39004324Y-79935328D01*
X38975880Y-79947111D01*
X38934328Y-79952581D01*
X38903171Y-79960261D01*
X38875996Y-79960261D01*
X38840000Y-79965000D01*
X38804004Y-79960261D01*
X38776829Y-79960261D01*
X38745671Y-79952581D01*
X38704120Y-79947111D01*
X38675676Y-79935329D01*
X38654156Y-79930025D01*
X38621527Y-79912899D01*
X38577500Y-79894663D01*
X38557411Y-79879248D01*
X38542288Y-79871311D01*
X38511368Y-79843918D01*
X38468769Y-79811231D01*
X38456662Y-79795452D01*
X38447719Y-79787530D01*
X38422069Y-79750370D01*
X38385337Y-79702500D01*
X38379801Y-79689136D01*
X38375947Y-79683552D01*
X38359229Y-79639472D01*
X38332889Y-79575880D01*
X38331706Y-79566898D01*
X38331147Y-79565423D01*
X38326811Y-79529720D01*
X38315000Y-79440000D01*
X38326810Y-79350288D01*
X38331147Y-79314576D01*
X38331706Y-79313100D01*
X38332889Y-79304120D01*
X38359225Y-79240538D01*
X38375947Y-79196447D01*
X38379802Y-79190861D01*
X38385337Y-79177500D01*
X38422062Y-79129638D01*
X38447719Y-79092469D01*
X38456664Y-79084544D01*
X38468769Y-79068769D01*
X38511360Y-79036087D01*
X38542288Y-79008688D01*
X38557415Y-79000748D01*
X38577500Y-78985337D01*
X38621521Y-78967102D01*
X38654159Y-78949973D01*
X38675685Y-78944667D01*
X38704120Y-78932889D01*
X38745652Y-78927421D01*
X38792897Y-78915776D01*
X38788353Y-78715355D01*
X38745495Y-78706830D01*
X38741388Y-78706629D01*
X38606801Y-78679858D01*
X38480022Y-78627345D01*
X38365925Y-78551107D01*
X38268893Y-78454075D01*
X38192655Y-78339978D01*
X38140142Y-78213199D01*
X38113371Y-78078612D01*
X38113371Y-77941388D01*
X38140142Y-77806801D01*
X38192655Y-77680022D01*
X38268893Y-77565925D01*
X38365925Y-77468893D01*
X38480022Y-77392655D01*
X38606801Y-77340142D01*
X38741388Y-77313371D01*
X39910000Y-77310000D01*
X39978612Y-77313371D01*
G37*
G36*
X35628612Y-77313371D02*
G01*
X35763199Y-77340142D01*
X35889978Y-77392655D01*
X36004075Y-77468893D01*
X36101107Y-77565925D01*
X36177345Y-77680022D01*
X36229858Y-77806801D01*
X36256629Y-77941388D01*
X36256629Y-78078612D01*
X36229858Y-78213199D01*
X36177345Y-78339978D01*
X36101107Y-78454075D01*
X36004075Y-78551107D01*
X35889978Y-78627345D01*
X35763199Y-78679858D01*
X35628612Y-78706629D01*
X34760000Y-78710000D01*
X34691388Y-78706629D01*
X34556801Y-78679858D01*
X34430022Y-78627345D01*
X34315925Y-78551107D01*
X34218893Y-78454075D01*
X34142655Y-78339978D01*
X34090142Y-78213199D01*
X34063371Y-78078612D01*
X34063371Y-77941388D01*
X34090142Y-77806801D01*
X34142655Y-77680022D01*
X34218893Y-77565925D01*
X34315925Y-77468893D01*
X34430022Y-77392655D01*
X34556801Y-77340142D01*
X34691388Y-77313371D01*
X35560000Y-77310000D01*
X35628612Y-77313371D01*
G37*
G36*
X66995630Y-74054867D02*
G01*
X67047318Y-74054867D01*
X67104284Y-74064373D01*
X67165743Y-74069750D01*
X67214009Y-74082682D01*
X67259026Y-74090195D01*
X67319419Y-74110927D01*
X67384626Y-74128400D01*
X67424564Y-74147023D01*
X67462032Y-74159886D01*
X67523587Y-74193198D01*
X67590000Y-74224167D01*
X67621268Y-74246061D01*
X67650796Y-74262041D01*
X67710903Y-74308824D01*
X67775624Y-74354142D01*
X67798433Y-74376951D01*
X67820177Y-74393875D01*
X67876033Y-74454551D01*
X67935858Y-74514376D01*
X67950958Y-74535942D01*
X67965543Y-74551785D01*
X68014201Y-74626261D01*
X68065833Y-74700000D01*
X68074450Y-74718480D01*
X68082937Y-74731470D01*
X68121459Y-74819292D01*
X68161600Y-74905374D01*
X68165338Y-74919324D01*
X68169158Y-74928033D01*
X68194736Y-75029039D01*
X68220250Y-75124257D01*
X68220989Y-75132711D01*
X68221847Y-75136097D01*
X68231891Y-75257321D01*
X68240000Y-75350000D01*
X68231890Y-75442686D01*
X68221847Y-75563902D01*
X68220989Y-75567286D01*
X68220250Y-75575743D01*
X68194731Y-75670977D01*
X68169158Y-75771966D01*
X68165338Y-75780673D01*
X68161600Y-75794626D01*
X68121452Y-75880723D01*
X68082937Y-75968529D01*
X68074452Y-75981515D01*
X68065833Y-76000000D01*
X68014191Y-76073751D01*
X67965543Y-76148214D01*
X67950961Y-76164053D01*
X67935858Y-76185624D01*
X67876021Y-76245460D01*
X67820177Y-76306124D01*
X67798437Y-76323044D01*
X67775624Y-76345858D01*
X67710890Y-76391184D01*
X67650796Y-76437958D01*
X67621274Y-76453934D01*
X67590000Y-76475833D01*
X67523573Y-76506807D01*
X67462032Y-76540113D01*
X67424573Y-76552972D01*
X67384626Y-76571600D01*
X67319406Y-76589075D01*
X67259026Y-76609804D01*
X67214016Y-76617314D01*
X67165743Y-76630250D01*
X67104280Y-76635627D01*
X67047318Y-76645133D01*
X66995630Y-76645133D01*
X66940000Y-76650000D01*
X66884370Y-76645133D01*
X66832682Y-76645133D01*
X66775718Y-76635627D01*
X66714257Y-76630250D01*
X66665984Y-76617315D01*
X66620973Y-76609804D01*
X66560588Y-76589074D01*
X66495374Y-76571600D01*
X66455429Y-76552973D01*
X66417967Y-76540113D01*
X66356418Y-76506804D01*
X66290000Y-76475833D01*
X66258728Y-76453936D01*
X66229203Y-76437958D01*
X66169099Y-76391177D01*
X66104376Y-76345858D01*
X66081565Y-76323047D01*
X66059822Y-76306124D01*
X66003965Y-76245447D01*
X65944142Y-76185624D01*
X65929041Y-76164057D01*
X65914456Y-76148214D01*
X65865793Y-76073730D01*
X65814167Y-76000000D01*
X65805550Y-75981521D01*
X65797062Y-75968529D01*
X65758530Y-75880687D01*
X65718400Y-75794626D01*
X65714662Y-75780678D01*
X65710841Y-75771966D01*
X65685250Y-75670909D01*
X65659750Y-75575743D01*
X65659010Y-75567293D01*
X65658152Y-75563902D01*
X65648090Y-75442470D01*
X65640000Y-75350000D01*
X65648089Y-75257537D01*
X65658152Y-75136097D01*
X65659010Y-75132705D01*
X65659750Y-75124257D01*
X65685245Y-75029107D01*
X65710841Y-74928033D01*
X65714663Y-74919318D01*
X65718400Y-74905374D01*
X65758523Y-74819328D01*
X65797062Y-74731470D01*
X65805551Y-74718475D01*
X65814167Y-74700000D01*
X65865783Y-74626283D01*
X65914456Y-74551785D01*
X65929044Y-74535937D01*
X65944142Y-74514376D01*
X66003953Y-74454564D01*
X66059822Y-74393875D01*
X66081570Y-74376947D01*
X66104376Y-74354142D01*
X66169086Y-74308831D01*
X66229203Y-74262041D01*
X66258735Y-74246058D01*
X66290000Y-74224167D01*
X66356405Y-74193201D01*
X66417967Y-74159886D01*
X66455437Y-74147022D01*
X66495374Y-74128400D01*
X66560575Y-74110929D01*
X66620973Y-74090195D01*
X66665992Y-74082682D01*
X66714257Y-74069750D01*
X66775715Y-74064373D01*
X66832682Y-74054867D01*
X66884370Y-74054867D01*
X66940000Y-74050000D01*
X66995630Y-74054867D01*
G37*
G36*
X66995630Y-70554867D02*
G01*
X67047318Y-70554867D01*
X67104284Y-70564373D01*
X67165743Y-70569750D01*
X67214009Y-70582682D01*
X67259026Y-70590195D01*
X67319419Y-70610927D01*
X67384626Y-70628400D01*
X67424564Y-70647023D01*
X67462032Y-70659886D01*
X67523587Y-70693198D01*
X67590000Y-70724167D01*
X67621268Y-70746061D01*
X67650796Y-70762041D01*
X67710903Y-70808824D01*
X67775624Y-70854142D01*
X67798433Y-70876951D01*
X67820177Y-70893875D01*
X67876033Y-70954551D01*
X67935858Y-71014376D01*
X67950958Y-71035942D01*
X67965543Y-71051785D01*
X68014201Y-71126261D01*
X68065833Y-71200000D01*
X68074450Y-71218480D01*
X68082937Y-71231470D01*
X68121459Y-71319292D01*
X68161600Y-71405374D01*
X68165338Y-71419324D01*
X68169158Y-71428033D01*
X68194736Y-71529039D01*
X68220250Y-71624257D01*
X68220989Y-71632711D01*
X68221847Y-71636097D01*
X68231891Y-71757321D01*
X68240000Y-71850000D01*
X68231890Y-71942686D01*
X68221847Y-72063902D01*
X68220989Y-72067286D01*
X68220250Y-72075743D01*
X68194731Y-72170977D01*
X68169158Y-72271966D01*
X68165338Y-72280673D01*
X68161600Y-72294626D01*
X68121452Y-72380723D01*
X68082937Y-72468529D01*
X68074452Y-72481515D01*
X68065833Y-72500000D01*
X68014191Y-72573751D01*
X67965543Y-72648214D01*
X67950961Y-72664053D01*
X67935858Y-72685624D01*
X67876021Y-72745460D01*
X67820177Y-72806124D01*
X67798437Y-72823044D01*
X67775624Y-72845858D01*
X67710890Y-72891184D01*
X67650796Y-72937958D01*
X67621274Y-72953934D01*
X67590000Y-72975833D01*
X67523573Y-73006807D01*
X67462032Y-73040113D01*
X67424573Y-73052972D01*
X67384626Y-73071600D01*
X67319406Y-73089075D01*
X67259026Y-73109804D01*
X67214016Y-73117314D01*
X67165743Y-73130250D01*
X67104280Y-73135627D01*
X67047318Y-73145133D01*
X66995630Y-73145133D01*
X66940000Y-73150000D01*
X66884370Y-73145133D01*
X66832682Y-73145133D01*
X66775718Y-73135627D01*
X66714257Y-73130250D01*
X66665984Y-73117315D01*
X66620973Y-73109804D01*
X66560588Y-73089074D01*
X66495374Y-73071600D01*
X66455429Y-73052973D01*
X66417967Y-73040113D01*
X66356418Y-73006804D01*
X66290000Y-72975833D01*
X66258728Y-72953936D01*
X66229203Y-72937958D01*
X66169099Y-72891177D01*
X66104376Y-72845858D01*
X66081565Y-72823047D01*
X66059822Y-72806124D01*
X66003965Y-72745447D01*
X65944142Y-72685624D01*
X65929041Y-72664057D01*
X65914456Y-72648214D01*
X65865793Y-72573730D01*
X65814167Y-72500000D01*
X65805550Y-72481521D01*
X65797062Y-72468529D01*
X65758530Y-72380687D01*
X65718400Y-72294626D01*
X65714662Y-72280678D01*
X65710841Y-72271966D01*
X65685250Y-72170909D01*
X65659750Y-72075743D01*
X65659010Y-72067293D01*
X65658152Y-72063902D01*
X65648090Y-71942470D01*
X65640000Y-71850000D01*
X65648089Y-71757537D01*
X65658152Y-71636097D01*
X65659010Y-71632705D01*
X65659750Y-71624257D01*
X65685245Y-71529107D01*
X65710841Y-71428033D01*
X65714663Y-71419318D01*
X65718400Y-71405374D01*
X65758523Y-71319328D01*
X65797062Y-71231470D01*
X65805551Y-71218475D01*
X65814167Y-71200000D01*
X65865783Y-71126283D01*
X65914456Y-71051785D01*
X65929044Y-71035937D01*
X65944142Y-71014376D01*
X66003953Y-70954564D01*
X66059822Y-70893875D01*
X66081570Y-70876947D01*
X66104376Y-70854142D01*
X66169086Y-70808831D01*
X66229203Y-70762041D01*
X66258735Y-70746058D01*
X66290000Y-70724167D01*
X66356405Y-70693201D01*
X66417967Y-70659886D01*
X66455437Y-70647022D01*
X66495374Y-70628400D01*
X66560575Y-70610929D01*
X66620973Y-70590195D01*
X66665992Y-70582682D01*
X66714257Y-70569750D01*
X66775715Y-70564373D01*
X66832682Y-70554867D01*
X66884370Y-70554867D01*
X66940000Y-70550000D01*
X66995630Y-70554867D01*
G37*
G36*
X48086218Y-67258193D02*
G01*
X48116919Y-67264300D01*
X48133575Y-67275429D01*
X48139536Y-67277599D01*
X48150146Y-67286502D01*
X48182128Y-67307872D01*
X48190441Y-67320313D01*
X48192499Y-67322040D01*
X48198244Y-67331991D01*
X48225700Y-67373081D01*
X48241000Y-67450000D01*
X48225700Y-67526919D01*
X48198240Y-67568014D01*
X48192499Y-67577959D01*
X48190442Y-67579684D01*
X48182128Y-67592128D01*
X48150141Y-67613501D01*
X48139536Y-67622400D01*
X48133578Y-67624568D01*
X48116919Y-67635700D01*
X48086217Y-67641806D01*
X48074568Y-67646047D01*
X48064901Y-67646047D01*
X48040000Y-67651000D01*
X48015099Y-67646047D01*
X48005432Y-67646047D01*
X47993782Y-67641806D01*
X47963081Y-67635700D01*
X47946422Y-67624569D01*
X47940463Y-67622400D01*
X47929854Y-67613498D01*
X47897872Y-67592128D01*
X47889558Y-67579686D01*
X47887500Y-67577959D01*
X47881752Y-67568003D01*
X47854300Y-67526919D01*
X47839000Y-67450000D01*
X47854300Y-67373081D01*
X47881750Y-67331998D01*
X47887501Y-67322039D01*
X47889560Y-67320310D01*
X47897872Y-67307872D01*
X47929847Y-67286506D01*
X47940464Y-67277598D01*
X47946428Y-67275427D01*
X47963081Y-67264300D01*
X47993769Y-67258195D01*
X48039996Y-67241370D01*
X48086218Y-67258193D01*
G37*
G36*
X49486218Y-67258193D02*
G01*
X49516919Y-67264300D01*
X49533575Y-67275429D01*
X49539536Y-67277599D01*
X49550146Y-67286502D01*
X49582128Y-67307872D01*
X49590441Y-67320313D01*
X49592499Y-67322040D01*
X49598244Y-67331991D01*
X49625700Y-67373081D01*
X49641000Y-67450000D01*
X49625700Y-67526919D01*
X49598240Y-67568014D01*
X49592499Y-67577959D01*
X49590442Y-67579684D01*
X49582128Y-67592128D01*
X49550141Y-67613501D01*
X49539536Y-67622400D01*
X49533578Y-67624568D01*
X49516919Y-67635700D01*
X49486217Y-67641806D01*
X49474568Y-67646047D01*
X49464901Y-67646047D01*
X49440000Y-67651000D01*
X49415099Y-67646047D01*
X49405432Y-67646047D01*
X49393782Y-67641806D01*
X49363081Y-67635700D01*
X49346422Y-67624569D01*
X49340463Y-67622400D01*
X49329854Y-67613498D01*
X49297872Y-67592128D01*
X49289558Y-67579686D01*
X49287500Y-67577959D01*
X49281752Y-67568003D01*
X49254300Y-67526919D01*
X49239000Y-67450000D01*
X49254300Y-67373081D01*
X49281750Y-67331998D01*
X49287501Y-67322039D01*
X49289560Y-67320310D01*
X49297872Y-67307872D01*
X49329847Y-67286506D01*
X49340464Y-67277598D01*
X49346428Y-67275427D01*
X49363081Y-67264300D01*
X49393769Y-67258195D01*
X49439996Y-67241370D01*
X49486218Y-67258193D01*
G37*
G36*
X59976218Y-67168193D02*
G01*
X60006919Y-67174300D01*
X60023575Y-67185429D01*
X60029536Y-67187599D01*
X60040146Y-67196502D01*
X60072128Y-67217872D01*
X60080441Y-67230313D01*
X60082499Y-67232040D01*
X60088244Y-67241991D01*
X60115700Y-67283081D01*
X60131000Y-67360000D01*
X60115700Y-67436919D01*
X60088240Y-67478014D01*
X60082499Y-67487959D01*
X60080442Y-67489684D01*
X60072128Y-67502128D01*
X60040141Y-67523501D01*
X60029536Y-67532400D01*
X60023578Y-67534568D01*
X60006919Y-67545700D01*
X59976217Y-67551806D01*
X59964568Y-67556047D01*
X59954901Y-67556047D01*
X59930000Y-67561000D01*
X59905099Y-67556047D01*
X59895432Y-67556047D01*
X59883782Y-67551806D01*
X59853081Y-67545700D01*
X59836422Y-67534569D01*
X59830463Y-67532400D01*
X59819854Y-67523498D01*
X59787872Y-67502128D01*
X59779558Y-67489686D01*
X59777500Y-67487959D01*
X59771752Y-67478003D01*
X59744300Y-67436919D01*
X59729000Y-67360000D01*
X59744300Y-67283081D01*
X59771750Y-67241998D01*
X59777501Y-67232039D01*
X59779560Y-67230310D01*
X59787872Y-67217872D01*
X59819847Y-67196506D01*
X59830464Y-67187598D01*
X59836428Y-67185427D01*
X59853081Y-67174300D01*
X59883769Y-67168195D01*
X59929996Y-67151370D01*
X59976218Y-67168193D01*
G37*
G36*
X61376218Y-67168193D02*
G01*
X61406919Y-67174300D01*
X61423575Y-67185429D01*
X61429536Y-67187599D01*
X61440146Y-67196502D01*
X61472128Y-67217872D01*
X61480441Y-67230313D01*
X61482499Y-67232040D01*
X61488244Y-67241991D01*
X61515700Y-67283081D01*
X61531000Y-67360000D01*
X61515700Y-67436919D01*
X61488240Y-67478014D01*
X61482499Y-67487959D01*
X61480442Y-67489684D01*
X61472128Y-67502128D01*
X61440141Y-67523501D01*
X61429536Y-67532400D01*
X61423578Y-67534568D01*
X61406919Y-67545700D01*
X61376217Y-67551806D01*
X61364568Y-67556047D01*
X61354901Y-67556047D01*
X61330000Y-67561000D01*
X61305099Y-67556047D01*
X61295432Y-67556047D01*
X61283782Y-67551806D01*
X61253081Y-67545700D01*
X61236422Y-67534569D01*
X61230463Y-67532400D01*
X61219854Y-67523498D01*
X61187872Y-67502128D01*
X61179558Y-67489686D01*
X61177500Y-67487959D01*
X61171752Y-67478003D01*
X61144300Y-67436919D01*
X61129000Y-67360000D01*
X61144300Y-67283081D01*
X61171750Y-67241998D01*
X61177501Y-67232039D01*
X61179560Y-67230310D01*
X61187872Y-67217872D01*
X61219847Y-67196506D01*
X61230464Y-67187598D01*
X61236428Y-67185427D01*
X61253081Y-67174300D01*
X61283769Y-67168195D01*
X61329996Y-67151370D01*
X61376218Y-67168193D01*
G37*
G36*
X48086218Y-66658193D02*
G01*
X48116919Y-66664300D01*
X48133575Y-66675429D01*
X48139536Y-66677599D01*
X48150146Y-66686502D01*
X48182128Y-66707872D01*
X48190441Y-66720313D01*
X48192499Y-66722040D01*
X48198244Y-66731991D01*
X48225700Y-66773081D01*
X48241000Y-66850000D01*
X48225700Y-66926919D01*
X48198240Y-66968014D01*
X48192499Y-66977959D01*
X48190442Y-66979684D01*
X48182128Y-66992128D01*
X48150141Y-67013501D01*
X48139536Y-67022400D01*
X48133578Y-67024568D01*
X48116919Y-67035700D01*
X48086211Y-67041808D01*
X48039998Y-67058628D01*
X47993782Y-67041806D01*
X47963081Y-67035700D01*
X47946422Y-67024569D01*
X47940463Y-67022400D01*
X47929854Y-67013498D01*
X47897872Y-66992128D01*
X47889558Y-66979686D01*
X47887500Y-66977959D01*
X47881752Y-66968003D01*
X47854300Y-66926919D01*
X47839000Y-66850000D01*
X47854300Y-66773081D01*
X47881750Y-66731998D01*
X47887501Y-66722039D01*
X47889560Y-66720310D01*
X47897872Y-66707872D01*
X47929847Y-66686506D01*
X47940464Y-66677598D01*
X47946428Y-66675427D01*
X47963081Y-66664300D01*
X47993769Y-66658195D01*
X48039996Y-66641370D01*
X48086218Y-66658193D01*
G37*
G36*
X49486218Y-66658193D02*
G01*
X49516919Y-66664300D01*
X49533575Y-66675429D01*
X49539536Y-66677599D01*
X49550146Y-66686502D01*
X49582128Y-66707872D01*
X49590441Y-66720313D01*
X49592499Y-66722040D01*
X49598244Y-66731991D01*
X49625700Y-66773081D01*
X49641000Y-66850000D01*
X49625700Y-66926919D01*
X49598240Y-66968014D01*
X49592499Y-66977959D01*
X49590442Y-66979684D01*
X49582128Y-66992128D01*
X49550141Y-67013501D01*
X49539536Y-67022400D01*
X49533578Y-67024568D01*
X49516919Y-67035700D01*
X49486211Y-67041808D01*
X49439998Y-67058628D01*
X49393782Y-67041806D01*
X49363081Y-67035700D01*
X49346422Y-67024569D01*
X49340463Y-67022400D01*
X49329854Y-67013498D01*
X49297872Y-66992128D01*
X49289558Y-66979686D01*
X49287500Y-66977959D01*
X49281752Y-66968003D01*
X49254300Y-66926919D01*
X49239000Y-66850000D01*
X49254300Y-66773081D01*
X49281750Y-66731998D01*
X49287501Y-66722039D01*
X49289560Y-66720310D01*
X49297872Y-66707872D01*
X49329847Y-66686506D01*
X49340464Y-66677598D01*
X49346428Y-66675427D01*
X49363081Y-66664300D01*
X49393769Y-66658195D01*
X49439996Y-66641370D01*
X49486218Y-66658193D01*
G37*
G36*
X59976218Y-66568193D02*
G01*
X60006919Y-66574300D01*
X60023575Y-66585429D01*
X60029536Y-66587599D01*
X60040146Y-66596502D01*
X60072128Y-66617872D01*
X60080441Y-66630313D01*
X60082499Y-66632040D01*
X60088244Y-66641991D01*
X60115700Y-66683081D01*
X60131000Y-66760000D01*
X60115700Y-66836919D01*
X60088240Y-66878014D01*
X60082499Y-66887959D01*
X60080442Y-66889684D01*
X60072128Y-66902128D01*
X60040141Y-66923501D01*
X60029536Y-66932400D01*
X60023578Y-66934568D01*
X60006919Y-66945700D01*
X59976211Y-66951808D01*
X59929998Y-66968628D01*
X59883782Y-66951806D01*
X59853081Y-66945700D01*
X59836422Y-66934569D01*
X59830463Y-66932400D01*
X59819854Y-66923498D01*
X59787872Y-66902128D01*
X59779558Y-66889686D01*
X59777500Y-66887959D01*
X59771752Y-66878003D01*
X59744300Y-66836919D01*
X59729000Y-66760000D01*
X59744300Y-66683081D01*
X59771750Y-66641998D01*
X59777501Y-66632039D01*
X59779560Y-66630310D01*
X59787872Y-66617872D01*
X59819847Y-66596506D01*
X59830464Y-66587598D01*
X59836428Y-66585427D01*
X59853081Y-66574300D01*
X59883769Y-66568195D01*
X59929996Y-66551370D01*
X59976218Y-66568193D01*
G37*
G36*
X61376218Y-66568193D02*
G01*
X61406919Y-66574300D01*
X61423575Y-66585429D01*
X61429536Y-66587599D01*
X61440146Y-66596502D01*
X61472128Y-66617872D01*
X61480441Y-66630313D01*
X61482499Y-66632040D01*
X61488244Y-66641991D01*
X61515700Y-66683081D01*
X61531000Y-66760000D01*
X61515700Y-66836919D01*
X61488240Y-66878014D01*
X61482499Y-66887959D01*
X61480442Y-66889684D01*
X61472128Y-66902128D01*
X61440141Y-66923501D01*
X61429536Y-66932400D01*
X61423578Y-66934568D01*
X61406919Y-66945700D01*
X61376211Y-66951808D01*
X61329998Y-66968628D01*
X61283782Y-66951806D01*
X61253081Y-66945700D01*
X61236422Y-66934569D01*
X61230463Y-66932400D01*
X61219854Y-66923498D01*
X61187872Y-66902128D01*
X61179558Y-66889686D01*
X61177500Y-66887959D01*
X61171752Y-66878003D01*
X61144300Y-66836919D01*
X61129000Y-66760000D01*
X61144300Y-66683081D01*
X61171750Y-66641998D01*
X61177501Y-66632039D01*
X61179560Y-66630310D01*
X61187872Y-66617872D01*
X61219847Y-66596506D01*
X61230464Y-66587598D01*
X61236428Y-66585427D01*
X61253081Y-66574300D01*
X61283769Y-66568195D01*
X61329996Y-66551370D01*
X61376218Y-66568193D01*
G37*
G36*
X48064901Y-66053953D02*
G01*
X48074568Y-66053953D01*
X48086218Y-66058193D01*
X48116919Y-66064300D01*
X48133575Y-66075429D01*
X48139536Y-66077599D01*
X48150146Y-66086502D01*
X48182128Y-66107872D01*
X48190441Y-66120313D01*
X48192499Y-66122040D01*
X48198244Y-66131991D01*
X48225700Y-66173081D01*
X48241000Y-66250000D01*
X48225700Y-66326919D01*
X48198240Y-66368014D01*
X48192499Y-66377959D01*
X48190442Y-66379684D01*
X48182128Y-66392128D01*
X48150141Y-66413501D01*
X48139536Y-66422400D01*
X48133578Y-66424568D01*
X48116919Y-66435700D01*
X48086211Y-66441808D01*
X48039998Y-66458628D01*
X47993782Y-66441806D01*
X47963081Y-66435700D01*
X47946422Y-66424569D01*
X47940463Y-66422400D01*
X47929854Y-66413498D01*
X47897872Y-66392128D01*
X47889558Y-66379686D01*
X47887500Y-66377959D01*
X47881752Y-66368003D01*
X47854300Y-66326919D01*
X47839000Y-66250000D01*
X47854300Y-66173081D01*
X47881750Y-66131998D01*
X47887501Y-66122039D01*
X47889560Y-66120310D01*
X47897872Y-66107872D01*
X47929848Y-66086505D01*
X47940462Y-66077600D01*
X47946423Y-66075430D01*
X47963081Y-66064300D01*
X47993783Y-66058192D01*
X48005433Y-66053953D01*
X48015099Y-66053953D01*
X48040000Y-66049000D01*
X48064901Y-66053953D01*
G37*
G36*
X49464901Y-66053953D02*
G01*
X49474568Y-66053953D01*
X49486218Y-66058193D01*
X49516919Y-66064300D01*
X49533575Y-66075429D01*
X49539536Y-66077599D01*
X49550146Y-66086502D01*
X49582128Y-66107872D01*
X49590441Y-66120313D01*
X49592499Y-66122040D01*
X49598244Y-66131991D01*
X49625700Y-66173081D01*
X49641000Y-66250000D01*
X49625700Y-66326919D01*
X49598240Y-66368014D01*
X49592499Y-66377959D01*
X49590442Y-66379684D01*
X49582128Y-66392128D01*
X49550141Y-66413501D01*
X49539536Y-66422400D01*
X49533578Y-66424568D01*
X49516919Y-66435700D01*
X49486211Y-66441808D01*
X49439998Y-66458628D01*
X49393782Y-66441806D01*
X49363081Y-66435700D01*
X49346422Y-66424569D01*
X49340463Y-66422400D01*
X49329854Y-66413498D01*
X49297872Y-66392128D01*
X49289558Y-66379686D01*
X49287500Y-66377959D01*
X49281752Y-66368003D01*
X49254300Y-66326919D01*
X49239000Y-66250000D01*
X49254300Y-66173081D01*
X49281750Y-66131998D01*
X49287501Y-66122039D01*
X49289560Y-66120310D01*
X49297872Y-66107872D01*
X49329848Y-66086505D01*
X49340462Y-66077600D01*
X49346423Y-66075430D01*
X49363081Y-66064300D01*
X49393783Y-66058192D01*
X49405433Y-66053953D01*
X49415099Y-66053953D01*
X49440000Y-66049000D01*
X49464901Y-66053953D01*
G37*
G36*
X59954901Y-65963953D02*
G01*
X59964568Y-65963953D01*
X59976218Y-65968193D01*
X60006919Y-65974300D01*
X60023575Y-65985429D01*
X60029536Y-65987599D01*
X60040146Y-65996502D01*
X60072128Y-66017872D01*
X60080441Y-66030313D01*
X60082499Y-66032040D01*
X60088244Y-66041991D01*
X60115700Y-66083081D01*
X60131000Y-66160000D01*
X60115700Y-66236919D01*
X60088240Y-66278014D01*
X60082499Y-66287959D01*
X60080442Y-66289684D01*
X60072128Y-66302128D01*
X60040141Y-66323501D01*
X60029536Y-66332400D01*
X60023578Y-66334568D01*
X60006919Y-66345700D01*
X59976211Y-66351808D01*
X59929998Y-66368628D01*
X59883782Y-66351806D01*
X59853081Y-66345700D01*
X59836422Y-66334569D01*
X59830463Y-66332400D01*
X59819854Y-66323498D01*
X59787872Y-66302128D01*
X59779558Y-66289686D01*
X59777500Y-66287959D01*
X59771752Y-66278003D01*
X59744300Y-66236919D01*
X59729000Y-66160000D01*
X59744300Y-66083081D01*
X59771750Y-66041998D01*
X59777501Y-66032039D01*
X59779560Y-66030310D01*
X59787872Y-66017872D01*
X59819848Y-65996505D01*
X59830462Y-65987600D01*
X59836423Y-65985430D01*
X59853081Y-65974300D01*
X59883783Y-65968192D01*
X59895433Y-65963953D01*
X59905099Y-65963953D01*
X59930000Y-65959000D01*
X59954901Y-65963953D01*
G37*
G36*
X61354901Y-65963953D02*
G01*
X61364568Y-65963953D01*
X61376218Y-65968193D01*
X61406919Y-65974300D01*
X61423575Y-65985429D01*
X61429536Y-65987599D01*
X61440146Y-65996502D01*
X61472128Y-66017872D01*
X61480441Y-66030313D01*
X61482499Y-66032040D01*
X61488244Y-66041991D01*
X61515700Y-66083081D01*
X61531000Y-66160000D01*
X61515700Y-66236919D01*
X61488240Y-66278014D01*
X61482499Y-66287959D01*
X61480442Y-66289684D01*
X61472128Y-66302128D01*
X61440141Y-66323501D01*
X61429536Y-66332400D01*
X61423578Y-66334568D01*
X61406919Y-66345700D01*
X61376211Y-66351808D01*
X61329998Y-66368628D01*
X61283782Y-66351806D01*
X61253081Y-66345700D01*
X61236422Y-66334569D01*
X61230463Y-66332400D01*
X61219854Y-66323498D01*
X61187872Y-66302128D01*
X61179558Y-66289686D01*
X61177500Y-66287959D01*
X61171752Y-66278003D01*
X61144300Y-66236919D01*
X61129000Y-66160000D01*
X61144300Y-66083081D01*
X61171750Y-66041998D01*
X61177501Y-66032039D01*
X61179560Y-66030310D01*
X61187872Y-66017872D01*
X61219848Y-65996505D01*
X61230462Y-65987600D01*
X61236423Y-65985430D01*
X61253081Y-65974300D01*
X61283783Y-65968192D01*
X61295433Y-65963953D01*
X61305099Y-65963953D01*
X61330000Y-65959000D01*
X61354901Y-65963953D01*
G37*
G36*
X39613315Y-53266089D02*
G01*
X39622157Y-53266089D01*
X39668369Y-53279658D01*
X39727978Y-53294350D01*
X39740134Y-53300730D01*
X39758708Y-53306184D01*
X39795159Y-53329609D01*
X39834510Y-53350263D01*
X39853568Y-53367147D01*
X39878430Y-53383125D01*
X39900985Y-53409155D01*
X39924567Y-53430047D01*
X39946025Y-53461134D01*
X39971627Y-53490680D01*
X39973299Y-53494342D01*
X40041879Y-53519564D01*
X40069141Y-53512258D01*
X40111604Y-53495809D01*
X40174212Y-53484105D01*
X40231707Y-53468700D01*
X40278547Y-53464602D01*
X40329278Y-53455119D01*
X40386941Y-53455119D01*
X40440000Y-53450477D01*
X40493059Y-53455119D01*
X40550722Y-53455119D01*
X40601452Y-53464602D01*
X40648292Y-53468700D01*
X40705784Y-53484104D01*
X40768396Y-53495809D01*
X40810860Y-53512259D01*
X40838120Y-53519564D01*
X40906700Y-53494342D01*
X40908373Y-53490680D01*
X40933965Y-53461144D01*
X40955430Y-53430048D01*
X40979019Y-53409149D01*
X41001570Y-53383125D01*
X41026427Y-53367150D01*
X41045489Y-53350263D01*
X41084845Y-53329606D01*
X41121292Y-53306184D01*
X41139863Y-53300731D01*
X41152021Y-53294350D01*
X41211632Y-53279657D01*
X41257843Y-53266089D01*
X41266685Y-53266089D01*
X41268843Y-53265557D01*
X41389157Y-53265557D01*
X41391315Y-53266089D01*
X41400157Y-53266089D01*
X41446369Y-53279658D01*
X41505978Y-53294350D01*
X41518134Y-53300730D01*
X41536708Y-53306184D01*
X41573159Y-53329609D01*
X41612510Y-53350263D01*
X41631568Y-53367147D01*
X41656430Y-53383125D01*
X41678985Y-53409155D01*
X41702567Y-53430047D01*
X41724023Y-53461131D01*
X41749627Y-53490680D01*
X41759809Y-53512977D01*
X41770915Y-53529066D01*
X41789323Y-53577604D01*
X41808746Y-53620134D01*
X41810756Y-53634116D01*
X41813579Y-53641559D01*
X41823092Y-53719911D01*
X41829000Y-53761000D01*
X41823091Y-53802090D01*
X41813579Y-53880440D01*
X41810756Y-53887881D01*
X41808746Y-53901866D01*
X41789321Y-53944400D01*
X41770915Y-53992933D01*
X41759810Y-54009020D01*
X41749627Y-54031320D01*
X41724021Y-54060870D01*
X41702566Y-54091954D01*
X41678986Y-54112842D01*
X41656430Y-54138875D01*
X41631563Y-54154855D01*
X41592416Y-54189537D01*
X41571963Y-54257580D01*
X41593145Y-54336635D01*
X41619568Y-54429501D01*
X41620381Y-54438284D01*
X41621299Y-54441707D01*
X41631441Y-54557636D01*
X41640000Y-54650000D01*
X41631440Y-54742370D01*
X41621299Y-54858292D01*
X41620382Y-54861714D01*
X41619568Y-54870499D01*
X41593138Y-54963389D01*
X41571963Y-55042418D01*
X41592416Y-55110461D01*
X41631568Y-55145147D01*
X41656430Y-55161125D01*
X41678985Y-55187155D01*
X41702567Y-55208047D01*
X41724023Y-55239131D01*
X41749627Y-55268680D01*
X41759809Y-55290977D01*
X41770915Y-55307066D01*
X41789323Y-55355604D01*
X41808746Y-55398134D01*
X41810756Y-55412116D01*
X41813579Y-55419559D01*
X41823092Y-55497911D01*
X41829000Y-55539000D01*
X41823091Y-55580090D01*
X41813579Y-55658440D01*
X41810756Y-55665881D01*
X41808746Y-55679866D01*
X41789321Y-55722400D01*
X41770915Y-55770933D01*
X41759811Y-55787019D01*
X41749627Y-55809320D01*
X41724019Y-55838872D01*
X41702567Y-55869952D01*
X41678989Y-55890839D01*
X41656430Y-55916875D01*
X41631564Y-55932855D01*
X41612510Y-55949736D01*
X41573167Y-55970384D01*
X41536708Y-55993816D01*
X41518130Y-55999270D01*
X41505978Y-56005649D01*
X41446380Y-56020338D01*
X41400157Y-56033911D01*
X41391315Y-56033911D01*
X41389157Y-56034443D01*
X41268843Y-56034443D01*
X41266685Y-56033911D01*
X41257843Y-56033911D01*
X41211622Y-56020339D01*
X41152021Y-56005649D01*
X41139867Y-55999270D01*
X41121292Y-55993816D01*
X41084836Y-55970387D01*
X41045489Y-55949736D01*
X41026431Y-55932852D01*
X41001570Y-55916875D01*
X40979016Y-55890846D01*
X40955431Y-55869952D01*
X40933970Y-55838861D01*
X40908373Y-55809320D01*
X40906700Y-55805657D01*
X40838119Y-55780435D01*
X40810870Y-55787736D01*
X40768396Y-55804191D01*
X40705770Y-55815897D01*
X40648292Y-55831299D01*
X40601462Y-55835395D01*
X40550722Y-55844881D01*
X40493047Y-55844881D01*
X40440000Y-55849522D01*
X40386952Y-55844881D01*
X40329278Y-55844881D01*
X40278537Y-55835396D01*
X40231707Y-55831299D01*
X40174224Y-55815896D01*
X40111604Y-55804191D01*
X40069133Y-55787737D01*
X40041879Y-55780435D01*
X39973299Y-55805657D01*
X39971627Y-55809320D01*
X39946020Y-55838871D01*
X39924566Y-55869953D01*
X39900989Y-55890840D01*
X39878430Y-55916875D01*
X39853564Y-55932855D01*
X39834510Y-55949736D01*
X39795167Y-55970384D01*
X39758708Y-55993816D01*
X39740130Y-55999270D01*
X39727978Y-56005649D01*
X39668380Y-56020338D01*
X39622157Y-56033911D01*
X39613315Y-56033911D01*
X39611157Y-56034443D01*
X39490843Y-56034443D01*
X39488685Y-56033911D01*
X39479843Y-56033911D01*
X39433622Y-56020339D01*
X39374021Y-56005649D01*
X39361867Y-55999270D01*
X39343292Y-55993816D01*
X39306836Y-55970387D01*
X39267489Y-55949736D01*
X39248432Y-55932852D01*
X39223570Y-55916875D01*
X39201013Y-55890843D01*
X39177432Y-55869952D01*
X39155975Y-55838866D01*
X39130373Y-55809320D01*
X39120190Y-55787024D01*
X39109084Y-55770933D01*
X39090672Y-55722387D01*
X39071254Y-55679866D01*
X39069243Y-55665885D01*
X39066420Y-55658440D01*
X39056901Y-55580045D01*
X39051000Y-55539000D01*
X39056901Y-55497956D01*
X39066420Y-55419559D01*
X39069244Y-55412112D01*
X39071254Y-55398134D01*
X39090670Y-55355617D01*
X39109084Y-55307066D01*
X39120192Y-55290973D01*
X39130373Y-55268680D01*
X39155973Y-55239135D01*
X39177434Y-55208045D01*
X39201018Y-55187151D01*
X39223570Y-55161125D01*
X39248427Y-55145150D01*
X39287583Y-55110461D01*
X39308036Y-55042419D01*
X39286841Y-54963319D01*
X39260432Y-54870499D01*
X39259618Y-54861719D01*
X39258700Y-54858292D01*
X39248541Y-54742177D01*
X39240000Y-54650000D01*
X39248540Y-54557829D01*
X39258700Y-54441707D01*
X39259618Y-54438278D01*
X39260432Y-54429501D01*
X39286837Y-54336696D01*
X39308036Y-54257580D01*
X39287583Y-54189538D01*
X39248431Y-54154852D01*
X39223570Y-54138875D01*
X39201013Y-54112843D01*
X39177432Y-54091952D01*
X39155975Y-54060866D01*
X39130373Y-54031320D01*
X39120190Y-54009024D01*
X39109084Y-53992933D01*
X39090672Y-53944387D01*
X39071254Y-53901866D01*
X39069243Y-53887885D01*
X39066420Y-53880440D01*
X39056901Y-53802045D01*
X39051000Y-53761000D01*
X39056901Y-53719956D01*
X39066420Y-53641559D01*
X39069244Y-53634112D01*
X39071254Y-53620134D01*
X39090670Y-53577617D01*
X39109084Y-53529066D01*
X39120192Y-53512972D01*
X39130373Y-53490680D01*
X39155971Y-53461137D01*
X39177432Y-53430047D01*
X39201017Y-53409151D01*
X39223570Y-53383125D01*
X39248428Y-53367149D01*
X39267489Y-53350263D01*
X39306845Y-53329606D01*
X39343292Y-53306184D01*
X39361863Y-53300731D01*
X39374021Y-53294350D01*
X39433632Y-53279657D01*
X39479843Y-53266089D01*
X39488685Y-53266089D01*
X39490843Y-53265557D01*
X39611157Y-53265557D01*
X39613315Y-53266089D01*
G37*
G36*
X9608116Y-42550799D02*
G01*
X9628483Y-42552134D01*
X9632445Y-42553195D01*
X9648773Y-42554804D01*
X9667689Y-42562639D01*
X9695260Y-42570027D01*
X9719980Y-42584299D01*
X9738893Y-42592133D01*
X9746192Y-42599432D01*
X9751530Y-42602514D01*
X9797485Y-42648469D01*
X9800566Y-42653806D01*
X9807867Y-42661107D01*
X9815701Y-42680022D01*
X9829972Y-42704739D01*
X9837357Y-42732304D01*
X9845196Y-42751227D01*
X9845224Y-42761664D01*
X9846821Y-42767622D01*
X9849992Y-44496031D01*
X9849989Y-44496073D01*
X9850000Y-44500000D01*
X9849198Y-44508136D01*
X9847865Y-44528483D01*
X9846804Y-44532439D01*
X9845196Y-44548773D01*
X9837357Y-44567696D01*
X9829972Y-44595260D01*
X9815703Y-44619974D01*
X9807867Y-44638893D01*
X9800565Y-44646194D01*
X9797485Y-44651530D01*
X9751530Y-44697485D01*
X9746194Y-44700565D01*
X9738893Y-44707867D01*
X9719974Y-44715703D01*
X9695260Y-44729972D01*
X9667696Y-44737357D01*
X9648773Y-44745196D01*
X9638329Y-44745226D01*
X9632371Y-44746823D01*
X8003961Y-44749991D01*
X8003923Y-44749988D01*
X8000000Y-44750000D01*
X7991854Y-44749197D01*
X7971516Y-44747865D01*
X7967558Y-44746804D01*
X7951227Y-44745196D01*
X7932305Y-44737358D01*
X7904739Y-44729972D01*
X7880022Y-44715701D01*
X7861107Y-44707867D01*
X7853806Y-44700566D01*
X7848469Y-44697485D01*
X7802514Y-44651530D01*
X7799432Y-44646192D01*
X7792133Y-44638893D01*
X7784299Y-44619980D01*
X7770027Y-44595260D01*
X7762640Y-44567690D01*
X7754804Y-44548773D01*
X7754775Y-44538338D01*
X7753178Y-44532377D01*
X7750007Y-42803968D01*
X7750010Y-42803910D01*
X7750000Y-42800000D01*
X7750798Y-42791895D01*
X7752134Y-42771516D01*
X7753195Y-42767552D01*
X7754804Y-42751227D01*
X7762638Y-42732312D01*
X7770027Y-42704739D01*
X7784300Y-42680015D01*
X7792133Y-42661107D01*
X7799430Y-42653809D01*
X7802514Y-42648469D01*
X7848469Y-42602514D01*
X7853809Y-42599430D01*
X7861107Y-42592133D01*
X7880015Y-42584300D01*
X7904739Y-42570027D01*
X7932312Y-42562638D01*
X7951227Y-42554804D01*
X7961665Y-42554773D01*
X7967628Y-42553176D01*
X9596038Y-42550008D01*
X9596089Y-42550011D01*
X9600000Y-42550000D01*
X9608116Y-42550799D01*
G37*
G36*
X42782539Y-36604793D02*
G01*
X42818321Y-36604793D01*
X42858685Y-36613372D01*
X42906891Y-36618804D01*
X42941943Y-36631069D01*
X42971553Y-36637363D01*
X43014221Y-36656360D01*
X43065413Y-36674273D01*
X43092060Y-36691017D01*
X43114658Y-36701078D01*
X43156793Y-36731691D01*
X43207617Y-36763626D01*
X43225868Y-36781877D01*
X43241385Y-36793151D01*
X43279748Y-36835757D01*
X43326374Y-36882383D01*
X43337097Y-36899449D01*
X43346204Y-36909563D01*
X43377353Y-36963516D01*
X43415727Y-37024587D01*
X43420518Y-37038281D01*
X43424530Y-37045229D01*
X43445073Y-37108455D01*
X43471196Y-37183109D01*
X43472186Y-37191898D01*
X43472937Y-37194209D01*
X43479744Y-37258982D01*
X43490000Y-37350000D01*
X43479743Y-37441025D01*
X43472937Y-37505790D01*
X43472186Y-37508099D01*
X43471196Y-37516891D01*
X43445069Y-37591557D01*
X43424530Y-37654770D01*
X43420519Y-37661715D01*
X43415727Y-37675413D01*
X43377346Y-37736494D01*
X43346204Y-37790436D01*
X43337099Y-37800547D01*
X43326374Y-37817617D01*
X43279739Y-37864251D01*
X43241385Y-37906848D01*
X43225872Y-37918118D01*
X43207617Y-37936374D01*
X43156783Y-37968315D01*
X43114658Y-37998921D01*
X43092066Y-38008979D01*
X43065413Y-38025727D01*
X43014210Y-38043643D01*
X42971553Y-38062636D01*
X42941949Y-38068928D01*
X42906891Y-38081196D01*
X42858682Y-38086627D01*
X42818321Y-38095207D01*
X42782539Y-38095207D01*
X42740000Y-38100000D01*
X42712978Y-38096955D01*
X42682865Y-38310258D01*
X42790763Y-38341342D01*
X42886070Y-38363931D01*
X42950243Y-38387288D01*
X43014260Y-38405731D01*
X43110933Y-38445774D01*
X43208435Y-38481262D01*
X43264100Y-38509218D01*
X43319873Y-38532320D01*
X43417143Y-38586079D01*
X43515000Y-38635225D01*
X43562013Y-38666146D01*
X43609391Y-38692331D01*
X43705411Y-38760460D01*
X43801618Y-38823737D01*
X43840098Y-38856026D01*
X43879165Y-38883745D01*
X43971942Y-38966656D01*
X44064413Y-39044248D01*
X44094751Y-39076405D01*
X44125825Y-39104174D01*
X44213313Y-39202073D01*
X44299831Y-39293777D01*
X44322618Y-39324385D01*
X44346254Y-39350834D01*
X44426383Y-39463766D01*
X44504689Y-39568949D01*
X44520740Y-39596750D01*
X44537668Y-39620608D01*
X44608316Y-39748437D01*
X44676216Y-39866042D01*
X44686531Y-39889956D01*
X44697679Y-39910126D01*
X44756803Y-40052865D01*
X44812093Y-40181041D01*
X44817821Y-40200176D01*
X44824268Y-40215739D01*
X44869895Y-40374115D01*
X44910482Y-40509683D01*
X44912895Y-40523369D01*
X44915845Y-40533608D01*
X44946122Y-40711810D01*
X44970053Y-40847526D01*
X44970507Y-40855331D01*
X44971255Y-40859730D01*
X44984493Y-41095457D01*
X44990000Y-41190000D01*
X44984493Y-41284549D01*
X44971255Y-41520269D01*
X44970507Y-41524667D01*
X44970053Y-41532474D01*
X44946117Y-41668216D01*
X44915845Y-41846391D01*
X44912895Y-41856628D01*
X44910482Y-41870317D01*
X44869888Y-42005909D01*
X44824268Y-42164260D01*
X44817822Y-42179819D01*
X44812093Y-42198959D01*
X44756793Y-42327158D01*
X44697679Y-42469873D01*
X44686533Y-42490039D01*
X44676216Y-42513958D01*
X44608303Y-42631585D01*
X44537668Y-42759391D01*
X44520743Y-42783244D01*
X44504689Y-42811051D01*
X44426368Y-42916253D01*
X44346254Y-43029165D01*
X44322622Y-43055608D01*
X44299831Y-43086223D01*
X44213296Y-43177944D01*
X44125825Y-43275825D01*
X44094757Y-43303588D01*
X44064413Y-43335752D01*
X43971924Y-43413359D01*
X43879165Y-43496254D01*
X43840106Y-43523967D01*
X43801618Y-43556263D01*
X43705392Y-43619551D01*
X43609391Y-43687668D01*
X43562023Y-43713847D01*
X43515000Y-43744775D01*
X43417123Y-43793930D01*
X43319873Y-43847679D01*
X43264111Y-43870776D01*
X43208435Y-43898738D01*
X43110913Y-43934232D01*
X43014260Y-43974268D01*
X42950254Y-43992707D01*
X42886070Y-44016069D01*
X42790754Y-44038659D01*
X42696391Y-44065845D01*
X42624538Y-44078053D01*
X42552262Y-44095183D01*
X42460798Y-44105873D01*
X42370269Y-44121255D01*
X42291217Y-44125694D01*
X42211527Y-44135009D01*
X42125363Y-44135009D01*
X42040000Y-44139803D01*
X41954637Y-44135009D01*
X41868473Y-44135009D01*
X41788783Y-44125694D01*
X41709730Y-44121255D01*
X41619197Y-44105873D01*
X41527738Y-44095183D01*
X41455464Y-44078053D01*
X41383608Y-44065845D01*
X41289240Y-44038657D01*
X41193930Y-44016069D01*
X41129748Y-43992709D01*
X41065739Y-43974268D01*
X40969078Y-43934229D01*
X40871565Y-43898738D01*
X40815893Y-43870778D01*
X40760126Y-43847679D01*
X40662865Y-43793924D01*
X40565000Y-43744775D01*
X40517981Y-43713850D01*
X40470608Y-43687668D01*
X40374594Y-43619542D01*
X40278382Y-43556263D01*
X40239899Y-43523972D01*
X40200834Y-43496254D01*
X40108059Y-43413345D01*
X40015587Y-43335752D01*
X39985247Y-43303594D01*
X39954174Y-43275825D01*
X39866684Y-43177924D01*
X39780169Y-43086223D01*
X39757382Y-43055615D01*
X39733745Y-43029165D01*
X39653610Y-42916225D01*
X39575311Y-42811051D01*
X39559261Y-42783252D01*
X39542331Y-42759391D01*
X39471672Y-42631544D01*
X39403784Y-42513958D01*
X39393469Y-42490047D01*
X39382320Y-42469873D01*
X39323181Y-42327100D01*
X39267907Y-42198959D01*
X39262179Y-42179828D01*
X39255731Y-42164260D01*
X39210085Y-42005820D01*
X39169518Y-41870317D01*
X39167105Y-41856637D01*
X39164154Y-41846391D01*
X39133854Y-41668060D01*
X39109947Y-41532474D01*
X39109492Y-41524676D01*
X39108744Y-41520269D01*
X39095478Y-41284069D01*
X39090000Y-41190000D01*
X39095478Y-41095937D01*
X39108744Y-40859730D01*
X39109492Y-40855322D01*
X39109947Y-40847526D01*
X39133849Y-40711965D01*
X39164154Y-40533608D01*
X39167106Y-40523360D01*
X39169518Y-40509683D01*
X39210077Y-40374204D01*
X39255731Y-40215739D01*
X39262180Y-40200167D01*
X39267907Y-40181041D01*
X39323171Y-40052924D01*
X39382320Y-39910126D01*
X39393471Y-39889948D01*
X39403784Y-39866042D01*
X39471659Y-39748477D01*
X39542331Y-39620608D01*
X39559264Y-39596742D01*
X39575311Y-39568949D01*
X39653595Y-39463795D01*
X39733745Y-39350834D01*
X39757386Y-39324378D01*
X39780169Y-39293777D01*
X39866667Y-39202093D01*
X39954174Y-39104174D01*
X39985253Y-39076399D01*
X40015587Y-39044248D01*
X40108041Y-38966669D01*
X40200834Y-38883745D01*
X40239906Y-38856021D01*
X40278382Y-38823737D01*
X40374574Y-38760469D01*
X40470608Y-38692331D01*
X40517991Y-38666143D01*
X40565000Y-38635225D01*
X40662845Y-38586085D01*
X40760126Y-38532320D01*
X40815904Y-38509215D01*
X40871565Y-38481262D01*
X40969058Y-38445777D01*
X41065739Y-38405731D01*
X41129762Y-38387286D01*
X41193930Y-38363931D01*
X41289220Y-38341346D01*
X41383608Y-38314154D01*
X41455479Y-38301942D01*
X41527738Y-38284817D01*
X41619178Y-38274129D01*
X41709730Y-38258744D01*
X41788799Y-38254303D01*
X41868473Y-38244991D01*
X41954618Y-38244991D01*
X42039999Y-38240196D01*
X42125377Y-38244991D01*
X42211527Y-38244991D01*
X42291209Y-38254304D01*
X42455956Y-38263557D01*
X42504966Y-38061088D01*
X42465775Y-38043638D01*
X42414587Y-38025727D01*
X42387934Y-38008980D01*
X42365340Y-37998920D01*
X42323211Y-37968311D01*
X42272383Y-37936374D01*
X42254130Y-37918121D01*
X42238614Y-37906848D01*
X42200250Y-37864241D01*
X42153626Y-37817617D01*
X42142902Y-37800550D01*
X42133795Y-37790436D01*
X42102640Y-37736474D01*
X42064273Y-37675413D01*
X42059481Y-37661720D01*
X42055469Y-37654770D01*
X42034916Y-37591517D01*
X42008804Y-37516891D01*
X42007813Y-37508104D01*
X42007062Y-37505790D01*
X42000241Y-37440893D01*
X41990000Y-37350000D01*
X42000240Y-37259114D01*
X42007062Y-37194209D01*
X42007814Y-37191894D01*
X42008804Y-37183109D01*
X42034912Y-37108495D01*
X42055469Y-37045229D01*
X42059482Y-37038277D01*
X42064273Y-37024587D01*
X42102633Y-36963536D01*
X42133795Y-36909563D01*
X42142904Y-36899445D01*
X42153626Y-36882383D01*
X42200239Y-36835769D01*
X42238611Y-36793154D01*
X42254130Y-36781878D01*
X42272383Y-36763626D01*
X42323213Y-36731687D01*
X42365346Y-36701076D01*
X42387940Y-36691016D01*
X42414587Y-36674273D01*
X42465774Y-36656361D01*
X42508446Y-36637363D01*
X42538057Y-36631069D01*
X42573109Y-36618804D01*
X42621314Y-36613372D01*
X42661679Y-36604793D01*
X42697461Y-36604793D01*
X42740000Y-36600000D01*
X42782539Y-36604793D01*
G37*
G36*
X47206043Y-40603191D02*
G01*
X47238727Y-40607494D01*
X47246948Y-40611327D01*
X47266537Y-40615224D01*
X47292480Y-40632559D01*
X47303608Y-40637748D01*
X47310378Y-40644518D01*
X47331421Y-40658579D01*
X47345481Y-40679621D01*
X47352251Y-40686391D01*
X47357438Y-40697516D01*
X47374776Y-40723463D01*
X47378672Y-40743053D01*
X47382505Y-40751272D01*
X47386806Y-40783945D01*
X47390000Y-40800000D01*
X47390000Y-42300000D01*
X47386805Y-42316058D01*
X47382505Y-42348727D01*
X47378673Y-42356944D01*
X47374776Y-42376537D01*
X47357437Y-42402485D01*
X47352251Y-42413608D01*
X47345483Y-42420375D01*
X47331421Y-42441421D01*
X47310375Y-42455483D01*
X47303608Y-42462251D01*
X47292485Y-42467437D01*
X47266537Y-42484776D01*
X47246944Y-42488673D01*
X47238727Y-42492505D01*
X47206056Y-42496806D01*
X47190000Y-42500000D01*
X45690000Y-42500000D01*
X45673943Y-42496806D01*
X45641272Y-42492505D01*
X45633053Y-42488672D01*
X45613463Y-42484776D01*
X45587516Y-42467438D01*
X45576391Y-42462251D01*
X45569621Y-42455481D01*
X45548579Y-42441421D01*
X45534518Y-42420378D01*
X45527748Y-42413608D01*
X45522559Y-42402480D01*
X45505224Y-42376537D01*
X45501327Y-42356948D01*
X45497494Y-42348727D01*
X45493190Y-42316041D01*
X45490000Y-42300000D01*
X45490000Y-40800000D01*
X45493190Y-40783958D01*
X45497494Y-40751272D01*
X45501327Y-40743049D01*
X45505224Y-40723463D01*
X45522557Y-40697521D01*
X45527748Y-40686391D01*
X45534520Y-40679618D01*
X45548579Y-40658579D01*
X45569618Y-40644520D01*
X45576391Y-40637748D01*
X45587521Y-40632557D01*
X45613463Y-40615224D01*
X45633049Y-40611327D01*
X45641272Y-40607494D01*
X45673960Y-40603190D01*
X45690000Y-40600000D01*
X47190000Y-40600000D01*
X47206043Y-40603191D01*
G37*
G36*
X52006043Y-40603191D02*
G01*
X52038727Y-40607494D01*
X52046948Y-40611327D01*
X52066537Y-40615224D01*
X52092480Y-40632559D01*
X52103608Y-40637748D01*
X52110378Y-40644518D01*
X52131421Y-40658579D01*
X52145481Y-40679621D01*
X52152251Y-40686391D01*
X52157438Y-40697516D01*
X52174776Y-40723463D01*
X52178672Y-40743053D01*
X52182505Y-40751272D01*
X52186806Y-40783945D01*
X52190000Y-40800000D01*
X52190000Y-42300000D01*
X52186805Y-42316058D01*
X52182505Y-42348727D01*
X52178673Y-42356944D01*
X52174776Y-42376537D01*
X52157437Y-42402485D01*
X52152251Y-42413608D01*
X52145483Y-42420375D01*
X52131421Y-42441421D01*
X52110375Y-42455483D01*
X52103608Y-42462251D01*
X52092485Y-42467437D01*
X52066537Y-42484776D01*
X52046944Y-42488673D01*
X52038727Y-42492505D01*
X52006056Y-42496806D01*
X51990000Y-42500000D01*
X50490000Y-42500000D01*
X50473943Y-42496806D01*
X50441272Y-42492505D01*
X50433053Y-42488672D01*
X50413463Y-42484776D01*
X50387516Y-42467438D01*
X50376391Y-42462251D01*
X50369621Y-42455481D01*
X50348579Y-42441421D01*
X50334518Y-42420378D01*
X50327748Y-42413608D01*
X50322559Y-42402480D01*
X50305224Y-42376537D01*
X50301327Y-42356948D01*
X50297494Y-42348727D01*
X50293190Y-42316041D01*
X50290000Y-42300000D01*
X50290000Y-40800000D01*
X50293190Y-40783958D01*
X50297494Y-40751272D01*
X50301327Y-40743049D01*
X50305224Y-40723463D01*
X50322557Y-40697521D01*
X50327748Y-40686391D01*
X50334520Y-40679618D01*
X50348579Y-40658579D01*
X50369618Y-40644520D01*
X50376391Y-40637748D01*
X50387521Y-40632557D01*
X50413463Y-40615224D01*
X50433049Y-40611327D01*
X50441272Y-40607494D01*
X50473960Y-40603190D01*
X50490000Y-40600000D01*
X51990000Y-40600000D01*
X52006043Y-40603191D01*
G37*
G36*
X9203199Y-23330142D02*
G01*
X9329978Y-23382655D01*
X9444075Y-23458893D01*
X9541107Y-23555925D01*
X9617345Y-23670022D01*
X9669858Y-23796801D01*
X9696629Y-23931388D01*
X9697835Y-29683302D01*
X9729584Y-29738277D01*
X9738893Y-29742133D01*
X9746194Y-29749434D01*
X9751532Y-29752516D01*
X9797485Y-29798469D01*
X9800566Y-29803806D01*
X9807867Y-29811107D01*
X9815701Y-29830022D01*
X9829972Y-29854739D01*
X9837357Y-29882304D01*
X9845196Y-29901227D01*
X9845224Y-29911664D01*
X9846821Y-29917622D01*
X9849992Y-31646031D01*
X9849989Y-31646073D01*
X9850000Y-31650000D01*
X9849198Y-31658136D01*
X9847865Y-31678483D01*
X9846804Y-31682439D01*
X9845196Y-31698773D01*
X9837357Y-31717696D01*
X9829972Y-31745260D01*
X9815703Y-31769974D01*
X9807867Y-31788893D01*
X9800565Y-31796194D01*
X9797485Y-31801530D01*
X9751535Y-31847480D01*
X9746200Y-31850559D01*
X9738893Y-31857867D01*
X9730073Y-31861520D01*
X9698304Y-31916557D01*
X9700000Y-40000000D01*
X9696629Y-40068612D01*
X9669858Y-40203199D01*
X9617345Y-40329978D01*
X9541107Y-40444075D01*
X9444075Y-40541107D01*
X9329978Y-40617345D01*
X9203199Y-40669858D01*
X9068612Y-40696629D01*
X8931388Y-40696629D01*
X8796801Y-40669858D01*
X8670022Y-40617345D01*
X8555925Y-40541107D01*
X8458893Y-40444075D01*
X8382655Y-40329978D01*
X8330142Y-40203199D01*
X8303371Y-40068612D01*
X8301672Y-31972329D01*
X8228588Y-31899396D01*
X7903968Y-31899992D01*
X7903925Y-31899989D01*
X7900000Y-31900000D01*
X7891865Y-31899198D01*
X7871516Y-31897865D01*
X7867558Y-31896804D01*
X7851227Y-31895196D01*
X7832305Y-31887358D01*
X7804739Y-31879972D01*
X7780022Y-31865701D01*
X7761107Y-31857867D01*
X7753806Y-31850566D01*
X7748469Y-31847485D01*
X7702514Y-31801530D01*
X7699432Y-31796192D01*
X7692133Y-31788893D01*
X7684299Y-31769980D01*
X7670027Y-31745260D01*
X7662640Y-31717690D01*
X7654804Y-31698773D01*
X7654775Y-31688338D01*
X7653178Y-31682377D01*
X7650007Y-29953968D01*
X7650010Y-29953910D01*
X7650000Y-29950000D01*
X7650798Y-29941895D01*
X7652134Y-29921516D01*
X7653195Y-29917552D01*
X7654804Y-29901227D01*
X7662638Y-29882312D01*
X7670027Y-29854739D01*
X7684300Y-29830015D01*
X7692133Y-29811107D01*
X7699430Y-29803809D01*
X7702514Y-29798469D01*
X7748469Y-29752514D01*
X7753809Y-29749430D01*
X7761107Y-29742133D01*
X7780015Y-29734300D01*
X7804739Y-29720027D01*
X7832310Y-29712639D01*
X7851227Y-29704804D01*
X7861660Y-29704775D01*
X7867622Y-29703178D01*
X8228326Y-29702516D01*
X8301181Y-29629509D01*
X8300001Y-24006624D01*
X8300000Y-24003045D01*
X8300000Y-24003032D01*
X8300000Y-24000000D01*
X8303371Y-23931388D01*
X8330142Y-23796801D01*
X8382655Y-23670022D01*
X8458893Y-23555925D01*
X8555925Y-23458893D01*
X8670022Y-23382655D01*
X8796801Y-23330142D01*
X8931388Y-23303371D01*
X9068612Y-23303371D01*
X9203199Y-23330142D01*
G37*
G36*
X48086218Y-40258193D02*
G01*
X48116919Y-40264300D01*
X48133575Y-40275429D01*
X48139536Y-40277599D01*
X48150146Y-40286502D01*
X48182128Y-40307872D01*
X48190441Y-40320313D01*
X48192499Y-40322040D01*
X48198244Y-40331991D01*
X48225700Y-40373081D01*
X48241000Y-40450000D01*
X48225700Y-40526919D01*
X48198240Y-40568014D01*
X48192499Y-40577959D01*
X48190442Y-40579684D01*
X48182128Y-40592128D01*
X48150141Y-40613501D01*
X48139536Y-40622400D01*
X48133578Y-40624568D01*
X48116919Y-40635700D01*
X48086217Y-40641806D01*
X48074568Y-40646047D01*
X48064901Y-40646047D01*
X48040000Y-40651000D01*
X48015099Y-40646047D01*
X48005432Y-40646047D01*
X47993782Y-40641806D01*
X47963081Y-40635700D01*
X47946422Y-40624569D01*
X47940463Y-40622400D01*
X47929854Y-40613498D01*
X47897872Y-40592128D01*
X47889558Y-40579686D01*
X47887500Y-40577959D01*
X47881752Y-40568003D01*
X47854300Y-40526919D01*
X47839000Y-40450000D01*
X47854300Y-40373081D01*
X47881750Y-40331998D01*
X47887501Y-40322039D01*
X47889560Y-40320310D01*
X47897872Y-40307872D01*
X47929847Y-40286506D01*
X47940464Y-40277598D01*
X47946428Y-40275427D01*
X47963081Y-40264300D01*
X47993769Y-40258195D01*
X48039996Y-40241370D01*
X48086218Y-40258193D01*
G37*
G36*
X49486218Y-40258193D02*
G01*
X49516919Y-40264300D01*
X49533575Y-40275429D01*
X49539536Y-40277599D01*
X49550146Y-40286502D01*
X49582128Y-40307872D01*
X49590441Y-40320313D01*
X49592499Y-40322040D01*
X49598244Y-40331991D01*
X49625700Y-40373081D01*
X49641000Y-40450000D01*
X49625700Y-40526919D01*
X49598240Y-40568014D01*
X49592499Y-40577959D01*
X49590442Y-40579684D01*
X49582128Y-40592128D01*
X49550141Y-40613501D01*
X49539536Y-40622400D01*
X49533578Y-40624568D01*
X49516919Y-40635700D01*
X49486217Y-40641806D01*
X49474568Y-40646047D01*
X49464901Y-40646047D01*
X49440000Y-40651000D01*
X49415099Y-40646047D01*
X49405432Y-40646047D01*
X49393782Y-40641806D01*
X49363081Y-40635700D01*
X49346422Y-40624569D01*
X49340463Y-40622400D01*
X49329854Y-40613498D01*
X49297872Y-40592128D01*
X49289558Y-40579686D01*
X49287500Y-40577959D01*
X49281752Y-40568003D01*
X49254300Y-40526919D01*
X49239000Y-40450000D01*
X49254300Y-40373081D01*
X49281750Y-40331998D01*
X49287501Y-40322039D01*
X49289560Y-40320310D01*
X49297872Y-40307872D01*
X49329847Y-40286506D01*
X49340464Y-40277598D01*
X49346428Y-40275427D01*
X49363081Y-40264300D01*
X49393769Y-40258195D01*
X49439996Y-40241370D01*
X49486218Y-40258193D01*
G37*
G36*
X59956218Y-40158193D02*
G01*
X59986919Y-40164300D01*
X60003575Y-40175429D01*
X60009536Y-40177599D01*
X60020146Y-40186502D01*
X60052128Y-40207872D01*
X60060441Y-40220313D01*
X60062499Y-40222040D01*
X60068244Y-40231991D01*
X60095700Y-40273081D01*
X60111000Y-40350000D01*
X60095700Y-40426919D01*
X60068240Y-40468014D01*
X60062499Y-40477959D01*
X60060442Y-40479684D01*
X60052128Y-40492128D01*
X60020141Y-40513501D01*
X60009536Y-40522400D01*
X60003578Y-40524568D01*
X59986919Y-40535700D01*
X59956217Y-40541806D01*
X59944568Y-40546047D01*
X59934901Y-40546047D01*
X59910000Y-40551000D01*
X59885099Y-40546047D01*
X59875432Y-40546047D01*
X59863782Y-40541806D01*
X59833081Y-40535700D01*
X59816422Y-40524569D01*
X59810463Y-40522400D01*
X59799854Y-40513498D01*
X59767872Y-40492128D01*
X59759558Y-40479686D01*
X59757500Y-40477959D01*
X59751752Y-40468003D01*
X59724300Y-40426919D01*
X59709000Y-40350000D01*
X59724300Y-40273081D01*
X59751750Y-40231998D01*
X59757501Y-40222039D01*
X59759560Y-40220310D01*
X59767872Y-40207872D01*
X59799847Y-40186506D01*
X59810464Y-40177598D01*
X59816428Y-40175427D01*
X59833081Y-40164300D01*
X59863769Y-40158195D01*
X59909996Y-40141370D01*
X59956218Y-40158193D01*
G37*
G36*
X61356218Y-40158193D02*
G01*
X61386919Y-40164300D01*
X61403575Y-40175429D01*
X61409536Y-40177599D01*
X61420146Y-40186502D01*
X61452128Y-40207872D01*
X61460441Y-40220313D01*
X61462499Y-40222040D01*
X61468244Y-40231991D01*
X61495700Y-40273081D01*
X61511000Y-40350000D01*
X61495700Y-40426919D01*
X61468240Y-40468014D01*
X61462499Y-40477959D01*
X61460442Y-40479684D01*
X61452128Y-40492128D01*
X61420141Y-40513501D01*
X61409536Y-40522400D01*
X61403578Y-40524568D01*
X61386919Y-40535700D01*
X61356217Y-40541806D01*
X61344568Y-40546047D01*
X61334901Y-40546047D01*
X61310000Y-40551000D01*
X61285099Y-40546047D01*
X61275432Y-40546047D01*
X61263782Y-40541806D01*
X61233081Y-40535700D01*
X61216422Y-40524569D01*
X61210463Y-40522400D01*
X61199854Y-40513498D01*
X61167872Y-40492128D01*
X61159558Y-40479686D01*
X61157500Y-40477959D01*
X61151752Y-40468003D01*
X61124300Y-40426919D01*
X61109000Y-40350000D01*
X61124300Y-40273081D01*
X61151750Y-40231998D01*
X61157501Y-40222039D01*
X61159560Y-40220310D01*
X61167872Y-40207872D01*
X61199847Y-40186506D01*
X61210464Y-40177598D01*
X61216428Y-40175427D01*
X61233081Y-40164300D01*
X61263769Y-40158195D01*
X61309996Y-40141370D01*
X61356218Y-40158193D01*
G37*
G36*
X48086218Y-39658193D02*
G01*
X48116919Y-39664300D01*
X48133575Y-39675429D01*
X48139536Y-39677599D01*
X48150146Y-39686502D01*
X48182128Y-39707872D01*
X48190441Y-39720313D01*
X48192499Y-39722040D01*
X48198244Y-39731991D01*
X48225700Y-39773081D01*
X48241000Y-39850000D01*
X48225700Y-39926919D01*
X48198240Y-39968014D01*
X48192499Y-39977959D01*
X48190442Y-39979684D01*
X48182128Y-39992128D01*
X48150141Y-40013501D01*
X48139536Y-40022400D01*
X48133578Y-40024568D01*
X48116919Y-40035700D01*
X48086211Y-40041808D01*
X48039998Y-40058628D01*
X47993782Y-40041806D01*
X47963081Y-40035700D01*
X47946422Y-40024569D01*
X47940463Y-40022400D01*
X47929854Y-40013498D01*
X47897872Y-39992128D01*
X47889558Y-39979686D01*
X47887500Y-39977959D01*
X47881752Y-39968003D01*
X47854300Y-39926919D01*
X47839000Y-39850000D01*
X47854300Y-39773081D01*
X47881750Y-39731998D01*
X47887501Y-39722039D01*
X47889560Y-39720310D01*
X47897872Y-39707872D01*
X47929847Y-39686506D01*
X47940464Y-39677598D01*
X47946428Y-39675427D01*
X47963081Y-39664300D01*
X47993769Y-39658195D01*
X48039996Y-39641370D01*
X48086218Y-39658193D01*
G37*
G36*
X49486218Y-39658193D02*
G01*
X49516919Y-39664300D01*
X49533575Y-39675429D01*
X49539536Y-39677599D01*
X49550146Y-39686502D01*
X49582128Y-39707872D01*
X49590441Y-39720313D01*
X49592499Y-39722040D01*
X49598244Y-39731991D01*
X49625700Y-39773081D01*
X49641000Y-39850000D01*
X49625700Y-39926919D01*
X49598240Y-39968014D01*
X49592499Y-39977959D01*
X49590442Y-39979684D01*
X49582128Y-39992128D01*
X49550141Y-40013501D01*
X49539536Y-40022400D01*
X49533578Y-40024568D01*
X49516919Y-40035700D01*
X49486211Y-40041808D01*
X49439998Y-40058628D01*
X49393782Y-40041806D01*
X49363081Y-40035700D01*
X49346422Y-40024569D01*
X49340463Y-40022400D01*
X49329854Y-40013498D01*
X49297872Y-39992128D01*
X49289558Y-39979686D01*
X49287500Y-39977959D01*
X49281752Y-39968003D01*
X49254300Y-39926919D01*
X49239000Y-39850000D01*
X49254300Y-39773081D01*
X49281750Y-39731998D01*
X49287501Y-39722039D01*
X49289560Y-39720310D01*
X49297872Y-39707872D01*
X49329847Y-39686506D01*
X49340464Y-39677598D01*
X49346428Y-39675427D01*
X49363081Y-39664300D01*
X49393769Y-39658195D01*
X49439996Y-39641370D01*
X49486218Y-39658193D01*
G37*
G36*
X59956218Y-39558193D02*
G01*
X59986919Y-39564300D01*
X60003575Y-39575429D01*
X60009536Y-39577599D01*
X60020146Y-39586502D01*
X60052128Y-39607872D01*
X60060441Y-39620313D01*
X60062499Y-39622040D01*
X60068244Y-39631991D01*
X60095700Y-39673081D01*
X60111000Y-39750000D01*
X60095700Y-39826919D01*
X60068240Y-39868014D01*
X60062499Y-39877959D01*
X60060442Y-39879684D01*
X60052128Y-39892128D01*
X60020141Y-39913501D01*
X60009536Y-39922400D01*
X60003578Y-39924568D01*
X59986919Y-39935700D01*
X59956211Y-39941808D01*
X59909998Y-39958628D01*
X59863782Y-39941806D01*
X59833081Y-39935700D01*
X59816422Y-39924569D01*
X59810463Y-39922400D01*
X59799854Y-39913498D01*
X59767872Y-39892128D01*
X59759558Y-39879686D01*
X59757500Y-39877959D01*
X59751752Y-39868003D01*
X59724300Y-39826919D01*
X59709000Y-39750000D01*
X59724300Y-39673081D01*
X59751750Y-39631998D01*
X59757501Y-39622039D01*
X59759560Y-39620310D01*
X59767872Y-39607872D01*
X59799847Y-39586506D01*
X59810464Y-39577598D01*
X59816428Y-39575427D01*
X59833081Y-39564300D01*
X59863769Y-39558195D01*
X59909996Y-39541370D01*
X59956218Y-39558193D01*
G37*
G36*
X61356218Y-39558193D02*
G01*
X61386919Y-39564300D01*
X61403575Y-39575429D01*
X61409536Y-39577599D01*
X61420146Y-39586502D01*
X61452128Y-39607872D01*
X61460441Y-39620313D01*
X61462499Y-39622040D01*
X61468244Y-39631991D01*
X61495700Y-39673081D01*
X61511000Y-39750000D01*
X61495700Y-39826919D01*
X61468240Y-39868014D01*
X61462499Y-39877959D01*
X61460442Y-39879684D01*
X61452128Y-39892128D01*
X61420141Y-39913501D01*
X61409536Y-39922400D01*
X61403578Y-39924568D01*
X61386919Y-39935700D01*
X61356211Y-39941808D01*
X61309998Y-39958628D01*
X61263782Y-39941806D01*
X61233081Y-39935700D01*
X61216422Y-39924569D01*
X61210463Y-39922400D01*
X61199854Y-39913498D01*
X61167872Y-39892128D01*
X61159558Y-39879686D01*
X61157500Y-39877959D01*
X61151752Y-39868003D01*
X61124300Y-39826919D01*
X61109000Y-39750000D01*
X61124300Y-39673081D01*
X61151750Y-39631998D01*
X61157501Y-39622039D01*
X61159560Y-39620310D01*
X61167872Y-39607872D01*
X61199847Y-39586506D01*
X61210464Y-39577598D01*
X61216428Y-39575427D01*
X61233081Y-39564300D01*
X61263769Y-39558195D01*
X61309996Y-39541370D01*
X61356218Y-39558193D01*
G37*
G36*
X48064901Y-39053953D02*
G01*
X48074568Y-39053953D01*
X48086218Y-39058193D01*
X48116919Y-39064300D01*
X48133575Y-39075429D01*
X48139536Y-39077599D01*
X48150146Y-39086502D01*
X48182128Y-39107872D01*
X48190441Y-39120313D01*
X48192499Y-39122040D01*
X48198244Y-39131991D01*
X48225700Y-39173081D01*
X48241000Y-39250000D01*
X48225700Y-39326919D01*
X48198240Y-39368014D01*
X48192499Y-39377959D01*
X48190442Y-39379684D01*
X48182128Y-39392128D01*
X48150141Y-39413501D01*
X48139536Y-39422400D01*
X48133578Y-39424568D01*
X48116919Y-39435700D01*
X48086211Y-39441808D01*
X48039998Y-39458628D01*
X47993782Y-39441806D01*
X47963081Y-39435700D01*
X47946422Y-39424569D01*
X47940463Y-39422400D01*
X47929854Y-39413498D01*
X47897872Y-39392128D01*
X47889558Y-39379686D01*
X47887500Y-39377959D01*
X47881752Y-39368003D01*
X47854300Y-39326919D01*
X47839000Y-39250000D01*
X47854300Y-39173081D01*
X47881750Y-39131998D01*
X47887501Y-39122039D01*
X47889560Y-39120310D01*
X47897872Y-39107872D01*
X47929848Y-39086505D01*
X47940462Y-39077600D01*
X47946423Y-39075430D01*
X47963081Y-39064300D01*
X47993783Y-39058192D01*
X48005433Y-39053953D01*
X48015099Y-39053953D01*
X48040000Y-39049000D01*
X48064901Y-39053953D01*
G37*
G36*
X49464901Y-39053953D02*
G01*
X49474568Y-39053953D01*
X49486218Y-39058193D01*
X49516919Y-39064300D01*
X49533575Y-39075429D01*
X49539536Y-39077599D01*
X49550146Y-39086502D01*
X49582128Y-39107872D01*
X49590441Y-39120313D01*
X49592499Y-39122040D01*
X49598244Y-39131991D01*
X49625700Y-39173081D01*
X49641000Y-39250000D01*
X49625700Y-39326919D01*
X49598240Y-39368014D01*
X49592499Y-39377959D01*
X49590442Y-39379684D01*
X49582128Y-39392128D01*
X49550141Y-39413501D01*
X49539536Y-39422400D01*
X49533578Y-39424568D01*
X49516919Y-39435700D01*
X49486211Y-39441808D01*
X49439998Y-39458628D01*
X49393782Y-39441806D01*
X49363081Y-39435700D01*
X49346422Y-39424569D01*
X49340463Y-39422400D01*
X49329854Y-39413498D01*
X49297872Y-39392128D01*
X49289558Y-39379686D01*
X49287500Y-39377959D01*
X49281752Y-39368003D01*
X49254300Y-39326919D01*
X49239000Y-39250000D01*
X49254300Y-39173081D01*
X49281750Y-39131998D01*
X49287501Y-39122039D01*
X49289560Y-39120310D01*
X49297872Y-39107872D01*
X49329848Y-39086505D01*
X49340462Y-39077600D01*
X49346423Y-39075430D01*
X49363081Y-39064300D01*
X49393783Y-39058192D01*
X49405433Y-39053953D01*
X49415099Y-39053953D01*
X49440000Y-39049000D01*
X49464901Y-39053953D01*
G37*
G36*
X59934901Y-38953953D02*
G01*
X59944568Y-38953953D01*
X59956218Y-38958193D01*
X59986919Y-38964300D01*
X60003575Y-38975429D01*
X60009536Y-38977599D01*
X60020146Y-38986502D01*
X60052128Y-39007872D01*
X60060441Y-39020313D01*
X60062499Y-39022040D01*
X60068244Y-39031991D01*
X60095700Y-39073081D01*
X60111000Y-39150000D01*
X60095700Y-39226919D01*
X60068240Y-39268014D01*
X60062499Y-39277959D01*
X60060442Y-39279684D01*
X60052128Y-39292128D01*
X60020141Y-39313501D01*
X60009536Y-39322400D01*
X60003578Y-39324568D01*
X59986919Y-39335700D01*
X59956211Y-39341808D01*
X59909998Y-39358628D01*
X59863782Y-39341806D01*
X59833081Y-39335700D01*
X59816422Y-39324569D01*
X59810463Y-39322400D01*
X59799854Y-39313498D01*
X59767872Y-39292128D01*
X59759558Y-39279686D01*
X59757500Y-39277959D01*
X59751752Y-39268003D01*
X59724300Y-39226919D01*
X59709000Y-39150000D01*
X59724300Y-39073081D01*
X59751750Y-39031998D01*
X59757501Y-39022039D01*
X59759560Y-39020310D01*
X59767872Y-39007872D01*
X59799848Y-38986505D01*
X59810462Y-38977600D01*
X59816423Y-38975430D01*
X59833081Y-38964300D01*
X59863783Y-38958192D01*
X59875433Y-38953953D01*
X59885099Y-38953953D01*
X59910000Y-38949000D01*
X59934901Y-38953953D01*
G37*
G36*
X61334901Y-38953953D02*
G01*
X61344568Y-38953953D01*
X61356218Y-38958193D01*
X61386919Y-38964300D01*
X61403575Y-38975429D01*
X61409536Y-38977599D01*
X61420146Y-38986502D01*
X61452128Y-39007872D01*
X61460441Y-39020313D01*
X61462499Y-39022040D01*
X61468244Y-39031991D01*
X61495700Y-39073081D01*
X61511000Y-39150000D01*
X61495700Y-39226919D01*
X61468240Y-39268014D01*
X61462499Y-39277959D01*
X61460442Y-39279684D01*
X61452128Y-39292128D01*
X61420141Y-39313501D01*
X61409536Y-39322400D01*
X61403578Y-39324568D01*
X61386919Y-39335700D01*
X61356211Y-39341808D01*
X61309998Y-39358628D01*
X61263782Y-39341806D01*
X61233081Y-39335700D01*
X61216422Y-39324569D01*
X61210463Y-39322400D01*
X61199854Y-39313498D01*
X61167872Y-39292128D01*
X61159558Y-39279686D01*
X61157500Y-39277959D01*
X61151752Y-39268003D01*
X61124300Y-39226919D01*
X61109000Y-39150000D01*
X61124300Y-39073081D01*
X61151750Y-39031998D01*
X61157501Y-39022039D01*
X61159560Y-39020310D01*
X61167872Y-39007872D01*
X61199848Y-38986505D01*
X61210462Y-38977600D01*
X61216423Y-38975430D01*
X61233081Y-38964300D01*
X61263783Y-38958192D01*
X61275433Y-38953953D01*
X61285099Y-38953953D01*
X61310000Y-38949000D01*
X61334901Y-38953953D01*
G37*
G36*
X47206043Y-36503191D02*
G01*
X47238727Y-36507494D01*
X47246948Y-36511327D01*
X47266537Y-36515224D01*
X47292480Y-36532559D01*
X47303608Y-36537748D01*
X47310378Y-36544518D01*
X47331421Y-36558579D01*
X47345481Y-36579621D01*
X47352251Y-36586391D01*
X47357438Y-36597516D01*
X47374776Y-36623463D01*
X47378672Y-36643053D01*
X47382505Y-36651272D01*
X47386806Y-36683945D01*
X47390000Y-36700000D01*
X47390000Y-38200000D01*
X47386805Y-38216058D01*
X47382505Y-38248727D01*
X47378673Y-38256944D01*
X47374776Y-38276537D01*
X47357437Y-38302485D01*
X47352251Y-38313608D01*
X47345483Y-38320375D01*
X47331421Y-38341421D01*
X47310375Y-38355483D01*
X47303608Y-38362251D01*
X47292485Y-38367437D01*
X47266537Y-38384776D01*
X47246944Y-38388673D01*
X47238727Y-38392505D01*
X47206056Y-38396806D01*
X47190000Y-38400000D01*
X45690000Y-38400000D01*
X45673943Y-38396806D01*
X45641272Y-38392505D01*
X45633053Y-38388672D01*
X45613463Y-38384776D01*
X45587516Y-38367438D01*
X45576391Y-38362251D01*
X45569621Y-38355481D01*
X45548579Y-38341421D01*
X45534518Y-38320378D01*
X45527748Y-38313608D01*
X45522559Y-38302480D01*
X45505224Y-38276537D01*
X45501327Y-38256948D01*
X45497494Y-38248727D01*
X45493190Y-38216041D01*
X45490000Y-38200000D01*
X45490000Y-36700000D01*
X45493190Y-36683958D01*
X45497494Y-36651272D01*
X45501327Y-36643049D01*
X45505224Y-36623463D01*
X45522557Y-36597521D01*
X45527748Y-36586391D01*
X45534520Y-36579618D01*
X45548579Y-36558579D01*
X45569618Y-36544520D01*
X45576391Y-36537748D01*
X45587521Y-36532557D01*
X45613463Y-36515224D01*
X45633049Y-36511327D01*
X45641272Y-36507494D01*
X45673960Y-36503190D01*
X45690000Y-36500000D01*
X47190000Y-36500000D01*
X47206043Y-36503191D01*
G37*
G36*
X52106043Y-36503191D02*
G01*
X52138727Y-36507494D01*
X52146948Y-36511327D01*
X52166537Y-36515224D01*
X52192480Y-36532559D01*
X52203608Y-36537748D01*
X52210378Y-36544518D01*
X52231421Y-36558579D01*
X52245481Y-36579621D01*
X52252251Y-36586391D01*
X52257438Y-36597516D01*
X52274776Y-36623463D01*
X52278672Y-36643053D01*
X52282505Y-36651272D01*
X52286806Y-36683945D01*
X52290000Y-36700000D01*
X52290000Y-38200000D01*
X52286805Y-38216058D01*
X52282505Y-38248727D01*
X52278673Y-38256944D01*
X52274776Y-38276537D01*
X52257437Y-38302485D01*
X52252251Y-38313608D01*
X52245483Y-38320375D01*
X52231421Y-38341421D01*
X52210375Y-38355483D01*
X52203608Y-38362251D01*
X52192485Y-38367437D01*
X52166537Y-38384776D01*
X52146944Y-38388673D01*
X52138727Y-38392505D01*
X52106056Y-38396806D01*
X52090000Y-38400000D01*
X50590000Y-38400000D01*
X50573943Y-38396806D01*
X50541272Y-38392505D01*
X50533053Y-38388672D01*
X50513463Y-38384776D01*
X50487516Y-38367438D01*
X50476391Y-38362251D01*
X50469621Y-38355481D01*
X50448579Y-38341421D01*
X50434518Y-38320378D01*
X50427748Y-38313608D01*
X50422559Y-38302480D01*
X50405224Y-38276537D01*
X50401327Y-38256948D01*
X50397494Y-38248727D01*
X50393190Y-38216041D01*
X50390000Y-38200000D01*
X50390000Y-36700000D01*
X50393190Y-36683958D01*
X50397494Y-36651272D01*
X50401327Y-36643049D01*
X50405224Y-36623463D01*
X50422557Y-36597521D01*
X50427748Y-36586391D01*
X50434520Y-36579618D01*
X50448579Y-36558579D01*
X50469618Y-36544520D01*
X50476391Y-36537748D01*
X50487521Y-36532557D01*
X50513463Y-36515224D01*
X50533049Y-36511327D01*
X50541272Y-36507494D01*
X50573960Y-36503190D01*
X50590000Y-36500000D01*
X52090000Y-36500000D01*
X52106043Y-36503191D01*
G37*
G36*
X55149786Y-34650480D02*
G01*
X55215996Y-34653082D01*
X55221956Y-34654026D01*
X55238017Y-34654815D01*
X55281320Y-34663428D01*
X55373355Y-34678006D01*
X55402956Y-34687623D01*
X55430285Y-34693060D01*
X55468846Y-34709032D01*
X55522532Y-34726476D01*
X55572828Y-34752103D01*
X55611397Y-34768079D01*
X55634567Y-34783560D01*
X55662301Y-34797692D01*
X55737696Y-34852470D01*
X55774393Y-34876990D01*
X55782224Y-34884821D01*
X55789191Y-34889883D01*
X55900116Y-35000808D01*
X55905177Y-35007774D01*
X55913010Y-35015607D01*
X55937532Y-35052308D01*
X55992307Y-35127698D01*
X56006437Y-35155429D01*
X56021921Y-35178603D01*
X56037898Y-35217176D01*
X56063523Y-35267467D01*
X56080964Y-35321145D01*
X56096940Y-35359715D01*
X56102377Y-35387049D01*
X56111993Y-35416644D01*
X56126567Y-35508661D01*
X56135185Y-35551983D01*
X56135185Y-35563066D01*
X56136532Y-35571571D01*
X56136532Y-35728428D01*
X56135185Y-35736932D01*
X56135185Y-35748017D01*
X56126567Y-35791341D01*
X56111993Y-35883355D01*
X56102377Y-35912948D01*
X56096940Y-35940285D01*
X56080962Y-35978858D01*
X56063523Y-36032532D01*
X56037900Y-36082818D01*
X56021921Y-36121397D01*
X56006434Y-36144573D01*
X55992307Y-36172301D01*
X55937541Y-36247679D01*
X55913010Y-36284393D01*
X55905174Y-36292228D01*
X55900116Y-36299191D01*
X55789191Y-36410116D01*
X55782228Y-36415174D01*
X55774393Y-36423010D01*
X55737679Y-36447541D01*
X55662301Y-36502307D01*
X55634573Y-36516434D01*
X55611397Y-36531921D01*
X55572818Y-36547900D01*
X55522532Y-36573523D01*
X55468855Y-36590963D01*
X55430285Y-36606940D01*
X55402952Y-36612376D01*
X55373354Y-36621994D01*
X55281350Y-36636565D01*
X55238017Y-36645185D01*
X55226536Y-36645246D01*
X55174153Y-36653543D01*
X55135157Y-36815971D01*
X55156798Y-36831694D01*
X55207617Y-36863626D01*
X55225867Y-36881876D01*
X55241387Y-36893152D01*
X55279755Y-36935764D01*
X55326374Y-36982383D01*
X55337097Y-36999449D01*
X55346204Y-37009563D01*
X55377353Y-37063516D01*
X55415727Y-37124587D01*
X55420518Y-37138281D01*
X55424530Y-37145229D01*
X55445073Y-37208455D01*
X55471196Y-37283109D01*
X55472186Y-37291898D01*
X55472937Y-37294209D01*
X55479744Y-37358982D01*
X55490000Y-37450000D01*
X55479743Y-37541025D01*
X55472937Y-37605790D01*
X55472186Y-37608099D01*
X55471196Y-37616891D01*
X55445069Y-37691557D01*
X55424530Y-37754770D01*
X55420519Y-37761715D01*
X55415727Y-37775413D01*
X55377346Y-37836494D01*
X55346204Y-37890436D01*
X55337099Y-37900547D01*
X55326374Y-37917617D01*
X55279739Y-37964251D01*
X55241385Y-38006848D01*
X55225872Y-38018118D01*
X55207617Y-38036374D01*
X55156783Y-38068315D01*
X55114658Y-38098921D01*
X55092066Y-38108979D01*
X55065413Y-38125727D01*
X55014210Y-38143643D01*
X54971553Y-38162636D01*
X54941949Y-38168928D01*
X54906891Y-38181196D01*
X54858682Y-38186627D01*
X54818321Y-38195207D01*
X54782539Y-38195207D01*
X54740000Y-38200000D01*
X54697461Y-38195207D01*
X54661679Y-38195207D01*
X54621317Y-38186627D01*
X54573109Y-38181196D01*
X54538051Y-38168928D01*
X54508446Y-38162636D01*
X54465784Y-38143641D01*
X54414587Y-38125727D01*
X54387936Y-38108981D01*
X54365341Y-38098921D01*
X54323209Y-38068310D01*
X54272383Y-38036374D01*
X54254130Y-38018121D01*
X54238614Y-38006848D01*
X54200250Y-37964241D01*
X54153626Y-37917617D01*
X54142902Y-37900550D01*
X54133795Y-37890436D01*
X54102640Y-37836474D01*
X54064273Y-37775413D01*
X54059481Y-37761720D01*
X54055469Y-37754770D01*
X54034916Y-37691517D01*
X54008804Y-37616891D01*
X54007813Y-37608104D01*
X54007062Y-37605790D01*
X54000241Y-37540893D01*
X53990000Y-37450000D01*
X54000240Y-37359114D01*
X54007062Y-37294209D01*
X54007814Y-37291894D01*
X54008804Y-37283109D01*
X54034912Y-37208495D01*
X54055469Y-37145229D01*
X54059482Y-37138277D01*
X54064273Y-37124587D01*
X54102633Y-37063536D01*
X54133795Y-37009563D01*
X54142904Y-36999445D01*
X54153626Y-36982383D01*
X54200235Y-36935773D01*
X54238613Y-36893151D01*
X54254137Y-36881871D01*
X54272383Y-36863626D01*
X54323185Y-36831704D01*
X54344842Y-36815970D01*
X54305845Y-36653543D01*
X54258058Y-36645974D01*
X54241983Y-36645185D01*
X54198654Y-36636566D01*
X54106645Y-36621994D01*
X54077044Y-36612376D01*
X54049715Y-36606940D01*
X54011148Y-36590965D01*
X53957467Y-36573523D01*
X53907176Y-36547898D01*
X53868603Y-36531921D01*
X53845429Y-36516437D01*
X53817698Y-36502307D01*
X53742308Y-36447532D01*
X53705607Y-36423010D01*
X53697774Y-36415177D01*
X53690808Y-36410116D01*
X53579883Y-36299191D01*
X53574821Y-36292224D01*
X53566990Y-36284393D01*
X53542470Y-36247696D01*
X53487692Y-36172301D01*
X53473560Y-36144567D01*
X53458079Y-36121397D01*
X53442103Y-36082828D01*
X53416476Y-36032532D01*
X53399032Y-35978846D01*
X53383060Y-35940285D01*
X53377623Y-35912956D01*
X53368006Y-35883355D01*
X53353430Y-35791331D01*
X53344815Y-35748017D01*
X53344815Y-35736932D01*
X53343468Y-35728428D01*
X53343468Y-35571571D01*
X53344815Y-35563066D01*
X53344815Y-35551983D01*
X53353430Y-35508671D01*
X53368006Y-35416644D01*
X53377624Y-35387041D01*
X53383060Y-35359715D01*
X53399031Y-35321156D01*
X53416476Y-35267467D01*
X53442105Y-35217165D01*
X53458079Y-35178603D01*
X53473558Y-35155436D01*
X53487692Y-35127698D01*
X53542478Y-35052290D01*
X53566990Y-35015607D01*
X53574818Y-35007778D01*
X53579883Y-35000808D01*
X53690808Y-34889883D01*
X53697778Y-34884818D01*
X53705607Y-34876990D01*
X53742290Y-34852478D01*
X53817698Y-34797692D01*
X53845436Y-34783558D01*
X53868603Y-34768079D01*
X53907165Y-34752105D01*
X53957467Y-34726476D01*
X54011156Y-34709031D01*
X54049715Y-34693060D01*
X54077041Y-34687624D01*
X54106644Y-34678006D01*
X54198681Y-34663428D01*
X54241983Y-34654815D01*
X54253450Y-34654753D01*
X54261813Y-34653429D01*
X55137779Y-34650009D01*
X55137844Y-34650011D01*
X55140000Y-34650000D01*
X55149786Y-34650480D01*
G37*
G36*
X55199798Y-32230481D02*
G01*
X55265996Y-32233082D01*
X55271956Y-32234026D01*
X55288017Y-32234815D01*
X55331320Y-32243428D01*
X55423355Y-32258006D01*
X55452956Y-32267623D01*
X55480285Y-32273060D01*
X55518846Y-32289032D01*
X55572532Y-32306476D01*
X55622828Y-32332103D01*
X55661397Y-32348079D01*
X55684567Y-32363560D01*
X55712301Y-32377692D01*
X55787696Y-32432470D01*
X55824393Y-32456990D01*
X55832224Y-32464821D01*
X55839191Y-32469883D01*
X55950116Y-32580808D01*
X55955177Y-32587774D01*
X55963010Y-32595607D01*
X55987532Y-32632308D01*
X56042307Y-32707698D01*
X56056437Y-32735429D01*
X56071921Y-32758603D01*
X56087898Y-32797176D01*
X56113523Y-32847467D01*
X56130964Y-32901145D01*
X56146940Y-32939715D01*
X56152377Y-32967049D01*
X56161993Y-32996644D01*
X56176567Y-33088661D01*
X56185185Y-33131983D01*
X56185185Y-33143066D01*
X56186532Y-33151571D01*
X56186532Y-33308428D01*
X56185185Y-33316932D01*
X56185185Y-33328017D01*
X56176567Y-33371341D01*
X56161993Y-33463355D01*
X56152377Y-33492948D01*
X56146940Y-33520285D01*
X56130962Y-33558858D01*
X56113523Y-33612532D01*
X56087900Y-33662818D01*
X56071921Y-33701397D01*
X56056434Y-33724573D01*
X56042307Y-33752301D01*
X55987541Y-33827679D01*
X55963010Y-33864393D01*
X55955174Y-33872228D01*
X55950116Y-33879191D01*
X55839191Y-33990116D01*
X55832228Y-33995174D01*
X55824393Y-34003010D01*
X55787679Y-34027541D01*
X55712301Y-34082307D01*
X55684573Y-34096434D01*
X55661397Y-34111921D01*
X55622818Y-34127900D01*
X55572532Y-34153523D01*
X55518858Y-34170962D01*
X55480285Y-34186940D01*
X55452948Y-34192377D01*
X55423355Y-34201993D01*
X55331352Y-34216565D01*
X55288017Y-34225185D01*
X55276579Y-34225240D01*
X55268209Y-34226566D01*
X54292249Y-34229991D01*
X54292207Y-34229989D01*
X54290000Y-34230000D01*
X54280103Y-34229513D01*
X54214003Y-34226917D01*
X54208051Y-34225974D01*
X54191983Y-34225185D01*
X54148658Y-34216567D01*
X54056644Y-34201993D01*
X54027049Y-34192377D01*
X53999715Y-34186940D01*
X53961145Y-34170964D01*
X53907467Y-34153523D01*
X53857176Y-34127898D01*
X53818603Y-34111921D01*
X53795429Y-34096437D01*
X53767698Y-34082307D01*
X53692308Y-34027532D01*
X53655607Y-34003010D01*
X53647774Y-33995177D01*
X53640808Y-33990116D01*
X53529883Y-33879191D01*
X53524821Y-33872224D01*
X53516990Y-33864393D01*
X53492470Y-33827696D01*
X53437692Y-33752301D01*
X53423560Y-33724567D01*
X53408079Y-33701397D01*
X53392103Y-33662828D01*
X53366476Y-33612532D01*
X53349032Y-33558846D01*
X53333060Y-33520285D01*
X53327623Y-33492956D01*
X53318006Y-33463355D01*
X53303430Y-33371331D01*
X53294815Y-33328017D01*
X53294815Y-33316932D01*
X53293468Y-33308428D01*
X53293468Y-33151571D01*
X53294815Y-33143066D01*
X53294815Y-33131983D01*
X53303430Y-33088671D01*
X53318006Y-32996644D01*
X53327624Y-32967041D01*
X53333060Y-32939715D01*
X53349031Y-32901156D01*
X53366476Y-32847467D01*
X53392105Y-32797165D01*
X53408079Y-32758603D01*
X53423558Y-32735436D01*
X53437692Y-32707698D01*
X53492478Y-32632290D01*
X53516990Y-32595607D01*
X53524818Y-32587778D01*
X53529883Y-32580808D01*
X53640808Y-32469883D01*
X53647778Y-32464818D01*
X53655607Y-32456990D01*
X53692290Y-32432478D01*
X53767698Y-32377692D01*
X53795436Y-32363558D01*
X53818603Y-32348079D01*
X53857165Y-32332105D01*
X53907467Y-32306476D01*
X53961156Y-32289031D01*
X53999715Y-32273060D01*
X54027041Y-32267624D01*
X54056644Y-32258006D01*
X54148676Y-32243429D01*
X54191983Y-32234815D01*
X54203412Y-32234759D01*
X54211790Y-32233433D01*
X55187750Y-32230008D01*
X55187814Y-32230010D01*
X55190000Y-32230000D01*
X55199798Y-32230481D01*
G37*
G36*
X67170791Y-26905314D02*
G01*
X67514467Y-26980963D01*
X67847949Y-27093326D01*
X68167327Y-27241086D01*
X68468858Y-27422511D01*
X68749005Y-27635473D01*
X69004485Y-27877477D01*
X69232302Y-28145684D01*
X69429786Y-28436950D01*
X69594620Y-28747860D01*
X69724873Y-29074770D01*
X69819017Y-29413846D01*
X69875948Y-29761113D01*
X69895000Y-30112500D01*
X69875948Y-30463887D01*
X69819017Y-30811154D01*
X69724873Y-31150230D01*
X69594620Y-31477140D01*
X69429786Y-31788050D01*
X69232302Y-32079316D01*
X69004485Y-32347523D01*
X68749005Y-32589527D01*
X68468858Y-32802489D01*
X68167327Y-32983914D01*
X67847949Y-33131674D01*
X67514467Y-33244037D01*
X67170791Y-33319686D01*
X66820951Y-33357734D01*
X66469049Y-33357734D01*
X66119209Y-33319686D01*
X65775533Y-33244037D01*
X65442051Y-33131674D01*
X65122673Y-32983914D01*
X64821142Y-32802489D01*
X64540995Y-32589527D01*
X64285515Y-32347523D01*
X64057698Y-32079316D01*
X63860214Y-31788050D01*
X63695380Y-31477140D01*
X63565127Y-31150230D01*
X63470983Y-30811154D01*
X63414052Y-30463887D01*
X63395000Y-30112500D01*
X63414052Y-29761113D01*
X63470983Y-29413846D01*
X63565127Y-29074770D01*
X63695380Y-28747860D01*
X63860214Y-28436950D01*
X64057698Y-28145684D01*
X64285515Y-27877477D01*
X64540995Y-27635473D01*
X64821142Y-27422511D01*
X65122673Y-27241086D01*
X65442051Y-27093326D01*
X65775533Y-26980963D01*
X66119209Y-26905314D01*
X66469049Y-26867266D01*
X66820951Y-26867266D01*
X67170791Y-26905314D01*
G37*
G36*
X55249817Y-23980482D02*
G01*
X55312073Y-23982928D01*
X55317684Y-23983816D01*
X55333116Y-23984575D01*
X55374715Y-23992849D01*
X55461683Y-24006624D01*
X55489653Y-24015712D01*
X55515770Y-24020907D01*
X55552625Y-24036173D01*
X55603398Y-24052670D01*
X55650959Y-24076903D01*
X55687827Y-24092175D01*
X55709978Y-24106976D01*
X55736171Y-24120322D01*
X55807375Y-24172054D01*
X55842674Y-24195640D01*
X55850206Y-24203172D01*
X55856723Y-24207907D01*
X55962092Y-24313276D01*
X55966826Y-24319792D01*
X55974360Y-24327326D01*
X55997948Y-24362629D01*
X56049677Y-24433828D01*
X56063021Y-24460018D01*
X56077825Y-24482173D01*
X56093098Y-24519045D01*
X56117329Y-24566601D01*
X56133823Y-24617366D01*
X56149093Y-24654230D01*
X56154289Y-24680352D01*
X56163375Y-24708316D01*
X56177147Y-24795268D01*
X56185425Y-24836884D01*
X56185425Y-24847531D01*
X56186686Y-24855493D01*
X56186686Y-25004506D01*
X56185425Y-25012467D01*
X56185425Y-25023116D01*
X56177146Y-25064735D01*
X56163375Y-25151683D01*
X56154289Y-25179645D01*
X56149093Y-25205770D01*
X56133822Y-25242637D01*
X56117329Y-25293398D01*
X56093100Y-25340948D01*
X56077825Y-25377827D01*
X56063019Y-25399984D01*
X56049677Y-25426171D01*
X55997957Y-25497358D01*
X55974360Y-25532674D01*
X55966823Y-25540210D01*
X55962092Y-25546723D01*
X55856723Y-25652092D01*
X55850210Y-25656823D01*
X55842674Y-25664360D01*
X55807358Y-25687957D01*
X55736171Y-25739677D01*
X55709984Y-25753019D01*
X55687827Y-25767825D01*
X55650948Y-25783100D01*
X55603398Y-25807329D01*
X55552637Y-25823822D01*
X55515770Y-25839093D01*
X55489645Y-25844289D01*
X55461683Y-25853375D01*
X55374743Y-25867144D01*
X55333116Y-25875425D01*
X55322174Y-25875470D01*
X55314313Y-25876716D01*
X54242282Y-25879992D01*
X54242246Y-25879990D01*
X54240000Y-25880000D01*
X54230084Y-25879512D01*
X54167926Y-25877071D01*
X54162322Y-25876183D01*
X54146884Y-25875425D01*
X54105263Y-25867146D01*
X54018316Y-25853375D01*
X53990352Y-25844289D01*
X53964230Y-25839093D01*
X53927366Y-25823823D01*
X53876601Y-25807329D01*
X53829045Y-25783098D01*
X53792173Y-25767825D01*
X53770018Y-25753021D01*
X53743828Y-25739677D01*
X53672629Y-25687948D01*
X53637326Y-25664360D01*
X53629792Y-25656826D01*
X53623276Y-25652092D01*
X53517907Y-25546723D01*
X53513172Y-25540206D01*
X53505640Y-25532674D01*
X53482054Y-25497375D01*
X53430322Y-25426171D01*
X53416976Y-25399978D01*
X53402175Y-25377827D01*
X53386903Y-25340959D01*
X53362670Y-25293398D01*
X53346173Y-25242625D01*
X53330907Y-25205770D01*
X53325712Y-25179653D01*
X53316624Y-25151683D01*
X53302851Y-25064725D01*
X53294575Y-25023116D01*
X53294575Y-25012467D01*
X53293314Y-25004506D01*
X53293314Y-24855493D01*
X53294575Y-24847531D01*
X53294575Y-24836884D01*
X53302850Y-24795278D01*
X53316624Y-24708316D01*
X53325712Y-24680344D01*
X53330907Y-24654230D01*
X53346171Y-24617377D01*
X53362670Y-24566601D01*
X53386906Y-24519035D01*
X53402175Y-24482173D01*
X53416973Y-24460024D01*
X53430322Y-24433828D01*
X53482062Y-24362612D01*
X53505640Y-24327326D01*
X53513170Y-24319795D01*
X53517907Y-24313276D01*
X53623276Y-24207907D01*
X53629795Y-24203170D01*
X53637326Y-24195640D01*
X53672612Y-24172062D01*
X53743828Y-24120322D01*
X53770024Y-24106973D01*
X53792173Y-24092175D01*
X53829035Y-24076906D01*
X53876601Y-24052670D01*
X53927377Y-24036171D01*
X53964230Y-24020907D01*
X53990344Y-24015712D01*
X54018316Y-24006624D01*
X54105284Y-23992849D01*
X54146884Y-23984575D01*
X54157817Y-23984529D01*
X54165686Y-23983283D01*
X55237717Y-23980007D01*
X55237775Y-23980009D01*
X55240000Y-23980000D01*
X55249817Y-23980482D01*
G37*
M02*
