M48
; DRILL file {KiCad 8.0.3} date 2024-07-16T15:40:11-0300
; FORMAT={-:-/ absolute / inch / decimal}
; #@! TF.CreationDate,2024-07-16T15:40:11-03:00
; #@! TF.GenerationSoftware,Kicad,Pcbnew,8.0.3
; #@! TF.FileFunction,Plated,1,2,PTH
FMAT,2
INCH
; #@! TA.AperFunction,Plated,PTH,ViaDrill
T1C0.0157
; #@! TA.AperFunction,Plated,PTH,ComponentDrill
T2C0.0157
; #@! TA.AperFunction,Plated,PTH,ComponentDrill
T3C0.0197
; #@! TA.AperFunction,Plated,PTH,ViaDrill
T4C0.0236
; #@! TA.AperFunction,Plated,PTH,ComponentDrill
T5C0.0236
; #@! TA.AperFunction,Plated,PTH,ComponentDrill
T6C0.0315
; #@! TA.AperFunction,Plated,PTH,ComponentDrill
T7C0.0394
; #@! TA.AperFunction,Plated,PTH,ComponentDrill
T8C0.0591
; #@! TA.AperFunction,Plated,PTH,ComponentDrill
T9C0.1260
%
G90
G05
T1
X1.3795Y-3.5886
X1.3795Y-3.6161
X1.3795Y-3.6437
X1.3795Y-3.6713
X1.3795Y-3.6988
X1.4071Y-3.5886
X1.4071Y-3.6161
X1.4071Y-3.6437
X1.4071Y-3.6713
X1.4071Y-3.6988
X1.4189Y-1.5335
X1.4189Y-1.5571
X1.4189Y-1.5807
X1.4189Y-1.6043
X1.4189Y-1.628
X1.4189Y-1.6516
X1.4189Y-1.6752
X1.4189Y-1.6988
X1.4189Y-1.7224
X1.4268Y-2.5374
X1.4268Y-2.561
X1.4504Y-2.5374
X1.4504Y-2.561
X1.4514Y-2.8435
X1.4583Y-1.5335
X1.4583Y-1.5571
X1.4583Y-1.5807
X1.4583Y-1.6043
X1.4583Y-1.628
X1.4583Y-1.6516
X1.4583Y-1.6752
X1.4583Y-1.6988
X1.4583Y-1.7224
X1.4583Y-1.7461
X1.4661Y-1.7697
X1.474Y-1.7933
X1.474Y-2.5374
X1.474Y-2.561
X1.474Y-2.5846
X1.474Y-2.6083
X1.4744Y-2.2642
X1.4768Y-4.3819
X1.4819Y-1.8169
X1.4976Y-2.5374
X1.4976Y-2.561
X1.5213Y-2.5374
X1.5213Y-2.561
X1.537Y-1.4803
X1.537Y-1.5039
X1.537Y-1.5276
X1.537Y-1.5512
X1.5606Y-1.4803
X1.5606Y-1.5039
X1.5646Y-2.0098
X1.5732Y-4.3815
X1.5843Y-1.4803
X1.5862Y-2.8004
X1.5882Y-1.9862
X1.663Y-4.3169
X1.6906Y-3.8917
X1.6906Y-3.9232
X1.6906Y-3.9547
X1.6906Y-3.9862
X1.6906Y-4.0177
X1.6906Y-4.0492
X1.6906Y-4.0807
X1.6906Y-4.1122
X1.6906Y-4.1437
X1.6906Y-4.2894
X1.6906Y-4.3169
X1.6906Y-4.3445
X1.6925Y-2.7618
X1.7181Y-2.1949
X1.7181Y-2.2185
X1.7181Y-2.2421
X1.7181Y-2.2657
X1.7181Y-2.2894
X1.7181Y-2.7618
X1.7181Y-2.7874
X1.7396Y-2.1357
X1.7417Y-2.1949
X1.7417Y-2.2185
X1.7417Y-2.2421
X1.7417Y-2.2657
X1.7417Y-2.2894
X1.7437Y-2.7618
X1.7437Y-2.7106
X1.7437Y-2.7362
X1.7437Y-2.7874
X1.7452Y-2.0488
X1.7465Y-2.0173
X1.7496Y-2.6614
X1.7496Y-2.687
X1.7575Y-3.439
X1.7654Y-2.2185
X1.7654Y-2.2421
X1.7654Y-2.2657
X1.7654Y-2.2894
X1.7693Y-2.7362
X1.7693Y-2.7618
X1.7693Y-2.7874
X1.7693Y-2.7106
X1.7732Y-2.687
X1.7752Y-2.6614
X1.7811Y-3.4154
X1.7811Y-3.439
X1.7882Y-2.0571
X1.789Y-2.2185
X1.789Y-2.2421
X1.789Y-2.2657
X1.789Y-2.2894
X1.7929Y-1.7224
X1.7949Y-2.7106
X1.7949Y-2.7362
X1.7949Y-2.7618
X1.7949Y-2.7874
X1.7988Y-2.687
X1.8008Y-2.6614
X1.8047Y-3.3209
X1.8047Y-3.3445
X1.8047Y-3.3681
X1.8047Y-3.3917
X1.8047Y-3.4154
X1.8047Y-3.439
X1.8087Y-2.2185
X1.8087Y-2.2421
X1.8087Y-2.2657
X1.8087Y-2.2894
X1.8118Y-2.0819
X1.8173Y-1.9272
X1.8283Y-3.3445
X1.8283Y-3.3209
X1.8283Y-3.3917
X1.8283Y-3.4154
X1.8283Y-3.439
X1.8283Y-3.3681
X1.8441Y-1.8051
X1.852Y-3.4154
X1.852Y-3.439
X1.9878Y-1.7008
X1.9976Y-1.5413
X2.0252Y-4.3917
X2.0291Y-1.8878
X2.0291Y-1.9429
X2.0291Y-2.002
X2.0291Y-2.061
X2.0291Y-2.1201
X2.0291Y-2.1791
X2.0291Y-2.2382
X2.0291Y-2.2972
X2.0291Y-2.3563
X2.0291Y-2.4154
X2.0291Y-2.4744
X2.0291Y-3.6083
X2.0291Y-4.4508
X2.0567Y-1.372
X2.1669Y-4.5531
X2.2063Y-4.6555
X2.2417Y-4.5295
X2.2498Y-4.4991
X2.289Y-3.5453
X2.3126Y-4.4626
X2.3126Y-4.5492
T2
X1.5571Y-2.1166
X1.5571Y-2.1866
X1.6271Y-2.1166
X1.6271Y-2.1866
T3
X1.5685Y-1.6217
X1.5941Y-1.5606
X1.5941Y-1.6827
X1.6551Y-1.535
X1.6551Y-1.7083
X1.7161Y-1.5606
X1.7161Y-1.6827
X1.7417Y-1.6217
T4
X1.5724Y-3.6634
X1.6437Y-3.5748
X1.6437Y-3.6142
X1.6441Y-3.5354
T6
X1.6827Y-1.4705
X1.8205Y-4.5453
X1.8283Y-1.4744
X1.8283Y-1.6358
X2.0173Y-1.6358
X2.0173Y-4.5453
X2.0213Y-1.4744
X2.1551Y-1.4744
T7
X1.3807Y-3.8098
X1.3807Y-3.9098
X1.3807Y-4.0098
X1.3807Y-4.1098
X1.3807Y-4.2098
X1.3937Y-3.5217
X1.4807Y-3.8098
X1.4807Y-3.9098
X1.4807Y-4.0098
X1.4807Y-4.1098
X1.4807Y-4.2098
X1.4937Y-3.5217
X2.0094Y-4.626
X2.0094Y-4.726
T8
X1.5921Y-2.1516
T9
X1.6551Y-1.6217
T3
G00X2.1354Y-0.9815
M15
G01X2.1748Y-0.9815
M16
G05
G00X2.1748Y-5.1484
M15
G01X2.1354Y-5.1484
M16
G05
T5
G00X1.3516Y-4.4366
M15
G01X1.3516Y-4.4799
M16
G05
G00X1.3516Y-4.6079
M15
G01X1.3516Y-4.6394
M16
G05
G00X1.4Y-3.0713
M15
G01X1.3685Y-3.0713
M16
G05
G00X1.4Y-3.4114
M15
G01X1.3685Y-3.4114
M16
G05
G00X1.5713Y-3.0713
M15
G01X1.528Y-3.0713
M16
G05
G00X1.5713Y-3.4114
M15
G01X1.528Y-3.4114
M16
G05
G00X1.6917Y-4.4366
M15
G01X1.6917Y-4.4799
M16
G05
G00X1.6917Y-4.6079
M15
G01X1.6917Y-4.6394
M16
G05
G00X2.1374Y-1.3083
M15
G01X2.1728Y-1.3083
M16
G05
G00X2.1413Y-1.4035
M15
G01X2.1689Y-1.4035
M16
G05
G00X2.1689Y-4.7264
M15
G01X2.1413Y-4.7264
M16
G05
G00X2.1728Y-4.8217
M15
G01X2.1374Y-4.8217
M16
G05
M30
