%TF.GenerationSoftware,KiCad,Pcbnew,8.0.3*%
%TF.CreationDate,2024-07-16T16:01:19-03:00*%
%TF.ProjectId,IPS2,49505332-2e6b-4696-9361-645f70636258,rev?*%
%TF.SameCoordinates,Original*%
%TF.FileFunction,Profile,NP*%
%FSLAX46Y46*%
G04 Gerber Fmt 4.6, Leading zero omitted, Abs format (unit mm)*
G04 Created by KiCad (PCBNEW 8.0.3) date 2024-07-16 16:01:19*
%MOMM*%
%LPD*%
G01*
G04 APERTURE LIST*
%TA.AperFunction,Profile*%
%ADD10C,0.200000*%
%TD*%
%TA.AperFunction,Profile*%
%ADD11C,0.050000*%
%TD*%
G04 APERTURE END LIST*
D10*
X33740000Y-118850000D02*
X33740000Y-36350000D01*
X43740000Y-118850000D02*
X33740000Y-118850000D01*
X49740000Y-118850000D02*
X49740000Y-131850000D01*
X33740000Y-36350000D02*
X43740000Y-36350000D01*
X43740000Y-37250000D02*
X43740000Y-36350000D01*
X45440000Y-37250000D02*
G75*
G02*
X44940000Y-37750000I-500000J0D01*
G01*
X44240000Y-37750000D02*
X44940000Y-37750000D01*
X45440000Y-37250000D02*
X45440000Y-36350000D01*
X45440000Y-36350000D02*
X47740000Y-36350000D01*
X47740000Y-38350000D02*
X47740000Y-36350000D01*
X43740000Y-118850000D02*
G75*
G02*
X44240000Y-118350000I500000J0D01*
G01*
X49240000Y-118350000D02*
G75*
G02*
X49740000Y-118850000I0J-500000D01*
G01*
X52640000Y-118550000D02*
G75*
G02*
X52140000Y-118050000I0J500000D01*
G01*
X53940000Y-118050000D02*
G75*
G02*
X53440000Y-118550000I-500000J0D01*
G01*
X53440000Y-114350000D02*
G75*
G02*
X53940000Y-114850000I0J-500000D01*
G01*
X52140000Y-114850000D02*
G75*
G02*
X52640000Y-114350000I500000J0D01*
G01*
X52140000Y-114850000D02*
X52140000Y-118050000D01*
X53940000Y-114850000D02*
X53940000Y-118050000D01*
X52640000Y-114350000D02*
X53440000Y-114350000D01*
X52640000Y-118550000D02*
X53440000Y-118550000D01*
X48240000Y-116350000D02*
G75*
G02*
X47740000Y-115850000I0J500000D01*
G01*
X49740000Y-115850000D02*
G75*
G02*
X49240000Y-116350000I-500000J0D01*
G01*
X48240000Y-116350000D02*
X49240000Y-116350000D01*
X49740000Y-115850000D02*
X49740000Y-85350000D01*
X47740000Y-115850000D02*
X47740000Y-115350000D01*
X44240000Y-114550000D02*
X46940000Y-114550000D01*
X44240000Y-114550000D02*
G75*
G02*
X43740000Y-114050000I0J500000D01*
G01*
X43740000Y-114050000D02*
X43740000Y-88950000D01*
X43740000Y-88950000D02*
G75*
G02*
X44240000Y-88450000I500000J0D01*
G01*
X45340000Y-89450000D02*
X46440000Y-89450000D01*
X47740000Y-85350000D02*
X47740000Y-88150000D01*
X47740000Y-85350000D02*
G75*
G02*
X48240000Y-84850000I500000J0D01*
G01*
X49240000Y-84850000D02*
G75*
G02*
X49740000Y-85350000I0J-500000D01*
G01*
X48240000Y-84850000D02*
X49240000Y-84850000D01*
X49740000Y-23850000D02*
X49740000Y-38350000D01*
X49240000Y-38850000D02*
X48240000Y-38850000D01*
X49740000Y-38350000D02*
G75*
G02*
X49240000Y-38850000I-500000J0D01*
G01*
X48240000Y-38850000D02*
G75*
G02*
X47740000Y-38350000I0J500000D01*
G01*
X47740000Y-41350000D02*
G75*
G02*
X48240000Y-40850000I500000J0D01*
G01*
X49240000Y-40850000D02*
G75*
G02*
X49740000Y-41350000I0J-500000D01*
G01*
X48240000Y-40850000D02*
X49240000Y-40850000D01*
X47740000Y-68350000D02*
G75*
G02*
X48240000Y-67850000I500000J0D01*
G01*
X49240000Y-67850000D02*
G75*
G02*
X49740000Y-68350000I0J-500000D01*
G01*
X48240000Y-67850000D02*
X49240000Y-67850000D01*
X49740000Y-65350000D02*
G75*
G02*
X49240000Y-65850000I-500000J0D01*
G01*
X48240000Y-65850000D02*
G75*
G02*
X47740000Y-65350000I0J500000D01*
G01*
X49240000Y-65850000D02*
X48240000Y-65850000D01*
X49740000Y-82350000D02*
G75*
G02*
X49240000Y-82850000I-500000J0D01*
G01*
X48240000Y-82850000D02*
G75*
G02*
X47740000Y-82350000I0J500000D01*
G01*
X49240000Y-82850000D02*
X48240000Y-82850000D01*
X49740000Y-68350000D02*
X49740000Y-82350000D01*
X47740000Y-68350000D02*
X47740000Y-82350000D01*
X47740000Y-65350000D02*
X47740000Y-41350000D01*
X49740000Y-65350000D02*
X49740000Y-41350000D01*
X59760000Y-65750000D02*
X59760000Y-40750000D01*
X56140000Y-38250000D02*
X53740000Y-38250000D01*
X52240000Y-38050000D02*
G75*
G02*
X52740000Y-37550000I500000J0D01*
G01*
X52240000Y-88850000D02*
X52240000Y-38050000D01*
X53540000Y-110850000D02*
X53540000Y-91850000D01*
X54040000Y-111350000D02*
G75*
G02*
X53540000Y-110850000I0J500000D01*
G01*
X59740000Y-111350000D02*
X54040000Y-111350000D01*
X59745000Y-118250000D02*
X59740000Y-131850000D01*
X49240000Y-118350000D02*
X44240000Y-118350000D01*
X46940000Y-114550000D02*
G75*
G02*
X47740000Y-115350000I0J-800000D01*
G01*
X53240000Y-37550000D02*
G75*
G02*
X53740000Y-38050000I0J-500000D01*
G01*
X52740000Y-37550000D02*
X53240000Y-37550000D01*
X53740000Y-38050000D02*
X53740000Y-38250000D01*
X52740000Y-89350000D02*
G75*
G02*
X52240000Y-88850000I0J500000D01*
G01*
X52740000Y-89350000D02*
X56140000Y-89350000D01*
X56140000Y-38250000D02*
G75*
G02*
X56640000Y-38750000I0J-500000D01*
G01*
X56640000Y-38750000D02*
X56640000Y-88850000D01*
X56640000Y-88850000D02*
G75*
G02*
X56140000Y-89350000I-500000J0D01*
G01*
X59740000Y-90850000D02*
G75*
G02*
X59240000Y-91350000I-500000J0D01*
G01*
X53540000Y-91850000D02*
G75*
G02*
X54040000Y-91350000I500000J0D01*
G01*
X59240000Y-91350000D02*
X54040000Y-91350000D01*
X44840000Y-88450000D02*
G75*
G02*
X45340000Y-88950000I0J-500000D01*
G01*
X44240000Y-88450000D02*
X44840000Y-88450000D01*
X45340000Y-89450000D02*
X45340000Y-88950000D01*
X47740000Y-88150000D02*
G75*
G02*
X46440000Y-89450000I-1300000J0D01*
G01*
X61740000Y-82250000D02*
G75*
G02*
X61240000Y-82750000I-500000J0D01*
G01*
X61240000Y-84750000D02*
G75*
G02*
X61740000Y-85250000I0J-500000D01*
G01*
X61240000Y-82750000D02*
X59730000Y-82750000D01*
X59745000Y-118250000D02*
X61235000Y-118250000D01*
X44240000Y-37750000D02*
G75*
G02*
X43740000Y-37250000I0J500000D01*
G01*
X68920761Y-82330000D02*
X68920761Y-85400000D01*
X68920761Y-85400000D02*
G75*
G02*
X67620761Y-86699961I-1299961J0D01*
G01*
X61740000Y-115750000D02*
X61740000Y-85250000D01*
D11*
X69240000Y-14890000D02*
X67240000Y-14890000D01*
D10*
X59750000Y-38750000D02*
X59740000Y-23850000D01*
X71500000Y-142000000D02*
X71550000Y-13500000D01*
X61740000Y-13500000D02*
X61740000Y-38250000D01*
X59760000Y-40750000D02*
X61240000Y-40750000D01*
X61740000Y-65250000D02*
G75*
G02*
X61240000Y-65750000I-500000J0D01*
G01*
X65120761Y-79244247D02*
G75*
G02*
X66420761Y-77944261I1300039J-53D01*
G01*
X61740000Y-68250000D02*
X61740000Y-82250000D01*
X65120761Y-82330000D02*
X65120761Y-79244247D01*
X59740000Y-111350000D02*
X59740000Y-116240000D01*
X61740000Y-118750000D02*
X61740000Y-142000000D01*
X61740000Y-65250000D02*
X61740000Y-41250000D01*
X61240000Y-38750000D02*
X59750000Y-38750000D01*
X49740000Y-23850000D02*
X59740000Y-23850000D01*
X61740000Y-115750000D02*
G75*
G02*
X61240000Y-116250000I-500000J0D01*
G01*
D11*
X67240000Y-18090000D02*
G75*
G02*
X67240000Y-14890000I0J1600000D01*
G01*
X69240000Y-14890000D02*
G75*
G02*
X69240000Y-18090000I0J-1600000D01*
G01*
D10*
X59760000Y-67750000D02*
X61240000Y-67750000D01*
X59740000Y-84750000D02*
X59740000Y-90850000D01*
X68920761Y-82330000D02*
X68920761Y-79244247D01*
X61240000Y-65750000D02*
X59760000Y-65750000D01*
D11*
X69240000Y-137390000D02*
X67240000Y-137390000D01*
D10*
X65120761Y-82330000D02*
X65120761Y-85400000D01*
X59740000Y-84750000D02*
X61240000Y-84750000D01*
D11*
X69240000Y-137390000D02*
G75*
G02*
X69240000Y-140590000I0J-1600000D01*
G01*
D10*
X67620761Y-77944247D02*
G75*
G02*
X68920753Y-79244247I39J-1299953D01*
G01*
X66420761Y-77950000D02*
X67620761Y-77950000D01*
D11*
X67240000Y-140590000D02*
G75*
G02*
X67240000Y-137390000I0J1600000D01*
G01*
D10*
X61240000Y-118250000D02*
G75*
G02*
X61740000Y-118750000I0J-500000D01*
G01*
X59760000Y-67750000D02*
X59730000Y-82750000D01*
X66420761Y-86700000D02*
X67620761Y-86700000D01*
D11*
X67240000Y-140590000D02*
X69240000Y-140590000D01*
X67240000Y-18090000D02*
X69240000Y-18090000D01*
D10*
X59740000Y-131850000D02*
X49740000Y-131850000D01*
X66420761Y-86700000D02*
G75*
G02*
X65120800Y-85400000I39J1300000D01*
G01*
X61240000Y-40750000D02*
G75*
G02*
X61740000Y-41250000I0J-500000D01*
G01*
X61240000Y-67750000D02*
G75*
G02*
X61740000Y-68250000I0J-500000D01*
G01*
X61740000Y-38250000D02*
G75*
G02*
X61240000Y-38750000I-500000J0D01*
G01*
X71500000Y-142000000D02*
X61740000Y-142000000D01*
X59740000Y-116240000D02*
X61240000Y-116250000D01*
X61740000Y-13500000D02*
X71550000Y-13500000D01*
M02*
